<svg width="100%" height="100%" viewBox="0 0 1500 100" xmlns="http://www.w3.org/2000/svg">
  <rect vector-effect="non-scaling-stroke" x="0" y="0" width="100" height="100"
  style="fill:#fefced;stroke:#2d2ff5;stroke-width:2;"/>
  <rect vector-effect="non-scaling-stroke" x="100" y="0" width="100" height="100"
  style="fill:#fefced;stroke:#2d2ff5;stroke-width:2;"/>
  <rect vector-effect="non-scaling-stroke" x="200" y="0" width="100" height="100"
  style="fill:#fefced;stroke:#2d2ff5;stroke-width:2;"/>
  <rect vector-effect="non-scaling-stroke" x="300" y="0" width="100" height="100"
  style="fill:#fefced;stroke:#2d2ff5;stroke-width:2;"/>
  <rect vector-effect="non-scaling-stroke" x="400" y="0" width="100" height="100"
  style="fill:#fefced;stroke:#2d2ff5;stroke-width:2;"/>
  <rect vector-effect="non-scaling-stroke" x="500" y="0" width="100" height="100"
  style="fill:#fefced;stroke:#2d2ff5;stroke-width:2;"/>
  <rect vector-effect="non-scaling-stroke" x="600" y="0" width="100" height="100"
  style="fill:#fefced;stroke:#2d2ff5;stroke-width:2;"/>
  <rect vector-effect="non-scaling-stroke" x="700" y="0" width="100" height="100"
  style="fill:#fefced;stroke:#2d2ff5;stroke-width:2;"/>
  <rect vector-effect="non-scaling-stroke" x="800" y="0" width="100" height="100"
  style="fill:#fefced;stroke:#2d2ff5;stroke-width:2;"/>
  <rect vector-effect="non-scaling-stroke" x="900" y="0" width="100" height="100"
  style="fill:#fefced;stroke:#2d2ff5;stroke-width:2;"/>
  <rect vector-effect="non-scaling-stroke" x="1000" y="0" width="100" height="100"
  style="fill:#fefced;stroke:#2d2ff5;stroke-width:2;"/>
  <rect vector-effect="non-scaling-stroke" x="1100" y="0" width="100" height="100"
  style="fill:#fefced;stroke:#2d2ff5;stroke-width:2;"/>
  <rect vector-effect="non-scaling-stroke" x="1200" y="0" width="100" height="100"
  style="fill:#fefced;stroke:#2d2ff5;stroke-width:2;"/>
  <rect vector-effect="non-scaling-stroke" x="1300" y="0" width="100" height="100"
  style="fill:#fefced;stroke:#2d2ff5;stroke-width:2;"/>
  <rect vector-effect="non-scaling-stroke" x="1400" y="0" width="100" height="100"
  style="fill:#fefced;stroke:#2d2ff5;stroke-width:2;"/>
</svg>