<?xml version="1.0" encoding="utf-8"?>
<!-- Generator: Adobe Illustrator 26.2.1, SVG Export Plug-In . SVG Version: 6.00 Build 0)  -->
<svg version="1.1" id="Layer_1" xmlns="http://www.w3.org/2000/svg" xmlns:xlink="http://www.w3.org/1999/xlink" x="0px" y="0px"
	 viewBox="0 0 1126.2 2436" style="enable-background:new 0 0 1126.2 2436;" xml:space="preserve">
<style type="text/css">
	.st0{fill:#FEFCED;}
	.st1{fill:#2D2FF5;}
	.st2{fill:#FEFCED;stroke:#2D2FF5;stroke-width:1.15;stroke-miterlimit:10;}
	.st3{fill:none;stroke:#2D2FF5;stroke-width:1.15;stroke-miterlimit:10;}
	.st4{fill:#FEFCED;stroke:#2D2FF5;stroke-width:0.58;stroke-miterlimit:10;}
	.st5{fill:#FEFCED;stroke:#2D2FF5;stroke-width:0.7;stroke-miterlimit:10;}
	.st6{fill:#1041F5;}
	.st7{fill:none;stroke:#2D2FF5;stroke-width:3.42;stroke-miterlimit:10;}
	.st8{fill:#808585;}
	.st9{fill:#FFFFFF;}
	.st10{fill:#FEFEFE;}
	.st11{fill:#FEFFFF;}
</style>
<g>
	<g id="a">
		<rect class="st0" width="1126.2" height="2436"/>
		<rect y="290.8" class="st1" width="1126.2" height="2145.2"/>
		<g>
			<g>
				<rect x="92.2" y="1336.9" class="st2" width="940.5" height="940.6"/>
				<line class="st3" x1="876" y1="2277.5" x2="876" y2="1336.9"/>
				<line class="st3" x1="719.3" y1="2277.5" x2="719.3" y2="1336.9"/>
				<line class="st3" x1="562.5" y1="2277.5" x2="562.5" y2="1336.9"/>
				<line class="st3" x1="405.7" y1="2277.5" x2="405.7" y2="1336.9"/>
				<line class="st3" x1="249" y1="2277.5" x2="249" y2="1336.9"/>
				<line class="st3" x1="92.2" y1="1493.7" x2="1032.8" y2="1493.7"/>
				<line class="st3" x1="92.2" y1="1650.5" x2="1032.8" y2="1650.5"/>
				<line class="st3" x1="92.2" y1="1807.2" x2="1032.8" y2="1807.2"/>
				<line class="st3" x1="92.2" y1="1964" x2="1032.8" y2="1964"/>
				<line class="st3" x1="92.2" y1="2120.7" x2="1032.8" y2="2120.7"/>
			</g>
			<g>
				<rect x="92.2" y="396.4" class="st2" width="940.5" height="940.5"/>
				<line class="st3" x1="876" y1="1336.9" x2="876" y2="396.4"/>
				<line class="st3" x1="719.3" y1="1336.9" x2="719.3" y2="396.4"/>
				<line class="st3" x1="562.5" y1="1336.9" x2="562.5" y2="396.4"/>
				<line class="st3" x1="405.7" y1="1336.9" x2="405.7" y2="396.4"/>
				<line class="st3" x1="249" y1="1336.9" x2="249" y2="396.4"/>
				<line class="st3" x1="92.2" y1="553.2" x2="1032.8" y2="553.2"/>
				<line class="st3" x1="92.2" y1="709.9" x2="1032.8" y2="709.9"/>
				<line class="st3" x1="92.2" y1="866.7" x2="1032.8" y2="866.7"/>
				<line class="st3" x1="92.2" y1="1023.4" x2="1032.8" y2="1023.4"/>
				<line class="st3" x1="92.2" y1="1180.2" x2="1032.8" y2="1180.2"/>
			</g>
		</g>
		<g>
			<g>
				<rect x="2.3" y="869.7" class="st0" width="401.4" height="151.3"/>
				<path class="st1" d="M401.4,872v146.7H4.6V872H401.4 M406,867.4H0v155.9h406V867.4L406,867.4z"/>
			</g>
			<polygon class="st1" points="562.3,1179.8 562.3,1020.7 405.3,1179.8 			"/>
			<polygon class="st1" points="405.9,866.9 246.8,866.9 405.9,1023.8 			"/>
			<polygon class="st1" points="875.3,1179.8 717.3,1179.8 559.3,1335.9 875.3,1335.9 			"/>
			<path class="st1" d="M712.7,1184.4v146.9H565.8v-146.9H712.7 M717.3,1179.8H561.2v156.1h156.1L717.3,1179.8L717.3,1179.8z"/>
			<g>
				<polygon class="st0" points="721.5,1646.5 721.5,1338.2 873,1338.2 873,1495 1123.8,1495 1123.8,1646.5 				"/>
				<path class="st1" d="M870.7,1340.5v152.2v4.6h4.6h246.2v146.9H723.8v-303.7H870.7 M875.3,1335.9H719.2v312.9h406.9v-156.1H875.3
					V1335.9L875.3,1335.9L875.3,1335.9z"/>
			</g>
			<path class="st1" d="M557.6,394.7v779.6H410.9V394.7H557.6 M562.2,390.1H406.3v788.8h155.9L562.2,390.1L562.2,390.1z"/>
			<path class="st1" d="M562.1,1028.4L712,1178.9l-150.1,150.5l-150.1-150.5L562.1,1028.4 M562.1,1021.9l-156.7,157l156.6,157
				l156.6-157L562.1,1021.9L562.1,1021.9L562.1,1021.9z"/>
		</g>
		<g id="b">
			<rect x="92.2" y="553.2" class="st4" width="313" height="157.2"/>
			<rect x="249.2" y="1651.5" class="st5" width="470" height="154.2"/>
			<rect x="563.1" y="1807.2" class="st5" width="470" height="154.2"/>
		</g>
		<g>
			<path class="st6" d="M167.8,574.5c14.1,0,25.3,2.4,33.5,7.1c8.2,4.8,12.3,12.3,12.3,22.8c0,6.1-1.6,11.2-4.8,15.3
				s-7.2,7.3-12.1,9.4h14.1v54.8h-14.1v-49.3h-54.3v49.3h-13.8V574.5H167.8L167.8,574.5z M184.8,620.5c4.2-0.8,7.4-2.4,9.8-4.9
				c2.4-2.5,3.5-6.2,3.5-11.2s-1.2-8.5-3.5-11s-5.6-4-9.8-4.8s-9.8-1.1-17-1.1h-25.3v34.1h25.3C174.9,621.7,180.6,621.3,184.8,620.5
				L184.8,620.5z"/>
			<path class="st6" d="M245,659.5c1.2,3.4,3.7,6.2,7.4,8.5c3.8,2.3,9.2,3.4,16.4,3.4s13.2-1.2,17.4-3.7c4.2-2.5,6.7-6.2,7.5-11h14
				c-1.1,8.8-5.2,15.7-12.3,20.5c-7.1,4.8-16,7.2-26.7,7.2c-15.8,0-26.6-4.1-32.2-12.3S228,654.3,228,644c0-15.2,3.5-26.7,10.6-34.3
				s17.1-11.4,30.2-11.4s23.2,4,30.1,12s10.4,20.6,10.4,37.7h-66.1C243.3,652.3,243.9,656.1,245,659.5L245,659.5z M287,617.3
				c-3.7-4.3-9.8-6.5-18.2-6.5s-14.8,2.2-18.7,6.5s-6.2,10.9-6.8,19.8h50C292.8,628.2,290.7,621.6,287,617.3L287,617.3z"/>
			<path class="st6" d="M380.9,634.3v12.8h-60.8v-12.8H380.9z"/>
		</g>
		<g>
			<g>
				<polygon class="st0" points="1052,667.9 1031.7,656 1031.1,461.6 1051.5,473.4 				"/>
				<polygon class="st0" points="524.2,972.6 503.8,960.8 1031.7,656 1052,667.9 				"/>
				<polygon class="st0" points="522.6,975.4 502.2,963.6 501.6,765.4 522,777.2 				"/>
				<polygon class="st0" points="522,777.2 501.6,765.4 1032.7,458.8 1053.1,470.6 				"/>
				<path class="st0" d="M522,777.2l531.1-306.6l0.6,198.2L522.6,975.4L522,777.2L522,777.2z M1052,667.9l-0.6-194.4L523.7,778.2
					l0.6,194.4L1052,667.9"/>
			</g>
			<g>
				<polygon class="st1" points="1051.2,667.4 1030.8,655.6 1030.3,463 1050.7,474.8 				"/>
				<polygon class="st1" points="525,971.2 504.7,959.3 1030.8,655.6 1051.2,667.4 				"/>
				<polygon class="st1" points="523.4,974 503,962.2 502.5,765.8 522.8,777.7 				"/>
				<polygon class="st1" points="522.8,777.7 502.5,765.8 1031.9,460.2 1052.3,472 				"/>
				<path class="st1" d="M522.8,777.7L1052.3,472l0.6,196.3L523.4,974L522.8,777.7L522.8,777.7z M1051.2,667.4l-0.6-192.6
					L524.5,778.6l0.6,192.6L1051.2,667.4"/>
			</g>
			<g>
				<g>
					<path class="st1" d="M1000.8,661.5l-20.4-11.8c20.3-11.7,33.5-28.4,34.8-44l20.4,11.8C1034.2,633,1021,649.7,1000.8,661.5z"/>
					<polygon class="st0" points="1022.1,625.2 1001.8,613.4 1015.2,605.6 1035.6,617.5 					"/>
					<polygon class="st1" points="1035.7,605.9 1015.3,594 1015.3,589.5 1035.7,601.3 					"/>
					<polygon class="st1" points="1019.8,623.5 999.4,611.7 1018,601 1038.4,612.8 					"/>
					<path class="st1" d="M970,667l-20.4-11.8c6.8,3.9,17.3,2.2,30.8-5.6l20.4,11.8C987.3,669.2,976.7,671,970,667z"/>
					<path class="st0" d="M980.7,639.2c11.9-6.8,19.6-16.4,21.1-25.9l20.4,11.8c-1.4,9.4-9.2,19-21.1,25.9c-7.8,4.5-14,5.5-18.1,3.1
						l-20.4-11.8C966.7,644.7,972.9,643.8,980.7,639.2z"/>
					<polygon class="st1" points="1019.7,625 999.3,613.1 999.4,611.7 1019.8,623.5 					"/>
					<path class="st1" d="M984.8,651l-20.4-11.8c3.7,2.1,9.2,1.2,16.2-2.9c11-6.3,18-15,18.6-23.1l20.4,11.8
						c-0.7,8.1-7.6,16.7-18.6,23.1C994,652.2,988.5,653.1,984.8,651z"/>
					<polygon class="st1" points="976.9,639.8 956.5,628 1015.3,594 1035.7,605.9 					"/>
					<polygon class="st0" points="1022.3,606.3 1001.9,594.5 1001.9,591.9 1022.3,603.7 					"/>
					<path class="st1" d="M1007.6,570l20.4,11.8c5,2.9,7.7,9.4,7.7,19.4l-20.4-11.8C1015.2,579.5,1012.6,573,1007.6,570z"/>
					<path class="st0" d="M1001.9,591.9c0-5.2-1.5-8.5-4.2-10.1l20.4,11.8c2.7,1.6,4.2,5,4.2,10.1
						C1016.2,600.2,1008,595.4,1001.9,591.9z"/>
					<path class="st1" d="M995.8,585l20.4,11.8c2.2,1.3,3.3,3.9,3.4,8L999.2,593C999.2,588.9,998,586.2,995.8,585z"/>
					<path class="st0" d="M998.1,568.4c3.7-0.4,6.9,0.1,9.4,1.6l20.4,11.8c-2.6-1.5-5.7-2-9.4-1.6
						C1011.7,576.3,1004.9,572.4,998.1,568.4z"/>
					<path class="st1" d="M982.9,654.2l-20.4-11.8c-3.4-2-5.5-6.3-5.9-12.8l20.4,11.8C977.5,647.9,979.5,652.2,982.9,654.2z"/>
					<polygon class="st1" points="977,641.4 956.6,629.5 956.5,628 976.9,639.8 					"/>
					<polygon class="st0" points="977.2,632.3 956.8,620.5 1001.9,594.5 1022.3,606.3 					"/>
					<polygon class="st1" points="980.4,627.4 960,615.6 999.2,592.9 1019.6,604.8 					"/>
					<polygon class="st1" points="977.2,632.3 956.8,620.5 957.1,618.5 977.5,630.3 					"/>
					<path class="st0" d="M949.6,655.2c-3.8-2.2-6.4-6.2-7.6-12c6.8,4,13.6,7.9,20.4,11.8c1.2,5.8,3.8,9.8,7.6,12
						C963.9,663.5,955.7,658.7,949.6,655.2z"/>
					<path class="st1" d="M997.7,581.7l20.4,11.8c-3.6-2.1-9.5-1-17.3,3.5c-13.1,7.6-21.2,19.1-23.3,33.2l-20.4-11.8
						c2.1-14.2,10.2-25.7,23.3-33.2C988.2,580.8,994.1,579.6,997.7,581.7z"/>
					<path class="st0" d="M941.3,635.5c0-8.8,2.1-17.5,5.9-25.7c6.8,4,13.6,7.9,20.4,11.8c-3.9,8.2-5.9,16.9-5.9,25.7
						c0,2.8,0.2,5.4,0.7,7.7c-6.8-4-13.6-7.9-20.4-11.8C941.6,640.9,941.3,638.3,941.3,635.5z"/>
					<path class="st0" d="M998.1,568.4c0.2,0,0.4,0.2,0.6,0.3c6.6,3.8,13.2,7.7,19.8,11.5c-5,0.5-11,2.8-17.9,6.8
						c-15,8.7-26.5,21-32.9,34.6c-6.8-4-13.6-7.9-20.4-11.8c6.5-13.7,17.9-26,32.9-34.6C987.1,571.2,993.1,569,998.1,568.4
						L998.1,568.4z"/>
					<path class="st0" d="M1035.7,601.3v4.6l-58.8,33.9l0.1,1.6c1,14.4,9.8,18,24.1,9.7c11.9-6.8,19.6-16.4,21.1-25.9l13.5-7.8
						c-1.4,15.6-14.6,32.3-34.8,44c-24,13.9-39,8.5-39.1-14.1s14.8-46.4,38.8-60.3C1022.8,574.2,1035.6,579.4,1035.7,601.3
						L1035.7,601.3z M1022.3,606.3v-2.6c0-12.1-7.9-14.5-21.5-6.6s-21.2,19.1-23.3,33.2l-0.3,2L1022.3,606.3"/>
					<path class="st1" d="M1019.8,623.5l18.6-10.7l-0.1,1.6c-0.6,17.8-15,37-37.6,50c-25.7,14.8-41.6,8.8-41.7-15.6
						c-0.1-25.2,15.8-50,41.5-64.9c23.6-13.6,37.7-7.7,37.7,15.8v7.6l-58.5,33.8c1.4,11.6,8.9,14,21.3,6.9c11-6.3,18-15,18.6-23.1
						L1019.8,623.5L1019.8,623.5z M1000.8,661.4c20.3-11.7,33.5-28.4,34.8-44l-13.5,7.8c-1.4,9.4-9.2,19-21.1,25.9
						c-14.3,8.2-23,4.7-24.1-9.7l-0.1-1.6l58.8-33.9v-4.6c-0.1-21.9-12.9-27.1-35.1-14.3c-24,13.9-38.9,37-38.8,60.3
						C961.8,669.9,976.7,675.3,1000.8,661.4"/>
					<path class="st1" d="M1022.3,603.7v2.6l-45.1,26l0.3-2c2.1-14.2,10.2-25.7,23.3-33.2S1022.2,591.7,1022.3,603.7L1022.3,603.7z
						 M980.4,627.4l39.2-22.6c-0.2-9.9-6.9-11.5-18.9-4.6C989.5,606.6,982.7,615.8,980.4,627.4"/>
					<path class="st1" d="M968.1,670.3l-20.4-11.8c-5.8-3.4-9-10.6-9-21.5c-0.1-25.2,15.8-50,41.5-64.9c12.8-7.4,22.8-9,29.2-5.2
						l20.4,11.8c-6.5-3.8-16.5-2.1-29.2,5.2c-25.7,14.8-41.6,39.7-41.5,64.9C959.1,659.8,962.3,667,968.1,670.3z"/>
				</g>
				<g>
					<polygon class="st1" points="929.5,701.4 909.1,689.6 924.2,680.8 944.6,692.7 					"/>
					<polygon class="st1" points="944.6,692.7 924.2,680.8 924.1,634.5 944.4,646.3 					"/>
					<path class="st0" d="M909,647c0-5.9-1.5-9.7-4.3-11.3l20.4,11.8c2.8,1.6,4.3,5.4,4.3,11.3C923.2,655.3,915.1,650.6,909,647z"/>
					<path class="st1" d="M902.7,639l20.4,11.8c2.3,1.4,3.6,4.6,3.6,9.6l-20.4-11.8C906.3,643.6,905.1,640.3,902.7,639z"/>
					<polygon class="st0" points="929.5,701.4 909.1,689.6 909,647 929.3,658.9 					"/>
					<polygon class="st1" points="926.8,706 906.5,694.1 906.3,648.6 926.7,660.4 					"/>
					<path class="st1" d="M918,619l20.4,11.8c3.9,2.3,6,7.5,6.1,15.5l-20.4-11.8C924,626.5,921.9,621.3,918,619z"/>
					<polygon class="st1" points="875.2,732.7 854.8,720.9 870,712.2 890.3,724 					"/>
					<polygon class="st1" points="890.3,724 870,712.2 869.9,676.5 890.2,688.3 					"/>
					<path class="st0" d="M918,619l20.4,11.8c-4.5-2.6-11.3-1.4-20.1,3.7l-20.4-11.8C906.7,617.6,913.6,616.4,918,619z"/>
					<path class="st1" d="M919.9,615.9l20.4,11.8c-5-2.9-12.5-1.7-22,3.8l-20.4-11.8C907.4,614.2,914.9,613,919.9,615.9z"/>
					<path class="st1" d="M904.6,635.7l20.4,11.8c-3-1.7-7.5-1-13.2,2.3c-13.3,7.7-21.6,22.4-21.5,38.5l-20.4-11.8
						c-0.1-16,8.2-30.7,21.5-38.5C897.1,634.7,901.6,634,904.6,635.7z"/>
					<polygon class="st0" points="892,669.5 871.7,657.6 871.9,656.3 892.3,668.2 					"/>
					<path class="st0" d="M884.3,633.3c3.8-4,8.4-7.6,13.5-10.6l20.4,11.8c-5.2,3-9.7,6.6-13.5,10.6
						C897.9,641.2,891.2,637.2,884.3,633.3z"/>
					<polygon class="st0" points="889.8,670.8 869.4,658.9 871.7,657.6 892,669.5 					"/>
					<polygon class="st1" points="889.8,670.8 869.4,658.9 869.2,657.8 889.6,669.6 					"/>
					<path class="st0" d="M871.9,656.3c1.7-8.4,6.1-16.3,12.4-23c6.8,4,13.6,7.9,20.4,11.8c-6.4,6.7-10.7,14.7-12.4,23
						C886.2,664.6,878,659.9,871.9,656.3z"/>
					<path class="st0" d="M854.7,678c0-5.6-1.5-9.2-4.3-10.9l20.4,11.8c2.8,1.6,4.3,5.3,4.3,10.9C869,686.3,860.8,681.6,854.7,678z"
						/>
					<path class="st1" d="M848.5,670.4l20.4,11.8c2.3,1.3,3.6,4.4,3.6,9.1l-20.4-11.8C852.1,674.8,850.8,671.8,848.5,670.4z"/>
					<polygon class="st0" points="875.2,732.7 854.8,720.9 854.7,678 875.1,689.9 					"/>
					<polygon class="st1" points="872.6,737.3 852.2,725.4 852.1,679.6 872.5,691.4 					"/>
					<path class="st1" d="M891.1,663.8L870.7,652c4.2-13,13.8-24.6,27.2-32.3l20.4,11.8C904.9,639.2,895.3,650.8,891.1,663.8
						L891.1,663.8z"/>
					<path class="st1" d="M864.5,650.1l20.4,11.8c2.4,1.4,4.1,4,4.7,7.7l-20.4-11.8C868.5,654.1,866.9,651.5,864.5,650.1z"/>
					<polygon class="st1" points="820.8,764.1 800.5,752.3 815.6,743.5 835.9,755.4 					"/>
					<polygon class="st1" points="835.9,755.4 815.6,743.5 815.5,708.5 835.8,720.3 					"/>
					<polygon class="st0" points="837.6,702.1 817.2,690.3 817.5,689 837.9,700.9 					"/>
					<path class="st1" d="M850.4,667.2l20.4,11.8c-3.1-1.8-7.7-1.1-13.6,2.3c-13.2,7.6-21.4,22.6-21.4,39l-20.4-11.8
						c-0.1-16.4,8.2-31.3,21.4-39C842.7,666.1,847.3,665.4,850.4,667.2z"/>
					<polygon class="st0" points="835.1,703.5 814.7,691.7 817.2,690.3 837.6,702.1 					"/>
					<path class="st0" d="M817.5,689c0.9-3.7,2.1-7.3,3.6-10.6c6.8,4,13.6,7.9,20.4,11.8c-1.6,3.4-2.8,6.9-3.6,10.6
						C831.8,697.3,823.6,692.6,817.5,689z"/>
					<path class="st0" d="M823.1,674.5c6.8,4,13.6,7.9,20.4,11.8c-0.7,1.3-1.4,2.5-2,3.9c-6.8-4-13.6-7.9-20.4-11.8
						C821.8,677.1,822.4,675.8,823.1,674.5z"/>
					<path class="st0" d="M843.5,654.1c9.2-5.3,16.5-6.6,21-4l20.4,11.8c-4.5-2.6-11.8-1.3-21,4c-8.3,4.8-15,11.5-19.8,19.4
						c-6.8-4-13.6-7.9-20.4-11.8C828.4,665.6,835.2,658.9,843.5,654.1z"/>
					<path class="st0" d="M823.1,674.5c0.2-0.3,0.4-0.7,0.6-1c6.8,4,13.6,7.9,20.4,11.8c-0.2,0.3-0.4,0.7-0.6,1
						C840.1,684.4,833.3,680.4,823.1,674.5L823.1,674.5z"/>
					<path class="st1" d="M866.4,646.8l20.4,11.8c-5-2.9-12.9-1.5-22.9,4.2c-11.8,6.8-20.9,17.5-25.8,30L817.7,681
						c4.9-12.5,14.1-23.2,25.8-30C853.5,645.3,861.4,644,866.4,646.8z"/>
					<polygon class="st1" points="835.1,703.5 814.7,691.7 815.3,671.6 835.7,683.4 					"/>
					<polygon class="st0" points="820.8,764.1 800.5,752.3 800.2,680.3 820.6,692.1 					"/>
					<path class="st0" d="M918.2,634.5c16.6-9.6,26.1-5.3,26.2,11.8l0.1,46.3l-15.1,8.7l-0.1-42.5c0-12.2-6.4-15.5-17.6-9
						c-13.3,7.7-21.6,22.4-21.5,38.5l0.1,35.7l-15.1,8.7l-0.1-42.8c0-11.8-6.7-15-17.9-8.5c-13.2,7.6-21.4,22.6-21.4,39l0.1,35.1
						l-15.1,8.7l-0.2-72l15.1-8.7l-0.6,20.1l2.5-1.4l0.3-1.2c3.4-14.8,12.7-27.2,26-34.9c14.2-8.2,23.9-6.8,25.7,3.7l0.2,1.1
						l2.3-1.3l0.3-1.3C895,654.7,904.5,642.5,918.2,634.5L918.2,634.5z"/>
					<polygon class="st0" points="820.6,692.1 800.2,680.3 815.3,671.6 835.7,683.4 					"/>
					<polygon class="st1" points="818.2,768.7 797.8,756.8 797.6,678.8 818,690.6 					"/>
					<path class="st1" d="M918.2,631.5c18-10.4,28.8-5.4,28.8,13.3l0.1,49.3L926.8,706l-0.1-45.5c0-10.4-5.3-13.1-14.9-7.5
						c-11.9,6.9-19,19.5-18.9,33.9l0.1,38.7l-20.4,11.8l-0.1-45.9c0-10-5.6-12.6-15.2-7c-11.8,6.8-18.8,19.7-18.8,34.4l0.1,38.1
						l-20.4,11.8l-0.2-78l20.4-11.8l-0.4,14.1c4.9-12.5,14.1-23.2,25.8-30c13.8-8,23.7-7.5,27.2,0.9
						C895.2,650.8,904.9,639.2,918.2,631.5L918.2,631.5z M944.6,692.7l-0.1-46.3c-0.1-17.1-9.6-21.4-26.2-11.8
						c-13.8,7.9-23.2,20.2-25.9,33.6l-0.3,1.3l-2.3,1.3l-0.2-1.1c-1.8-10.5-11.5-11.9-25.7-3.7c-13.3,7.7-22.5,20.1-26,34.9
						l-0.3,1.2l-2.5,1.4l0.6-20.1l-15.1,8.7l0.2,72l15.1-8.7l-0.1-35.1c-0.1-16.4,8.2-31.3,21.4-39c11.2-6.4,17.8-3.2,17.9,8.5
						l0.1,42.8l15.1-8.7l-0.1-35.7c-0.1-16,8.2-30.7,21.5-38.5c11.1-6.4,17.5-3.1,17.6,9l0.1,42.5L944.6,692.7"/>
					<polygon class="st1" points="818,690.6 797.6,678.8 818.1,667 838.4,678.8 					"/>
				</g>
				<g>
					<polygon class="st1" points="786.2,784.1 765.8,772.3 780.8,763.6 801.2,775.4 					"/>
					<polygon class="st1" points="783.3,788.8 763,777 763.1,775.2 783.5,787.1 					"/>
					<path class="st0" d="M766.5,758.4c6.8,4,13.6,7.9,20.4,11.8c-0.1,5.3-0.4,10.8-0.6,13.8l-20.4-11.8
						C766.1,769.2,766.4,763.7,766.5,758.4z"/>
					<path class="st1" d="M783.5,787.1l-20.4-11.8c0.1-1.5,0.4-5.3,0.6-9.7l20.4,11.8C783.9,781.8,783.6,785.6,783.5,787.1z"/>
					<path class="st0" d="M766.5,758.4c0-0.5,0-1.1,0-1.6l20.4,11.8c0,0.5,0,1,0,1.6C780,766.3,773.3,762.4,766.5,758.4z"/>
					<polygon class="st0" points="786.8,768.7 766.5,756.8 766.5,755.3 786.8,767.2 					"/>
					<polygon class="st1" points="784.1,769.9 763.7,758 764,756.8 784.3,768.6 					"/>
					<polygon class="st1" points="784.3,768.6 764,756.8 766.5,755.3 786.8,767.2 					"/>
					<polygon class="st1" points="801.2,775.4 780.8,763.6 780.7,719.4 801.1,731.2 					"/>
					<path class="st1" d="M732.2,808l-20.4-11.8c4.7,2.8,13,1,24.1-5.4c15.8-9.1,25.4-20.4,27.8-32.8l20.4,11.8
						c-2.5,12.3-12.1,23.7-27.8,32.8C745.2,809,736.9,810.8,732.2,808z"/>
					<path class="st0" d="M757.1,764.4c3-3.7,5.3-7.5,6.7-11.3c6.8,4,13.6,7.9,20.4,11.8c-1.4,3.8-3.7,7.7-6.7,11.3
						C770.7,772.3,763.9,768.4,757.1,764.4z"/>
					<path class="st0" d="M763.8,753.1c1.2-3.2,1.8-6.3,1.8-9.5l20.4,11.8c0,3.1-0.6,6.3-1.8,9.5C777.4,761,770.6,757,763.8,753.1z"
						/>
					<polygon class="st0" points="786,755.5 765.6,743.6 765.6,740.8 786,752.6 					"/>
					<path class="st0" d="M757.1,764.4c6.8,4,13.6,7.9,20.4,11.8c-4.4,5.4-10.4,10.4-17.6,14.6c-7.6,4.4-13,5.7-16,4L723.5,783
						c2.9,1.7,8.4,0.4,16-4C746.7,774.8,752.7,769.8,757.1,764.4z"/>
					<path class="st1" d="M759.8,787.8L739.4,776c14.5-8.4,23.5-20.1,23.5-30.6l20.4,11.8C783.3,767.7,774.3,779.4,759.8,787.8z"/>
					<polygon class="st0" points="786,745.3 765.6,733.5 765.6,726.6 786,738.5 					"/>
					<polygon class="st1" points="757.2,769.2 736.9,757.3 765.6,740.8 786,752.6 					"/>
					<polygon class="st0" points="755.6,762.8 735.3,751 765.6,733.5 786,745.3 					"/>
					<polygon class="st1" points="783.3,743.8 763,731.9 763,728.1 783.3,740 					"/>
					<path class="st1" d="M774.5,704.6l20.4,11.8c4.1,2.3,6.2,7.3,6.2,14.8l-20.4-11.8C780.7,711.9,778.6,706.9,774.5,704.6z"/>
					<path class="st0" d="M765.6,726.6c0-4.9-1.2-8.1-3.7-9.5l20.4,11.8c2.5,1.4,3.7,4.6,3.7,9.5
						C779.9,734.9,771.7,730.2,765.6,726.6z"/>
					<path class="st1" d="M759.9,720.2l20.4,11.8c2,1.2,3,3.8,3,7.9L763,728.1C762.9,724,762,721.4,759.9,720.2z"/>
					<path class="st1" d="M745.8,791.4l-20.4-11.8c2.4,1.4,7.3,0.2,14.1-3.7l20.4,11.8C753.1,791.7,748.2,792.9,745.8,791.4z"/>
					<path class="st0" d="M764.8,703.2c4-0.6,7.2-0.1,9.8,1.4l20.4,11.8c-2.5-1.5-5.8-1.9-9.8-1.4
						C778.3,711.1,771.6,707.2,764.8,703.2z"/>
					<path class="st1" d="M743.9,794.8L723.5,783c-1.6-1-2.5-2.8-2.5-5.6l20.4,11.8C741.4,791.9,742.2,793.8,743.9,794.8z"/>
					<polygon class="st1" points="755.6,759.8 735.3,747.9 763,731.9 783.3,743.8 					"/>
					<path class="st1" d="M741.4,789.2L721,777.3c0-7.2,5.3-13.9,15.9-20l20.4,11.8C746.7,775.3,741.3,782,741.4,789.2z"/>
					<path class="st0" d="M707.3,786c0-12.1,9.9-24.6,28-35l20.4,11.8c-18.1,10.4-28,22.9-28,35l0,0
						C720.9,793.9,714.1,789.9,707.3,786L707.3,786z"/>
					<path class="st0" d="M711.8,796.2c-2.9-1.7-4.5-5.1-4.5-10.2c6.8,4,13.6,7.9,20.4,11.8c0,5.1,1.6,8.5,4.5,10.2
						C726.1,804.5,717.9,799.7,711.8,796.2z"/>
					<path class="st1" d="M730.3,811.1l-20.4-11.8c-3.4-2-5.2-5.9-5.2-11.8c0-6.6,2.9-23.6,30.6-39.6l20.4,11.8
						c-27.7,16-30.6,33-30.6,39.6C725.1,805.2,726.9,809.1,730.3,811.1z"/>
					<path class="st1" d="M761.9,717.1l20.4,11.8c-3.5-2-9.6-0.6-18.3,4.4c-17.6,10.1-20.2,20.6-20.2,25.9c0,0.3,0,0.8,0,1.3
						l-20.4-11.8c0-0.6,0-1.1,0-1.3c0-5.3,2.6-15.8,20.2-25.9C752.3,716.5,758.3,715,761.9,717.1z"/>
					<polygon class="st1" points="730.1,768.6 709.8,756.7 723.5,748.8 743.9,760.6 					"/>
					<path class="st0" d="M764.6,723.3c23.5-13.6,36.4-10.7,36.5,8l0.1,44.2l-15,8.7c0.2-3.4,0.6-9.7,0.6-15.4v-1.5l-2.5,1.4
						L784,770c-2.5,12.3-12.1,23.7-27.8,32.8c-17.8,10.3-28.5,8.5-28.6-4.8c0-12.1,9.9-24.6,28-35l30.3-17.5v-6.8
						c0-12-7.2-13.6-22-5.1c-17.6,10.1-20.2,20.6-20.2,25.9c0,0.3,0,0.8,0,1.3l-13.7,7.9c-0.1-0.9-0.2-2-0.2-2.8
						C730,751.7,742.9,735.8,764.6,723.3L764.6,723.3z M786,755.5v-2.9l-28.8,16.6c-10.6,6.1-15.9,12.8-15.9,20
						c0,7.8,6.8,8.4,18.5,1.7C776,781.5,786,767.9,786,755.5"/>
					<path class="st0" d="M764.8,703.2c0.1,0,0.2,0.1,0.3,0.2c6.7,3.9,13.4,7.8,20.1,11.7c-5.5,0.8-12.4,3.5-20.6,8.2l-20.4-11.8
						C752.4,706.7,759.2,704,764.8,703.2z"/>
					<path class="st1" d="M776.4,701.5l20.4,11.8c-6.5-3.8-17.5-1.5-32.2,6.9l-20.4-11.8C758.9,699.9,769.9,697.7,776.4,701.5z"/>
					<path class="st0" d="M730.1,768.6l-20.4-11.8c-0.1-0.9-0.2-2-0.2-2.8c0-14.1,12.9-30,34.6-42.5l20.4,11.8
						c-21.7,12.5-34.7,28.4-34.6,42.5C730,766.6,730.1,767.7,730.1,768.6L730.1,768.6z"/>
					<path class="st1" d="M764.6,720.2c24.8-14.3,39.1-10.9,39.2,9.5l0.1,47.2l-20.5,11.9l0.1-1.8c0.1-1.5,0.4-5.3,0.6-9.7
						c-3.8,8.7-11.7,19-27.8,28.3c-19.2,11.1-31.2,8.7-31.2-6.3c0-6.6,2.9-23.6,30.6-39.6l27.7-16V740c0-10.2-6-11.3-19.3-3.6
						c-6.6,3.8-17.6,11.6-17.5,21.4c0,0.4,0,1.6,0.2,2.6l0.2,1.6l-19,11l-0.2-1.2c-0.2-1-0.3-3-0.3-4.5
						C727.3,751.3,741.2,733.7,764.6,720.2L764.6,720.2z M801.2,775.4l-0.1-44.2c-0.1-18.7-13-21.5-36.5-8
						c-21.7,12.5-34.7,28.4-34.6,42.5c0,0.8,0.1,1.9,0.2,2.8l13.7-7.9c0-0.6,0-1.1,0-1.3c0-5.3,2.6-15.8,20.2-25.9
						c14.8-8.5,21.9-6.8,22,5.1v6.8l-30.3,17.5c-18.1,10.4-28,22.9-28,35c0,13.3,10.7,15.1,28.6,4.8c15.8-9.1,25.4-20.4,27.8-32.8
						l0.3-1.3l2.5-1.4v1.5c0,5.7-0.4,12-0.6,15.4L801.2,775.4"/>
					<path class="st1" d="M741.4,789.2c0-7.2,5.3-13.9,15.9-20l28.8-16.6v2.9c0,12.5-10,26-26.2,35.3
						C748.1,797.6,741.4,797,741.4,789.2z M759.8,787.8c14.5-8.4,23.5-20.1,23.5-30.6l-26.1,15.1c-13.3,7.7-13.3,13.5-13.2,15.4
						C744,793.4,749.9,793.5,759.8,787.8"/>
					<polygon class="st1" points="727.9,772.9 707.5,761.1 707.3,759.9 727.7,771.8 					"/>
					<path class="st1" d="M727.7,771.8L707.3,760c-0.2-1-0.3-3-0.3-4.5c-0.1-16,13.9-33.6,37.2-47l20.4,11.8
						c-23.4,13.5-37.3,31.1-37.2,47C727.3,768.8,727.5,770.8,727.7,771.8z"/>
				</g>
				<g>
					<polygon class="st1" points="697.8,802.1 677.5,790.3 691,782.5 711.3,794.3 					"/>
					<polygon class="st1" points="694.9,806.9 674.5,795 674.7,793.2 695.1,805.1 					"/>
					<path class="st1" d="M685.4,752.9l20.4,11.8c4.1,2.4,6.2,8,6.2,16.7c0,3.9-0.3,9-0.6,12.8L691,782.5c0.3-3.8,0.6-9,0.6-12.8
						C691.6,760.9,689.4,755.3,685.4,752.9z"/>
					<path class="st0" d="M677.9,781.3c0-6.7-1.5-10.9-4.4-12.6l20.4,11.8c2.9,1.7,4.4,5.9,4.4,12.6c0,3-0.2,6.3-0.5,8.9l-20.4-11.8
						C677.7,787.6,677.9,784.3,677.9,781.3z"/>
					<path class="st1" d="M671.7,771.9l20.4,11.8c2.4,1.4,3.5,5,3.6,11c0,3.6-0.3,7.6-0.6,10.3l-20.4-11.8c0.3-2.8,0.6-6.8,0.6-10.3
						C675.2,776.9,674.1,773.3,671.7,771.9z"/>
					<polygon class="st1" points="643.2,866.7 622.8,854.8 638,846.1 658.3,857.9 					"/>
					<polygon class="st1" points="658.3,857.9 638,846.1 637.9,814.8 658.2,826.7 					"/>
					<path class="st0" d="M685.4,752.9l20.4,11.8c-4.2-2.5-10.6-1.4-18.9,3.4l-20.4-11.8C674.8,751.5,681.1,750.4,685.4,752.9z"/>
					<path class="st1" d="M687.2,749.7l20.4,11.8c-4.7-2.8-11.8-1.6-20.7,3.5l-20.4-11.8C675.5,748.1,682.5,747,687.2,749.7z"/>
					<path class="st0" d="M661.5,759.5c1.6-1.1,3.2-2.2,5-3.2l20.4,11.8c-1.8,1-3.4,2.1-5,3.2C675.1,767.4,668.3,763.5,661.5,759.5z
						"/>
					<path class="st1" d="M673.5,768.7l20.4,11.8c-2.8-1.6-7-0.9-12.5,2.3c-14.3,8.3-23.2,25-23.1,43.8l-20.4-11.8
						c0-18.7,8.8-35.5,23.1-43.8C666.5,767.9,670.7,767.1,673.5,768.7z"/>
					<path class="st0" d="M658.8,761.6c0.9-0.7,1.8-1.4,2.7-2c6.8,4,13.6,7.9,20.4,11.8c-0.9,0.7-1.8,1.3-2.7,2
						C672.4,769.5,665.6,765.5,658.8,761.6z"/>
					<polygon class="st0" points="660,806.5 639.6,794.6 639.9,793.4 660.3,805.2 					"/>
					<path class="st0" d="M658.8,761.6c6.8,4,13.6,7.9,20.4,11.8c-0.6,0.5-1.2,1-1.8,1.6c-6.8-4-13.6-7.9-20.4-11.8
						C657.6,762.6,658.2,762.1,658.8,761.6z"/>
					<polygon class="st0" points="657.5,807.9 637.1,796.1 639.6,794.6 660,806.5 					"/>
					<path class="st0" d="M639.9,793.4c2.9-12.7,8.5-22.7,17.1-30.3c6.8,4,13.6,7.9,20.4,11.8c-8.5,7.6-14.2,17.6-17.1,30.3
						C654.2,801.7,646,796.9,639.9,793.4z"/>
					<path class="st1" d="M660.4,796.9L640,785c5.1-13.9,13.9-24.5,26.5-31.8l20.4,11.8C674.3,772.3,665.5,783,660.4,796.9z"/>
					<polygon class="st1" points="657.5,807.9 637.1,796.1 637.7,774.1 658.1,786 					"/>
					<polygon class="st0" points="643.2,866.7 622.8,854.8 622.6,782.8 643,794.7 					"/>
					<path class="st0" d="M686.9,768.1c16.1-9.3,25-4.6,25.1,13.4c0,3.9-0.3,9-0.6,12.8l-13.5,7.8c0.2-2.7,0.5-5.9,0.5-8.9
						c0-13.3-5.7-16.8-16.9-10.3c-14.3,8.3-23.2,25-23.1,43.8l0.1,31.3l-15.1,8.7l-0.2-72l15.1-8.7l-0.6,21.9l2.5-1.4l0.3-1.2
						C664.2,788.3,672.9,776.2,686.9,768.1L686.9,768.1z"/>
					<polygon class="st0" points="643,794.7 622.6,782.8 637.7,774.1 658.1,786 					"/>
					<path class="st1" d="M686.9,765.1c17.6-10.1,27.7-4.7,27.7,14.9c0,4.5-0.4,10.7-0.8,14.6l-0.1,1.4l-18.8,10.9l0.2-1.8
						c0.3-2.8,0.6-6.8,0.6-10.3c0-11.8-4.4-14.5-14.3-8.8c-12.9,7.4-20.5,22.1-20.5,39.2l0.1,34.3l-20.4,11.8l-0.2-78l20.4-11.8
						l-0.4,15.5C665.5,783,674.3,772.3,686.9,765.1L686.9,765.1z M711.3,794.3c0.3-3.8,0.6-9,0.6-12.8c-0.1-17.9-9-22.7-25.1-13.4
						c-14,8.1-22.7,20.2-26.6,37.1l-0.3,1.2l-2.5,1.4l0.6-21.9l-15.1,8.7l0.2,72l15.1-8.7l-0.1-31.3c-0.1-18.7,8.8-35.5,23.1-43.8
						c11.2-6.5,16.9-3,16.9,10.3c0,3-0.2,6.3-0.4,8.9L711.3,794.3"/>
					<polygon class="st1" points="640.4,793.2 620,781.3 640.4,769.5 660.8,781.4 					"/>
					<polygon class="st1" points="640.6,871.2 620.2,859.4 620,781.3 640.4,793.2 					"/>
				</g>
				<g>
					<polygon class="st1" points="619.7,838.6 599.3,826.7 599.3,817 619.7,828.8 					"/>
					<polygon class="st1" points="560.6,914.4 540.2,902.5 556.6,893.1 577,904.9 					"/>
					<polygon class="st1" points="627.5,790.9 607.1,779 607.1,766.9 627.4,778.7 					"/>
					<polygon class="st1" points="577,904.9 556.6,893.1 556.5,851.5 576.9,863.3 					"/>
					<polygon class="st1" points="576.9,863.3 556.5,851.5 599.3,826.7 619.7,838.6 					"/>
					<polygon class="st0" points="576.8,853.6 556.5,841.7 599.3,817 619.7,828.8 					"/>
					<polygon class="st1" points="579.5,849 559.1,837.2 601.9,812.5 622.3,824.3 					"/>
					<polygon class="st1" points="576.8,853.6 556.5,841.7 556.4,808.3 576.7,820.2 					"/>
					<polygon class="st1" points="576.7,820.2 556.4,808.3 607.1,779 627.5,790.9 					"/>
					<polygon class="st0" points="627.4,778.7 627.5,790.9 576.7,820.2 576.8,853.6 619.7,828.8 619.7,838.6 576.9,863.3 577,904.9 
						560.6,914.4 560.3,817.5 					"/>
					<polygon class="st0" points="560.3,817.5 539.9,805.6 607.1,766.9 627.4,778.7 					"/>
					<polygon class="st0" points="560.6,914.4 540.2,902.5 539.9,805.6 560.3,817.5 					"/>
					<path class="st1" d="M630.1,792.4l-50.8,29.3l0.1,27.3l42.8-24.7v15.8l-42.8,24.7l0.1,41.6l-21.7,12.5l-0.3-103l72.4-41.8
						L630.1,792.4L630.1,792.4z M619.7,828.8l-42.8,24.7l-0.1-33.4l50.8-29.3v-12.2l-67.1,38.8l0.3,96.9l16.4-9.5l-0.1-41.6
						l42.8-24.7L619.7,828.8"/>
					<polygon class="st1" points="557.7,816 537.3,804.1 609.7,762.3 630.1,774.2 					"/>
					<polygon class="st1" points="558,918.9 537.6,907.1 537.3,804.1 557.7,816 					"/>
				</g>
			</g>
		</g>
		<g>
			<g>
				<path class="st1" d="M123.6,149.7l-0.2-0.7l-3.1,0.7l0.2,0.7c1.4,5.8,1.2,11.9-0.6,17.6s-5,10.9-9.4,14.9
					c-3.4,3.2-7.5,5.6-11.9,7.2c-4.4,1.6-9.1,2.2-13.8,1.9c-4.7-0.3-9.2-1.6-13.4-3.7s-7.9-5.1-10.8-8.6c0.8-1,1.2-2.2,1.2-3.5
					s-0.4-2.5-1.2-3.5s-1.9-1.7-3.1-2c-1.2-0.3-2.5-0.1-3.7,0.4c-1.2,0.6-2.1,1.5-2.6,2.6c-0.6,1.1-0.7,2.4-0.4,3.6
					c0.3,1.2,1,2.3,2,3.1s2.2,1.2,3.5,1.2c0.6,0,1.2-0.1,1.8-0.3c3.4,4.1,7.6,7.5,12.4,9.9c4.8,2.4,10,3.7,15.4,3.9h1.3
					c5.6,0,11.2-1.3,16.3-3.7c5.1-2.4,9.5-6,13.1-10.4c3.5-4.4,6-9.5,7.2-14.9C125,160.8,124.9,155.1,123.6,149.7L123.6,149.7
					L123.6,149.7z M58.8,176.2c0,0.5-0.2,1-0.4,1.4c-0.3,0.4-0.6,0.7-1.1,0.9c-0.4,0.2-0.9,0.2-1.4,0.1c-0.5-0.1-0.9-0.3-1.2-0.7
					c-0.4-0.4-0.6-0.8-0.7-1.2c-0.1-0.5,0-1,0.2-1.4s0.5-0.8,0.9-1.1s0.9-0.4,1.4-0.4c0.6,0,1.3,0.3,1.7,0.7
					C58.5,175,58.8,175.6,58.8,176.2L58.8,176.2L58.8,176.2z"/>
				<path class="st1" d="M111.1,153c-1.4-6.3-5.3-11.8-10.8-15.3s-12.2-4.6-18.5-3.2c-3.3,0.8-6.5,2.2-9.2,4.2
					c-0.8-0.5-1.8-0.7-2.7-0.8h-0.1c-1.5,0-2.8,0.6-3.9,1.7s-1.6,2.4-1.6,3.9s0.6,2.8,1.6,3.9s2.4,1.6,3.8,1.7h0.1
					c1,0,1.9-0.2,2.8-0.7s1.6-1.2,2-2s0.8-1.8,0.8-2.7c0-1-0.2-1.9-0.6-2.8c4-2.8,9-4.2,13.9-3.8s9.6,2.4,13.2,5.8
					c3.6,3.4,5.9,7.9,6.5,12.8c0.6,4.9-0.5,9.8-3.1,14s-6.6,7.3-11.3,8.8c-4.7,1.6-9.8,1.4-14.4-0.3c-4.7-1.8-8.6-5.1-11-9.3
					s-3.4-9.2-2.6-14.1l0.1-0.7l-3-0.5l-0.1,0.7c-0.6,3.6-0.4,7.2,0.6,10.6c1,3.5,2.7,6.7,5.1,9.4s5.3,4.9,8.6,6.3s6.9,2.2,10.5,2
					c3.6-0.1,7.2-1,10.4-2.6s6.1-3.9,8.3-6.8c2.2-2.8,3.8-6.1,4.6-9.6C111.9,160.2,111.9,156.5,111.1,153L111.1,153L111.1,153z
					 M71.5,145.2c-0.5,0.4-1.1,0.7-1.7,0.7s-1.2-0.3-1.6-0.8c-0.4-0.4-0.7-1-0.6-1.7c0-0.6,0.2-1.2,0.7-1.7c0.4-0.4,1-0.7,1.6-0.8
					l0,0c0.5,0,1,0.2,1.4,0.4s0.7,0.6,0.9,1.1s0.2,0.9,0.1,1.4C72,144.4,71.8,144.8,71.5,145.2L71.5,145.2L71.5,145.2z"/>
				<path class="st1" d="M117.2,133.5c-0.7,0-1.4,0.2-2,0.4c-5.5-6.2-12.8-10.4-21-12c-8.1-1.6-16.5-0.4-24,3.4
					c-7.4,3.7-13.3,9.8-16.8,17.3c-3.5,7.4-4.4,15.9-2.6,23.9l0.1,0.4l2.5-0.6l-0.1-0.4c-1.7-7.4-0.9-15.3,2.3-22.2
					s8.7-12.6,15.5-16.1c6.9-3.5,14.7-4.6,22.2-3.2c7.6,1.4,14.4,5.3,19.5,11.1c-0.8,0.9-1.2,2.1-1.2,3.3c0,1,0.3,2.1,0.9,2.9
					c0.6,0.9,1.4,1.6,2.4,2s2,0.5,3.1,0.3c1-0.2,2-0.7,2.7-1.4c0.8-0.7,1.2-1.7,1.4-2.7s0.1-2.1-0.3-3c-0.4-1-1.1-1.8-2-2.4
					C119.3,133.8,118.3,133.5,117.2,133.5L117.2,133.5z M117.2,141.5c-0.6,0-1.1-0.2-1.5-0.4s-0.8-0.7-1-1.2s-0.3-1-0.2-1.6
					s0.4-1,0.8-1.4s0.9-0.6,1.4-0.8s1.1,0,1.6,0.2s0.9,0.6,1.2,1s0.5,1,0.4,1.5c0,0.7-0.3,1.4-0.8,1.9S118,141.5,117.2,141.5
					L117.2,141.5z"/>
				<path class="st1" d="M50.8,167.2l-0.2-0.7c-0.7-3.2-1-6.4-0.9-9.6c0.2-7.4,2.7-14.6,7.2-20.7c4.4-6,10.6-10.6,17.6-13.1
					s14.7-2.8,22-1c7.2,1.9,13.8,5.8,18.7,11.4c1.1-0.4,2.4-0.5,3.5-0.2c1.2,0.3,2.2,1,2.9,1.9c0.7,0.9,1.2,2.1,1.2,3.3
					s-0.3,2.4-1,3.3s-1.7,1.7-2.8,2.1s-2.4,0.4-3.5,0c-1.2-0.4-2.1-1.1-2.8-2c-0.7-1-1.1-2.1-1.1-3.3s0.4-2.4,1.1-3.3
					c-3.1-3.4-6.8-6.2-11-8.2s-8.7-3-13.4-3.2c-5.2-0.2-10.5,0.8-15.3,3s-9,5.4-12.4,9.4c-3.3,4.1-5.7,8.8-6.9,13.9
					c-1.2,5.1-1.2,10.4,0,15.5l0.2,0.7L50.8,167.2L50.8,167.2z M87.1,121.5c-9.5,0-18.7,3.7-25.5,10.3c-6.9,6.6-10.9,15.5-11.2,25
					c-0.1,3.2,0.2,6.4,0.9,9.5v0.2l2-0.4v-0.2c-1.2-5.1-1.2-10.3,0-15.4c1.2-5.1,3.4-9.8,6.7-13.9c3.3-4.1,7.4-7.4,12.1-9.6
					c4.7-2.2,9.9-3.4,15.1-3.4h1.2c4.8,0.2,9.4,1.2,13.7,3.3c4.3,2,8.1,4.9,11.2,8.4l0.2,0.2l-0.2,0.2c-0.7,0.9-1.1,2-1.1,3.1
					s0.4,2.2,1.1,3.1s1.7,1.5,2.8,1.8c1.1,0.2,2.3,0.1,3.3-0.4s1.8-1.3,2.4-2.3c0.5-1,0.6-2.2,0.4-3.3s-0.9-2.1-1.8-2.8
					s-2-1.1-3.1-1.1c-0.7,0-1.3,0.1-2,0.4l-0.2,0.1l-0.1-0.2c-3.3-3.8-7.4-6.8-12-9s-9.5-3.4-14.6-3.6
					C88,121.5,87.6,121.5,87.1,121.5L87.1,121.5z M117.2,141.8c-0.6,0-1.2-0.2-1.7-0.5s-0.9-0.8-1.1-1.4s-0.3-1.2-0.2-1.7
					c0.1-0.6,0.4-1.1,0.8-1.6s1-0.7,1.6-0.8s1.2,0,1.8,0.2c0.6,0.2,1,0.6,1.4,1.1c0.3,0.5,0.5,1.1,0.5,1.7c0,0.8-0.3,1.6-0.9,2.1
					C118.8,141.4,118,141.8,117.2,141.8L117.2,141.8z M117.2,136.4c-0.5,0-1,0.2-1.4,0.4c-0.4,0.3-0.7,0.6-0.9,1.1s-0.2,0.9-0.1,1.4
					s0.3,0.9,0.7,1.2s0.8,0.6,1.2,0.7c0.5,0.1,1,0,1.4-0.1c0.4-0.2,0.8-0.5,1.1-0.9s0.4-0.9,0.4-1.4c0-0.6-0.2-1.3-0.7-1.7
					C118.5,136.6,117.9,136.4,117.2,136.4L117.2,136.4z"/>
				<circle class="st1" cx="75.2" cy="156.8" r="3.2"/>
				<circle class="st1" cx="98" cy="157.3" r="3.2"/>
				<path class="st7" d="M92.5,160.6c0,2.8-2.3,5.2-5.2,5.2s-5.2-2.3-5.2-5.2"/>
			</g>
			<g>
				<path class="st6" d="M153.4,155.3v-27.9h10.2c2,0,3.6,0.3,4.9,1c1.3,0.6,2.3,1.5,2.9,2.6c0.6,1.1,1,2.4,1,3.7
					c0,1.2-0.2,2.1-0.6,2.9c-0.4,0.8-1,1.4-1.7,1.9s-1.5,0.8-2.4,1v0.3c0.9,0.1,1.8,0.3,2.7,0.9s1.6,1.3,2.2,2.3s0.9,2.2,0.9,3.7
					s-0.3,2.7-1,3.8s-1.7,2-3.1,2.7c-1.4,0.7-3.2,1-5.3,1L153.4,155.3L153.4,155.3z M157.7,139.5h5.6c1,0,1.8-0.2,2.6-0.6
					c0.8-0.4,1.4-0.9,1.8-1.5s0.7-1.4,0.7-2.3c0-1.1-0.4-2.1-1.2-2.9c-0.8-0.8-2-1.2-3.7-1.2h-5.8L157.7,139.5L157.7,139.5z
					 M157.7,151.7h6.1c2,0,3.5-0.4,4.3-1.2s1.3-1.8,1.3-2.9c0-0.9-0.2-1.7-0.7-2.4s-1.1-1.3-1.9-1.8c-0.8-0.4-1.8-0.6-2.9-0.6h-6.2
					L157.7,151.7L157.7,151.7z"/>
				<path class="st6" d="M187.3,155.7c-2.1,0-3.8-0.4-5.3-1.3s-2.6-2.1-3.4-3.8c-0.8-1.6-1.2-3.5-1.2-5.7s0.4-4,1.2-5.7
					s1.9-2.9,3.4-3.8s3.1-1.4,5.1-1.4c1.2,0,2.3,0.2,3.4,0.6s2.1,1,3,1.8s1.6,1.9,2.1,3.2s0.8,2.9,0.8,4.9v1.4h-16.6V143h12.7
					c0-1.1-0.2-2-0.6-2.9s-1-1.5-1.8-2s-1.7-0.7-2.8-0.7s-2.1,0.3-3,0.8c-0.9,0.6-1.5,1.3-2,2.2s-0.7,1.9-0.7,2.9v2.4
					c0,1.4,0.2,2.6,0.7,3.6s1.2,1.7,2.1,2.2c0.9,0.5,1.9,0.8,3.1,0.8c0.8,0,1.5-0.1,2.1-0.3s1.2-0.6,1.6-1c0.5-0.4,0.8-1,1.1-1.6
					l3.9,0.7c-0.3,1.1-0.9,2.1-1.7,3s-1.8,1.5-3,2S188.8,155.8,187.3,155.7L187.3,155.7z"/>
				<path class="st6" d="M210.6,134.4v3.3h-11.4v-3.3H210.6z M202.2,129.3h4.1v19.8c0,0.8,0.1,1.4,0.4,1.8s0.5,0.7,0.9,0.8
					s0.8,0.2,1.2,0.2c0.3,0,0.6,0,0.9-0.1s0.4-0.1,0.6-0.1l0.7,3.4c-0.2,0.1-0.6,0.2-1,0.3s-1,0.1-1.6,0.2c-1.1,0-2.1-0.2-3-0.6
					c-0.9-0.4-1.7-1-2.2-1.9c-0.6-0.8-0.9-1.9-0.9-3.1L202.2,129.3L202.2,129.3z"/>
				<path class="st6" d="M224.9,134.4v3.3h-11.4v-3.3H224.9z M216.5,129.3h4.1v19.8c0,0.8,0.1,1.4,0.3,1.8s0.5,0.7,0.9,0.8
					s0.8,0.2,1.2,0.2c0.3,0,0.6,0,0.9-0.1s0.4-0.1,0.6-0.1l0.7,3.4c-0.2,0.1-0.6,0.2-1,0.3s-1,0.1-1.6,0.2c-1.1,0-2.1-0.2-3-0.6
					c-0.9-0.4-1.7-1-2.2-1.9c-0.6-0.8-0.9-1.9-0.9-3.1V129.3L216.5,129.3z"/>
				<path class="st6" d="M238.2,155.7c-2.1,0-3.8-0.4-5.3-1.3s-2.6-2.1-3.4-3.8c-0.8-1.6-1.2-3.5-1.2-5.7s0.4-4,1.2-5.7
					s1.9-2.9,3.4-3.8s3.2-1.4,5.1-1.4c1.2,0,2.3,0.2,3.4,0.6s2.1,1,3,1.8s1.6,1.9,2.1,3.2s0.8,2.9,0.8,4.9v1.4h-16.7V143h12.7
					c0-1.1-0.2-2-0.7-2.9s-1-1.5-1.8-2s-1.7-0.7-2.8-0.7c-1.2,0-2.1,0.3-3,0.8s-1.5,1.3-2,2.2s-0.7,1.9-0.7,2.9v2.4
					c0,1.4,0.2,2.6,0.7,3.6s1.2,1.7,2.1,2.2c0.9,0.5,1.9,0.8,3.1,0.8c0.8,0,1.5-0.1,2.1-0.3s1.2-0.6,1.7-1s0.8-1,1.1-1.6l3.9,0.7
					c-0.3,1.1-0.9,2.1-1.7,3s-1.8,1.5-3,2S239.7,155.8,238.2,155.7L238.2,155.7z"/>
				<path class="st6" d="M251.7,155.3v-20.9h3.9v3.3h0.2c0.4-1.1,1.1-2,2-2.7c1-0.6,2.1-1,3.3-1c0.2,0,0.6,0,0.9,0s0.6,0,0.8,0.1
					v3.9c-0.2-0.1-0.5-0.1-0.9-0.2c-0.4-0.1-0.8-0.1-1.2-0.1c-1,0-1.8,0.2-2.6,0.6c-0.8,0.4-1.3,1-1.8,1.7s-0.7,1.5-0.7,2.4v12.8
					L251.7,155.3L251.7,155.3z"/>
				<path class="st6" d="M282.4,155.3l-7.8-27.9h4.4l5.4,21.6h0.3l5.7-21.6h4.4l5.7,21.7h0.3l5.4-21.7h4.5l-7.8,27.9h-4.2l-5.9-20.9
					h-0.2l-5.9,20.9H282.4L282.4,155.3z"/>
				<path class="st6" d="M321,155.7c-2,0-3.7-0.4-5.1-1.4c-1.5-0.9-2.6-2.2-3.4-3.8s-1.2-3.5-1.2-5.7s0.4-4.1,1.2-5.7
					c0.8-1.6,2-2.9,3.4-3.8c1.5-0.9,3.2-1.4,5.1-1.4s3.7,0.4,5.1,1.4c1.5,0.9,2.6,2.2,3.4,3.8s1.2,3.5,1.2,5.7s-0.4,4.1-1.2,5.7
					c-0.8,1.6-2,2.9-3.4,3.8C324.7,155.3,322.9,155.7,321,155.7z M321,152.3c1.3,0,2.3-0.3,3.2-1s1.5-1.6,1.9-2.7
					c0.4-1.1,0.6-2.4,0.6-3.7s-0.2-2.6-0.6-3.7s-1-2-1.9-2.7c-0.8-0.7-1.9-1-3.2-1s-2.3,0.3-3.2,1c-0.8,0.7-1.5,1.6-1.9,2.7
					s-0.6,2.4-0.6,3.7s0.2,2.6,0.6,3.7c0.4,1.1,1,2,1.9,2.7S319.7,152.3,321,152.3z"/>
				<path class="st6" d="M335.3,155.3v-20.9h3.9v3.3h0.2c0.4-1.1,1.1-2,2-2.7c1-0.6,2.1-1,3.3-1c0.2,0,0.6,0,0.9,0s0.6,0,0.8,0.1
					v3.9c-0.2-0.1-0.5-0.1-0.9-0.2c-0.4-0.1-0.8-0.1-1.2-0.1c-1,0-1.8,0.2-2.6,0.6c-0.8,0.4-1.3,1-1.8,1.7s-0.7,1.5-0.7,2.4v12.8
					L335.3,155.3L335.3,155.3z"/>
				<path class="st6" d="M354.1,127.4v27.9H350v-27.9H354.1z"/>
				<path class="st6" d="M367.4,155.7c-1.7,0-3.2-0.4-4.5-1.3c-1.3-0.9-2.4-2.1-3.1-3.7s-1.1-3.6-1.1-5.8s0.4-4.2,1.1-5.8
					s1.8-2.8,3.1-3.7c1.3-0.9,2.8-1.3,4.5-1.3c1.3,0,2.3,0.2,3.1,0.6c0.8,0.4,1.4,0.9,1.8,1.5s0.8,1.1,1,1.5h0.2v-10.4h4.1v27.9h-4
					v-3.3h-0.3c-0.2,0.4-0.6,1-1.1,1.5s-1.1,1.1-1.9,1.5S368.7,155.7,367.4,155.7L367.4,155.7z M368.4,152.2c1.2,0,2.2-0.3,3-0.9
					s1.4-1.5,1.8-2.6s0.6-2.4,0.6-3.9s-0.2-2.7-0.6-3.8s-1-1.9-1.8-2.6s-1.8-0.9-3-0.9s-2.2,0.3-3.1,1s-1.4,1.5-1.8,2.6
					s-0.6,2.3-0.6,3.7s0.2,2.7,0.6,3.8s1,2,1.9,2.6S367.1,152.3,368.4,152.2L368.4,152.2z"/>
				<path class="st6" d="M169.7,188L154,172.3l2.6-2.6l15.7,15.7L169.7,188z M156.6,188l-2.6-2.6l15.7-15.7l2.6,2.6L156.6,188z"/>
				<path class="st6" d="M198.2,192.6h-9v-27.9h9.3c2.7,0,5.1,0.6,7,1.7s3.5,2.7,4.5,4.8s1.6,4.6,1.6,7.5s-0.5,5.4-1.6,7.5
					s-2.6,3.7-4.6,4.8S201.1,192.6,198.2,192.6L198.2,192.6z M193.4,188.9h4.6c2.1,0,3.9-0.4,5.3-1.2c1.4-0.8,2.5-2,3.2-3.5
					s1-3.4,1-5.6s-0.4-4.1-1-5.6c-0.7-1.5-1.7-2.7-3.1-3.5s-3.1-1.2-5.1-1.2h-4.9V188.9L193.4,188.9z"/>
				<path class="st6" d="M225.6,193c-2.1,0-3.8-0.4-5.3-1.3s-2.6-2.1-3.4-3.8c-0.8-1.6-1.2-3.5-1.2-5.7s0.4-4,1.2-5.7
					s1.9-2.9,3.4-3.8s3.2-1.4,5.1-1.4c1.2,0,2.3,0.2,3.4,0.6s2.1,1,3,1.8s1.6,1.9,2.1,3.2s0.8,2.9,0.8,4.9v1.4H218v-3.1h12.7
					c0-1.1-0.2-2-0.7-2.9s-1-1.5-1.8-2s-1.7-0.7-2.8-0.7c-1.2,0-2.1,0.3-3,0.8s-1.5,1.3-2,2.2s-0.7,1.9-0.7,2.9v2.4
					c0,1.4,0.2,2.6,0.7,3.6s1.2,1.7,2.1,2.2c0.9,0.5,1.9,0.8,3.1,0.8c0.8,0,1.5-0.1,2.1-0.3s1.2-0.6,1.7-1s0.8-1,1.1-1.6l3.9,0.7
					c-0.3,1.1-0.9,2.1-1.7,3s-1.8,1.5-3,2S227.1,193,225.6,193L225.6,193z"/>
				<path class="st6" d="M254.9,176.8l-3.7,0.6c-0.2-0.5-0.4-0.9-0.7-1.4c-0.3-0.4-0.8-0.8-1.3-1.1s-1.3-0.4-2.1-0.4
					c-1.2,0-2.1,0.3-2.9,0.8c-0.8,0.5-1.2,1.2-1.2,2c0,0.7,0.3,1.3,0.8,1.7s1.3,0.8,2.5,1.1l3.3,0.8c1.9,0.4,3.4,1.1,4.3,2.1
					s1.4,2.1,1.4,3.6c0,1.2-0.4,2.4-1.1,3.4c-0.7,1-1.7,1.7-3,2.3s-2.8,0.8-4.5,0.8c-2.3,0-4.3-0.5-5.7-1.5c-1.5-1-2.4-2.4-2.7-4.3
					l3.9-0.6c0.2,1,0.8,1.8,1.5,2.3c0.8,0.5,1.8,0.8,3,0.8c1.3,0,2.4-0.3,3.2-0.8c0.8-0.6,1.2-1.2,1.2-2.1c0-0.6-0.2-1.2-0.7-1.6
					s-1.2-0.8-2.2-1l-3.5-0.8c-2-0.4-3.4-1.1-4.3-2.1s-1.4-2.2-1.4-3.7c0-1.2,0.3-2.3,1-3.2s1.7-1.6,2.9-2.2
					c1.2-0.5,2.6-0.8,4.2-0.8c2.3,0,4,0.5,5.3,1.5S254.5,175.1,254.9,176.8L254.9,176.8z"/>
				<path class="st6" d="M261.8,168.4c-0.7,0-1.3-0.2-1.8-0.7s-0.8-1.1-0.8-1.7s0.2-1.2,0.8-1.7s1.1-0.7,1.8-0.7s1.3,0.2,1.8,0.7
					s0.8,1.1,0.8,1.7s-0.2,1.2-0.8,1.7C263.1,168.2,262.5,168.4,261.8,168.4z M259.7,192.6v-20.9h4.1v20.9H259.7z"/>
				<path class="st6" d="M278.1,200.9c-1.7,0-3.1-0.2-4.3-0.6c-1.2-0.4-2.2-1-2.9-1.7c-0.8-0.7-1.3-1.5-1.7-2.4l3.5-1.4
					c0.2,0.4,0.6,0.8,1,1.3s1,0.8,1.7,1.1s1.6,0.5,2.8,0.5c1.5,0,2.8-0.4,3.8-1.1c1-0.8,1.5-1.9,1.5-3.6v-4.1h-0.3
					c-0.2,0.4-0.6,0.9-1.1,1.5s-1.1,1-1.9,1.4s-1.8,0.6-3.1,0.6c-1.7,0-3.1-0.4-4.5-1.2s-2.4-1.9-3.1-3.4s-1.2-3.4-1.2-5.6
					s0.4-4.1,1.1-5.7s1.8-2.8,3.1-3.7s2.8-1.3,4.5-1.3c1.3,0,2.3,0.2,3.2,0.6c0.8,0.4,1.4,0.9,1.9,1.5s0.8,1.1,1,1.5h0.3v-3.4h4
					v21.4c0,1.8-0.4,3.3-1.2,4.4c-0.8,1.1-2,2-3.4,2.6C281.5,200.6,279.9,200.9,278.1,200.9L278.1,200.9z M278,188.9
					c1.2,0,2.2-0.3,3-0.8s1.4-1.3,1.8-2.4s0.6-2.3,0.6-3.7s-0.2-2.6-0.6-3.7s-1-1.9-1.8-2.5s-1.8-0.9-3-0.9s-2.2,0.3-3.1,0.9
					c-0.8,0.6-1.4,1.5-1.8,2.6s-0.6,2.3-0.6,3.6s0.2,2.6,0.6,3.6s1,1.9,1.9,2.4C275.8,188.6,276.8,188.9,278,188.9L278,188.9z"/>
				<path class="st6" d="M297.1,180.2v12.4H293v-20.9h3.9v3.4h0.3c0.5-1.1,1.2-2,2.3-2.7s2.3-1,3.9-1c1.4,0,2.7,0.3,3.8,0.9
					c1.1,0.6,1.9,1.5,2.5,2.6s0.9,2.6,0.9,4.4v13.3h-4.1v-12.8c0-1.5-0.4-2.7-1.2-3.6s-1.9-1.3-3.3-1.3c-1,0-1.8,0.2-2.5,0.6
					c-0.7,0.4-1.3,1-1.7,1.8C297.3,178.1,297.1,179,297.1,180.2L297.1,180.2z"/>
			</g>
		</g>
		<g>
			<path class="st1" d="M290.4,1730.4v8.2h-2.7v-18.3h2.6v6.8h0.2c0.3-0.7,0.8-1.3,1.5-1.8s1.5-0.7,2.6-0.7c0.9,0,1.8,0.2,2.5,0.6
				s1.2,1,1.6,1.7s0.6,1.7,0.6,2.9v8.7h-2.7v-8.4c0-1-0.3-1.8-0.8-2.3s-1.2-0.8-2.2-0.8c-0.6,0-1.2,0.1-1.7,0.4s-0.9,0.7-1.2,1.2
				C290.6,1729.1,290.4,1729.7,290.4,1730.4L290.4,1730.4z"/>
			<path class="st1" d="M308.8,1738.9c-1.3,0-2.5-0.3-3.5-0.9s-1.7-1.4-2.2-2.5s-0.8-2.3-0.8-3.7s0.3-2.6,0.8-3.7s1.3-1.9,2.2-2.5
				s2.1-0.9,3.3-0.9c0.8,0,1.5,0.1,2.2,0.4s1.4,0.7,2,1.2s1,1.3,1.4,2.1c0.3,0.9,0.5,1.9,0.5,3.2v0.9h-10.9v-2h8.3
				c0-0.7-0.1-1.3-0.4-1.9s-0.7-1-1.2-1.3s-1.1-0.5-1.8-0.5c-0.8,0-1.4,0.2-2,0.6s-1,0.8-1.3,1.4s-0.5,1.2-0.5,1.9v1.6
				c0,0.9,0.2,1.7,0.5,2.3s0.8,1.1,1.4,1.5c0.6,0.3,1.3,0.5,2,0.5c0.5,0,1-0.1,1.4-0.2c0.4-0.2,0.8-0.4,1.1-0.7s0.5-0.7,0.7-1.1
				l2.5,0.5c-0.2,0.7-0.6,1.4-1.1,1.9s-1.2,1-2,1.3C310.7,1738.7,309.8,1738.9,308.8,1738.9L308.8,1738.9z"/>
			<path class="st1" d="M320.4,1720.3v18.3h-2.7v-18.3H320.4z"/>
			<path class="st1" d="M326.6,1720.3v18.3h-2.7v-18.3H326.6z"/>
			<path class="st1" d="M336,1738.9c-1.3,0-2.4-0.3-3.4-0.9s-1.7-1.4-2.2-2.5s-0.8-2.3-0.8-3.7s0.3-2.7,0.8-3.7
				c0.5-1.1,1.3-1.9,2.2-2.5c1-0.6,2.1-0.9,3.4-0.9s2.4,0.3,3.4,0.9s1.7,1.4,2.2,2.5s0.8,2.3,0.8,3.7s-0.3,2.7-0.8,3.7
				c-0.5,1.1-1.3,1.9-2.2,2.5C338.4,1738.6,337.3,1738.9,336,1738.9z M336,1736.6c0.8,0,1.5-0.2,2.1-0.7s1-1,1.2-1.8
				c0.3-0.7,0.4-1.5,0.4-2.4s-0.1-1.7-0.4-2.4s-0.7-1.3-1.2-1.8c-0.5-0.4-1.2-0.7-2.1-0.7s-1.5,0.2-2.1,0.7c-0.5,0.4-1,1-1.2,1.8
				s-0.4,1.5-0.4,2.4s0.1,1.7,0.4,2.4s0.7,1.3,1.2,1.8S335.1,1736.6,336,1736.6z"/>
			<path class="st1" d="M356.4,1743.6c-1.8,0-3.5-0.2-4.9-0.8s-2.6-1.2-3.6-2.2s-1.7-2.2-2.2-3.6s-0.8-3-0.8-4.8s0.3-3.3,0.8-4.8
				s1.3-2.6,2.2-3.6s2.2-1.8,3.6-2.3s3-0.8,4.8-0.8s3.2,0.3,4.5,0.8s2.4,1.3,3.3,2.2c0.9,0.9,1.6,2,2,3.2s0.7,2.5,0.7,3.8
				c0,0.9-0.1,1.9-0.2,2.8s-0.3,1.7-0.7,2.4c-0.3,0.7-0.8,1.3-1.4,1.7c-0.6,0.4-1.4,0.7-2.3,0.7c-0.5,0-1,0-1.5-0.2
				c-0.5-0.1-0.9-0.4-1.2-0.7s-0.5-0.7-0.6-1.2h-0.1c-0.1,0.3-0.4,0.7-0.7,1s-0.8,0.5-1.3,0.7s-1.1,0.2-1.8,0.2
				c-0.8,0-1.4-0.2-2-0.5s-1.1-0.7-1.5-1.3s-0.8-1.2-1-1.9s-0.3-1.6-0.3-2.5s0.1-1.7,0.4-2.4c0.3-0.7,0.6-1.3,1-1.8s1-0.9,1.5-1.2
				s1.2-0.5,1.8-0.6c0.6-0.1,1.2-0.1,1.7,0.1c0.5,0.1,1,0.3,1.3,0.5s0.6,0.5,0.7,0.7h0.1v-1h2.2v8.3c0,0.5,0.1,0.9,0.4,1.2
				s0.6,0.5,1.1,0.5s1-0.2,1.3-0.6s0.5-1,0.7-1.8s0.2-1.9,0.2-3.2c0-0.9-0.1-1.8-0.4-2.6s-0.6-1.5-1.1-2.2s-1-1.2-1.7-1.7
				s-1.5-0.8-2.3-1.1s-1.8-0.4-2.9-0.4c-1.4,0-2.7,0.2-3.8,0.7c-1.1,0.4-2,1.1-2.8,1.9s-1.3,1.8-1.7,2.9c-0.4,1.2-0.6,2.4-0.6,3.8
				s0.2,2.8,0.6,3.9c0.4,1.2,1,2.1,1.8,2.9s1.7,1.4,2.9,1.8s2.5,0.6,4,0.6c0.7,0,1.3-0.1,2-0.2c0.6-0.1,1.2-0.2,1.7-0.4
				c0.5-0.2,0.9-0.3,1.1-0.3l0.6,2c-0.4,0.2-0.9,0.3-1.5,0.5s-1.3,0.3-2,0.4S357.1,1743.6,356.4,1743.6L356.4,1743.6z M355.5,1736.1
				c0.8,0,1.4-0.2,1.9-0.5s0.8-0.8,1-1.4s0.3-1.4,0.3-2.3s-0.1-1.6-0.3-2.2c-0.2-0.5-0.6-0.9-1-1.2c-0.5-0.2-1.1-0.3-1.8-0.3
				c-0.7,0-1.2,0.2-1.7,0.5s-0.8,0.8-1.1,1.3c-0.2,0.6-0.4,1.2-0.4,1.9c0,0.7,0.1,1.4,0.3,2s0.5,1.2,1,1.5
				S354.8,1736.1,355.5,1736.1z"/>
			<path class="st1" d="M369.9,1738.6v-18.3h2.7v6.8h0.2c0.2-0.3,0.4-0.6,0.7-1c0.3-0.4,0.7-0.7,1.2-1s1.2-0.4,2-0.4
				c1.1,0,2.1,0.3,3,0.8c0.9,0.6,1.5,1.4,2,2.4s0.8,2.3,0.8,3.8s-0.2,2.8-0.7,3.8s-1.2,1.9-2,2.4c-0.9,0.6-1.8,0.8-3,0.8
				c-0.8,0-1.5-0.1-2-0.4s-0.9-0.6-1.2-1c-0.3-0.4-0.5-0.7-0.7-1h-0.2v2.1h-2.8V1738.6z M372.5,1731.7c0,1,0.1,1.8,0.4,2.5
				s0.7,1.3,1.2,1.7c0.5,0.4,1.2,0.6,2,0.6s1.5-0.2,2-0.6s0.9-1,1.2-1.7s0.4-1.6,0.4-2.5s-0.1-1.7-0.4-2.4c-0.3-0.7-0.7-1.3-1.2-1.7
				c-0.5-0.4-1.2-0.6-2-0.6s-1.4,0.2-2,0.6s-0.9,1-1.2,1.7C372.7,1729.9,372.5,1730.8,372.5,1731.7L372.5,1731.7z"/>
			<path class="st1" d="M391.4,1738.9c-1.3,0-2.5-0.3-3.5-0.9s-1.7-1.4-2.2-2.5s-0.8-2.3-0.8-3.7s0.3-2.6,0.8-3.7s1.3-1.9,2.2-2.5
				s2.1-0.9,3.3-0.9c0.8,0,1.5,0.1,2.2,0.4s1.4,0.7,2,1.2s1,1.3,1.4,2.1c0.3,0.9,0.5,1.9,0.5,3.2v0.9h-10.9v-2h8.3
				c0-0.7-0.1-1.3-0.4-1.9s-0.7-1-1.2-1.3s-1.1-0.5-1.8-0.5c-0.8,0-1.4,0.2-2,0.6s-1,0.8-1.3,1.4s-0.5,1.2-0.5,1.9v1.6
				c0,0.9,0.2,1.7,0.5,2.3s0.8,1.1,1.4,1.5c0.6,0.3,1.3,0.5,2,0.5c0.5,0,1-0.1,1.4-0.2c0.4-0.2,0.8-0.4,1.1-0.7s0.5-0.7,0.7-1.1
				l2.5,0.5c-0.2,0.7-0.6,1.4-1.1,1.9s-1.2,1-2,1.3C393.3,1738.7,392.4,1738.9,391.4,1738.9L391.4,1738.9z"/>
			<path class="st1" d="M406.6,1724.9v2.1h-7.5v-2.1H406.6z M401.1,1721.6h2.7v13c0,0.5,0.1,0.9,0.2,1.2c0.2,0.3,0.4,0.4,0.6,0.5
				s0.5,0.1,0.8,0.1c0.2,0,0.4,0,0.6,0s0.3-0.1,0.4-0.1l0.5,2.2c-0.2,0.1-0.4,0.1-0.7,0.2c-0.3,0.1-0.6,0.1-1.1,0.1
				c-0.7,0-1.4-0.1-2-0.4s-1.1-0.7-1.5-1.2c-0.4-0.6-0.6-1.2-0.6-2.1L401.1,1721.6L401.1,1721.6z"/>
			<path class="st1" d="M416,1724.9v2.1h-7.5v-2.1H416z M410.5,1721.6h2.7v13c0,0.5,0.1,0.9,0.2,1.2c0.2,0.3,0.4,0.4,0.6,0.5
				s0.5,0.1,0.8,0.1c0.2,0,0.4,0,0.6,0s0.3-0.1,0.4-0.1l0.5,2.2c-0.2,0.1-0.4,0.1-0.7,0.2c-0.3,0.1-0.6,0.1-1.1,0.1
				c-0.7,0-1.4-0.1-2-0.4s-1.1-0.7-1.5-1.2c-0.4-0.6-0.6-1.2-0.6-2.1L410.5,1721.6L410.5,1721.6z"/>
			<path class="st1" d="M424.7,1738.9c-1.3,0-2.5-0.3-3.5-0.9s-1.7-1.4-2.2-2.5s-0.8-2.3-0.8-3.7s0.3-2.6,0.8-3.7s1.3-1.9,2.2-2.5
				s2.1-0.9,3.3-0.9c0.8,0,1.5,0.1,2.2,0.4s1.4,0.7,2,1.2s1,1.3,1.4,2.1c0.3,0.9,0.5,1.9,0.5,3.2v0.9h-10.9v-2h8.3
				c0-0.7-0.1-1.3-0.4-1.9s-0.7-1-1.2-1.3s-1.1-0.5-1.8-0.5c-0.8,0-1.4,0.2-2,0.6s-1,0.8-1.3,1.4s-0.5,1.2-0.5,1.9v1.6
				c0,0.9,0.2,1.7,0.5,2.3s0.8,1.1,1.4,1.5c0.6,0.3,1.3,0.5,2,0.5c0.5,0,1-0.1,1.4-0.2c0.4-0.2,0.8-0.4,1.1-0.7s0.5-0.7,0.7-1.1
				l2.5,0.5c-0.2,0.7-0.6,1.4-1.1,1.9s-1.2,1-2,1.3C426.6,1738.7,425.7,1738.9,424.7,1738.9L424.7,1738.9z"/>
			<path class="st1" d="M433.5,1738.6v-13.7h2.6v2.2h0.1c0.2-0.7,0.7-1.3,1.3-1.8s1.3-0.6,2.2-0.6c0.2,0,0.4,0,0.6,0s0.4,0,0.5,0
				v2.6c-0.1,0-0.3-0.1-0.6-0.1c-0.3,0-0.5-0.1-0.8-0.1c-0.6,0-1.2,0.1-1.7,0.4s-0.9,0.6-1.2,1.1s-0.4,1-0.4,1.6v8.4H433.5
				L433.5,1738.6z"/>
			<path class="st1" d="M446.4,1738.6l-4-13.7h2.8l2.7,10.1h0.1l2.7-10.1h2.8l2.7,10h0.1l2.7-10h2.8l-4,13.7h-2.7l-2.8-9.9h-0.2
				l-2.8,9.9H446.4L446.4,1738.6z"/>
			<path class="st1" d="M469.5,1738.9c-1.3,0-2.4-0.3-3.4-0.9s-1.7-1.4-2.2-2.5s-0.8-2.3-0.8-3.7s0.3-2.7,0.8-3.7
				c0.5-1.1,1.3-1.9,2.2-2.5c1-0.6,2.1-0.9,3.4-0.9s2.4,0.3,3.4,0.9s1.7,1.4,2.2,2.5s0.8,2.3,0.8,3.7s-0.3,2.7-0.8,3.7
				c-0.5,1.1-1.3,1.9-2.2,2.5C471.9,1738.6,470.8,1738.9,469.5,1738.9z M469.5,1736.6c0.8,0,1.5-0.2,2.1-0.7s1-1,1.2-1.8
				c0.3-0.7,0.4-1.5,0.4-2.4s-0.1-1.7-0.4-2.4s-0.7-1.3-1.2-1.8c-0.5-0.4-1.2-0.7-2.1-0.7s-1.5,0.2-2.1,0.7c-0.5,0.4-1,1-1.2,1.8
				s-0.4,1.5-0.4,2.4s0.1,1.7,0.4,2.4s0.7,1.3,1.2,1.8S468.7,1736.6,469.5,1736.6z"/>
			<path class="st1" d="M478.9,1738.6v-13.7h2.6v2.2h0.1c0.2-0.7,0.7-1.3,1.3-1.8s1.3-0.6,2.2-0.6c0.2,0,0.4,0,0.6,0s0.4,0,0.5,0
				v2.6c-0.1,0-0.3-0.1-0.6-0.1c-0.3,0-0.5-0.1-0.8-0.1c-0.6,0-1.2,0.1-1.7,0.4s-0.9,0.6-1.2,1.1s-0.4,1-0.4,1.6v8.4H478.9
				L478.9,1738.6z"/>
			<path class="st1" d="M491.2,1720.3v18.3h-2.7v-18.3H491.2z"/>
			<path class="st1" d="M500,1738.9c-1.1,0-2.1-0.3-3-0.8s-1.5-1.4-2-2.4c-0.5-1.1-0.7-2.3-0.7-3.8s0.2-2.8,0.8-3.8s1.2-1.9,2-2.4
				s1.8-0.8,3-0.8c0.8,0,1.5,0.1,2.1,0.4s0.9,0.6,1.2,1c0.3,0.4,0.5,0.7,0.7,1h0.2v-6.8h2.7v18.3h-2.6v-2.1h-0.2
				c-0.2,0.3-0.4,0.6-0.7,1s-0.7,0.7-1.2,1C501.5,1738.7,500.8,1738.9,500,1738.9L500,1738.9z M500.6,1736.6c0.8,0,1.4-0.2,2-0.6
				s0.9-1,1.2-1.7s0.4-1.6,0.4-2.5s-0.1-1.8-0.4-2.5s-0.7-1.3-1.2-1.7s-1.2-0.6-2-0.6s-1.5,0.2-2,0.6s-0.9,1-1.2,1.7
				s-0.4,1.5-0.4,2.4s0.1,1.7,0.4,2.5s0.7,1.3,1.2,1.7S499.7,1736.6,500.6,1736.6L500.6,1736.6z"/>
			<path class="st1" d="M512.7,1724.9l3,5.3l3.1-5.3h2.9l-4.3,6.9l4.3,6.9h-2.9l-3.1-5.1l-3.1,5.1h-2.9l4.3-6.9l-4.2-6.9H512.7z"/>
			<path class="st1" d="M529,1738.9c-1.1,0-2.1-0.3-3-0.8s-1.5-1.4-2-2.4c-0.5-1.1-0.7-2.3-0.7-3.8s0.2-2.8,0.8-3.8s1.2-1.9,2-2.4
				s1.8-0.8,3-0.8c0.8,0,1.5,0.1,2.1,0.4s0.9,0.6,1.2,1s0.5,0.7,0.7,1h0.2v-6.8h2.7v18.3h-2.6v-2.1H533c-0.2,0.3-0.4,0.6-0.7,1
				s-0.7,0.7-1.2,1C530.5,1738.7,529.8,1738.9,529,1738.9L529,1738.9z M529.6,1736.6c0.8,0,1.4-0.2,2-0.6s0.9-1,1.2-1.7
				s0.4-1.6,0.4-2.5s-0.1-1.8-0.4-2.5s-0.7-1.3-1.2-1.7s-1.2-0.6-2-0.6s-1.5,0.2-2,0.6s-0.9,1-1.2,1.7s-0.4,1.5-0.4,2.4
				s0.1,1.7,0.4,2.5c0.3,0.7,0.7,1.3,1.2,1.7C528.1,1736.4,528.8,1736.6,529.6,1736.6L529.6,1736.6z"/>
			<path class="st1" d="M545.5,1738.9c-1.3,0-2.5-0.3-3.5-0.9s-1.7-1.4-2.2-2.5s-0.8-2.3-0.8-3.7s0.3-2.6,0.8-3.7s1.3-1.9,2.2-2.5
				s2.1-0.9,3.3-0.9c0.8,0,1.5,0.1,2.2,0.4s1.4,0.7,2,1.2s1,1.3,1.4,2.1c0.3,0.9,0.5,1.9,0.5,3.2v0.9h-10.9v-2h8.3
				c0-0.7-0.1-1.3-0.4-1.9c-0.3-0.5-0.7-1-1.2-1.3s-1.1-0.5-1.8-0.5c-0.8,0-1.4,0.2-2,0.6s-1,0.8-1.3,1.4s-0.5,1.2-0.5,1.9v1.6
				c0,0.9,0.2,1.7,0.5,2.3c0.3,0.6,0.8,1.1,1.4,1.5c0.6,0.3,1.3,0.5,2.1,0.5c0.5,0,1-0.1,1.4-0.2c0.4-0.2,0.8-0.4,1.1-0.7
				c0.3-0.3,0.5-0.7,0.7-1.1l2.5,0.5c-0.2,0.7-0.6,1.4-1.1,1.9s-1.2,1-2,1.3C547.4,1738.7,546.5,1738.9,545.5,1738.9L545.5,1738.9z"
				/>
			<path class="st1" d="M564.7,1728.2l-2.4,0.4c-0.1-0.3-0.3-0.6-0.5-0.9s-0.5-0.5-0.9-0.7s-0.8-0.3-1.4-0.3c-0.8,0-1.4,0.2-1.9,0.5
				s-0.8,0.8-0.8,1.3s0.2,0.8,0.5,1.1c0.3,0.3,0.9,0.5,1.6,0.7l2.2,0.5c1.3,0.3,2.2,0.7,2.8,1.3s0.9,1.4,0.9,2.4
				c0,0.8-0.2,1.6-0.7,2.2s-1.1,1.1-2,1.5c-0.8,0.4-1.8,0.5-2.9,0.5c-1.5,0-2.8-0.3-3.8-1s-1.6-1.6-1.8-2.8l2.6-0.4
				c0.2,0.7,0.5,1.2,1,1.5s1.2,0.5,2,0.5c0.9,0,1.6-0.2,2.1-0.6s0.8-0.8,0.8-1.3c0-0.4-0.2-0.8-0.5-1.1c-0.3-0.3-0.8-0.5-1.5-0.7
				l-2.3-0.5c-1.3-0.3-2.2-0.8-2.8-1.4s-0.9-1.4-0.9-2.4c0-0.8,0.2-1.5,0.7-2.1s1.1-1.1,1.9-1.4c0.8-0.3,1.7-0.5,2.7-0.5
				c1.5,0,2.7,0.3,3.5,1S564.4,1727.2,564.7,1728.2L564.7,1728.2z"/>
			<path class="st1" d="M569.2,1722.8c-0.5,0-0.9-0.2-1.2-0.5s-0.5-0.7-0.5-1.1s0.2-0.8,0.5-1.1c0.3-0.3,0.7-0.5,1.2-0.5
				s0.9,0.2,1.2,0.5s0.5,0.7,0.5,1.1s-0.2,0.8-0.5,1.1C570.1,1722.6,569.7,1722.8,569.2,1722.8z M567.9,1738.6v-13.7h2.7v13.7H567.9
				z"/>
			<path class="st1" d="M579.9,1744c-1.1,0-2-0.1-2.8-0.4s-1.4-0.7-1.9-1.1c-0.5-0.5-0.9-1-1.1-1.5l2.3-0.9c0.2,0.3,0.4,0.5,0.7,0.8
				s0.6,0.6,1.1,0.8c0.5,0.2,1.1,0.3,1.8,0.3c1,0,1.8-0.2,2.5-0.7s1-1.3,1-2.3v-2.7h-0.2c-0.2,0.3-0.4,0.6-0.7,1
				c-0.3,0.3-0.7,0.7-1.2,0.9c-0.5,0.3-1.2,0.4-2,0.4c-1.1,0-2.1-0.2-2.9-0.8s-1.6-1.3-2.1-2.3s-0.8-2.2-0.8-3.7s0.2-2.7,0.8-3.8
				s1.2-1.8,2.1-2.4s1.9-0.8,3-0.8c0.8,0,1.5,0.1,2.1,0.4s0.9,0.6,1.2,1s0.5,0.7,0.7,1h0.2v-2.2h2.6v14c0,1.2-0.3,2.2-0.8,2.9
				c-0.5,0.8-1.3,1.3-2.2,1.7C582.1,1743.8,581.1,1744,579.9,1744L579.9,1744z M579.8,1736.2c0.8,0,1.4-0.2,1.9-0.5s0.9-0.9,1.2-1.6
				s0.4-1.5,0.4-2.4s-0.1-1.7-0.4-2.4c-0.3-0.7-0.7-1.2-1.2-1.7s-1.2-0.6-2-0.6s-1.5,0.2-2,0.6s-0.9,1-1.2,1.7s-0.4,1.5-0.4,2.4
				s0.1,1.7,0.4,2.4s0.7,1.2,1.2,1.6C578.4,1736,579,1736.2,579.8,1736.2L579.8,1736.2z"/>
			<path class="st1" d="M592.3,1730.4v8.2h-2.7v-13.7h2.6v2.2h0.2c0.3-0.7,0.8-1.3,1.5-1.8c0.7-0.4,1.5-0.7,2.6-0.7
				c0.9,0,1.8,0.2,2.5,0.6s1.2,1,1.6,1.7c0.4,0.8,0.6,1.7,0.6,2.8v8.7h-2.7v-8.4c0-1-0.3-1.8-0.8-2.3c-0.5-0.6-1.2-0.8-2.1-0.8
				c-0.6,0-1.2,0.1-1.7,0.4s-0.9,0.7-1.1,1.2C592.5,1729.1,592.3,1729.7,592.3,1730.4L592.3,1730.4z"/>
			<path class="st1" d="M606.4,1738.8c-0.5,0-0.9-0.2-1.3-0.5c-0.3-0.3-0.5-0.8-0.5-1.3s0.2-0.9,0.5-1.2c0.3-0.3,0.8-0.5,1.3-0.5
				s0.9,0.2,1.3,0.5s0.5,0.8,0.5,1.2c0,0.3-0.1,0.6-0.2,0.9c-0.2,0.3-0.4,0.5-0.7,0.7S606.8,1738.8,606.4,1738.8L606.4,1738.8z"/>
			<path class="st1" d="M617.6,1738.9c-1.3,0-2.5-0.3-3.4-0.9c-1-0.6-1.7-1.4-2.2-2.5s-0.8-2.3-0.8-3.7s0.3-2.6,0.8-3.7
				s1.3-1.9,2.2-2.5s2.1-0.9,3.4-0.9c1,0,2,0.2,2.8,0.6s1.5,0.9,2,1.6s0.8,1.5,0.9,2.4h-2.6c-0.1-0.6-0.5-1.2-1-1.7s-1.2-0.7-2-0.7
				s-1.4,0.2-2,0.6c-0.5,0.4-1,0.9-1.3,1.7c-0.3,0.7-0.5,1.6-0.5,2.5s0.2,1.9,0.5,2.6s0.7,1.3,1.3,1.7c0.6,0.4,1.2,0.6,2,0.6
				c0.5,0,1-0.1,1.4-0.3c0.4-0.2,0.8-0.5,1-0.8c0.3-0.3,0.5-0.8,0.6-1.3h2.6c-0.1,0.9-0.4,1.7-0.9,2.4c-0.5,0.7-1.1,1.2-1.9,1.6
				C619.6,1738.7,618.7,1738.9,617.6,1738.9L617.6,1738.9z"/>
			<path class="st1" d="M631.8,1738.9c-1.3,0-2.4-0.3-3.4-0.9s-1.7-1.4-2.2-2.5s-0.8-2.3-0.8-3.7s0.3-2.7,0.8-3.7
				c0.5-1.1,1.3-1.9,2.2-2.5c1-0.6,2.1-0.9,3.4-0.9c1.3,0,2.4,0.3,3.4,0.9s1.7,1.4,2.2,2.5s0.8,2.3,0.8,3.7s-0.3,2.7-0.8,3.7
				c-0.5,1.1-1.3,1.9-2.2,2.5S633.1,1738.9,631.8,1738.9z M631.8,1736.6c0.8,0,1.5-0.2,2.1-0.7c0.5-0.4,0.9-1,1.2-1.8
				c0.3-0.7,0.4-1.5,0.4-2.4s-0.1-1.7-0.4-2.4s-0.7-1.3-1.2-1.8c-0.6-0.4-1.2-0.7-2.1-0.7c-0.8,0-1.5,0.2-2.1,0.7
				c-0.6,0.4-1,1-1.2,1.8c-0.3,0.7-0.4,1.5-0.4,2.4s0.1,1.7,0.4,2.4c0.3,0.7,0.7,1.3,1.2,1.8C630.3,1736.4,631,1736.6,631.8,1736.6z
				"/>
			<path class="st1" d="M641.2,1738.6v-13.7h2.6v2.2h0.2c0.3-0.8,0.8-1.3,1.4-1.8c0.7-0.4,1.4-0.6,2.3-0.6s1.7,0.2,2.3,0.6
				s1.1,1,1.4,1.8h0.1c0.3-0.7,0.8-1.3,1.6-1.8c0.7-0.4,1.6-0.7,2.5-0.7c1.2,0,2.3,0.4,3.1,1.2c0.8,0.8,1.2,2,1.2,3.5v9.2h-2.7v-8.9
				c0-0.9-0.2-1.6-0.8-2s-1.1-0.6-1.8-0.6c-0.9,0-1.5,0.3-2,0.8s-0.7,1.2-0.7,2.1v8.7h-2.7v-9.1c0-0.7-0.2-1.3-0.7-1.8
				c-0.5-0.4-1.1-0.7-1.8-0.7c-0.5,0-1,0.1-1.4,0.4s-0.8,0.6-1,1.1s-0.4,1-0.4,1.6v8.5L641.2,1738.6L641.2,1738.6z"/>
		</g>
		<g>
			<path class="st1" d="M669.3,1899.7c-1.8,0-3.5-0.2-4.9-0.8c-1.4-0.5-2.6-1.2-3.6-2.2s-1.7-2.2-2.2-3.6s-0.8-3-0.8-4.8
				s0.3-3.3,0.8-4.8c0.5-1.4,1.3-2.6,2.2-3.6s2.2-1.8,3.6-2.3c1.4-0.5,3-0.8,4.8-0.8s3.2,0.3,4.5,0.8s2.4,1.3,3.3,2.2s1.6,2,2,3.2
				s0.7,2.5,0.7,3.8c0,0.9-0.1,1.9-0.2,2.8s-0.3,1.7-0.7,2.4c-0.3,0.7-0.8,1.3-1.4,1.7s-1.4,0.7-2.3,0.7c-0.5,0-1,0-1.5-0.2
				c-0.5-0.1-0.9-0.4-1.2-0.7c-0.3-0.3-0.5-0.7-0.6-1.2h-0.1c-0.1,0.3-0.4,0.7-0.7,1s-0.8,0.5-1.3,0.7s-1.1,0.2-1.8,0.2
				c-0.8,0-1.4-0.2-2-0.5s-1.1-0.7-1.5-1.3c-0.4-0.6-0.8-1.2-1-1.9s-0.3-1.6-0.3-2.5s0.1-1.7,0.4-2.4c0.3-0.7,0.6-1.3,1.1-1.8
				c0.4-0.5,0.9-0.9,1.5-1.2c0.6-0.3,1.2-0.5,1.8-0.6s1.2-0.1,1.7,0.1c0.5,0.1,1,0.3,1.3,0.5s0.6,0.5,0.7,0.7h0.1v-1h2.2v8.3
				c0,0.5,0.1,0.9,0.4,1.2s0.6,0.5,1.1,0.5s1-0.2,1.3-0.6s0.5-1,0.7-1.8s0.2-1.9,0.2-3.2c0-0.9-0.1-1.8-0.4-2.6s-0.6-1.5-1.1-2.2
				s-1-1.2-1.7-1.7s-1.4-0.8-2.3-1.1s-1.8-0.4-2.9-0.4c-1.4,0-2.7,0.2-3.8,0.7c-1.1,0.4-2,1.1-2.8,1.9s-1.3,1.8-1.7,2.9
				c-0.4,1.2-0.6,2.4-0.6,3.8s0.2,2.8,0.6,3.9c0.4,1.2,1,2.1,1.8,2.9s1.7,1.4,2.9,1.8s2.5,0.6,4,0.6c0.7,0,1.3-0.1,2-0.2
				c0.6-0.1,1.2-0.2,1.7-0.4s0.9-0.3,1.1-0.3l0.6,2c-0.4,0.2-0.9,0.3-1.5,0.5s-1.3,0.3-2,0.4C670.7,1899.7,670,1899.7,669.3,1899.7
				L669.3,1899.7z M668.5,1892.3c0.8,0,1.4-0.2,1.9-0.5s0.8-0.8,1-1.4s0.3-1.4,0.3-2.3s-0.1-1.6-0.3-2.2c-0.2-0.5-0.6-0.9-1-1.2
				c-0.5-0.2-1.1-0.3-1.8-0.3s-1.2,0.2-1.7,0.5s-0.8,0.8-1.1,1.3s-0.4,1.2-0.4,1.9c0,0.7,0.1,1.4,0.3,2s0.5,1.2,1,1.5
				C667.1,1892.1,667.7,1892.3,668.5,1892.3z"/>
			<path class="st1" d="M682.8,1894.8v-18.3h2.7v6.8h0.2c0.2-0.3,0.4-0.6,0.7-1s0.7-0.7,1.2-1s1.2-0.4,2.1-0.4c1.1,0,2.1,0.3,3,0.8
				s1.5,1.4,2,2.4s0.8,2.3,0.8,3.8s-0.2,2.8-0.7,3.8c-0.5,1.1-1.2,1.9-2,2.4s-1.8,0.8-3,0.8c-0.8,0-1.5-0.1-2-0.4s-0.9-0.6-1.2-1
				s-0.5-0.7-0.7-1h-0.2v2.1h-2.9V1894.8z M685.4,1887.9c0,1,0.1,1.8,0.4,2.5c0.3,0.7,0.7,1.3,1.2,1.7c0.5,0.4,1.2,0.6,2,0.6
				s1.5-0.2,2-0.6s0.9-1,1.2-1.7s0.4-1.6,0.4-2.5s-0.1-1.7-0.4-2.4c-0.3-0.7-0.7-1.3-1.2-1.7c-0.5-0.4-1.2-0.6-2-0.6s-1.4,0.2-2,0.6
				s-0.9,1-1.2,1.7C685.6,1886.1,685.5,1887,685.4,1887.9L685.4,1887.9z"/>
			<path class="st1" d="M704.3,1895c-1.3,0-2.5-0.3-3.5-0.9s-1.7-1.4-2.2-2.5s-0.8-2.3-0.8-3.7s0.3-2.6,0.8-3.7s1.3-1.9,2.2-2.5
				c1-0.6,2.1-0.9,3.3-0.9c0.8,0,1.5,0.1,2.2,0.4s1.4,0.7,2,1.2c0.6,0.6,1,1.3,1.4,2.1c0.3,0.9,0.5,1.9,0.5,3.2v0.9h-10.9v-2h8.3
				c0-0.7-0.1-1.3-0.4-1.9c-0.3-0.5-0.7-1-1.2-1.3s-1.1-0.5-1.8-0.5c-0.8,0-1.4,0.2-2,0.6s-1,0.8-1.3,1.4s-0.5,1.2-0.5,1.9v1.6
				c0,0.9,0.2,1.7,0.5,2.3c0.3,0.6,0.8,1.1,1.4,1.5c0.6,0.3,1.3,0.5,2,0.5c0.5,0,1-0.1,1.4-0.2c0.4-0.2,0.8-0.4,1.1-0.7
				c0.3-0.3,0.5-0.7,0.7-1.1l2.5,0.5c-0.2,0.7-0.6,1.4-1.1,1.9c-0.5,0.6-1.2,1-2,1.3C706.2,1894.9,705.3,1895,704.3,1895L704.3,1895
				z"/>
			<path class="st1" d="M719.5,1881v2.1H712v-2.1H719.5z M714.1,1877.8h2.7v13c0,0.5,0.1,0.9,0.2,1.2c0.2,0.3,0.4,0.4,0.6,0.5
				c0.2,0.1,0.5,0.1,0.8,0.1c0.2,0,0.4,0,0.6,0c0.2,0,0.3-0.1,0.4-0.1l0.5,2.2c-0.2,0.1-0.4,0.1-0.7,0.2s-0.6,0.1-1.1,0.1
				c-0.7,0-1.4-0.1-2-0.4s-1.1-0.7-1.5-1.2c-0.4-0.6-0.6-1.2-0.6-2.1L714.1,1877.8L714.1,1877.8z"/>
			<path class="st1" d="M728.9,1881v2.1h-7.5v-2.1H728.9z M723.4,1877.8h2.7v13c0,0.5,0.1,0.9,0.2,1.2s0.4,0.4,0.6,0.5
				c0.2,0.1,0.5,0.1,0.8,0.1c0.2,0,0.4,0,0.6,0s0.3-0.1,0.4-0.1l0.5,2.2c-0.2,0.1-0.4,0.1-0.7,0.2s-0.6,0.1-1.1,0.1
				c-0.7,0-1.4-0.1-2-0.4s-1.1-0.7-1.5-1.2c-0.4-0.6-0.6-1.2-0.6-2.1L723.4,1877.8L723.4,1877.8z"/>
			<path class="st1" d="M737.6,1895c-1.3,0-2.5-0.3-3.5-0.9s-1.7-1.4-2.2-2.5s-0.8-2.3-0.8-3.7s0.3-2.6,0.8-3.7s1.3-1.9,2.2-2.5
				s2.1-0.9,3.3-0.9c0.8,0,1.5,0.1,2.2,0.4s1.4,0.7,2,1.2c0.6,0.6,1,1.3,1.4,2.1c0.3,0.9,0.5,1.9,0.5,3.2v0.9h-10.9v-2h8.3
				c0-0.7-0.1-1.3-0.4-1.9s-0.7-1-1.2-1.3s-1.1-0.5-1.8-0.5c-0.8,0-1.4,0.2-2,0.6s-1,0.8-1.3,1.4s-0.4,1.2-0.4,1.9v1.6
				c0,0.9,0.2,1.7,0.5,2.3s0.8,1.1,1.4,1.5s1.3,0.5,2.1,0.5c0.5,0,1-0.1,1.4-0.2c0.4-0.2,0.8-0.4,1.1-0.7s0.5-0.7,0.7-1.1l2.5,0.5
				c-0.2,0.7-0.6,1.4-1.1,1.9c-0.5,0.6-1.2,1-2,1.3C739.5,1894.9,738.6,1895,737.6,1895L737.6,1895z"/>
			<path class="st1" d="M746.5,1894.8V1881h2.6v2.2h0.1c0.2-0.7,0.7-1.3,1.3-1.8c0.6-0.4,1.3-0.6,2.2-0.6c0.2,0,0.4,0,0.6,0
				c0.2,0,0.4,0,0.5,0v2.6c-0.1,0-0.3-0.1-0.6-0.1s-0.6-0.1-0.8-0.1c-0.6,0-1.2,0.1-1.7,0.4s-0.9,0.6-1.2,1.1s-0.4,1-0.4,1.6v8.4
				L746.5,1894.8L746.5,1894.8z"/>
			<path class="st1" d="M759.3,1894.8l-4-13.7h2.8l2.7,10.1h0.1l2.7-10.1h2.8l2.7,10h0.1l2.7-10h2.8l-4,13.7H768l-2.8-9.9H765
				l-2.8,9.9H759.3L759.3,1894.8z"/>
			<path class="st1" d="M782.5,1895c-1.3,0-2.4-0.3-3.4-0.9s-1.7-1.4-2.2-2.5s-0.8-2.3-0.8-3.7s0.3-2.7,0.8-3.7
				c0.5-1.1,1.3-1.9,2.2-2.5s2.1-0.9,3.4-0.9s2.4,0.3,3.4,0.9s1.7,1.4,2.2,2.5s0.8,2.3,0.8,3.7s-0.3,2.7-0.8,3.7
				c-0.5,1.1-1.3,1.9-2.2,2.5S783.7,1895,782.5,1895z M782.5,1892.8c0.8,0,1.5-0.2,2.1-0.7s0.9-1,1.2-1.8c0.3-0.7,0.4-1.5,0.4-2.4
				s-0.1-1.7-0.4-2.4s-0.7-1.3-1.2-1.8c-0.6-0.4-1.2-0.7-2.1-0.7s-1.5,0.2-2.1,0.7c-0.6,0.4-1,1-1.2,1.8c-0.3,0.7-0.4,1.5-0.4,2.4
				s0.1,1.7,0.4,2.4c0.3,0.7,0.7,1.3,1.2,1.8S781.6,1892.8,782.5,1892.8z"/>
			<path class="st1" d="M791.8,1894.8V1881h2.6v2.2h0.1c0.2-0.7,0.7-1.3,1.3-1.8c0.6-0.4,1.3-0.6,2.2-0.6c0.2,0,0.4,0,0.6,0
				s0.4,0,0.5,0v2.6c-0.1,0-0.3-0.1-0.6-0.1s-0.6-0.1-0.8-0.1c-0.6,0-1.2,0.1-1.7,0.4s-0.9,0.6-1.2,1.1s-0.4,1-0.4,1.6v8.4
				L791.8,1894.8L791.8,1894.8z"/>
			<path class="st1" d="M804.2,1876.5v18.3h-2.7v-18.3H804.2z"/>
			<path class="st1" d="M812.9,1895c-1.1,0-2.1-0.3-3-0.8s-1.5-1.4-2-2.4s-0.7-2.3-0.7-3.8s0.2-2.8,0.8-3.8s1.2-1.9,2.1-2.4
				s1.9-0.8,3-0.8c0.8,0,1.5,0.1,2.1,0.4s0.9,0.6,1.2,1s0.5,0.7,0.7,1h0.2v-6.8h2.7v18.3h-2.6v-2.1h-0.2c-0.2,0.3-0.4,0.6-0.7,1
				s-0.7,0.7-1.2,1C814.4,1894.9,813.7,1895,812.9,1895L812.9,1895z M813.5,1892.8c0.8,0,1.4-0.2,1.9-0.6s0.9-1,1.2-1.7
				s0.4-1.6,0.4-2.5s-0.1-1.8-0.4-2.5s-0.7-1.3-1.2-1.7c-0.5-0.4-1.2-0.6-2-0.6s-1.5,0.2-2,0.6s-0.9,1-1.2,1.7s-0.4,1.5-0.4,2.4
				s0.1,1.7,0.4,2.5s0.7,1.3,1.2,1.7S812.7,1892.7,813.5,1892.8L813.5,1892.8z"/>
			<path class="st1" d="M825.6,1881l3,5.3l3.1-5.3h2.9l-4.3,6.9l4.3,6.9h-2.9l-3.1-5.1l-3.1,5.1h-2.9l4.3-6.9l-4.2-6.9H825.6
				L825.6,1881z"/>
			<path class="st1" d="M841.9,1895c-1.1,0-2.1-0.3-3-0.8s-1.6-1.4-2-2.4s-0.7-2.3-0.7-3.8s0.2-2.8,0.8-3.8s1.2-1.9,2.1-2.4
				s1.9-0.8,3-0.8c0.8,0,1.5,0.1,2.1,0.4s0.9,0.6,1.2,1s0.5,0.7,0.7,1h0.2v-6.8h2.7v18.3h-2.6v-2.1h-0.2c-0.2,0.3-0.4,0.6-0.7,1
				s-0.7,0.7-1.2,1C843.4,1894.9,842.8,1895,841.9,1895L841.9,1895z M842.5,1892.8c0.8,0,1.4-0.2,1.9-0.6s0.9-1,1.2-1.7
				s0.4-1.6,0.4-2.5s-0.1-1.8-0.4-2.5s-0.7-1.3-1.2-1.7c-0.5-0.4-1.2-0.6-2-0.6s-1.5,0.2-2,0.6s-0.9,1-1.2,1.7s-0.4,1.5-0.4,2.4
				s0.1,1.7,0.4,2.5s0.7,1.3,1.2,1.7S841.7,1892.7,842.5,1892.8L842.5,1892.8z"/>
			<path class="st1" d="M858.4,1895c-1.3,0-2.5-0.3-3.5-0.9s-1.7-1.4-2.2-2.5s-0.8-2.3-0.8-3.7s0.3-2.6,0.8-3.7s1.3-1.9,2.2-2.5
				s2.1-0.9,3.3-0.9c0.8,0,1.5,0.1,2.2,0.4s1.4,0.7,2,1.2c0.6,0.6,1,1.3,1.4,2.1c0.3,0.9,0.5,1.9,0.5,3.2v0.9h-10.9v-2h8.3
				c0-0.7-0.1-1.3-0.4-1.9s-0.7-1-1.2-1.3s-1.1-0.5-1.8-0.5c-0.8,0-1.4,0.2-2,0.6s-1,0.8-1.3,1.4s-0.4,1.2-0.4,1.9v1.6
				c0,0.9,0.2,1.7,0.5,2.3s0.8,1.1,1.4,1.5s1.3,0.5,2.1,0.5c0.5,0,1-0.1,1.4-0.2c0.4-0.2,0.8-0.4,1.1-0.7s0.5-0.7,0.7-1.1l2.5,0.5
				c-0.2,0.7-0.6,1.4-1.1,1.9c-0.5,0.6-1.2,1-2,1.3C860.3,1894.9,859.4,1895,858.4,1895L858.4,1895z"/>
			<path class="st1" d="M877.6,1884.4l-2.4,0.4c-0.1-0.3-0.3-0.6-0.5-0.9s-0.5-0.5-0.9-0.7s-0.8-0.3-1.4-0.3c-0.8,0-1.4,0.2-1.9,0.5
				s-0.8,0.8-0.8,1.3s0.2,0.8,0.5,1.1s0.9,0.5,1.6,0.7l2.2,0.5c1.3,0.3,2.2,0.7,2.8,1.3s0.9,1.4,0.9,2.4c0,0.8-0.2,1.6-0.7,2.2
				s-1.1,1.1-2,1.5c-0.8,0.4-1.8,0.5-2.9,0.5c-1.5,0-2.8-0.3-3.8-1s-1.6-1.6-1.8-2.8l2.6-0.4c0.2,0.7,0.5,1.2,1,1.5s1.2,0.5,2,0.5
				c0.9,0,1.6-0.2,2.1-0.6s0.8-0.8,0.8-1.3c0-0.4-0.2-0.8-0.5-1.1c-0.3-0.3-0.8-0.5-1.5-0.7l-2.3-0.5c-1.3-0.3-2.2-0.8-2.8-1.4
				s-0.9-1.4-0.9-2.4c0-0.8,0.2-1.5,0.7-2.1c0.4-0.6,1.1-1.1,1.9-1.4s1.7-0.5,2.7-0.5c1.5,0,2.7,0.3,3.5,1
				S877.3,1883.3,877.6,1884.4L877.6,1884.4z"/>
			<path class="st1" d="M882.1,1878.9c-0.5,0-0.9-0.2-1.2-0.5s-0.5-0.7-0.5-1.1s0.2-0.8,0.5-1.1s0.7-0.5,1.2-0.5s0.9,0.2,1.2,0.5
				s0.5,0.7,0.5,1.1s-0.2,0.8-0.5,1.1S882.6,1878.9,882.1,1878.9z M880.8,1894.8v-13.7h2.7v13.7H880.8z"/>
			<path class="st1" d="M892.8,1900.2c-1.1,0-2-0.1-2.8-0.4s-1.4-0.7-1.9-1.1c-0.5-0.5-0.9-1-1.1-1.5l2.3-0.9
				c0.2,0.3,0.4,0.5,0.7,0.8s0.6,0.6,1.1,0.8c0.5,0.2,1.1,0.3,1.8,0.3c1,0,1.8-0.2,2.5-0.7s1-1.3,1-2.3v-2.7h-0.2
				c-0.2,0.3-0.4,0.6-0.7,1s-0.7,0.7-1.2,0.9c-0.5,0.3-1.2,0.4-2,0.4c-1.1,0-2.1-0.2-2.9-0.8s-1.6-1.3-2.1-2.3s-0.8-2.2-0.8-3.7
				s0.2-2.7,0.8-3.8s1.2-1.8,2.1-2.4s1.9-0.8,3-0.8c0.8,0,1.5,0.1,2.1,0.4s0.9,0.6,1.2,1s0.5,0.7,0.7,1h0.2v-2.2h2.6v14
				c0,1.2-0.3,2.2-0.8,2.9c-0.6,0.8-1.3,1.3-2.2,1.7S894,1900.2,892.8,1900.2L892.8,1900.2z M892.8,1892.3c0.8,0,1.4-0.2,1.9-0.5
				s0.9-0.9,1.2-1.6s0.4-1.5,0.4-2.4s-0.1-1.7-0.4-2.4s-0.7-1.2-1.2-1.7c-0.5-0.4-1.2-0.6-2-0.6s-1.5,0.2-2,0.6s-0.9,1-1.2,1.7
				s-0.4,1.5-0.4,2.4s0.1,1.7,0.4,2.4s0.7,1.2,1.2,1.6S892,1892.3,892.8,1892.3L892.8,1892.3z"/>
			<path class="st1" d="M905.2,1886.6v8.2h-2.7v-13.7h2.6v2.2h0.2c0.3-0.7,0.8-1.3,1.5-1.8s1.5-0.7,2.6-0.7c0.9,0,1.8,0.2,2.5,0.6
				s1.2,1,1.6,1.7c0.4,0.8,0.6,1.7,0.6,2.8v8.7h-2.7v-8.4c0-1-0.3-1.8-0.8-2.3c-0.5-0.6-1.2-0.8-2.1-0.8c-0.6,0-1.2,0.1-1.7,0.4
				s-0.9,0.7-1.1,1.2C905.4,1885.3,905.2,1885.9,905.2,1886.6L905.2,1886.6z"/>
		</g>
		<g>
			<polygon class="st1" points="745.3,1421.3 757.4,1431.5 604.7,1468.4 592.6,1458.3 			"/>
			<polygon class="st0" points="681.3,1516 693.4,1526.2 604.7,1468.4 592.6,1458.3 			"/>
			<polygon class="st0" points="745.3,1421.3 757.4,1431.5 693.4,1526.2 681.3,1516 			"/>
			<polygon class="st0" points="592.6,1458.3 745.3,1421.3 681.3,1516 			"/>
			<polygon class="st1" points="682.3,1521.9 694.3,1532.1 593.9,1466.7 581.9,1456.6 			"/>
			<polygon class="st1" points="754.8,1414.7 766.8,1424.9 694.3,1532.1 682.3,1521.9 			"/>
			<path class="st1" d="M581.9,1456.6l172.9-41.8L682.3,1522L581.9,1456.6L581.9,1456.6z M592.6,1458.3l88.7,57.7l64-94.7
				L592.6,1458.3"/>
		</g>
		<g>
			<polygon class="st6" points="33.7,924.7 26.1,885.2 169.8,943.2 177.3,982.7 			"/>
			<polygon class="st0" points="33.7,924.7 26.1,885.2 125.7,772.7 133.2,812.3 			"/>
			<polygon class="st0" points="133.2,812.3 125.7,772.7 169.8,943.2 177.3,982.7 			"/>
			<polygon class="st0" points="133.2,812.3 177.3,982.7 33.7,924.7 			"/>
			<polygon class="st6" points="135.3,805.2 127.8,765.6 175.1,948.6 182.6,988.1 			"/>
			<polygon class="st6" points="28.5,925.9 20.9,886.3 127.8,765.6 135.3,805.2 			"/>
			<path class="st6" d="M28.5,925.9l106.9-120.7l47.3,183L28.5,925.9L28.5,925.9z M177.3,982.7l-44-170.5L33.7,924.7L177.3,982.7"/>
		</g>
		<g>
			<polygon class="st1" points="563.9,328.3 572.5,343.2 491.5,449 482.9,434.1 			"/>
			<polygon class="st1" points="668.2,391.3 676.9,406.2 572.5,343.2 563.9,328.3 			"/>
			<polygon class="st0" points="587.3,497.1 595.9,512 491.5,449 482.9,434.1 			"/>
			<polygon class="st0" points="668.2,391.3 676.9,406.2 595.9,512 587.3,497.1 			"/>
			<path class="st1" d="M563.2,323.7l110.1,66.5l-85.4,111.5l-110.1-66.5L563.2,323.7L563.2,323.7z M482.9,434.1l104.4,63l81-105.8
				l-104.4-63L482.9,434.1"/>
			<polygon class="st0" points="563.9,328.3 668.2,391.3 587.3,497.1 482.9,434.1 			"/>
			<polygon class="st1" points="587.9,501.7 596.5,516.7 486.5,450.2 477.8,435.2 			"/>
			<polygon class="st1" points="673.3,390.2 681.9,405.1 596.5,516.7 587.9,501.7 			"/>
		</g>
		<g>
			<polygon class="st1" points="298.1,1222 270.6,1236.8 118,1153.1 145.5,1138.4 			"/>
			<polygon class="st1" points="258,1384.1 230.4,1398.8 270.6,1236.8 298.1,1222 			"/>
			<polygon class="st0" points="105.4,1300.4 77.8,1315.1 118,1153.1 145.5,1138.4 			"/>
			<polygon class="st0" points="258,1384.1 230.4,1398.8 77.8,1315.1 105.4,1300.4 			"/>
			<polygon class="st0" points="145.5,1138.4 298.1,1222 258,1384.1 105.4,1300.4 			"/>
			<polygon class="st1" points="100.1,1302.6 72.6,1317.3 114.9,1146.4 142.4,1131.7 			"/>
			<polygon class="st1" points="261,1390.8 233.5,1405.5 72.6,1317.3 100.1,1302.6 			"/>
			<path class="st1" d="M142.4,1131.7l160.9,88.2L261,1390.8l-160.9-88.2L142.4,1131.7L142.4,1131.7z M105.4,1300.4l152.6,83.7
				l40.1-162.1l-152.6-83.7L105.4,1300.4"/>
		</g>
		<g>
			<polygon class="st1" points="710,2158.2 703.3,2189.1 533.2,2109.2 539.9,2078.3 			"/>
			<polygon class="st0" points="626.5,2282.5 619.8,2313.4 449.7,2233.6 456.4,2202.6 			"/>
			<polygon class="st1" points="539.9,2078.3 533.2,2109.2 449.7,2233.6 456.4,2202.6 			"/>
			<polygon class="st0" points="710,2158.2 703.3,2189.1 619.8,2313.4 626.5,2282.5 			"/>
			<polygon class="st0" points="539.9,2078.3 710,2158.2 626.5,2282.5 456.4,2202.6 			"/>
			<polygon class="st1" points="628.9,2288.1 622.2,2319 442.8,2234.8 449.5,2203.9 			"/>
			<polygon class="st1" points="717,2157 710.3,2187.9 622.2,2319 628.9,2288.1 			"/>
			<path class="st1" d="M537.6,2072.8L717,2157l-88.1,131.1l-179.4-84.2L537.6,2072.8L537.6,2072.8z M456.4,2202.6l170.1,79.9
				l83.5-124.3l-170.1-79.9L456.4,2202.6"/>
		</g>
		<g>
			<path class="st1" d="M1083.1,1077.8l-19.6,33.8c5.8-10.1,7.3-22.8,3.3-37c-10.7-37.7-55.9-72-100.9-76.7
				c-27.9-2.9-49.2,6.4-58.8,22.9l19.6-33.8c9.6-16.5,30.9-25.8,58.8-22.9c44.9,4.6,90.2,39,100.9,76.7
				C1090.4,1055,1089,1067.7,1083.1,1077.8z"/>
			<path class="st0" d="M903.8,1057.8c-4.1-14.2-2.6-27,3.3-37l19.6-33.8c-5.8,10-7.3,22.8-3.3,37s12.9,27.8,24.8,39.6
				c-6.5,11.2-13.1,22.5-19.6,33.8C916.6,1085.5,907.8,1071.9,903.8,1057.8z"/>
			<path class="st0" d="M1004.7,1134.4c-28.1-2.9-56.3-17.4-76.1-37.1c6.5-11.2,13.1-22.5,19.6-33.8c19.8,19.7,48,34.2,76.1,37.1
				c27.9,2.9,49.3-6.4,58.8-22.9l-19.6,33.8C1053.9,1128,1032.6,1137.3,1004.7,1134.4z"/>
			<path class="st0" d="M985.5,964.1c44.9,4.6,90.2,39,100.9,76.7c10.7,37.7-17.2,64.6-62.1,59.9s-90.2-39-100.9-76.7
				C912.7,986.4,940.6,959.5,985.5,964.1L985.5,964.1z"/>
			<path class="st1" d="M1088,1080.6l-19.6,33.8c-10.2,17.5-32.8,27.3-62.5,24.3c-47.8-4.9-95.7-41.3-107.1-81.4
				c-4.3-15.2-2.7-28.7,3.5-39.4l19.6-33.8c-6.2,10.7-7.8,24.2-3.5,39.4c11.4,40,59.3,76.5,107.1,81.4
				C1055.1,1108,1077.8,1098.1,1088,1080.6z"/>
			<path class="st1" d="M984.3,959.9c47.8,4.9,95.7,41.3,107.1,81.4c11.4,40-18.2,68.5-65.9,63.6s-95.7-41.3-107.1-81.4
				C907,983.5,936.5,955,984.3,959.9L984.3,959.9z M1024.3,1100.7c44.9,4.6,72.8-22.3,62.1-59.9c-10.7-37.7-55.9-72-100.9-76.7
				s-72.8,22.3-62.1,59.9C934.1,1061.7,979.3,1096.1,1024.3,1100.7"/>
		</g>
		<g>
			<path class="st1" d="M109.8,1855.9l44-15.9c-1.6,0.6-3.2,1.2-4.8,2c-19.9,9.2-34.1,29-39.9,55.7s-2.5,57.1,9.2,85.6
				s30.5,51.7,52.9,65.4c20.6,12.6,42,15.6,60.8,8.8l-44,15.9c-18.8,6.8-40.2,3.7-60.8-8.8c-22.4-13.6-41.2-36.9-52.9-65.4
				s-15-58.9-9.2-85.6s19.9-46.4,39.9-55.7C106.5,1857.2,108.1,1856.5,109.8,1855.9L109.8,1855.9z"/>
			<path class="st0" d="M153.8,1840.1c18.8-6.8,40.2-3.7,60.8,8.8l-44,15.9c-20.6-12.6-42-15.6-60.8-8.8
				C123,1851.2,140.6,1844.8,153.8,1840.1L153.8,1840.1z"/>
			<path class="st1" d="M107.3,1849.3l44-15.9c19.3-7,42-4.4,64.6,9.3l-44,15.9C149.3,1844.9,126.5,1842.3,107.3,1849.3z"/>
			<path class="st0" d="M214.6,1848.9c19.6,11.9,36.4,31.2,48.2,54.9c-14.7,5.3-29.3,10.6-44,15.9c-11.8-23.7-28.6-43-48.2-54.9
				C183.8,1860,201.4,1853.7,214.6,1848.9z"/>
			<path class="st0" d="M236.8,2055.5c-1.6,0.7-3.2,1.4-4.8,2l-44,15.9c1.6-0.6,3.2-1.2,4.8-2c19.9-9.2,34.1-29,39.9-55.7
				s2.5-57.1-9.2-85.6c-1.5-3.6-3-7.1-4.7-10.5c3.5-1.3,7-2.6,10.6-3.8c1.7-0.6,4-1.4,5.7-2s4-1.5,5.8-2.1s4-1.5,5.8-2.1
				s4-1.4,5.7-2s3.8-1.4,5.5-2c1.5-0.6,3.6-1.3,5.1-1.9c1.7,3.4,3.3,6.9,4.7,10.5c11.7,28.5,15,58.9,9.2,85.6
				S256.8,2046.3,236.8,2055.5L236.8,2055.5z"/>
			<path class="st0" d="M170.5,1864.8c22.4,13.6,41.2,36.9,52.9,65.4s15,58.9,9.2,85.6s-19.9,46.4-39.9,55.7s-43.2,6.8-65.6-6.9
				s-41.2-36.9-52.9-65.4s-15-58.9-9.2-85.6s19.9-46.4,39.9-55.7C124.9,1848.7,148.2,1851.1,170.5,1864.8L170.5,1864.8z"/>
			<path class="st1" d="M234.5,2064.1l-44,15.9c22.7-8.2,40.5-29.5,47.3-61.2c12.7-58.6-16.8-130.3-66-160.3l44-15.9
				c49.1,29.9,78.7,101.7,66,160.3C275,2034.6,257.2,2056,234.5,2064.1L234.5,2064.1z"/>
			<path class="st1" d="M171.9,1858.6c49.1,29.9,78.7,101.7,66,160.3c-12.7,58.6-62.8,81.8-111.9,51.8S47.3,1969,60,1910.4
				S122.8,1828.7,171.9,1858.6z M192.8,2071.4c19.9-9.2,34.1-29,39.9-55.7s2.5-57.1-9.2-85.6s-30.5-51.7-52.9-65.4
				s-45.7-16.1-65.6-6.8c-19.9,9.2-34.1,29-39.9,55.7s-2.5,57.1,9.2,85.6s30.5,51.7,52.9,65.4S172.9,2080.6,192.8,2071.4"/>
		</g>
		<g>
			<path class="st6" d="M830.2,192.8c-1.5-0.3-3-0.4-4.4-0.8c-1.7-0.5-3.3-1.1-4.8-2c-1.1-0.6-2.1-1.7-2.6-2.8
				c-0.6-1.2-1.2-1.5-2.5-1.4c-3.1,0.2-5.9-0.9-8.1-3.1c-1.9-2-2-4.9,0.1-6.8c1.2-1.1,2.8-1.8,4.2-2.6c0.6-0.3,1.3-0.5,2.1-0.8
				c-0.3-0.5-0.5-0.8-0.8-1.2c-2.9-3.9-5.1-8.1-6-12.9c-0.2-1.3-1.2-1.1-2.1-1.1c-0.9-0.1-0.9,0.6-1,1.2c-0.3,2.1-0.7,4.1-0.9,6.1
				c-0.2,1.7-0.1,1.7,1.6,1.9c0.2,0,0.4,0.1,0.6,0.1c-0.1,1.1-0.9,2.2-2.1,2.3c-1.7,0.1-3.4,0.1-5.1,0.1c-0.3,0-0.6-0.3-0.9-0.4
				c0.2-0.3,0.2-0.7,0.5-0.9c1.5-1.2,1.3-3.1,1.6-4.7c0.9-5,1.8-10.1,2.7-15.1c0.2-0.9-0.1-1.2-1-1.3c-1.9-0.1-2.5,0.5-2.5,2.3
				c0,0.9-2,3-2.8,2.8c-0.3,0-0.6-0.4-0.7-0.7c-0.4-1.4,0-2.6,0.9-3.6c1.5-1.8,3.4-2.9,5.8-3.2c0.7-0.1,1-0.4,1.2-1
				c0.7-2.9,2.1-5.6,4-7.9c0.2-0.3,0.4-0.8,0.4-1.2c-0.1-3,1.3-5.2,3.6-6.8c2.6-1.8,5.5-2.6,8.7-2.5c1,0,1.4-0.2,1.9-1.1
				c0.7-1.1,1.7-2.1,2.8-2.7c3.8-2,7.9-1.9,12-0.8c1.7,0.5,3.4,1,4.8,2c2.2,1.6,4.7,1.8,7.2,2.1c1.5,0.2,3,0.7,4.4,1.2
				c1.2,0.5,2,1.6,2.2,2.9c0.2,1.2-0.2,2.3-1.2,3s-2.2,1.1-3.7,0.8c0.4-0.4,0.5-0.5,0.7-0.6c1.6-1.1,1.8-2.8,0.4-4.2
				c-1.1-1.1-3.3-1.9-5.2-1.7c2.8,3.3,3.8,7,2.2,11.3c1.1,0.4,2.2,0.9,3.3,1.2c0.2,0.1,0.7-0.2,0.8-0.5c2-2.8,4.9-3.4,8-3.2
				c0.8,0.1,1.8,0.7,2.2,1.4c0.5,1,0.1,2.2-0.8,2.8c-1.1,0.7-2.4,1.2-3.6,1.6c-0.7,0.2-1.4,0.1-2.2,0.1c-1.6,0-1.7,0-1.8,1.7
				c0,0.5,0,1.1,0,1.8c1,0,1.9-0.1,2.9,0c1.6,0.1,3.3,0.1,4.8,0.4c3.3,0.8,5,3.6,5.5,7.4c1.2,9.7-7.5,16.7-14.9,17
				c-2,0.1-4.1,0.2-6.1,0.2c-0.3,0-0.9-0.2-1-0.4c-0.1-0.3,0-0.9,0.2-1.1c1.2-1.1,1.4-2.5,1.6-3.9c0.8-5.1,1.6-10.3,2.4-15.4
				c0.1-0.5,0.1-1,0.2-1.8c-0.9,0.1-1.7,0-2.4,0.2c-0.4,0.1-1,0.9-0.9,1.3c0.2,1.8-1.2,2.5-2.3,3.2c-0.7,0.4-1.2,0.1-1.2-0.7
				c-0.2-1.4,0.3-2.6,1.3-3.6c1.6-1.4,3.2-2.8,5.5-2.9c0.3,0,0.8-0.4,0.9-0.7c0.3-1,0.6-2,0.8-3.1c-1.2-0.5-2.3-1-3.5-1.5
				c-0.2-0.1-0.6,0.1-0.8,0.2c-2.8,2.8-6.3,2.9-9.9,2.4c-3.8-0.4-7.2-2-10.5-3.9c-0.7-0.4-1.2-0.4-2,0c-3.7,2.2-7.7,3.1-11.9,1.8
				c-1.4-0.5-2.7-1.4-4.4-2.2c-0.5,1.6-1,3.2-1.4,4.9c-0.5,2.1-0.3,2.2,1.8,2.2c1.3,0,2.6-0.1,3.9,0.1c2,0.2,2.9,1.2,3.3,3.2
				c0.7,3.4-0.7,6.6-3.9,8.5c-0.9,0.6-1.2,1.1-0.8,2.1c1.1,2.7,2.2,5.4,3.4,7.9c0.8,1.7,2,3.2,3,4.9c0.4,0.7,0.9,0.9,1.7,0.8
				c5.6-0.7,11.2-0.7,16.7,1.1c1.6,0.5,3.2,1.2,4.7,2c1,0.5,1.7,0.6,2.7,0.2c3.2-1.2,6.6-1.6,10-1h0.1c1.5,0.4,3,0.7,3.5,2.5
				c0.4,1.7-0.3,3.1-1.6,4.2c-2.2,1.9-4.9,2.6-7.7,3.1c-1.2,0.2-2,0.6-2.6,1.9c-1.6,3.3-4.6,4.9-8,6c-1.4,0.5-2.9,0.7-4.3,1.1
				L830.2,192.8L830.2,192.8z M863.5,155.5c0-5.8-2.7-8.6-8.2-8.7c-1.1,0-1.4,0.4-1.5,1.4c-0.1,1.6-0.4,3.1-0.6,4.7
				c-0.5,4-1,8-1.6,12c-0.2,1.1,0.3,1.5,1.2,1.4c1.4-0.2,2.8-0.2,4.1-0.6C861.2,164.2,863.5,160.6,863.5,155.5L863.5,155.5z
				 M832.9,185l-0.1-0.5c-1.1-0.3-2.2-0.4-3.2-0.8c-2.9-1.2-5.1,0.9-8,1.2c0.6,1,1,1.7,1.5,2.3c4.2,5.3,12.7,4.4,16.2,1.8
				c1.4-1,2.2-2.5,2.3-4.4c-1.1,0-2.2,0.1-3.2,0s-1.7,0.2-2.5,1c-1.8,1.8-4.1,2.3-6.5,1.9c-1.6-0.2-2.6-1.2-2.7-2.3
				c1,0.3,2,0.9,3,0.8C830.8,186,831.9,185.3,832.9,185L832.9,185z M827.4,135.9c3.8,2.1,7.6,3.6,11.8,3.4c2-0.1,3.9-0.8,5.2-2.6
				c-1.5-1.1-2.9-2.1-4.3-3.1c-0.2-0.1-0.6-0.2-0.9-0.1c-2.7,1.2-5.5,1.1-8.2,0.4c-0.3-0.1-0.9-0.1-1.1,0.1
				C829,134.5,828.3,135.1,827.4,135.9L827.4,135.9z M819.8,178.9c-0.9-1-1.6-1.9-2.4-2.8c-1.8-1.9-1.8-1.9-4.1-0.4
				c-0.2,0.1-0.5,0.3-0.7,0.5c-1,0.8-1.8,1.7-1.8,3c-0.1,2.7,3.6,5.5,6.2,4.8c0.2-0.1,0.5-0.4,0.5-0.5
				C817.5,181.5,818.6,180,819.8,178.9L819.8,178.9z M819.6,173.4c1,1,1.7,1.8,2.4,2.6s1.4,0.9,2.4,0.6c3.5-1.2,7-1,10.4,0.8
				c1.5,0.8,2.5,0.7,4-0.7C833,172.3,826.7,171.8,819.6,173.4z M811.6,131.9c1.3-0.2,2.4-0.5,3.5-0.6c2.9-0.3,5.5,0.9,8,2.2
				c0.4,0.2,1,0.4,1.3,0.2c0.7-0.4,1.3-1,1.9-1.6c-0.2-0.2-0.2-0.3-0.3-0.4c-1.8-1.2-3.5-2.5-4.4-4.6c-0.1-0.2-0.5-0.4-0.8-0.4
				c-2.3-0.1-4.4,0.3-6.4,1.5C813,129,811.9,130.2,811.6,131.9L811.6,131.9z M807.3,155.2c2.9,0.1,4-0.8,4.7-3.7
				c0.2-0.8,0.2-1.6,0.2-2.4c0-1.2-0.7-2-1.8-2.2c-0.9-0.2-1.9-0.1-2.9-0.2c-0.8-0.1-1.2,0.2-1.3,1.1c-0.2,1.7-0.5,3.4-0.8,5
				C805,155.2,804.9,155.2,807.3,155.2z M840.7,124.4l0.1-0.6c-2.3-1.3-4.9-2.1-7.5-2.5c-2.1-0.3-4.1,0.2-5.8,1.4
				c-0.8,0.6-1.3,1.4-2,2.1c2.3,0.8,4.3,1.5,6.4,2.2c0.2,0.1,0.5,0.1,0.7,0c1.2-0.6,2.4-1.3,3.6-2l-0.1-0.3h-3.7
				c1.8-1.5,3.5-1.4,5.3-0.8C838.7,124.4,839.7,124.3,840.7,124.4L840.7,124.4z M843.3,176.5c1.7,1.5,2.7,3.2,2.8,5.4
				c0,0.2,0.6,0.5,0.8,0.4c1.5-0.5,3-1.1,4.3-1.8c0.9-0.5,1.4-1.4,1.2-2.5s-0.9-1.8-1.9-2.1C848.2,175.1,845.9,175.3,843.3,176.5
				L843.3,176.5z M822.5,135.3c-2.4-1.4-4.6-2.7-7.3-2.4c-1,0.1-2,0.6-3,0.9c-0.2,0.1-0.5,0.6-0.5,0.8c0.2,1.8,2.4,3.7,4.2,3.6
				C818.4,138.2,820.4,136.9,822.5,135.3L822.5,135.3z M845.3,135.3c1.2-2.8,1.5-5.4-0.2-7.9c-1.2-1.8-2-2-4.1-0.9
				c1,1.9,1.3,3.8-0.2,5.8L845.3,135.3L845.3,135.3z M824.5,178.1c1.6,0.9,3.1,1.8,4.5,2.6c0.2,0.1,0.5,0.2,0.7,0.1
				c1.2-0.5,2.4-1,3.6-1.6C831.7,176.8,826.7,176.5,824.5,178.1L824.5,178.1z M837.9,183.2c1-0.1,2.2-0.1,3.3-0.2
				c0.2,0,0.6-0.6,0.5-0.8c-0.4-1.3-0.9-2.7-1.5-3.9c-0.1-0.2-0.7-0.3-0.9-0.2c-0.8,0.3-1.5,0.7-2.2,1L837.9,183.2L837.9,183.2z
				 M825.5,126.8c0.1,1.5,1.3,3.3,2.3,3.6c0.2,0.1,0.4,0.1,0.6,0c0.8-0.6,1.7-1.3,2.5-2l-0.1-0.4L825.5,126.8L825.5,126.8z
				 M854.9,139c1.7,0.4,3.3,0.2,4.1-0.7c0.3-0.4,0.6-1,0.5-1.5c-0.1-0.3-0.8-0.7-1.2-0.7C856.7,135.8,855.4,137,854.9,139z
				 M832,132.2c2.2,0.8,4.1,0.6,5.3-0.5C835.1,129.6,833.8,129.7,832,132.2z M821.2,183.6l4.6-1.2l-4.1-2.4L821.2,183.6L821.2,183.6
				z M839,127.6l-0.6-0.2l-2.9,1.8l3.2,1.9L839,127.6L839,127.6z M831.6,181.6v0.4l2.7,0.5l0.1-2.2L831.6,181.6L831.6,181.6z"/>
			<path class="st6" d="M831.7,169.5c-0.3,0-0.6,0-0.8,0c-1.7-0.2-2.2-0.8-1.4-2.4c0.4-0.9,0.8-1.9,1.3-2.7c0.2-0.3,0.5-0.6,0.8-0.6
				s0.6,0.3,0.8,0.6c1,1.8,3.8,2.3,5.4,1.1c0.9-0.7,1.2-1.7,0.6-2.6c-0.8-1.2-1.7-2.3-2.7-3.4c-1.3-1.4-2.9-2.6-4.2-4.1
				c-2.2-2.6-1.9-5.9,0.5-8.4c1.5-1.5,3.3-2.5,5.4-2.8c1.3-0.2,2.7-0.2,4,0s1.5,0.8,0.8,1.9c-0.6,0.8-1.3,1.6-2,2.3
				c-0.6,0.7-1,0.6-1.5-0.2c-0.8-1.3-1.7-1.6-3-1s-2.2,1.9-1.7,3.1c0.3,1,0.9,1.9,1.6,2.7c1.2,1.2,2.6,2.3,4,3.4
				c4.5,3.7,2.9,8.6-0.9,11C836.5,168.8,834.2,169.4,831.7,169.5L831.7,169.5z"/>
			<path class="st6" d="M826.6,166.8c-0.7,1.3-1.4,2.3-2.8,2.4c-1.5,0-3.1,0-4.6-0.1c-0.6,0-1.2-0.4-0.7-1c1.5-2.3,1.3-4.9,1.8-7.4
				c0.8-4,1.3-8,2-12c0.3-1.6,0.1-1.8-1.6-1.8c-0.6,0-1.1-0.2-1.7-0.3c0.4-0.5,0.7-1.2,1.2-1.5c0.6-0.4,1.4-0.7,2.2-0.8
				c1.7-0.1,3.4,0,5.1,0c0.6,0,1.2,0.2,0.7,0.9c-2,2.2-1.7,5.1-2.2,7.7c-0.7,3.7-1.2,7.5-1.8,11.2c-0.3,2.2-0.4,2.2,1.9,2.5
				C826,166.6,826.2,166.6,826.6,166.8L826.6,166.8z"/>
			<path class="st6" d="M858.3,136.1c0.5,0.1,1.2,0.4,1.2,0.7c0.1,0.4-0.2,1.1-0.5,1.5c-0.8,0.9-2.4,1.1-4.1,0.7"/>
			<path class="st6" d="M834.3,182.5l-2.7-0.5v-0.4"/>
		</g>
		<g>
			<g>
				<defs>
					<path id="SVGID_1_" d="M914.5,117.5L914.5,117.5L914.5,117.5z"/>
				</defs>
				<clipPath id="SVGID_00000049212190517702682970000012101658006473704108_">
					<use xlink:href="#SVGID_1_"  style="overflow:visible;"/>
				</clipPath>
			</g>
		</g>
	</g>
</g>
<g id="qT4pHT.tif">
	<path class="st6" d="M918.6,117.8c0.2,0.5,0.3,1.1,0.3,1.6c1.2-0.6,2.6-0.7,3.9-0.3c1.3,0.5,2.3,1.4,3,2.5c0.3-0.3,0.6-0.6,0.9-0.9
		c0.1-0.1,0.3-0.3,0.5-0.2c0.2,0.1,0,0.3,0,0.5c-0.1,0.2-0.2,0.4-0.2,0.6c0.3,0,0.5,0,0.8,0c1.1-0.1,2.2,0.7,2.5,1.7
		c0.2,0.4,0.2,0.4,0.5,0.3c0.7-0.2,1.4-0.2,2.1,0c0.6,0.1,1.1,0.3,1.5,0.7c0.1,0.1,0.3,0.1,0.4,0.1c0.2-0.1,0.4-0.2,0.6-0.2
		c0.2-0.1,0.3,0.1,0.2,0.2c-0.1,0.2-0.2,0.4-0.4,0.5c-0.1,0.1-0.1,0.3,0,0.4l0,0c0,0.1,0.1,0.1,0.1,0.2c0,0.3,0.3,0.5,0.6,0.5
		s0.5,0.1,0.7,0.2c1,0.4,1.6,1.3,1.6,2.4c0.1,1.1-0.6,2.1-1.5,2.5s-1.8,0.4-2.7,0.1c-0.4-0.2-0.7-0.3-1.1-0.4
		c-0.4,0.1-0.7,0.2-1.1,0.3c-0.8,0.2-1.7,0.1-2.4-0.2c-0.2-0.1-0.5-0.1-0.7,0c-0.8,0.4-1.4,0.9-1.9,1.6c-0.2,0.3-0.4,0.5-0.7,0.9
		c0.2,0,0.5-0.1,0.7-0.1c0.4-0.1,0.8-0.1,1.1-0.1c1.5,0.2,3.1,0.2,4.6,0.1c1.2-0.1,2.5-0.2,3.7-0.2c1.1,0,2.2,0.2,3.2,0.4h0.1
		c0.1,0.1,0.3,0.1,0.3,0.3s-0.1,0.2-0.2,0.3c-0.2,0.1-0.5,0.2-0.7,0.3l-3.2,0.9c-0.4,0.1-0.9,0.3-1.3,0.5c-0.9,0.4-1.9,0.6-2.9,0.7
		c-1.2,0.1-2.3,0.2-3.5,0.2c-0.7,0-1.4,0.2-2.1,0.5c-0.2,0.1-0.3,0.2-0.3,0.4s0,0.3,0,0.5c0.2,0,0.4,0,0.7,0c1.3-0.2,2.6,0,3.8,0.6
		c0.1,0.1,0.3,0.1,0.4,0c1.1-0.5,2.3-0.7,3.5-0.7c0.9,0,1.8,0.3,2.6,0.7c0.9,0.4,1.5,1.3,1.7,2.3c0.1,0.8-0.3,1.5-1.1,1.8
		c-0.5,0.2-1,0.3-1.5,0.3c-1.2,0.2-2.4,0.1-3.5-0.3c-0.1-0.1-0.3-0.1-0.4,0c-1,0.5-2.1,0.5-3.1,0.1c-0.1-0.1-0.3-0.1-0.5,0
		c-0.9,0.3-1.9,0.3-2.7-0.1c-0.2-0.1-0.5-0.1-0.7,0c-0.3,0.2-0.6,0.3-0.9,0.3c-1.3,0.2-2.7,0.2-4,0c-0.4-0.1-0.7-0.3-1-0.3
		s-0.6,0.3-1,0.4c-0.7,0.2-1.5,0.1-2.2-0.2c-0.2-0.1-0.4-0.1-0.6,0c-0.9,0.4-2,0.4-2.9-0.1c-0.1-0.1-0.3-0.1-0.4,0
		c-1.7,0.5-3.6,0.6-5.3,0.1c-0.4-0.1-0.9-0.1-1.2,0.1c-1,0.5-2.1,0.4-3-0.2c-0.7,0.5-1.6,0.7-2.4,0.4c-1.3-0.4-2.1-1.8-1.9-3.2
		c0.2-0.7,0.6-1.3,1.3-1.6c1.1-0.5,2.3-0.6,3.5-0.3c0.4,0.2,0.7,0.3,1.1,0.4c0.4-0.1,0.7-0.2,1.1-0.3c1.7-0.5,3.6-0.4,5.2,0.4
		c0.3,0.1,0.5,0,0.7-0.1v-0.1c0-0.3,0-0.6,0-0.9c0-0.1-0.2-0.1-0.3-0.1c-0.5-0.1-1-0.2-1.5-0.3c-0.4-0.1-0.9-0.3-1.3-0.4
		c-0.6-0.2-1.2-0.3-1.7-0.3c-1.4,0.1-2.8-0.1-4.2-0.6c-1-0.3-1.9-0.6-3-0.7c-0.3,0-0.5-0.1-0.8-0.2c-0.1,0-0.2-0.1-0.3-0.2
		c-0.2-0.1-0.2-0.3,0-0.4c0.1,0,0.1-0.1,0.2-0.1c0.6-0.3,1.2-0.4,1.9-0.5c1.9-0.3,3.7-0.3,5.6,0c0.9,0.1,1.9,0.1,2.8,0
		c0.4-0.1,0.9-0.1,1.4,0.1c-1-0.6-1.8-1.3-2.5-2.2c-0.2-0.3-0.6-0.3-0.9-0.1c-0.9,0.5-1.9,0.6-2.9,0.4c-0.4-0.1-0.8,0-1.2,0.1
		c-1.4,0.5-2.9-0.3-3.3-1.6c-0.2-0.7-0.2-1.5,0.2-2.2c0.5-0.8,1.3-1.3,2.3-1.5c0.6-0.2,0.6-0.2,0.3-0.7c-0.1-0.3-0.4-0.5-0.2-0.8
		s0.6-0.1,0.9,0.1c0.2,0.2,0.6,0.2,0.8,0l0.1-0.1c0.4-0.4,1-0.8,1.6-0.9c0.3-0.1,0.5-0.3,0.6-0.6c0.3-1.3,1.3-2.2,2.6-2.5
		c0.4-0.1,0.6-0.2,0.4-0.6c-0.1-0.2,0-0.4,0.1-0.5c0.2-0.1,0.4,0,0.5,0.1c0.2,0.2,0.4,0.4,0.6,0.6c0.3,0.3,0.7,0.6,1.1,0.6
		c0.3,0.1,0.5,0,0.7-0.3c0,0,0,0,0-0.1c0.4-0.7,0.9-1.3,1.6-1.7c1.2-0.7,2.7-0.9,4-0.4c0.5,0.2,0.6,0.2,0.7-0.4
		c0.1-0.3,0.1-0.5,0.3-0.7L918.6,117.8z"/>
	<path class="st6" d="M1041,146.6c-0.4,0-0.8,0-1.2,0.2c-0.5,0.1-0.8,0.6-0.9,1c-0.1,1.2-0.2,2.5-0.2,3.8c0,3.2,0,6.3,0,9.5
		c0,0.2,0,0.3,0,0.5c-0.4,0.1-0.7,0-0.9-0.4c-3.2-3.9-6.4-7.8-9.6-11.6l-0.3-0.4c-0.1,0-0.1,0.1-0.1,0.2c0,2.9,0,5.8,0,8.7
		c0,0.5,0.1,1.1,0.1,1.6s0.4,0.8,0.8,1c0.4,0.1,0.8,0.2,1.2,0.2c0.3,0,0.4,0.1,0.4,0.4c0,0.1,0,0.2-0.2,0.2h-0.1c-1.7,0-3.4,0-5.1,0
		c-0.3,0-0.3,0-0.3-0.4c0-0.2,0.1-0.2,0.2-0.2c0.3,0,0.5,0,0.8-0.1c0.6-0.1,1-0.6,1-1.1s0.1-0.9,0.1-1.4c0.1-3.2,0.1-6.4,0-9.6
		c0-0.3-0.1-0.7-0.2-1c-0.3-0.5-0.8-0.9-1.4-1l-0.6-0.1c-0.3-0.1-0.3,0-0.3-0.4v-0.1c0.1-0.1,0.3-0.1,0.4-0.1c0.9,0,1.7,0,2.6,0
		c0.3,0,0.6,0.1,0.8,0.4c3.1,3.7,6.2,7.5,9.3,11.2c0.1,0.1,0.2,0.3,0.3,0.3c0.1,0.1,0.1-0.1,0.1-0.1c0-2.8,0.1-5.6-0.1-8.4
		c0-0.5-0.1-0.9-0.1-1.4c0-0.6-0.4-1-1-1.2c-0.4-0.1-0.7-0.2-1.1-0.2c-0.2,0-0.3-0.2-0.3-0.4v-0.1c0.1-0.1,0.2-0.1,0.3-0.1h5.4
		L1041,146.6z"/>
	<path class="st6" d="M898,146h0.5c13.2,0,26.4,0,39.7,0c0.6,0,0.5-0.1,0.5,0.5c0,7.1,0,14.3,0,21.4c0,2.7-0.4,5.4-1.2,8
		c-1.2,3.8-3.9,7-7.4,9c-2.2,1.3-4.6,2.2-7,2.9c-1.5,0.5-3,0.8-4.5,1.2c-0.1,0-0.2,0-0.3,0c-3.2-0.7-6.3-1.7-9.3-3
		c-1.2-0.5-2.4-1.2-3.5-1.9c-3.4-2.2-5.8-5.7-6.7-9.6c-0.5-2.1-0.8-4.2-0.8-6.4c0-3.1,0-6.3,0-9.4V146L898,146z"/>
	<path class="st6" d="M999.1,146h5.5c0.2,0,0.3,0,0.3,0.2s0,0.4-0.3,0.4s-0.6,0.1-0.9,0.1c-0.5,0.1-0.7,0.3-0.5,0.9
		c0.3,0.9,0.5,1.7,0.8,2.6c0.8,2.5,1.6,5,2.4,7.5c0,0.1,0.1,0.2,0.1,0.4c0.1-0.1,0.1-0.2,0.2-0.3l3.5-11c0-0.1,0.1-0.2,0.1-0.3
		c0-0.2,0.2-0.3,0.4-0.3s0.3,0.1,0.4,0.3c0.4,1.1,0.8,2.1,1.2,3.2c1,2.7,1.9,5.3,2.9,8c0.1,0.1,0,0.3,0.2,0.4
		c0.4-1.2,0.8-2.5,1.1-3.7c0.6-2.1,1.2-4.2,1.7-6.3c0.2-1,0-1.3-1-1.4c-0.1,0-0.3-0.1-0.4-0.1c-0.1,0-0.3-0.1-0.3-0.3s0-0.3,0.2-0.3
		h4.8c0,0,0,0,0.1,0s0,0.1,0,0.2c0,0.1,0,0.3-0.3,0.3c-0.9,0-1.7,0.7-1.9,1.6c-0.6,1.6-1.1,3.3-1.6,4.9c-0.9,2.7-1.7,5.4-2.5,8.2
		c-0.1,0.4-0.1,0.4-0.5,0.4s-0.3-0.2-0.4-0.3c-0.6-1.7-1.3-3.5-1.9-5.2c-0.7-1.9-1.4-3.7-2.1-5.6c-0.1-0.1-0.1-0.3-0.2-0.5l-0.8,2.4
		c-1,3-2,5.9-3,8.9c-0.1,0.2-0.1,0.4-0.4,0.4c-0.3,0-0.4,0-0.5-0.4c-0.4-1.2-0.8-2.4-1.2-3.6c-0.9-2.9-1.9-5.8-2.8-8.8
		c-0.1-0.3-0.2-0.7-0.4-1c-0.2-0.7-0.8-1.1-1.5-1.2C999.1,146.6,999.1,146.6,999.1,146z"/>
	<path class="st6" d="M956.2,153c0.7,0.1,1.3,0.3,1.9,0.7c1.9,1.1,2.5,3.5,1.4,5.3c-0.2,0.3-0.3,0.5-0.5,0.7
		c-0.9,0.8-1.9,1.4-3.1,1.5c-0.7,0.1-1.4,0.2-2.1,0.2h-5.6c-0.3,0-0.3,0-0.3-0.3s0.1-0.3,0.2-0.3c0.3,0,0.5,0,0.8-0.1
		c0.6,0,1.1-0.5,1.1-1.2c0-0.4,0.1-0.8,0.1-1.2v-9.2c0-0.4,0-0.9-0.1-1.3c-0.1-0.9-0.4-1.1-1.2-1.3c-0.2,0-0.4-0.1-0.6-0.1
		c-0.3,0-0.2-0.2-0.2-0.3s0.1-0.3,0.2-0.2h6c0.8,0,1.6,0.1,2.4,0.3c0.2,0.1,0.4,0.1,0.6,0.2c1.6,0.8,2.3,2.7,1.5,4.3
		c-0.1,0.3-0.3,0.6-0.6,0.9c-0.5,0.5-1.2,0.9-1.9,1.2C956.1,152.9,956.1,153,956.2,153z"/>
	<path class="st6" d="M972.4,154.1c1.2,2.1,2.6,4.1,4.1,6c0.4,0.5,0.9,0.9,1.5,1.1c0.2,0.1,0.2,0.2,0.2,0.4s-0.2,0.2-0.3,0.2
		c-0.7,0-1.5-0.1-2.2-0.3c-0.8-0.2-1.5-0.7-2-1.4s-0.9-1.3-1.4-2.1s-0.9-1.5-1.3-2.3c-0.3-0.7-1-1.1-1.7-1c-0.4,0-0.7,0-1.1,0.1
		c0,0.3,0,0.7,0,1c0,1,0,2,0,3c0,0.3,0,0.6,0.1,1c0,0.5,0.4,0.9,1,1c0.3,0.1,0.5,0.1,0.8,0.1s0.3,0.1,0.3,0.3s-0.1,0.2-0.3,0.2h-5.8
		c-0.2,0-0.3,0-0.3-0.2s0-0.4,0.2-0.4c0.3,0,0.6,0,0.9-0.1c0.5-0.1,1-0.5,1-1c0.1-0.5,0.1-0.9,0.1-1.4c0-3.2,0-6.3,0-9.5
		c0-0.4,0-0.7-0.1-1.1c0-0.6-0.5-1-1-1.1l-0.5-0.1c-0.4-0.1-0.4-0.1-0.4-0.5c0.1-0.1,0.2-0.1,0.3-0.1h6.1c0.7,0,1.4,0.1,2,0.3
		c2,0.5,3.3,2.5,2.8,4.5c-0.1,0.5-0.4,1-0.7,1.5c-0.5,0.7-1.2,1.2-2,1.6L972.4,154.1L972.4,154.1z"/>
	<path class="st6" d="M988.6,161.8c-4,0.1-7.4-3-7.7-7c-0.2-1.8,0.2-3.7,1.1-5.2c2.2-3.8,7.1-5.1,10.9-2.8c0.1,0.1,0.2,0.1,0.4,0.2
		c1.7,1.2,2.8,3,3.1,5c0.4,2,0,4.1-0.9,5.8c-1.1,2.1-3.3,3.6-5.7,3.9C989.4,161.8,989,161.8,988.6,161.8z"/>
	<path class="st8" d="M956.2,153c-0.1,0-0.2,0-0.2-0.1s0.1-0.1,0.2-0.1V153z"/>
	<path class="st9" d="M904.4,131c-0.4,0-0.8,0-1.1-0.1c-0.3-0.1-0.6-0.1-0.9,0.1c-0.8,0.5-1.8,0.3-2.3-0.5c-0.1-0.1-0.1-0.2-0.1-0.2
		c-0.4-0.7-0.2-1.5,0.5-2c0.6-0.4,1.3-0.7,2-0.8h0.2c0.3,0,0.6-0.2,0.7-0.6c0.2-0.8,0.8-1.5,1.6-1.6l0.9-0.2
		c0.4-0.1,0.4-0.1,0.5-0.5c0.1-1.2,1.1-2.2,2.3-2.4c0.9-0.1,1.8,0,2.6,0.3c0.1,0,0.2,0.1,0.3,0.1c0.3,0.1,0.5,0.1,0.6-0.3
		c0.1-0.2,0.2-0.4,0.3-0.6c0.9-1.8,3.1-2.6,4.9-1.7c0.2,0.1,0.5,0.2,0.7,0.4c0.3,0.2,0.7,0.3,0.9,0c0.5-0.3,1-0.5,1.5-0.6
		c1.6-0.3,3.2,0.3,4.1,1.6c0.3,0.3,0.5,0.7,0.7,1c0.3,0.6,0.3,0.6,0.9,0.4c0.5-0.2,1-0.2,1.5-0.2c0.9,0,1.8,0.6,1.9,1.6
		c0,0.1,0,0.2,0.1,0.2c0.1,0.4,0.2,0.5,0.6,0.4c0.6-0.2,1.3-0.3,2-0.2c0.4,0,0.8,0.1,1.2,0.3c0.6,0.3,1.1,0.8,1.2,1.5
		c0,0.3,0.3,0.5,0.6,0.5l0,0c0.3,0,0.5,0.1,0.7,0.2c0.8,0.2,1.4,1,1.4,1.9c-0.1,0.9-0.7,1.6-1.6,1.8c-0.6,0.1-1.2,0.1-1.7-0.1
		c-0.3-0.1-0.5-0.2-0.8-0.3s-0.6-0.1-0.8,0c-1.8,0.9-3.9,0.1-4.8-1.7c-0.1-0.2-0.2-0.4-0.2-0.7c-0.1-0.4-0.2-0.5-0.6-0.4
		c-0.7,0.1-1.3,0.1-2-0.1c-1-0.2-1.8-1-2-2c0-0.1,0-0.2-0.1-0.2c-0.1-0.3-0.3-0.4-0.5-0.2c-0.1,0.1-0.3,0.2-0.4,0.2
		c-1.4,0.9-3.2,0.8-4.6-0.2c-0.7-0.5-0.7-0.5-1.3,0.1c-0.5,0.5-1.1,0.8-1.7,1.1c-0.7,0.3-1.5,0.3-2.2,0.1c-0.2-0.1-0.5,0-0.6,0.2
		c-0.8,1-2,1.4-3.2,1.1l-0.2-0.1c-0.4-0.1-0.5,0.1-0.5,0.5c0,0.1,0,0.1,0,0.2c0.2,1.2-0.6,2.4-1.7,2.8
		C905.4,131,904.9,131,904.4,131z"/>
	<path class="st9" d="M911.9,138.5c-0.2-0.8-0.2-1.5,0-2.3c0.8-3.6,4.3-5.8,7.9-5c2.7,0.6,4.7,2.8,5.1,5.5c0,0.5,0,1,0,1.6
		c0,0.2-0.1,0.4-0.3,0.4c-0.3,0.1-0.6,0.3-0.9,0.3c-0.3-0.1-0.6-0.2-0.9-0.3c-1.7-0.7-3.6-0.6-5.2,0.2c-0.2,0.1-0.4,0.1-0.6,0
		c-0.8-0.4-1.6-0.6-2.5-0.6C913.6,138.2,912.8,138.3,911.9,138.5z"/>
	<path class="st6" d="M922.2,142.6c-0.7,0-1.3-0.1-2-0.2c-0.4-0.1-0.8-0.3-1.1-0.7c-0.2-0.3-0.4-0.6-0.5-0.9l-0.6-1.1
		c-0.1-0.3-0.1-0.3,0.2-0.4c0.9-0.3,1.9-0.5,2.9-0.4c0.4,0,0.9,0.1,1.3,0.2c0.8,0.2,1.4,0.8,1.7,1.5c0.2,0.4,0.4,0.8,0.6,1.2
		c0.1,0.2,0,0.3-0.1,0.4c-0.2,0.1-0.4,0.2-0.6,0.2C923.4,142.5,922.8,142.6,922.2,142.6z"/>
	<path class="st6" d="M935.1,142.5c-0.7,0-1.3-0.1-2-0.2c-0.4-0.1-0.7-0.3-0.9-0.6c-0.5-0.7-0.9-1.4-1.2-2.1c-0.1-0.2,0-0.3,0.2-0.3
		c0.4-0.2,0.9-0.3,1.3-0.3c0.9-0.2,1.8-0.1,2.7,0.1c0.9,0.2,1.6,0.6,2.1,1.4c0.1,0.2,0.2,0.4,0.3,0.6c0.2,0.4,0,1-0.4,1.2h-0.1
		c-0.5,0.2-0.9,0.3-1.4,0.4C935.5,142.5,935.3,142.5,935.1,142.5z"/>
	<path class="st6" d="M909.1,142.4c-0.7,0-1.3,0-2-0.2c-0.5-0.1-0.9-0.3-1.1-0.7c-0.4-0.7-0.8-1.3-1.1-2c-0.1-0.1,0-0.2,0.1-0.3
		l0.2-0.1c1.3-0.5,2.7-0.5,4-0.2c0.8,0.2,1.5,0.7,1.9,1.4c0.2,0.4,0.4,0.8,0.6,1.2c0.2,0.4,0.1,0.4-0.2,0.5c-0.5,0.2-1,0.3-1.5,0.3
		C909.6,142.4,909.3,142.4,909.1,142.4z"/>
	<path class="st9" d="M911.3,139.4c1.4-0.6,3-0.7,4.5-0.3c0.7,0.2,1.2,0.6,1.6,1.2c0.4,0.5,0.6,1.2,0.9,1.7c0.1,0.1,0,0.2-0.1,0.3
		c-0.1,0-0.1,0.1-0.2,0.1c-0.8,0.3-1.6,0.1-2.2-0.5c-0.3-0.4-0.7-0.8-1-1.2c-0.1-0.2-0.3-0.4-0.5-0.5c-0.1-0.1-0.3-0.1-0.4-0.1
		c-0.3,0-0.4,0.2-0.2,0.5c0.1,0.1,0.1,0.1,0.2,0.2c0.4,0.3,0.7,0.7,1,1.1c0.2,0.2,0.1,0.3-0.1,0.4c-0.6,0.3-1.4,0.2-1.9-0.4
		c-0.2-0.2-0.4-0.5-0.5-0.7C912,140.6,911.7,140,911.3,139.4z"/>
	<path class="st9" d="M924.6,139.4c1.3-0.5,2.8-0.7,4.2-0.3c0.8,0.2,1.5,0.7,2,1.5c0.3,0.5,0.5,1,0.8,1.5c0.1,0.1,0,0.2-0.1,0.3l0,0
		c-0.1,0.1-0.3,0.1-0.4,0.1c-0.4,0.1-0.8,0.1-1.1,0c-0.3,0-0.6-0.2-0.8-0.4l-1-1.2c-0.1-0.2-0.3-0.3-0.5-0.4
		c-0.3-0.1-0.4-0.1-0.6,0.1c-0.1,0.2-0.1,0.4,0.2,0.5c0.3,0.3,0.6,0.6,0.9,0.9c0.2,0.3,0.2,0.4-0.2,0.5c-0.6,0.2-1.2,0-1.6-0.3
		c-0.2-0.1-0.3-0.3-0.4-0.5C925.3,140.9,924.9,140.2,924.6,139.4z"/>
	<path class="st9" d="M937.5,134.2l-0.6,0.1c-0.9,0.2-1.7,0.4-2.5,0.7c-1,0.4-2,0.6-3.1,0.7c-1.2,0.1-2.4,0.2-3.6,0.2
		c-0.4,0-0.8,0.1-1.2,0.2c-0.2,0.1-0.3,0.1-0.5,0.2c-0.2,0.1-0.3,0.1-0.4-0.2c-0.1-0.4-0.2-0.8-0.3-1.1s-0.1-0.3,0.2-0.4
		c0.7-0.3,1.5-0.4,2.3-0.4c1.2,0,2.4,0.1,3.6,0.1c0.8,0,1.6-0.1,2.4-0.2l2.1-0.1C936.5,134,937,134,937.5,134.2L937.5,134.2z"/>
	<path class="st9" d="M904.2,142.5c-0.4,0-0.8-0.1-1.1-0.4c-0.4-0.3-0.7-0.6-1-1c-0.2-0.2-0.4-0.4-0.7-0.6c-0.1-0.1-0.3-0.2-0.5-0.2
		s-0.3,0.1-0.3,0.3c0,0.1,0,0.3,0.2,0.3c0,0,0,0,0.1,0c0.5,0.2,0.7,0.7,1.1,1c0.1,0.1,0,0.2-0.1,0.3c-0.2,0.2-0.6,0.3-0.9,0.3
		c-1,0-1.8-0.6-2-1.6c-0.1-0.6,0.1-1.3,0.7-1.6c0.4-0.2,0.8-0.4,1.3-0.4c1.2-0.3,2.5,0.2,3.2,1.3c0.4,0.6,0.7,1.2,1.1,1.8
		c0.1,0.1,0,0.2-0.1,0.3C904.9,142.4,904.5,142.5,904.2,142.5z"/>
	<path class="st9" d="M900.4,134.5c1.1-0.1,2.2-0.1,3.3-0.1c0.6,0.1,1.3,0.1,1.9,0.2c1.1,0.1,2.1,0.1,3.2,0c0.5-0.1,1,0,1.5,0.1
		c0.2,0.1,0.4,0.2,0.7,0.3c0.4,0.2,0.4,0.2,0.3,0.7c-0.1,0.3-0.1,0.5-0.1,0.8s-0.1,0.3-0.3,0.3c-0.7-0.1-1.3-0.3-1.9-0.5
		c-0.8-0.3-1.6-0.5-2.4-0.5c-1.5,0-2.9-0.2-4.3-0.6C901.7,134.7,901,134.6,900.4,134.5z"/>
	<path class="st9" d="M908.1,129.7c1.1,0.7,2.3,1.3,3.5,1.7c0.4,0.2,0.7,0.3,1.1,0.6c0.2,0.1,0.3,0.2,0.5,0.4
		c-0.4,0.4-0.7,0.8-1,1.3c-0.1,0.2-0.2,0.1-0.4,0.1c-0.5-0.2-1.1-0.4-1.5-0.7c-0.9-0.5-1.7-1.2-2.4-2c-0.3-0.3-0.3-0.3-0.1-0.7
		C907.9,130.2,908,130,908.1,129.7z"/>
	<path class="st9" d="M911.5,127.5c0.9,1.3,1.1,2.7,1.8,4c-0.1,0-0.2-0.1-0.3-0.1c-0.5-0.4-1.1-0.7-1.7-0.9c-1-0.3-1.9-0.8-2.7-1.3
		c-0.2-0.2-0.3-0.5-0.2-0.7c0.1-0.1,0.2-0.1,0.2-0.1c0.6,0,1.1,0,1.7-0.2C910.8,128,911.2,127.8,911.5,127.5z"/>
	<path class="st10" d="M928.2,130.5c-0.2,0.1-0.3,0.2-0.5,0.3c-0.5,0.3-0.9,0.6-1.2,1c-0.4,0.5-0.9,1-1.4,1.5l-0.3,0.2
		c-0.2,0.1-0.3,0.1-0.4-0.1c-0.3-0.4-0.6-0.8-1-1.2c0-0.2,0.2-0.3,0.3-0.3c0.4-0.3,0.8-0.5,1.2-0.7c0.8-0.4,1.5-0.9,2.3-1.4
		c0.2-0.1,0.3-0.1,0.4,0.1S928,130.3,928.2,130.5z"/>
	<path class="st11" d="M923.7,127.8c-0.4,0.6-0.7,1.3-0.8,2.1c-0.1,0.5-0.3,0.9-0.6,1.3c-0.1,0.1-0.2,0.2-0.4,0.1
		c-0.3-0.2-0.7-0.4-1-0.5c-0.2,0-0.3-0.2-0.2-0.4v-0.1c0.1-0.2,0.2-0.5,0.3-0.7c0.4-0.8,0.9-1.6,1.5-2.2c0.3-0.3,0.2-0.3,0.5,0
		C923.4,127.7,923.5,127.7,923.7,127.8z"/>
	<path class="st10" d="M917.8,126.3c0.1,0,0.2,0.1,0.3,0.1c0.5,0.1,0.7,0.4,0.8,0.9c0.2,0.9,0.3,1.7,0.3,2.6c0,0.5,0,0.5-0.5,0.5
		c-0.3,0-0.6,0-1,0c-0.3,0-0.3-0.1-0.3-0.3c-0.1-0.5-0.1-1,0-1.5C917.5,127.8,917.6,127,917.8,126.3z"/>
	<path class="st10" d="M912.4,127.3c0.5-0.1,1.1,0.1,1.4,0.5c0.7,0.8,1.3,1.7,1.9,2.6c0.2,0.3,0.2,0.3-0.1,0.4l-0.9,0.5
		c-0.3,0.1-0.3,0.2-0.5-0.1c-0.2-0.3-0.4-0.7-0.5-1c-0.2-0.5-0.4-1-0.5-1.4C912.9,128.2,912.7,127.8,912.4,127.3z"/>
	<path class="st10" d="M916.5,130.2c-0.7-1.1-1.5-2.1-2.4-3c0.1-0.1,0.2-0.1,0.3-0.2c0.7-0.3,1.4-0.7,2-1.2c0.1-0.1,0.2-0.2,0.4-0.1
		s0.1,0.2,0.1,0.4C916.6,127.4,916.5,128.8,916.5,130.2z"/>
	<path class="st10" d="M923.3,131.4c0.2-0.5,0.4-1.1,0.5-1.6s0.3-0.9,0.5-1.4c0.1-0.2,0.2-0.2,0.3-0.1c0.6,0.2,1.2,0.2,1.8,0.2
		c0.2,0,0.3,0.1,0.3,0.2c0.2,0.5,0.2,0.5-0.2,0.8L923.3,131.4z"/>
	<path class="st10" d="M920,129.8c0-1.1-0.2-2.1-0.4-3.2c0.9,0,1.8-0.3,2.6-0.7c0,0.1,0.1,0.2,0.2,0.3c0.1,0.1,0,0.2-0.1,0.3
		c-0.3,0.3-0.5,0.6-0.8,0.9c-0.6,0.6-1,1.4-1.3,2.2C920.1,129.7,920.1,129.8,920,129.8z"/>
	<path class="st6" d="M921.1,177.3v10c0,0.1-0.1,0.2-0.2,0.3l0,0l-2.4,0.6c-0.1,0-0.3,0-0.4,0c-0.7-0.2-1.4-0.3-2-0.5
		c-0.4-0.1-0.4-0.1-0.4-0.5v-19.5c0-0.6,0.1-0.6-0.6-0.6h-15.6c-0.6,0-0.6,0.1-0.6-0.6v-3.7c0-0.5,0-0.5,0.5-0.5h15.7
		c0.7,0,0.6,0.1,0.6-0.6v-14c0-0.7-0.1-0.7,0.7-0.7h4.2c0.5,0,0.5,0,0.5,0.5v14.2c0,0.7-0.1,0.6,0.6,0.6h15.4c0.1,0,0.2,0,0.3,0
		c0.3,0,0.4,0,0.4,0.4v4c0,0.4,0,0.4-0.4,0.4h-15.7c-0.7,0-0.6-0.1-0.6,0.6V177.3z"/>
	<path class="st9" d="M925.4,170.2c0,0.4,0,0.8,0,1.2c0,0.2-0.1,0.2-0.2,0.2c-0.2,0-0.5,0-0.7,0c-0.1,0.1-0.1,0.3-0.1,0.4v7
		c0,0.2,0.1,0.3,0.3,0.3c0.9,0,1.7,0,2.6,0h1.4c0.2,0,0.3,0,0.3,0.3s0.1,0.3,0.3,0.3c0.5,0,1,0,1.6,0c0-0.1,0-0.1,0-0.2
		c0-0.4,0-0.4,0.4-0.4h3.3c0.1,0,0.2,0,0.3,0.1c-0.4,0.6-0.9,1.2-1.4,1.7c-1.7,1.7-3.6,3.1-5.8,4c-1.8,0.8-3.6,1.5-5.5,2
		c-0.1,0-0.2,0-0.2,0c0-0.2,0-0.3,0-0.5v-18.4c0-0.4,0-0.4,0.4-0.4c5.1,0,10.1,0,15.2,0c0.4,0,0.4,0,0.4,0.4c0,1-0.1,2-0.2,2.9
		c-0.2,1.8-0.6,3.6-1.2,5.3c-0.2,0.5-0.4,1-0.7,1.5c-0.1,0.1-0.2,0.2-0.3,0.3v-6.4c0-0.4,0-0.4-0.4-0.4c-0.6,0-0.6,0-0.6-0.6
		c0-0.2,0.1-0.5,0-0.7s-0.4,0-0.7,0c-0.7-0.1-1.4-0.2-2.1-0.3c-0.5-0.1-1.1,0-1.5,0.2c-0.1,0.1-0.2,0.1-0.3,0
		c-0.5-0.2-1-0.3-1.5-0.2c-0.3,0.1-0.6,0.1-0.9,0.1C926.8,170.2,926.1,170.3,925.4,170.2z"/>
	<path class="st9" d="M902.1,179.2h3.5c0.5,0,0.5,0,0.5,0.6c0.6,0,1.2,0,1.7,0c0.1,0,0.2-0.1,0.2-0.2v-0.3c0.1-0.1,0.3-0.1,0.4-0.1
		h3.7c0.3,0,0.3,0,0.3-0.3c0-2.4,0-4.8,0-7.2c0-0.1,0-0.1,0-0.2c-0.2,0-0.5,0-0.7,0s-0.3-0.1-0.3-0.3c0-0.3,0-0.7,0-1.1
		c-1,0-2-0.1-3-0.3c-0.4-0.1-0.9,0-1.3,0.2c-0.1,0.1-0.3,0.1-0.5,0c-0.4-0.2-0.9-0.3-1.4-0.2c-0.3,0.1-0.6,0.1-0.9,0.2
		c-0.7,0.2-1.3,0.2-2,0.1c0,0.4,0,0.8,0,1.2c0,0.2-0.1,0.2-0.2,0.2c-0.2,0-0.5-0.1-0.7,0s-0.1,0.5-0.1,0.8c0,2,0,3.9,0,5.9
		c-0.2-0.1-0.2-0.3-0.3-0.4c-0.8-1.6-1.4-3.3-1.7-5c-0.3-1.5-0.4-3.1-0.5-4.6c0-0.4,0-0.4,0.3-0.4h15.2c0.4,0,0.4,0,0.4,0.4
		c0,3.5,0,7.1,0,10.6c0,2.6,0,5.1,0,7.7c0,0.2,0,0.4,0,0.5c-0.8-0.2-1.6-0.5-2.4-0.8c-2.1-0.7-4.1-1.6-6-2.8c-1.6-1-3-2.4-4.1-3.9
		C902.3,179.5,902.1,179.4,902.1,179.2z"/>
	<path class="st9" d="M929.8,147h7.4c0.1,0,0.2,0,0.3,0c0.2,0,0.3,0,0.3,0.3c0,0.1,0,0.2,0,0.2v13.4c0,0.6,0.1,0.5-0.5,0.5
		c-4.9,0-9.9,0-14.8,0c-0.7,0-0.6,0.1-0.6-0.5c0-4.4,0-8.9,0-13.3c0-0.1,0-0.2,0-0.2c0-0.3,0.1-0.3,0.3-0.3c1.9,0,3.8,0,5.7,0
		L929.8,147z"/>
	<path class="st9" d="M907,147h7.4c0.1,0,0.2,0,0.3,0s0.3,0.1,0.2,0.2c0,0.2,0,0.2,0,0.3v13.4c0,0.6,0.1,0.5-0.5,0.5
		c-4.9,0-9.9,0-14.8,0c-0.6,0-0.5,0.1-0.5-0.5c0-4.5,0-8.9,0-13.4c0-0.6-0.1-0.5,0.5-0.5H907z"/>
	<path class="st9" d="M926.2,171.1c0.9,0,1.6-0.3,2.3-0.3c0.2,0,0.4,0,0.6,0.1c0.2,0.1,0.3,0.2,0.3,0.4c0,2.1,0,4.3,0,6.5
		c-0.7-0.2-1.4-0.2-2.1,0.1c-0.1,0-0.2,0-0.3,0c-0.7,0.1-0.8,0-0.8-0.7V171.1L926.2,171.1z"/>
	<path class="st9" d="M907.5,177.6c0-0.1,0-0.3,0-0.4v-5.8c0-0.5,0.2-0.7,0.8-0.7c0.4,0,0.9,0.1,1.3,0.2c0.3,0.1,0.6,0.1,0.9,0.1
		c0.2,0,0.3,0.1,0.3,0.3c0,2,0,4.1,0,6.1c0,0.2-0.1,0.3-0.2,0.3l0,0c-0.3,0-0.6,0-0.9-0.1C908.9,177.5,908.2,177.5,907.5,177.6z"/>
	<path class="st9" d="M906.4,177.6c-0.6-0.2-1.3-0.1-1.9,0.1c-0.3,0.1-0.6,0.1-0.9,0.1c-0.2,0-0.3-0.1-0.3-0.3v-6.4
		c0.8,0,1.6-0.3,2.4-0.4c0.1,0,0.3,0,0.4,0c0.3,0.1,0.4,0.2,0.4,0.5v5.9C906.5,177.3,906.5,177.5,906.4,177.6z"/>
	<path class="st9" d="M933.6,171.1v6.2c0,0.5,0,0.5-0.5,0.5c-0.3,0-0.5,0-0.8-0.1c-0.6-0.2-1.3-0.2-1.9,0c-0.1-0.2-0.1-0.3-0.1-0.5
		c0-1.9,0-3.8,0-5.7c0-0.6,0.2-0.8,0.9-0.7c0.4,0,0.9,0.1,1.3,0.2C932.9,171.1,933.3,171.1,933.6,171.1z"/>
	<path class="st0" d="M952,156.5c0-0.9,0-1.8,0-2.7c0-0.3,0-0.3,0.3-0.3c0.9-0.1,1.8,0,2.6,0.2c1.3,0.3,2.3,1.2,2.6,2.5
		c0.2,0.8,0.2,1.6-0.1,2.4c-0.4,1.2-1.5,2-2.7,2.1c-0.5,0.1-1,0.1-1.5,0c-0.6,0-1.2-0.5-1.2-1.1c0-0.3-0.1-0.6-0.1-0.9
		C952,158,952,157.2,952,156.5z"/>
	<path class="st0" d="M952,149.9c0-0.9,0-1.7,0-2.5c0-0.4,0.1-0.5,0.5-0.6c0.8-0.1,1.6-0.1,2.4,0.1c1.2,0.2,2,1.3,2,2.4
		c0,0.4,0,0.8,0,1.1c-0.2,1.2-1.2,2.2-2.5,2.2c-0.7,0.1-1.4,0.1-2,0.1c-0.2,0-0.3-0.1-0.3-0.3C952,151.6,952,150.7,952,149.9z"/>
	<path class="st0" d="M968.3,150.5v-2.9c0-0.8,0-0.8,0.9-0.9c0.5-0.1,1.1,0,1.6,0.1c1.5,0.2,2.5,1.4,2.6,2.9
		c0.2,1.3-0.2,2.6-1.2,3.5c-0.5,0.4-1,0.7-1.7,0.7c-0.7,0.1-1.3,0-2,0.1c-0.2,0-0.3-0.1-0.3-0.3
		C968.3,152.6,968.3,151.6,968.3,150.5z"/>
	<path class="st0" d="M994.2,154.5c0,1.3-0.2,2.5-0.7,3.7c-0.7,1.7-2.3,2.8-4.1,2.9c-1.7,0.1-3.3-0.6-4.4-2
		c-0.8-0.9-1.3-2.1-1.5-3.2c-0.5-1.9-0.4-3.9,0.2-5.8c0.8-2.7,3.6-4.2,6.2-3.4c1.1,0.3,2,0.9,2.6,1.8c0.7,1,1.3,2.1,1.5,3.4
		C994.1,152.7,994.2,153.6,994.2,154.5z"/>
	<path class="st6" d="M921.4,120.7c1.3,0,2.5,0.8,3.2,1.9c0.1,0.2,0.2,0.4,0,0.6s-0.3,0.2-0.5,0c-0.4-0.7-1-1.2-1.7-1.5
		c-1.1-0.5-2.4-0.2-3.3,0.7c-0.2,0.2-0.2,0.1-0.4,0c-0.2-0.2-0.2-0.5,0-0.7s0.4-0.4,0.6-0.5C920,120.8,920.7,120.7,921.4,120.7z"/>
	<path class="st6" d="M917.8,121.3c0,0.1,0,0.2-0.1,0.3c-0.1,0.1-0.2,0.2-0.3,0.1c-0.3-0.2-0.6-0.3-0.9-0.4c-0.8-0.2-1.6,0-2.2,0.5
		c-0.2,0.2-0.4,0.3-0.5,0.5c-0.1,0.1-0.2,0.3-0.4,0.1c-0.2-0.1-0.3-0.3-0.2-0.5c0-0.1,0.1-0.1,0.1-0.2c0.7-0.9,1.7-1.4,2.8-1.4
		c0.6,0,1.1,0.3,1.6,0.6C917.7,121,917.8,121.2,917.8,121.3z"/>
	<path class="st6" d="M909.8,122.7c0.3,0,0.6,0,0.9,0.1c0.3,0.1,0.4,0.2,0.3,0.5c-0.1,0.3-0.2,0.3-0.4,0.2c-0.2,0-0.3-0.1-0.5-0.1
		c-0.8-0.1-1.5,0.2-1.9,0.8c-0.2,0.3-0.4,0.6-0.5,1c-0.1,0.2-0.1,0.2-0.3,0.2s-0.3-0.1-0.3-0.3c0-0.1,0-0.3,0.1-0.4
		C907.4,123.5,908.5,122.6,909.8,122.7z"/>
	<path class="st6" d="M931.7,125.2c1-0.1,2,0.5,2.4,1.5c0.1,0.2,0.1,0.4,0,0.6c-0.1,0.1-0.2,0.1-0.3,0.1c0,0-0.1,0-0.1-0.1
		c-0.1-0.1-0.1-0.2-0.2-0.2c-0.5-0.9-1.5-1.3-2.5-1l-0.2,0.1c-0.1,0-0.3,0.1-0.4-0.1c-0.1-0.2-0.1-0.4,0.1-0.5
		c0.2-0.1,0.4-0.2,0.6-0.3C931.2,125.2,931.4,125.2,931.7,125.2z"/>
	<path class="st6" d="M902.7,128c0.2,0,0.5,0,0.6,0.3s0,0.4-0.2,0.4c-0.3,0-0.5,0-0.8,0c-0.7,0.1-1.2,0.6-1.4,1.2
		c0,0.1,0,0.3-0.2,0.3s-0.3-0.1-0.4-0.3c0-0.1,0-0.3,0-0.4c0.1-0.4,0.4-0.8,0.7-1C901.6,128.1,902.2,128,902.7,128z"/>
	<path class="st6" d="M927.4,123.2c0.7,0,1.4,0.4,1.7,1c0.1,0.1,0.1,0.3,0.1,0.4c0,0.2-0.1,0.3-0.3,0.3c-0.1,0-0.2-0.1-0.3-0.2
		c-0.6-0.9-0.9-1.1-2-0.8h-0.1c-0.2,0-0.4,0.1-0.4-0.1c-0.1-0.2,0-0.4,0.2-0.5l0,0c0.1,0,0.2-0.1,0.4-0.1L927.4,123.2z"/>
	<path class="st6" d="M936.8,129c0,0.1,0,0.2-0.1,0.4c-0.1,0.2-0.2,0.2-0.4,0.2s-0.2-0.2-0.2-0.3c0-0.1,0-0.2,0-0.3
		c0-0.4-0.3-0.7-0.8-0.7c-0.1,0-0.2,0-0.3,0c-0.2,0-0.3-0.1-0.3-0.3s0.1-0.4,0.3-0.4c0.8-0.1,1.6,0.4,1.8,1.2
		C936.8,128.8,936.8,128.9,936.8,129z"/>
	<path class="st6" d="M905.9,125.7c0.2,0,0.3,0,0.3,0.2s-0.1,0.4-0.3,0.5c-0.3,0-0.5,0.1-0.8,0.3c-0.3,0.2-0.5,0.4-0.6,0.7
		c-0.1,0.1-0.1,0.3-0.3,0.2c-0.2,0-0.3-0.2-0.3-0.4c0-0.1,0.1-0.2,0.1-0.4C904.4,126.1,905.1,125.7,905.9,125.7z"/>
	<path class="st6" d="M916.1,134.2c0.5,0,0.9,0.1,1.3,0.2c0.3,0.1,0.4,0.2,0.3,0.5c0,0.1,0,0.2-0.1,0.3s-0.1,0.2-0.2,0.1l-0.2-0.1
		c-0.2,0-0.3,0-0.4,0.2c-0.1,0.4-0.5,0.7-0.9,0.5c-0.3-0.1-0.5-0.4-0.6-0.7c0-0.3-0.2-0.3-0.4-0.3s-0.4,0.1-0.5,0.2
		c-0.1,0-0.2,0.1-0.3,0s0-0.2,0.1-0.3C914.8,134.5,915.4,134.2,916.1,134.2z"/>
	<path class="st6" d="M920.4,134.3c0.5,0,1,0.1,1.4,0.2c0.3,0.1,0.6,0.4,0.8,0.7c0,0.1,0.1,0.2,0,0.2c-0.1,0.1-0.1,0-0.2-0.1
		c-0.2-0.1-0.4-0.2-0.7-0.3c-0.2,0-0.2,0-0.3,0.2c-0.1,0.5-0.3,0.6-0.7,0.7c-0.4,0.1-0.7-0.2-0.8-0.5s-0.3-0.2-0.5-0.2
		c-0.3,0-0.4,0-0.4-0.3c-0.1-0.3,0-0.6,0.3-0.6C919.7,134.3,920,134.3,920.4,134.3z"/>
	<path class="st6" d="M917.3,137.1c0.6,0.1,1.3,0.1,1.9-0.2c0.2,0.7,0,1-0.6,1.1C917.7,138.1,917.2,137.8,917.3,137.1z"/>
	<path class="st6" d="M925.4,149.4c0.9,0.1,1.8,0,2.6-0.2c0.6-0.1,1.2-0.1,1.7,0.2c0.1,0.1,0.2,0.1,0.3,0c0.5-0.2,1-0.3,1.6-0.2
		l1.5,0.3c0.4,0.1,0.8,0.1,1.3,0c0,0.4,0,0.7,0,1s0,0.4,0.3,0.4c0.6,0,0.6,0,0.6,0.6v6.5c0,0.1,0,0.2,0,0.3c0,0.3-0.1,0.3-0.3,0.3
		h-3.8c-0.4,0-0.4,0-0.4,0.4c0,0.2-0.1,0.2-0.2,0.2c-0.5,0-0.9,0-1.4,0c-0.2,0-0.3-0.1-0.3-0.3s-0.1-0.3-0.3-0.3h-3.8
		c-0.4,0-0.5,0.1-0.5-0.4v-6.8c0-0.5,0-0.4,0.4-0.4h0.2c0.4,0,0.4,0,0.4-0.4L925.4,149.4z"/>
	<path class="st6" d="M902.5,149.4c0.9,0.1,1.8,0,2.7-0.3c0.6-0.1,1.1-0.1,1.7,0.2c0.1,0.1,0.2,0.1,0.3,0c0.5-0.2,1.1-0.3,1.6-0.2
		s1,0.2,1.5,0.3c0.4,0,0.8,0,1.2,0c0.1,0.4,0.1,0.7,0,1.1c0,0.2,0.1,0.3,0.3,0.3s0.4,0,0.6,0c0,0.2,0,0.3,0,0.5c0,2.2,0,4.5,0,6.7
		v0.1c0,0.4,0,0.4-0.4,0.4h-3.6c-0.1,0-0.2,0-0.2,0c-0.2,0-0.3,0-0.3,0.3s-0.1,0.3-0.3,0.3c-0.4,0-0.9,0-1.3,0
		c-0.2,0-0.3-0.1-0.3-0.3s-0.1-0.3-0.3-0.3h-3.8c-0.4,0-0.4,0-0.4-0.4v-6.8c0-0.4,0-0.4,0.4-0.4c0.6,0,0.6,0,0.6-0.6
		C902.4,149.9,902.5,149.7,902.5,149.4z"/>
	<path class="st9" d="M926.1,150.3c0.7,0,1.3-0.2,2-0.3h0.3c0.8-0.1,1,0.1,1,0.9v5.6c0,0.2,0,0.3,0,0.5c-0.6-0.2-1.3-0.2-2,0
		c-0.3,0.1-0.6,0.1-0.9,0.1c-0.4,0-0.4-0.1-0.4-0.4L926.1,150.3L926.1,150.3z"/>
	<path class="st9" d="M930.3,156.9v-6.4c0-0.4,0.2-0.5,0.6-0.5c0.4,0,0.8,0,1.1,0.1c0.5,0.1,1,0.2,1.5,0.2c0,0.1,0,0.3,0,0.4v5.8
		c0,0.5,0,0.5-0.5,0.5c-0.3,0-0.6,0-0.9-0.1C931.5,156.7,930.9,156.7,930.3,156.9z"/>
	<path class="st9" d="M907.5,156.9v-6.3c0-0.5,0.1-0.6,0.6-0.7c0.5,0,1.1,0.1,1.6,0.2l0.3,0.1c0.2,0,0.5,0,0.6,0.1s0,0.4,0,0.6v5.5
		c0,0.5,0,0.5-0.5,0.5c-0.3,0-0.6,0-0.9-0.1C908.8,156.7,908.1,156.7,907.5,156.9z"/>
	<path class="st9" d="M903.3,150.3c0.7-0.1,1.3-0.2,2-0.3c0.3,0,0.5,0,0.8,0c0.2,0,0.4,0.2,0.4,0.4c0,0,0,0,0,0.1c0,2.1,0,4.2,0,6.3
		v0.1c-0.7-0.2-1.4-0.2-2,0.1c-0.3,0.1-0.5,0.1-0.8,0.1c-0.2,0-0.3-0.1-0.3-0.3s0-0.7,0-1L903.3,150.3L903.3,150.3z"/>
</g>
</svg>
