<?xml version="1.0" encoding="UTF-8"?>
<svg id="uuid-2428111c-bb1f-4829-8e36-6cd8837c8cb5" data-name="Layer 1" xmlns="http://www.w3.org/2000/svg" width="26.63in" height="17.24in" viewBox="0 0 1917.65 1241.58">
  <g id="uuid-2f7d8abd-6d32-4dd6-821f-2edd83e319b2" data-name="a">
    <rect width="1915.29" height="1241.58" fill="#fefced"/>
    <rect y="132.48" width="1917.65" height="988" fill="#2d2ff5"/>
    <rect x="139.73" y="223.71" width="816.79" height="816.79" fill="#fefced" stroke="#2d2ff5" stroke-miterlimit="10"/>
    <line x1="139.73" y1="904.37" x2="956.52" y2="904.37" fill="none" stroke="#2d2ff5" stroke-miterlimit="10"/>
    <line x1="139.73" y1="768.24" x2="956.52" y2="768.24" fill="none" stroke="#2d2ff5" stroke-miterlimit="10"/>
    <line x1="139.73" y1="632.11" x2="956.52" y2="632.11" fill="none" stroke="#2d2ff5" stroke-miterlimit="10"/>
    <line x1="139.73" y1="495.98" x2="956.52" y2="495.98" fill="none" stroke="#2d2ff5" stroke-miterlimit="10"/>
    <line x1="139.73" y1="359.84" x2="956.52" y2="359.84" fill="none" stroke="#2d2ff5" stroke-miterlimit="10"/>
    <line x1="820.39" y1="223.71" x2="820.39" y2="1040.5" fill="none" stroke="#2d2ff5" stroke-miterlimit="10"/>
    <line x1="684.26" y1="223.71" x2="684.26" y2="1040.5" fill="none" stroke="#2d2ff5" stroke-miterlimit="10"/>
    <line x1="548.13" y1="223.71" x2="548.13" y2="1040.5" fill="none" stroke="#2d2ff5" stroke-miterlimit="10"/>
    <line x1="411.99" y1="223.71" x2="411.99" y2="1040.5" fill="none" stroke="#2d2ff5" stroke-miterlimit="10"/>
    <line x1="275.86" y1="223.71" x2="275.86" y2="1040.5" fill="none" stroke="#2d2ff5" stroke-miterlimit="10"/>
    <rect x="956.52" y="223.71" width="816.79" height="816.79" fill="#fefced" stroke="#2d2ff5" stroke-miterlimit="10"/>
    <line x1="956.52" y1="904.37" x2="1773.31" y2="904.37" fill="none" stroke="#2d2ff5" stroke-miterlimit="10"/>
    <line x1="956.52" y1="768.24" x2="1773.31" y2="768.24" fill="none" stroke="#2d2ff5" stroke-miterlimit="10"/>
    <line x1="956.52" y1="632.11" x2="1773.31" y2="632.11" fill="none" stroke="#2d2ff5" stroke-miterlimit="10"/>
    <line x1="956.52" y1="495.98" x2="1773.31" y2="495.98" fill="none" stroke="#2d2ff5" stroke-miterlimit="10"/>
    <line x1="956.52" y1="359.84" x2="1773.31" y2="359.84" fill="none" stroke="#2d2ff5" stroke-miterlimit="10"/>
    <line x1="1637.18" y1="223.71" x2="1637.18" y2="1040.5" fill="none" stroke="#2d2ff5" stroke-miterlimit="10"/>
    <line x1="1501.05" y1="223.71" x2="1501.05" y2="1040.5" fill="none" stroke="#2d2ff5" stroke-miterlimit="10"/>
    <line x1="1364.92" y1="223.71" x2="1364.92" y2="1040.5" fill="none" stroke="#2d2ff5" stroke-miterlimit="10"/>
    <line x1="1228.79" y1="223.71" x2="1228.79" y2="1040.5" fill="none" stroke="#2d2ff5" stroke-miterlimit="10"/>
    <line x1="1092.65" y1="223.71" x2="1092.65" y2="1040.5" fill="none" stroke="#2d2ff5" stroke-miterlimit="10"/>
    <rect x="550.59" y="770.16" width="131.64" height="471.42" fill="#fefced"/>
    <path d="M680.22,771.25v470.33h-127.64v-470.33h127.64m4-3.09h-135.64v473.42h135.64v-473.42Z" fill="#2d2ff5"/>
    <polygon points="820.39 632.18 681.97 632.18 820.39 768.74 820.39 632.18" fill="#2d2ff5"/>
    <polygon points="548.13 768.24 548.13 906.66 684.68 768.24 548.13 768.24" fill="#2d2ff5"/>
    <polygon points="820.39 359.84 820.39 497.31 956.21 634.78 956.21 359.84 820.39 359.84" fill="#2d2ff5"/>
    <path d="M952.21,501.31v127.82h-127.82v-127.82h127.82m4-4h-135.82v135.82h135.82v-135.82Z" fill="#2d2ff5"/>
    <polygon points="958.22 493.67 958.2 361.85 1094.65 361.83 1094.66 0 1226.48 0 1226.48 493.67 958.22 493.67" fill="#fefced"/>
    <path d="M1096.66,0h127.82V491.67h-264.26v-127.82h136.43V.02m-4,0V359.86h-136.44v135.82h272.26V0l-135.82,.02Z" fill="#2d2ff5"/>
    <path d="M815.61,636.22v127.64H137.28v-127.64H815.61m4-4H133.28v135.64H819.61v-135.64Z" fill="#2d2ff5"/>
    <path d="M819.62,501.93l130.92,130.58-130.94,130.58-130.92-130.71,130.94-130.44m0-5.65l-136.62,136.08,136.61,136.37,136.6-136.23-136.59-136.23h0Z" fill="#2d2ff5"/>
    <rect x="139.73" y="223.71" width="816.79" height="816.79" fill="none" stroke="#2d2ff5" stroke-miterlimit="10"/>
    <line x1="139.73" y1="904.37" x2="956.52" y2="904.37" fill="none" stroke="#2d2ff5" stroke-miterlimit="10"/>
    <line x1="139.73" y1="768.24" x2="956.52" y2="768.24" fill="none" stroke="#2d2ff5" stroke-miterlimit="10"/>
    <line x1="139.73" y1="632.11" x2="956.52" y2="632.11" fill="none" stroke="#2d2ff5" stroke-miterlimit="10"/>
    <line x1="139.73" y1="495.98" x2="956.52" y2="495.98" fill="none" stroke="#2d2ff5" stroke-miterlimit="10"/>
    <line x1="139.73" y1="359.84" x2="956.52" y2="359.84" fill="none" stroke="#2d2ff5" stroke-miterlimit="10"/>
    <line x1="820.39" y1="223.71" x2="820.39" y2="1040.5" fill="none" stroke="#2d2ff5" stroke-miterlimit="10"/>
    <line x1="684.26" y1="223.71" x2="684.26" y2="1040.5" fill="none" stroke="#2d2ff5" stroke-miterlimit="10"/>
    <line x1="548.13" y1="223.71" x2="548.13" y2="1040.5" fill="none" stroke="#2d2ff5" stroke-miterlimit="10"/>
    <line x1="411.99" y1="223.71" x2="411.99" y2="1040.5" fill="none" stroke="#2d2ff5" stroke-miterlimit="10"/>
    <line x1="275.86" y1="223.71" x2="275.86" y2="1040.5" fill="none" stroke="#2d2ff5" stroke-miterlimit="10"/>
    <rect x="956.52" y="223.71" width="816.79" height="816.79" fill="none" stroke="#2d2ff5" stroke-miterlimit="10"/>
    <line x1="956.52" y1="904.37" x2="1773.31" y2="904.37" fill="none" stroke="#2d2ff5" stroke-miterlimit="10"/>
    <line x1="956.52" y1="768.24" x2="1773.31" y2="768.24" fill="none" stroke="#2d2ff5" stroke-miterlimit="10"/>
    <line x1="956.52" y1="632.11" x2="1773.31" y2="632.11" fill="none" stroke="#2d2ff5" stroke-miterlimit="10"/>
    <line x1="956.52" y1="495.98" x2="1773.31" y2="495.98" fill="none" stroke="#2d2ff5" stroke-miterlimit="10"/>
    <line x1="956.52" y1="359.84" x2="1773.31" y2="359.84" fill="none" stroke="#2d2ff5" stroke-miterlimit="10"/>
    <line x1="1637.18" y1="223.71" x2="1637.18" y2="1040.5" fill="none" stroke="#2d2ff5" stroke-miterlimit="10"/>
    <line x1="1501.05" y1="223.71" x2="1501.05" y2="1040.5" fill="none" stroke="#2d2ff5" stroke-miterlimit="10"/>
    <line x1="1364.92" y1="223.71" x2="1364.92" y2="1040.5" fill="none" stroke="#2d2ff5" stroke-miterlimit="10"/>
    <line x1="1228.79" y1="223.71" x2="1228.79" y2="1040.5" fill="none" stroke="#2d2ff5" stroke-miterlimit="10"/>
    <line x1="1092.65" y1="223.71" x2="1092.65" y2="1040.5" fill="none" stroke="#2d2ff5" stroke-miterlimit="10"/>
    <g id="uuid-04833b49-0a13-49c8-82a3-898ecc2a72b0" data-name="b">
      <rect x="139.73" y="223.71" width="544.53" height="271.96" fill="#fefced" stroke="#2d2ff5" stroke-miterlimit="10"/>
    </g>
    <text transform="translate(180.04 464.53)" fill="#1041f5" font-family="ArialMT, Arial" font-size="210.48" isolation="isolate"><tspan x="0" y="0">Re–</tspan></text>
    <polygon points="1824.08 576.15 1788.84 555.67 1787.89 219.39 1823.13 239.87 1824.08 576.15" fill="#fefced"/>
    <polygon points="911.25 1103.18 876.01 1082.7 1788.84 555.67 1824.08 576.15 911.25 1103.18" fill="#fefced"/>
    <polygon points="908.42 1108.08 873.18 1087.6 872.21 744.79 907.45 765.27 908.42 1108.08" fill="#fefced"/>
    <polygon points="907.45 765.27 872.21 744.79 1790.71 214.49 1825.95 234.97 907.45 765.27" fill="#fefced"/>
    <path d="M907.45,765.27L1826,235l1,342.81-918.5,530.3-1-342.81-.05-.03Zm916.63-189.12l-.95-336.28L910.29,766.87l1,336.28,912.83-527" fill="#fefced"/>
    <polygon points="1822.66 575.34 1787.42 554.86 1786.48 221.84 1821.72 242.32 1822.66 575.34" fill="#2d2ff5"/>
    <polygon points="912.66 1100.73 877.42 1080.25 1787.42 554.86 1822.66 575.34 912.66 1100.73" fill="#2d2ff5"/>
    <polygon points="909.84 1105.63 874.6 1085.15 873.63 745.6 908.87 766.08 909.84 1105.63" fill="#2d2ff5"/>
    <polygon points="908.87 766.08 873.63 745.6 1789.3 216.94 1824.54 237.42 908.87 766.08" fill="#2d2ff5"/>
    <path d="M908.87,766.08L1824.54,237.42l1,339.55-915.71,528.66-1-339.55h.04Zm913.79-190.74l-.94-333L911.72,767.73l.94,333,910-525.39" fill="#2d2ff5"/>
    <path d="M1735.42,565.05l-35.24-20.48c35.07-20.25,57.86-49.15,60.23-76.08l35.24,20.51c-2.37,26.9-25.16,55.8-60.23,76.05Z" fill="#2d2ff5"/>
    <polygon points="1772.38 502.41 1737.14 481.93 1760.41 468.49 1795.65 488.97 1772.38 502.41" fill="#fefced"/>
    <polygon points="1795.78 468.92 1760.54 448.44 1760.51 440.55 1795.75 461.03 1795.78 468.92" fill="#2d2ff5"/>
    <path d="M1682.18,574.68l-35.24-20.48c11.67,6.78,30,3.79,53.24-9.62l35.24,20.48c-23.23,13.41-41.57,16.41-53.24,9.62Z" fill="#2d2ff5"/>
    <path d="M1700.68,526.65c20.53-11.85,34-28.41,36.45-44.72l35.24,20.48c-2.49,16.31-15.92,32.87-36.45,44.72-13.52,7.8-24.18,9.49-31.35,5.32l-35.24-20.45c7.17,4.14,17.83,2.46,31.35-5.35Z" fill="#fefced"/>
    <polygon points="1768.13 501.96 1732.9 481.48 1733.1 479.01 1768.34 499.49 1768.13 501.96" fill="#2d2ff5"/>
    <polygon points="1768.34 499.49 1733.1 479.01 1765.25 460.45 1800.49 480.93 1768.34 499.49" fill="#2d2ff5"/>
    <path d="M1707.82,546.91l-35.24-20.48c6.33,3.68,15.83,2.06,28.09-5,19-11,31.06-25.91,32.23-39.92l35.24,20.49c-1.16,14-13.21,28.94-32.23,39.92-12.26,7.08-21.76,8.67-28.09,4.99Z" fill="#2d2ff5"/>
    <polygon points="1694.12 527.61 1658.88 507.13 1760.54 448.44 1795.78 468.92 1694.12 527.61" fill="#2d2ff5"/>
    <polygon points="1772.6 469.66 1737.36 449.18 1737.35 444.72 1772.59 465.2 1772.6 469.66" fill="#fefced"/>
    <path d="M1747.16,407l35.24,20.48c8.67,5,13.3,16.31,13.35,33.6l-35.24-20.48c-.05-17.33-4.68-28.6-13.35-33.6Z" fill="#2d2ff5"/>
    <path d="M1730.68,427.55l35.24,20.45c4.34,2.86,6.64,8.61,6.67,17.17l-35.24-20.48c-.02-8.54-2.35-14.29-6.67-17.14Z" fill="#fefced"/>
    <path d="M1730.68,427.55l-.54-.33,35.24,20.48,.54,.33-35.24-20.48Z" fill="#fefced"/>
    <polygon points="1694.61 514.69 1659.37 494.21 1737.36 449.18 1772.6 469.66 1694.61 514.69" fill="#fefced"/>
    <path d="M1726.83,432.78l35.24,20.48c3.76,2.19,5.79,6.8,6,13.79l-35.24-20.48c-.21-7-2.24-11.57-6-13.79Z" fill="#2d2ff5"/>
    <path d="M1740.44,404.45c2.36,.46,4.63,1.3,6.71,2.5l35.24,20.48c-2.08-1.2-4.35-2.04-6.71-2.5l-35.24-20.48Z" fill="#fefced"/>
    <path d="M1704.58,552.45l-35.24-20.45c-5.92-3.44-9.46-10.87-10.27-22.13l35.24,20.48c.81,11.24,4.35,18.65,10.27,22.1Z" fill="#2d2ff5"/>
    <polygon points="1694.31 530.32 1659.07 509.84 1658.88 507.13 1694.12 527.61 1694.31 530.32" fill="#2d2ff5"/>
    <polygon points="1700.2 506.21 1664.96 485.73 1732.78 446.57 1768.02 467.05 1700.2 506.21" fill="#2d2ff5"/>
    <polygon points="1694.61 514.69 1659.37 494.21 1659.88 490.8 1695.12 511.28 1694.61 514.69" fill="#2d2ff5"/>
    <path d="M1730.14,427.21l35.24,20.48c-6.28-3.65-16.5-1.68-30,6.12-22.7,13.11-36.63,33-40.27,57.48l-35.24-20.48c3.64-24.49,17.56-44.37,40.27-57.48,13.51-7.79,23.72-9.77,30-6.12Z" fill="#2d2ff5"/>
    <path d="M1699.82,415.88c16.83-9.71,30.52-13.46,40.62-11.43l35.24,20.48c-10.1-2-23.79,1.71-40.62,11.43l-.46,.27-35.24-20.48,.46-.27Z" fill="#fefced"/>
    <path d="M1632.62,520.18c-.11-40.19,25.44-80,66.74-104l35.24,20.48c-41.29,24-66.85,63.85-66.74,104,.05,17.22,5.11,28.66,14.33,34l-35.19-20.47c-9.26-5.35-14.33-16.79-14.38-34.01Z" fill="#fefced"/>
    <path d="M1678.91,580.27l-35.24-20.48c-10.18-5.92-15.56-18.58-15.61-37-.06-21.39,6.66-43.2,19.45-63.09,12.64-19.66,30.73-36.64,52.29-49.09,22.08-12.75,39.36-15.6,50.57-9.08l35.24,20.47c-11.22-6.52-28.5-3.67-50.57,9.08s-39.66,29.43-52.29,49.09c-12.78,19.89-19.51,41.7-19.45,63.09,.05,18.43,5.42,31.09,15.61,37.01Z" fill="#2d2ff5"/>
    <path d="M1768.34,499.49l32.15-18.56-.1,2.8c-.53,15.32-7.05,31.61-18.88,47.13-11.42,15-27.35,28.64-46.07,39.44-21.55,12.44-39.67,16.57-52.37,11.92-12.87-4.71-19.7-18.16-19.76-38.92-.06-21.39,6.66-43.2,19.45-63.09,12.64-19.66,30.73-36.64,52.29-49.09,40.76-23.53,65.16-13.33,65.28,27.28v13.13l-101.2,58.47c2.44,20,15.42,24.26,36.79,11.91,19-11,31.06-25.91,32.23-39.92l.2-2.48v-.02Zm-32.93,65.56c35.07-20.25,57.86-49.15,60.23-76.08l-23.28,13.44c-2.49,16.31-15.92,32.87-36.45,44.72-24.66,14.24-39.82,8.1-41.61-16.81l-.19-2.71,101.66-58.69v-7.89c-.11-37.89-22.23-46.89-60.7-24.68-41.56,24-67.31,64-67.2,104.31,.11,39,26,48.38,67.56,24.39" fill="#2d2ff5"/>
    <path d="M1795.75,461v7.89l-101.66,58.69,.19,2.71c1.78,24.92,17,31,41.61,16.81,20.53-11.85,34-28.41,36.45-44.72l23.3-13.38c-2.37,26.93-25.16,55.83-60.23,76.08-41.56,24-67.45,14.65-67.56-24.39-.11-40.34,25.63-80.31,67.2-104.31,38.47-22.21,60.59-13.21,60.7,24.68v-.06Zm-23.15,8.63v-4.43c-.07-20.86-13.63-25-37.22-11.4-22.7,13.11-36.63,33-40.27,57.48l-.51,3.41,78-45" fill="#fefced"/>
    <path d="M1772.59,465.2v4.46l-78,45,.51-3.41c3.64-24.49,17.56-44.37,40.27-57.48,23.58-13.62,37.15-9.46,37.21,11.4v.03Zm-72.38,41l67.8-39.14c-.38-17.09-11.94-19.94-32.62-8-19.42,11.21-31.25,27.07-35.2,47.16" fill="#2d2ff5"/>
    <polygon points="1612.09 634.15 1576.85 613.68 1603 598.58 1638.24 619.06 1612.09 634.15" fill="#2d2ff5"/>
    <polygon points="1638.24 619.06 1603 598.58 1602.78 518.47 1638.02 538.95 1638.24 619.06" fill="#2d2ff5"/>
    <polygon points="1612.09 634.15 1576.85 613.68 1576.64 540.14 1611.88 560.61 1612.09 634.15" fill="#fefced"/>
    <polygon points="1607.54 642.04 1572.3 621.56 1572.08 542.77 1607.32 563.25 1607.54 642.04" fill="#2d2ff5"/>
    <path d="M1592.3,491.71l35.24,20.48c6.8,3.95,10.43,12.94,10.47,26.76l-35.24-20.48c-.04-13.82-3.67-22.81-10.47-26.76Z" fill="#2d2ff5"/>
    <path d="M1576.64,540.14c0-7.88-1.59-13.61-4.56-17.11l35.24,20.48c3,3.5,4.53,9.22,4.56,17.11l-35.24-20.48Z" fill="#fefced"/>
    <path d="M1570,521.12l35.24,20.48c.76,.55,1.45,1.19,2.06,1.91l-35.21-20.51c-.62-.71-1.32-1.34-2.09-1.88Z" fill="#fefced"/>
    <path d="M1570,521.12c-.28-.2-.58-.39-.88-.57l35.27,20.45c.3,.18,.6,.37,.88,.57l-22.28-13-3.12-1.81-3.36-2-.85-.49-.85-.49-1.67-1-1.61-.93c-.45-.26-1.07-.59-1.51-.88l-.02,.15Z" fill="#fefced"/>
    <path d="M1565.85,526.2l35.24,20.48c4.07,2.36,6.2,7.92,6.23,16.57l-35.24-20.48c-.02-8.65-2.16-14.21-6.23-16.57Z" fill="#2d2ff5"/>
    <polygon points="1518.29 688.31 1483.05 667.83 1509.21 652.73 1544.45 673.21 1518.29 688.31" fill="#2d2ff5"/>
    <polygon points="1544.45 673.21 1509.21 652.73 1509.03 591.01 1544.27 611.49 1544.45 673.21" fill="#2d2ff5"/>
    <path d="M1557.48,498.06c15.27-8.82,27.09-10.84,34.82-6.35l35.24,20.48c-7.73-4.49-19.55-2.47-34.82,6.35l-35.24-20.48Z" fill="#fefced"/>
    <path d="M1595.54,486.22l35.24,20.48c-8.58-5-21.58-2.93-38.08,6.6l-35.24-20.48c16.54-9.53,29.54-11.59,38.08-6.6Z" fill="#2d2ff5"/>
    <path d="M1569.14,520.54l35.24,20.46c-5.18-3-12.93-1.76-22.85,4-11.34,6.59-20.72,16.08-27.18,27.5-6.69,11.9-10.17,25.34-10.08,39l-35.27-20.5c-.08-13.65,3.39-27.1,10.08-39,6.46-11.42,15.84-20.91,27.18-27.5,9.95-5.72,17.74-6.98,22.88-3.96Z" fill="#2d2ff5"/>
    <polygon points="1547.39 578.91 1512.15 558.43 1512.6 556.23 1547.84 576.71 1547.39 578.91" fill="#fefced"/>
    <polygon points="1543.46 581.17 1508.22 560.69 1512.15 558.43 1547.39 578.91 1543.46 581.17" fill="#fefced"/>
    <polygon points="1543.46 581.17 1508.22 560.69 1507.88 558.73 1543.12 579.21 1543.46 581.17" fill="#2d2ff5"/>
    <polygon points="1518.29 688.31 1483.05 667.83 1482.84 593.76 1518.08 614.24 1518.29 688.31" fill="#fefced"/>
    <path d="M1547.84,576.71l-35.24-20.48c4.76-23.25,21.11-44.45,44.88-58.17l35.24,20.48c-23.72,13.72-40.13,34.92-44.88,58.17Z" fill="#fefced"/>
    <polygon points="1513.74 696.19 1478.5 675.71 1478.28 596.4 1513.52 616.88 1513.74 696.19" fill="#2d2ff5"/>
    <path d="M1545.72,569.12l-35.24-20.48c7.21-22.51,23.94-42.52,47-55.83l35.24,20.48c-23.06,13.3-39.79,33.32-47,55.83Z" fill="#2d2ff5"/>
    <path d="M1499.74,545.41l35.26,20.48c4.22,2.45,7,6.9,8.14,13.32l-35.24-20.48c-1.14-6.42-3.9-10.87-8.16-13.32Z" fill="#2d2ff5"/>
    <path d="M1498.9,545c.29,.14,.56,.29,.84,.45l35.26,20.44c-.27-.16-.55-.31-.84-.45l-35.26-20.44Z" fill="#fefced"/>
    <path d="M1482.84,593.76c0-9.67-2.64-16-7.44-18.79l35.24,20.48c4.8,2.79,7.41,9.12,7.44,18.79l-35.24-20.48Z" fill="#fefced"/>
    <path d="M1472.12,580.59l35.24,20.48c4,2.32,6.14,7.63,6.16,15.8l-35.24-20.48c-.02-8.17-2.16-13.48-6.16-15.8Z" fill="#2d2ff5"/>
    <polygon points="1424.22 742.62 1388.98 722.15 1415.13 707.04 1450.37 727.52 1424.22 742.62" fill="#2d2ff5"/>
    <polygon points="1450.37 727.52 1415.13 707.04 1414.96 646.37 1450.2 666.85 1450.37 727.52" fill="#2d2ff5"/>
    <polygon points="1453.26 635.35 1418.02 614.87 1418.51 612.74 1453.75 633.22 1453.26 635.35" fill="#fefced"/>
    <path d="M1475.4,575l35.24,20.48c-5.32-3.09-13.32-1.84-23.46,4-22.9,13.22-37.06,39-37,67.38l-35.18-20.5c-.08-28.35,14.09-54.16,37-67.38,10.08-5.85,18.08-7.1,23.4-3.98Z" fill="#2d2ff5"/>
    <polygon points="1448.94 637.85 1413.7 617.37 1418.02 614.87 1453.26 635.35 1448.94 637.85" fill="#fefced"/>
    <path d="M1463.41,552.37c15.4-8.89,27.68-11.3,35.49-7.41l35.24,20.48c-7.82-3.89-20.09-1.48-35.49,7.41-22.76,12.95-39.05,34.85-44.9,60.38l-35.24-20.48c5.85-25.53,22.13-47.43,44.9-60.38Z" fill="#fefced"/>
    <path d="M1503,539.77l35.24,20.48c-8.59-5-22.31-2.63-39.6,7.36-20.3,11.79-36.03,30.08-44.64,51.92l-35.24-20.48c8.62-21.85,24.36-40.14,44.68-51.92,17.24-9.98,30.96-12.35,39.56-7.36Z" fill="#2d2ff5"/>
    <polygon points="1448.94 637.85 1413.7 617.37 1414.7 582.6 1449.94 603.08 1448.94 637.85" fill="#2d2ff5"/>
    <polygon points="1424.22 742.62 1388.98 722.15 1388.62 597.65 1423.86 618.13 1424.22 742.62" fill="#fefced"/>
    <polygon points="1423.86 618.13 1388.62 597.65 1414.7 582.6 1449.94 603.08 1423.86 618.13" fill="#fefced"/>
    <path d="M1592.7,513.3c31.14-18,49.78-9.37,49.88,23l.24,85.35-35.28,20.35-.22-78.79c0-18-9.2-22.57-25.77-13-20.55,11.87-32.78,33.78-32.71,58.61l.19,67-35.28,20.37-.22-79.31c0-17.36-9.64-21.79-26.32-12.16-20.39,11.77-32.51,34-32.43,59.5l.19,65.92-35.28,20.37-.38-135,35.36-20.42-.7,24.43c8.62-21.85,24.36-40.14,44.68-51.92,23.86-13.78,40.92-13,47.09,1.51,7.21-22.51,23.94-42.52,47-55.83l-.04,.02Zm45.54,105.76l-.24-80.06c-.08-29.54-16.59-37-45.3-20.42-23.77,13.72-40.13,34.92-44.88,58.17l-.45,2.2-3.93,2.27-.34-2c-3.19-18.22-19.82-20.6-44.47-6.36-22.76,12.95-39.05,34.85-44.9,60.38l-.49,2.13-4.32,2.5,1-34.77-26.07,15,.35,124.49,26.16-15.1-.17-60.67c-.08-28.35,14.09-54.16,37-67.38,19.29-11.14,30.84-5.61,30.9,14.77l.21,74.07,26.15-15.1-.17-61.72c-.08-13.65,3.39-27.1,10.08-39,6.46-11.42,15.84-20.91,27.18-27.5,19.23-11.1,30.29-5.41,30.35,15.62l.21,73.54,26.15-15.1" fill="#2d2ff5"/>
    <path d="M1592.72,518.53c28.71-16.57,45.21-9.13,45.3,20.42l.23,80.11-26.15,15.1-.21-73.54c-.06-21-11.12-26.72-30.35-15.62-11.34,6.59-20.72,16.08-27.18,27.5-6.69,11.9-10.17,25.34-10.08,39l.17,61.72-26.15,15.1-.21-74.07c-.06-20.39-11.61-25.91-30.9-14.77-22.9,13.22-37.06,39-37,67.38l.17,60.67-26.16,15.1-.35-124.49,26.07-15-1,34.77,4.32-2.5,.49-2.13c5.85-25.53,22.13-47.43,44.9-60.38,24.65-14.23,41.28-11.85,44.47,6.36l.34,2,3.93-2.27,.45-2.2c4.76-23.25,21.11-44.45,44.88-58.17l.02-.09Z" fill="#fefced"/>
    <polygon points="1419.67 750.5 1384.43 730.02 1384.05 595.04 1419.29 615.52 1419.67 750.5" fill="#2d2ff5"/>
    <polygon points="1419.29 615.52 1384.05 595.04 1419.42 574.62 1454.65 595.1 1419.29 615.52" fill="#2d2ff5"/>
    <polygon points="1364.38 777.17 1329.14 756.69 1355.07 741.72 1390.31 762.2 1364.38 777.17" fill="#2d2ff5"/>
    <polygon points="1359.37 785.32 1324.13 764.84 1324.37 761.81 1359.61 782.29 1359.37 785.32" fill="#2d2ff5"/>
    <path d="M1330.22,730c14,8.18,21.63,12.58,35.24,20.48,0,9.88-.65,20.86-1.08,26.67l-35.24-20.48c.42-5.79,1.1-16.77,1.08-26.67Z" fill="#fefced"/>
    <path d="M1359.61,782.29l-35.24-20.48c.2-2.52,.7-9.16,1-16.75l35.24,20.48c-.3,7.59-.8,14.23-1,16.75Z" fill="#2d2ff5"/>
    <polygon points="1361.13 750.37 1325.89 729.89 1330.21 727.4 1365.45 747.88 1361.13 750.37" fill="#2d2ff5"/>
    <polygon points="1365.46 750.5 1330.22 730.02 1330.21 727.4 1365.45 747.88 1365.46 750.5" fill="#fefced"/>
    <polygon points="1360.69 752.58 1325.45 732.1 1325.89 729.89 1361.13 750.37 1360.69 752.58" fill="#2d2ff5"/>
    <polygon points="1390.31 762.2 1355.07 741.72 1354.86 665.29 1390.1 685.77 1390.31 762.2" fill="#2d2ff5"/>
    <polygon points="1364.02 727.66 1328.78 707.18 1328.76 702.19 1364 722.67 1364.02 727.66" fill="#fefced"/>
    <path d="M1270.78,818.36l-35.24-20.48c1.71,.97,3.59,1.62,5.54,1.91,8.67,1.43,21.19-2.39,36.2-11.06,27.26-15.74,43.92-35.32,48.17-56.63l35.24,20.48c-4.26,21.31-20.91,40.89-48.17,56.63-15,8.67-27.53,12.49-36.2,11.06-1.95-.3-3.82-.94-5.54-1.91Z" fill="#2d2ff5"/>
    <path d="M1283.54,768.28c28-16.15,45.3-39.56,45.24-61.1l35.22,20.48c.06,21.54-17.27,45-45.24,61.1-13.06,7.54-22.55,9.79-27.65,6.83l-35.24-20.48c5.13,2.97,14.61,.72,27.67-6.83Z" fill="#fefced"/>
    <path d="M1318.76,783.51l-35.24-20.51c25-14.45,40.59-34.72,40.69-53l35.24,20.48c-.1,18.31-15.65,38.58-40.69,53.03Z" fill="#2d2ff5"/>
    <polygon points="1363.97 710.06 1328.73 689.58 1328.69 677.76 1363.93 698.24 1363.97 710.06" fill="#fefced"/>
    <polygon points="1314.27 751.38 1279.03 730.91 1328.76 702.19 1364 722.67 1314.27 751.38" fill="#2d2ff5"/>
    <polygon points="1311.5 740.35 1276.26 719.88 1328.73 689.58 1363.97 710.06 1311.5 740.35" fill="#fefced"/>
    <polygon points="1359.39 707.45 1324.15 686.97 1324.13 680.4 1359.37 700.88 1359.39 707.45" fill="#2d2ff5"/>
    <path d="M1344.22,639.8l35.24,20.48c7,4.08,10.6,12.63,10.64,25.49l-35.24-20.48c-.04-12.86-3.61-21.4-10.64-25.49Z" fill="#2d2ff5"/>
    <path d="M1338.52,637.62c2,.42,3.93,1.16,5.7,2.18l35.24,20.48c-1.78-1.02-3.7-1.75-5.7-2.18l-35.24-20.48Z" fill="#fefced"/>
    <path d="M1328.69,677.76c0-8.52-2.15-14-6.43-16.51l35.24,20.48c4.28,2.49,6.41,8,6.43,16.51l-35.24-20.48Z" fill="#fefced"/>
    <path d="M1318.92,666.73l35.24,20.48c3.5,2,5.18,6.58,5.2,13.67l-35.24-20.48c-.02-7.09-1.7-11.63-5.2-13.67Z" fill="#2d2ff5"/>
    <path d="M1294.46,789.87l-35.24-20.48c4.24,2.46,12.68,.35,24.3-6.36l35.24,20.48c-11.61,6.71-20.06,8.82-24.3,6.36Z" fill="#2d2ff5"/>
    <path d="M1291.13,795.59l-35.24-20.48c-2.82-1.64-4.3-4.87-4.32-9.68l35.24,20.48c0,4.81,1.5,8.09,4.32,9.68Z" fill="#2d2ff5"/>
    <path d="M1323,638.13c5.92-1.33,11.08-1.5,15.48-.51l35.24,20.48c-4.39-.97-9.55-.8-15.48,.51l-35.24-20.48Z" fill="#fefced"/>
    <polygon points="1311.48 735.11 1276.24 714.63 1324.15 686.97 1359.39 707.45 1311.48 735.11" fill="#2d2ff5"/>
    <path d="M1286.81,785.91l-35.24-20.48c0-12.37,9.2-24,27.46-34.53l35.24,20.48c-18.25,10.54-27.49,22.16-27.46,34.53h0Z" fill="#2d2ff5"/>
    <path d="M1286.81,785.91c0-12.37,9.2-24,27.46-34.53l49.73-28.71v5c.08,21.54-17.26,45-45.22,61.1-20.28,11.71-31.93,10.67-32-2.85h.03Zm32-2.41c25-14.45,40.59-34.72,40.69-53l-45.17,26.08c-23,13.25-22.92,23.33-22.91,26.64,0,10,10.26,10.12,27.38,.24" fill="#2d2ff5"/>
    <path d="M1264.52,727.27c3.66-2.52,7.57-4.98,11.74-7.39l31.13,18.12,4.11,2.39c-16.66,9.62-29.32,20.21-37.64,31.51-7.15,9.7-10.75,19.46-10.73,29,0,8.68,2.59,14.52,7.65,17.46l-35.24-20.48c-5.06-2.94-7.63-8.79-7.65-17.46,0-9.57,3.58-19.34,10.73-29,6.24-8.47,14.92-16.55,25.9-24.11l35.23,20.47-35.23-20.47v-.04Zm25,28.21h0l-.5-.29-.5-.29-.51-.29-.51-.3-.52-.3-.52-.3-.53-.31-.53-.31-.53-.31-.54-.31-.54-.31-.54-.32-.55-.32-.55-.32-.55-.32-.56-.32-1.68-1-1.7-1-1.72-1-1.73-1-1.73-1-1.73-1-1.73-1-1.72-1-1.71-1-1.7-1-1.68-1-1.65-1-1.62-.94-1.59-.92-1.55-.9-1.51-.88,1.51,.88,1.55,.9,1.59,.92,1.62,.94,1.65,1,1.68,1,1.7,1,1.71,1,1.72,1,1.73,1,1.73,1,1.73,1,1.73,1,1.72,1,1.7,1,1.68,1,.56,.32,.55,.32,.55,.32,.55,.32,.54,.32,.54,.31,.54,.31,.53,.31,.53,.31,.53,.31,.52,.3,.52,.3,.51,.3,.51,.3,.5,.29,.5,.29h0" fill="#fefced"/>
    <path d="M1267.61,823.86l-35.24-20.48c-5.84-3.39-9-10.2-9-20.33,0-11.26,4.37-23.21,12.72-34.54,9.08-12.33,22.61-23.73,40.19-33.88l35.24,20.48c-17.58,10.15-31.11,21.55-40.19,33.88-8.36,11.34-12.76,23.28-12.72,34.54-.01,10.13,3.16,16.93,9,20.33Z" fill="#2d2ff5"/>
    <path d="M1322.26,661.26l35.24,20.48c-6.1-3.55-16.59-1-31.59,7.69-30.38,17.54-34.87,35.62-34.85,44.84,0,.45,0,1.31,.06,2.34l-35.24-20.48c-.05-1-.06-1.89-.06-2.34,0-9.21,4.47-27.3,34.85-44.84,15.01-8.66,25.49-11.24,31.59-7.69Z" fill="#2d2ff5"/>
    <polygon points="1267.37 750.32 1232.13 729.84 1255.88 716.13 1291.12 736.61 1267.37 750.32" fill="#2d2ff5"/>
    <path d="M1323,638.13c.31,.12,.61,.29,.87,.5l34.37,20c-8.77,1.92-19.24,6.37-31.24,13.37-37.55,21.68-59.94,49.16-59.87,73.5,0,1.46,.12,3.31,.28,4.84l-35.24-20.48c-.16-1.53-.28-3.38-.28-4.84-.07-24.34,22.31-51.82,59.87-73.5,12-7,22.51-11.42,31.32-13.36l-.08-.03Z" fill="#fefced"/>
    <path d="M1347.45,634.26l35.24,20.48c-11.31-6.57-30.33-2.68-55.75,12l-35.24-20.48c25.42-14.69,44.44-18.58,55.75-12Z" fill="#2d2ff5"/>
    <polygon points="1263.47 757.82 1228.23 737.34 1227.9 735.35 1263.14 755.83 1263.47 757.82" fill="#2d2ff5"/>
    <path d="M1326.94,666.73c42.94-24.79,67.61-18.81,67.71,16.4l.23,81.68-35.52,20.51,.24-3c.2-2.52,.7-9.16,1-16.75-6.54,15-20.22,32.83-48.09,48.92-33.21,19.18-53.89,15-54-10.93,0-11.26,4.37-23.21,12.72-34.54,9.08-12.33,22.61-23.73,40.19-33.88l47.9-27.66v-6.57c0-17.62-10.36-19.54-33.44-6.21-11.33,6.54-30.35,20.05-30.3,37-.02,1.49,.07,2.98,.26,4.46l.4,2.78-32.82,19-.33-2c-.38-2.56-.58-5.14-.6-7.72,0-13.72,6.07-28.6,17.67-43,11.16-13.88,27.33-27.14,46.74-38.35l.04-.14Zm63.37,95.46l-.22-76.43c0-16-5.55-25.28-16.34-27.67s-26.67,2.25-46.8,13.87c-37.55,21.68-59.94,49.16-59.87,73.5,0,1.46,.12,3.31,.28,4.84l23.74-13.71c0-1-.06-1.89-.06-2.34,0-9.21,4.47-27.3,34.85-44.84,25.53-14.74,38-11.86,38,8.81v11.82l-52.47,30.29c-16.66,9.62-29.32,20.21-37.64,31.51-7.15,9.7-10.75,19.46-10.73,29,0,11.42,4.47,17.94,13.19,19.38,8.72,1.44,21.19-2.39,36.2-11.06,27.26-15.74,43.92-35.32,48.17-56.63l.44-2.21,4.32-2.49v2.62c0,9.88-.64,20.86-1.07,26.67l25.93-15" fill="#2d2ff5"/>
    <path d="M1263.14,755.83l-35.24-20.48c-.38-2.56-.58-5.14-.6-7.72,0-13.72,6.07-28.6,17.67-43,11.16-13.88,27.33-27.14,46.74-38.35l35.29,20.46c-19.42,11.21-35.58,24.47-46.74,38.35-11.6,14.42-17.71,29.3-17.67,43,0,2.59,.19,5.18,.55,7.74Z" fill="#2d2ff5"/>
    <path d="M1373.76,658.1c10.8,2.39,16.3,11.7,16.34,27.67l.22,76.43-25.93,15c.42-5.81,1.1-16.79,1.08-26.67v-2.62l-4.32,2.49-.44,2.21c-4.26,21.31-20.91,40.89-48.17,56.63-15,8.67-27.53,12.49-36.2,11.06s-13.16-8-13.19-19.38c0-9.57,3.58-19.34,10.73-29,8.32-11.29,21-21.89,37.64-31.51l52.48-30.36v-11.82c-.06-20.67-12.49-23.56-38-8.81-30.38,17.54-34.87,35.62-34.85,44.84,0,.45,0,1.31,.06,2.34l-23.74,13.71c-.16-1.53-.28-3.38-.28-4.84-.07-24.34,22.31-51.82,59.87-73.5,20.13-11.62,35.88-16.29,46.8-13.87h-.1Zm-9.76,69.56v-5l-49.74,28.71c-18.25,10.54-27.49,22.16-27.46,34.53,0,13.51,11.69,14.56,32,2.85,28-16.15,45.3-39.56,45.24-61.1" fill="#fefced"/>
    <polygon points="1211.52 808.34 1176.28 787.87 1199.64 774.38 1234.88 794.86 1211.52 808.34" fill="#2d2ff5"/>
    <polygon points="1206.38 816.56 1171.14 796.09 1171.46 792.94 1206.7 813.42 1206.38 816.56" fill="#2d2ff5"/>
    <path d="M1189.94,723.24l35.24,20.48c7,4.08,10.73,13.79,10.77,28.94,0,6.67-.52,15.61-1.08,22.2l-35.24-20.48c.55-6.59,1.09-15.53,1.08-22.2-.04-15.18-3.71-24.85-10.77-28.94Z" fill="#2d2ff5"/>
    <path d="M1189.44,723l.5,.28,35.24,20.48c-.16-.1-.33-.19-.5-.28l-35.24-20.48Z" fill="#fefced"/>
    <path d="M1177,772.42c0-11.64-2.57-18.92-7.57-21.83l35.24,20.48c5,2.91,7.54,10.2,7.57,21.83,0,5.18-.36,10.86-.77,15.44l-35.24-20.48c.45-4.59,.82-10.26,.77-15.44Z" fill="#fefced"/>
    <path d="M1166.33,756l35.24,20.48c4.16,2.42,6.13,8.71,6.16,19,0,6.16-.55,13.13-1,17.89l-35.24-20.48c.48-4.76,1-11.72,1-17.89-.03-10.27-2-16.56-6.16-19Z" fill="#2d2ff5"/>
    <polygon points="1117.04 919.97 1081.8 899.49 1107.96 884.39 1143.2 904.87 1117.04 919.97" fill="#2d2ff5"/>
    <polygon points="1143.2 904.87 1107.96 884.39 1107.81 830.28 1143.05 850.76 1143.2 904.87" fill="#2d2ff5"/>
    <path d="M1157.33,729.08c13.94-8.05,24.76-10,32.11-6.11l35.24,20.48c-7.35-3.91-18.17-1.93-32.11,6.11l-35.24-20.48Z" fill="#fefced"/>
    <path d="M1193.18,717.7l35.24,20.48c-8.19-4.76-20.34-2.82-35.86,6.14l-35.24-20.48c15.52-8.96,27.68-10.9,35.86-6.14Z" fill="#2d2ff5"/>
    <path d="M1169.47,750.59l35.24,20.48c-4.89-2.84-12.12-1.51-21.68,4-24.75,14.29-40.07,43.29-40,75.69l-35.24-20.48c-.09-32.4,15.23-61.4,40-75.69,9.56-5.51,16.79-6.85,21.68-4Z" fill="#2d2ff5"/>
    <polygon points="1146.09 815.86 1110.85 795.38 1111.34 793.24 1146.58 813.72 1146.09 815.86" fill="#fefced"/>
    <polygon points="1141.78 818.35 1106.54 797.87 1110.85 795.38 1146.09 815.86 1141.78 818.35" fill="#fefced"/>
    <path d="M1146.58,813.72l-35.24-20.48c6.75-29.2,21.79-50.19,46-64.16l35.24,20.48c-24.21,13.97-39.25,34.97-46,64.16Z" fill="#fefced"/>
    <path d="M1146.77,799.27l-35.24-20.48c8.77-24,24.12-42.44,45.79-54.95l35.24,20.48c-21.67,12.51-37.02,30.95-45.79,54.95Z" fill="#2d2ff5"/>
    <polygon points="1141.78 818.35 1106.54 797.87 1107.53 759.94 1142.77 780.42 1141.78 818.35" fill="#2d2ff5"/>
    <polygon points="1117.04 919.97 1081.8 899.49 1081.45 775 1116.69 795.48 1117.04 919.97" fill="#fefced"/>
    <path d="M1192.57,749.56c27.89-16.1,43.29-7.89,43.38,23.1,0,6.67-.52,15.61-1.08,22.2l-23.36,13.49c.41-4.59,.78-10.26,.77-15.44-.07-23-9.91-29-29.26-17.83-24.75,14.29-40.07,43.29-40,75.69l.15,54.11-26.17,15.12-.35-124.49,26.08-15.06-1,37.93,4.31-2.49,.49-2.14c6.75-29.2,21.79-50.19,46-64.16l.04-.03Z" fill="#fefced"/>
    <polygon points="1116.69 795.48 1081.45 775 1107.53 759.94 1142.77 780.42 1116.69 795.48" fill="#fefced"/>
    <polygon points="1112.5 927.85 1077.26 907.37 1076.88 772.39 1112.12 792.86 1112.5 927.85" fill="#2d2ff5"/>
    <path d="M1192.56,744.32c30.38-17.54,47.86-8.18,48,25.7,0,7.76-.7,18.46-1.32,25.26l-.22,2.46-32.6,18.82,.32-3.14c.48-4.76,1-11.72,1-17.89-.06-20.34-7.67-25-24.68-15.22-22.27,12.86-35.52,38.21-35.43,67.81l.17,59.35-35.28,20.37-.38-135,35.36-20.41-.7,26.82c8.77-24,24.12-42.44,45.79-54.95l-.03,.02Zm42.32,50.54c.55-6.59,1.09-15.53,1.08-22.2-.09-31-15.49-39.2-43.38-23.1-24.2,14-39.24,35-46,64.16l-.49,2.14-4.31,2.49,1-37.93-26.08,15.06,.35,124.49,26.16-15.1-.15-54.11c-.09-32.4,15.23-61.4,40-75.69,19.35-11.17,29.19-5.17,29.26,17.83,0,5.18-.36,10.86-.77,15.44l23.36-13.49" fill="#2d2ff5"/>
    <polygon points="1112.12 792.86 1076.88 772.39 1112.24 751.97 1147.48 772.45 1112.12 792.86" fill="#2d2ff5"/>
    <polygon points="1076.36 871.39 1041.12 850.91 1041.07 834.09 1076.31 854.57 1076.36 871.39" fill="#2d2ff5"/>
    <polygon points="974.16 1002.47 938.92 981.99 967.26 965.62 1002.5 986.1 974.16 1002.47" fill="#2d2ff5"/>
    <polygon points="1002.3 914.14 967.06 893.67 1041.12 850.91 1076.36 871.39 1002.3 914.14" fill="#2d2ff5"/>
    <polygon points="1002.25 897.32 967.01 876.84 1041.07 834.09 1076.31 854.57 1002.25 897.32" fill="#fefced"/>
    <polygon points="1006.8 889.45 971.56 868.97 1045.61 826.22 1080.85 846.7 1006.8 889.45" fill="#2d2ff5"/>
    <polygon points="1002.25 897.32 967.01 876.84 966.85 819.08 1002.09 839.55 1002.25 897.32" fill="#2d2ff5"/>
    <polygon points="1002.09 839.55 966.85 819.08 1054.62 768.4 1089.86 788.88 1002.09 839.55" fill="#2d2ff5"/>
    <polygon points="973.68 834.9 938.44 814.42 1054.56 747.38 1089.8 767.86 973.68 834.9" fill="#fefced"/>
    <polygon points="1089.86 788.88 1054.62 768.4 1054.56 747.38 1089.8 767.86 1089.86 788.88" fill="#2d2ff5"/>
    <polygon points="1002.5 986.1 967.26 965.62 967.06 893.67 1002.3 914.14 1002.5 986.1" fill="#2d2ff5"/>
    <polygon points="974.16 1002.47 938.92 981.99 938.44 814.42 973.68 834.9 974.16 1002.47" fill="#fefced"/>
    <path d="M1094.43,791.49l-87.76,50.67,.13,47.28,74-42.75,.08,27.3-74.05,42.75,.2,72-37.47,21.63-.5-178.06,125.28-72.31,.09,31.51v-.02Zm-18.12,63.07l-74.06,42.76-.16-57.77,87.77-50.67-.06-21-116.12,67,.48,167.56,28.35-16.37-.2-72,74.06-42.76v-16.82" fill="#2d2ff5"/>
    <polygon points="1089.8 767.86 1089.86 788.88 1002.09 839.55 1002.25 897.32 1076.31 854.57 1076.36 871.39 1002.3 914.14 1002.5 986.1 974.16 1002.47 973.68 834.9 1089.8 767.86" fill="#fefced"/>
    <polygon points="969.11 832.29 933.87 811.81 1059.1 739.51 1094.34 759.98 969.11 832.29" fill="#2d2ff5"/>
    <polygon points="969.61 1010.34 934.37 989.87 933.87 811.81 969.11 832.29 969.61 1010.34" fill="#2d2ff5"/>
    <path d="M125.11,59.47l-.11-.67-2.88,.67,.15,.67c2.6,11.09-.98,22.72-9.36,30.43-3.2,2.97-6.97,5.25-11.08,6.7-4.13,1.46-8.51,2.07-12.88,1.8-4.36-.29-8.61-1.46-12.5-3.44-3.91-1.97-7.36-4.72-10.15-8.09,1.52-1.91,1.52-4.61,0-6.52-.74-.92-1.77-1.56-2.92-1.83-1.16-.25-2.36-.12-3.44,.37-2.19,1.05-3.35,3.48-2.8,5.84,.28,1.15,.92,2.17,1.83,2.92,.93,.73,2.08,1.13,3.26,1.12,.57,0,1.14-.08,1.68-.26,3.15,3.86,7.1,7,11.57,9.21,4.47,2.19,9.35,3.42,14.33,3.61h1.19c16.31,.02,30.48-11.24,34.14-27.14,1.2-5.07,1.2-10.35,0-15.42h0l-.03,.03Zm-60.61,24.86c0,.45-.14,.89-.37,1.27-.24,.37-.59,.65-1,.82-.85,.34-1.83,.13-2.47-.53-.32-.32-.55-.72-.66-1.16-.08-.44-.03-.9,.15-1.31,.18-.41,.48-.76,.86-1,.37-.27,.82-.42,1.28-.42,.6,0,1.18,.25,1.61,.67,.35,.47,.56,1.03,.6,1.61h0v.05Z" fill="#2d2ff5"/>
    <path d="M113.39,62.58c-1.32-5.93-4.96-11.08-10.11-14.3-7.97-5.07-18.24-4.73-25.86,.86-.78-.44-1.66-.68-2.55-.71h-.07c-1.37,.04-2.67,.6-3.63,1.57-.96,.96-1.5,2.27-1.5,3.63,0,1.35,.52,2.66,1.46,3.63,.96,.96,2.24,1.54,3.59,1.61h.07c.9,0,1.79-.22,2.58-.67,.78-.44,1.44-1.07,1.91-1.83,.44-.78,.69-1.65,.72-2.55,.03-.9-.18-1.79-.6-2.58,3.8-2.63,8.39-3.89,13-3.56,4.61,.34,8.96,2.26,12.32,5.43,7.96,7.51,8.32,20.05,.81,28-2.27,2.41-5.11,4.21-8.26,5.24-4.39,1.45-9.15,1.36-13.48-.26-8.9-3.31-14.21-12.45-12.67-21.82l.11-.67-2.85-.49-.11,.67c-1.69,10.32,3.85,20.46,13.44,24.63,9.62,4.19,20.86,1.38,27.37-6.85,2.09-2.64,3.56-5.72,4.3-9,.72-3.29,.72-6.71,0-10h0v.02Zm-36.99-7.3c-.84,.85-2.21,.86-3.05,.02-.03-.03-.06-.06-.09-.09-.42-.41-.64-.98-.6-1.57,0-.59,.24-1.15,.64-1.57,.41-.42,.95-.67,1.53-.71h0c.46,0,.9,.15,1.27,.41,.37,.24,.65,.59,.82,1,.16,.42,.19,.88,.09,1.32-.13,.44-.36,.85-.67,1.2h.06Z" fill="#2d2ff5"/>
    <path d="M119.12,44.35c-.65,0-1.3,.13-1.91,.37-12.71-14.45-34.73-15.87-49.18-3.16-3.56,3.13-6.44,6.95-8.48,11.24-3.28,6.96-4.13,14.81-2.4,22.31l.11,.41,2.36-.52-.07-.41c-3.34-14.35,3.55-29.12,16.69-35.79,13.16-6.69,29.18-3.66,39,7.37-.72,.88-1.11,1.98-1.12,3.11,.02,.97,.33,1.92,.88,2.72,.55,.82,1.33,1.46,2.25,1.83,.91,.39,1.92,.48,2.88,.26,.96-.19,1.85-.66,2.55-1.35,.69-.69,1.15-1.58,1.32-2.54,.18-.96,.08-1.95-.3-2.85-.37-.91-1.01-1.68-1.83-2.21-.81-.53-1.76-.82-2.73-.82l-.02,.03Zm0,7.49c-.5,0-1-.14-1.42-.41-.85-.58-1.28-1.61-1.09-2.62,.22-1,1-1.78,2-2,.5-.1,1.03-.05,1.5,.15,.47,.19,.88,.52,1.16,.94,.3,.41,.45,.91,.41,1.42,0,.68-.27,1.32-.75,1.8-.49,.48-1.15,.75-1.83,.75l.02-.03Z" fill="#2d2ff5"/>
    <path d="M57.05,75.83l-.15-.67c-.67-2.95-.96-5.98-.86-9,.23-6.97,2.56-13.71,6.7-19.32,11.53-15.6,33.53-18.91,49.13-7.38,1.97,1.46,3.78,3.11,5.41,4.95,2.15-.81,4.57-.15,6,1.65,.69,.88,1.08,1.95,1.12,3.07,.03,1.11-.3,2.2-.94,3.11-.64,.93-1.55,1.63-2.62,2-1.06,.34-2.2,.34-3.26,0-1.07-.34-2-1.01-2.66-1.91-1.37-1.85-1.37-4.37,0-6.22-2.87-3.23-6.38-5.84-10.29-7.67-3.92-1.85-8.17-2.87-12.5-3-4.9-.14-9.77,.84-14.23,2.86-9.07,4.03-15.74,12.05-18.05,21.7-1.1,4.75-1.1,9.7,0,14.45l.15,.67-3,.72h.05Zm33.95-42.69c-18.47,.03-33.63,14.61-34.4,33.06-.1,2.98,.18,5.96,.82,8.87v.15l1.83-.41v-.19c-1.07-4.74-1.07-9.67,0-14.41,2.21-9.64,8.7-17.74,17.63-22,4.41-2.11,9.23-3.21,14.12-3.22h1.12c4.44,.13,8.82,1.18,12.84,3.07,4,1.89,7.57,4.59,10.48,7.93l.15,.19-.15,.19c-1.37,1.7-1.37,4.14,0,5.84,.65,.82,1.55,1.4,2.56,1.65,2.13,.48,4.31-.56,5.28-2.51,.95-1.96,.42-4.32-1.28-5.69-.83-.66-1.86-1.01-2.92-1-.63,0-1.25,.12-1.83,.37l-.19,.07-.11-.15c-3.11-3.54-6.92-6.41-11.19-8.42-4.28-2.02-8.92-3.15-13.64-3.34-.39-.02-.77-.02-1.16,0l.04-.05Zm28.15,18.94c-.56,.01-1.11-.16-1.57-.49-.44-.32-.79-.76-1-1.27-.22-.51-.27-1.07-.15-1.61,.11-.56,.38-1.07,.79-1.46,.4-.4,.91-.68,1.46-.79,.55-.11,1.12-.05,1.65,.15,.52,.21,.97,.57,1.27,1.05,.31,.46,.48,1.01,.49,1.57,0,.75-.29,1.47-.82,2-.55,.54-1.29,.85-2.06,.86h-.06Zm0-5.06c-.93-.01-1.78,.53-2.15,1.38-.34,.85-.13,1.83,.53,2.47,.33,.3,.73,.52,1.16,.64,.44,.07,.89,.04,1.31-.11,.41-.17,.76-.45,1-.82,.23-.38,.36-.82,.37-1.27,.01-.61-.23-1.19-.67-1.61-.4-.45-.97-.69-1.57-.67h.02Z" fill="#2d2ff5"/>
    <circle cx="79.85" cy="66.1" r="3.03" fill="#2d2ff5"/>
    <circle cx="101.15" cy="66.58" r="3.03" fill="#2d2ff5"/>
    <path d="M96,69.65c0,2.67-2.16,4.83-4.83,4.83s-4.83-2.16-4.83-4.83" fill="none" stroke="#2d2ff5" stroke-miterlimit="10" stroke-width="3.2"/>
    <path d="M153,64.76v-26.11h9.56c1.58-.06,3.16,.25,4.6,.91,1.12,.53,2.06,1.38,2.7,2.44,.61,1.06,.92,2.27,.9,3.49,.03,.95-.18,1.9-.6,2.75-.38,.72-.93,1.34-1.6,1.79-.67,.46-1.41,.8-2.2,1v.25c.91,.05,1.78,.34,2.54,.84,.87,.54,1.6,1.29,2.1,2.18,1.12,2.21,1.08,4.83-.12,7-.67,1.12-1.68,2.01-2.88,2.54-1.58,.67-3.29,.99-5,.92h-10Zm3.91-14.76h5.28c.82,.01,1.64-.16,2.39-.51,.68-.32,1.27-.81,1.7-1.43,.43-.65,.65-1.41,.63-2.19,.02-1.02-.39-2.01-1.13-2.72-.97-.82-2.21-1.24-3.48-1.15h-5.38v8Zm0,11.44h5.69c1.44,.13,2.88-.26,4.05-1.1,.79-.69,1.24-1.69,1.22-2.74,.02-1.66-.92-3.17-2.4-3.91-.85-.43-1.78-.64-2.73-.61h-5.83v8.36h0Z" fill="#1041f5"/>
    <path d="M184.59,65.16c-1.75,.05-3.48-.38-5-1.24-1.39-.83-2.51-2.05-3.21-3.51-1.51-3.38-1.51-7.23,0-10.61,1.43-3.06,4.54-4.98,7.92-4.87,1.09,0,2.18,.18,3.21,.55,1.04,.37,1.99,.96,2.79,1.72,.88,.84,1.56,1.86,2,3,.51,1.45,.75,2.99,.71,4.53v1.35h-15.6v-2.82h11.83c.02-.93-.19-1.84-.61-2.67-.39-.76-.98-1.39-1.71-1.84-.78-.46-1.67-.69-2.58-.67-.99-.02-1.96,.25-2.8,.78-.78,.5-1.41,1.19-1.84,2-.43,.84-.65,1.78-.64,2.72v2.23c-.03,1.15,.2,2.3,.69,3.34,.42,.88,1.1,1.61,1.94,2.1,.89,.49,1.9,.74,2.92,.72,.68,.01,1.36-.09,2-.31,.58-.2,1.1-.52,1.54-.94,.45-.43,.79-.96,1-1.54l3.61,.65c-.28,1.04-.81,2-1.55,2.79-.78,.82-1.73,1.45-2.79,1.85-1.22,.46-2.52,.68-3.82,.66v.03Z" fill="#1041f5"/>
    <path d="M206.38,45.18v3.06h-10.7v-3.06h10.7Zm-7.83-4.69h3.81v18.51c-.04,.57,.08,1.14,.33,1.66,.19,.34,.49,.61,.86,.75,.37,.13,.76,.2,1.15,.2,.27,0,.54-.02,.8-.06l.54-.1,.69,3.15c-.31,.11-.62,.19-.94,.26-.5,.1-1.02,.15-1.53,.15-.96,.03-1.92-.16-2.8-.54-.85-.36-1.58-.96-2.1-1.73-.58-.89-.85-1.94-.8-3v-19.25h0Z" fill="#1041f5"/>
    <path d="M219.72,45.18v3.06h-10.72v-3.06h10.72Zm-7.83-4.69h3.81v18.51c-.04,.57,.08,1.14,.33,1.66,.19,.34,.49,.61,.86,.75,.37,.13,.76,.2,1.15,.2,.27,0,.54-.02,.8-.06l.54-.1,.69,3.15c-.31,.11-.62,.19-.94,.26-.5,.1-1.02,.15-1.53,.15-.96,.03-1.92-.16-2.8-.54-.85-.36-1.58-.96-2.1-1.73-.58-.89-.85-1.94-.8-3v-19.25h0Z" fill="#1041f5"/>
    <path d="M232.17,65.16c-1.75,.05-3.48-.38-5-1.24-1.38-.84-2.48-2.06-3.17-3.51-1.51-3.38-1.51-7.23,0-10.61,1.43-3.06,4.54-4.98,7.92-4.87,1.09,0,2.18,.18,3.21,.55,1.04,.37,1.99,.96,2.79,1.72,.86,.84,1.53,1.87,1.95,3,.51,1.45,.75,2.99,.71,4.53v1.35h-15.58v-2.82h11.83c.02-.93-.19-1.84-.61-2.67-.39-.76-.98-1.39-1.71-1.84-.78-.46-1.67-.69-2.58-.67-.99-.02-1.96,.25-2.8,.78-.78,.5-1.41,1.19-1.84,2-.43,.84-.65,1.78-.64,2.72v2.23c-.03,1.15,.2,2.3,.69,3.34,.42,.88,1.1,1.61,1.94,2.1,.89,.49,1.9,.74,2.92,.72,.68,.01,1.36-.09,2-.31,.58-.2,1.1-.52,1.54-.94,.45-.43,.79-.96,1-1.54l3.61,.65c-.28,1.04-.81,2-1.55,2.79-.78,.83-1.74,1.48-2.8,1.89-1.22,.46-2.52,.68-3.82,.66h0Z" fill="#1041f5"/>
    <path d="M244.81,64.76v-19.58h3.68v3.11h.2c.34-1.02,1-1.89,1.89-2.49,.91-.61,1.98-.93,3.08-.91h.85l.77,.06v3.65c-.15,0-.42-.09-.82-.15-.39-.06-.78-.08-1.17-.08-.84-.01-1.66,.18-2.4,.57-1.42,.75-2.3,2.24-2.27,3.85v12h-3.81v-.03Z" fill="#1041f5"/>
    <path d="M273.54,64.76l-7.24-26.11h4.14l5.09,20.22h.24l5.29-20.22h4.1l5.29,20.23h.24l5.07-20.23h4.16l-7.25,26.11h-4l-5.5-19.56h-.17l-5.5,19.56h-3.96Z" fill="#1041f5"/>
    <path d="M309.56,65.16c-1.69,.04-3.36-.4-4.81-1.26-1.38-.85-2.48-2.07-3.19-3.53-.79-1.65-1.17-3.47-1.13-5.3-.04-1.84,.35-3.66,1.13-5.33,.7-1.46,1.81-2.69,3.19-3.54,2.99-1.68,6.63-1.68,9.62,0,1.38,.85,2.49,2.08,3.19,3.54,.79,1.66,1.17,3.49,1.13,5.33,.04,1.83-.35,3.65-1.13,5.3-.7,1.46-1.81,2.68-3.19,3.53-1.45,.86-3.12,1.3-4.81,1.26Zm0-3.2c1.08,.05,2.14-.28,3-.94,.8-.66,1.4-1.53,1.74-2.51,.76-2.24,.76-4.67,0-6.91-.34-.99-.94-1.86-1.74-2.53-.85-.68-1.91-1.04-3-1-1.09-.03-2.15,.32-3,1-.81,.66-1.41,1.54-1.75,2.53-.76,2.24-.76,4.67,0,6.91,.35,.98,.97,1.84,1.78,2.49,.85,.67,1.9,1.03,2.98,1v-.04Z" fill="#1041f5"/>
    <path d="M322.93,64.76v-19.58h3.68v3.11h.2c.34-1.02,1-1.89,1.89-2.49,.91-.61,1.98-.93,3.08-.91h.85l.77,.06v3.65c-.15,0-.42-.09-.82-.15-.39-.06-.78-.08-1.17-.08-.84,0-1.67,.22-2.41,.63-1.42,.75-2.3,2.24-2.27,3.85v12h-3.81v-.09Z" fill="#1041f5"/>
    <path d="M340.54,38.65v26.11h-3.81v-26.11h3.81Z" fill="#1041f5"/>
    <path d="M353,65.15c-1.5,.02-2.97-.4-4.23-1.22-1.28-.86-2.29-2.07-2.91-3.48-.75-1.72-1.11-3.58-1.06-5.45-.05-1.87,.31-3.72,1.06-5.43,.63-1.41,1.65-2.61,2.93-3.46,1.26-.81,2.73-1.22,4.22-1.2,1.02-.05,2.03,.16,2.94,.61,.67,.34,1.26,.82,1.73,1.41,.37,.45,.7,.92,1,1.42h.23v-9.7h3.81v26.12h-3.72v-3h-.32c-.29,.5-.63,.98-1,1.43-.49,.58-1.09,1.06-1.77,1.4-.91,.43-1.91,.64-2.91,.6v-.05Zm.84-3.25c1,.03,1.98-.28,2.79-.87,.8-.63,1.4-1.47,1.73-2.43,.42-1.16,.62-2.39,.59-3.62,.02-1.22-.18-2.43-.59-3.57-.33-.95-.93-1.79-1.73-2.41-.82-.59-1.8-.89-2.81-.85-1.03-.03-2.04,.28-2.87,.89-.79,.63-1.39,1.48-1.73,2.43-.4,1.12-.6,2.29-.58,3.48-.02,1.2,.18,2.4,.59,3.53,.34,.99,.96,1.86,1.77,2.52,.82,.62,1.82,.95,2.85,.91h-.01Z" fill="#1041f5"/>
    <path d="M168.18,95.28l-14.66-14.66,2.41-2.41,14.66,14.66-2.41,2.41Zm-12.25,0l-2.41-2.41,14.66-14.66,2.41,2.41-14.66,14.66Z" fill="#1041f5"/>
    <path d="M194.84,99.61h-8.45v-26.11h8.72c2.3-.06,4.57,.47,6.59,1.56,1.82,1.03,3.3,2.59,4.23,4.47,1.98,4.46,1.98,9.54,0,14-.95,1.89-2.46,3.45-4.31,4.47-2.09,1.1-4.42,1.64-6.78,1.57v.04Zm-4.51-3.44h4.3c1.74,.07,3.46-.32,5-1.13,1.33-.74,2.38-1.89,3-3.28,.7-1.66,1.04-3.45,1-5.25,.05-1.79-.3-3.57-1-5.21-.6-1.36-1.61-2.5-2.9-3.25-1.47-.78-3.12-1.17-4.78-1.11h-4.54v19.23h-.08Z" fill="#1041f5"/>
    <path d="M220.43,100c-1.75,.05-3.48-.38-5-1.24-1.39-.83-2.51-2.05-3.21-3.51-1.51-3.38-1.51-7.23,0-10.61,1.43-3.06,4.54-4.98,7.92-4.87,1.09,0,2.18,.18,3.21,.55,1.04,.37,1.99,.96,2.79,1.72,.88,.84,1.56,1.86,2,3,.51,1.45,.75,2.99,.71,4.53v1.43h-15.6v-2.89h11.83c.02-.93-.19-1.84-.61-2.67-.39-.76-.98-1.39-1.71-1.84-.78-.46-1.67-.69-2.58-.67-.99-.02-1.96,.25-2.8,.78-.78,.5-1.41,1.19-1.84,2-.43,.84-.65,1.78-.64,2.72v2.27c-.03,1.15,.2,2.3,.69,3.34,.42,.88,1.1,1.61,1.94,2.1,.89,.49,1.9,.74,2.92,.72,.68,.01,1.36-.09,2-.31,.58-.2,1.1-.52,1.54-.94,.45-.43,.79-.96,1-1.54l3.61,.65c-.3,1.05-.85,2.01-1.6,2.79-.78,.82-1.73,1.45-2.79,1.85-1.22,.46-2.52,.68-3.82,.66l.04-.02Z" fill="#1041f5"/>
    <path d="M247.75,84.81l-3.46,.61c-.15-.46-.38-.88-.68-1.26-.33-.43-.77-.77-1.26-1-.63-.27-1.31-.4-2-.38-.95-.04-1.89,.22-2.7,.72-.66,.38-1.07,1.09-1.08,1.85-.02,.61,.25,1.2,.73,1.58,.7,.5,1.5,.84,2.35,1l3.11,.71c1.48,.27,2.87,.94,4,1.93,.93,.9,1.43,2.14,1.38,3.43,.02,1.12-.33,2.22-1,3.13-.73,.96-1.71,1.7-2.82,2.15-1.32,.54-2.75,.81-4.18,.78-1.89,.08-3.76-.41-5.37-1.41-1.37-.92-2.3-2.37-2.55-4l3.68-.56c.18,.88,.68,1.66,1.42,2.17,.83,.52,1.81,.78,2.79,.73,1.06,.05,2.1-.22,3-.78,.68-.4,1.11-1.13,1.12-1.92,.01-.59-.24-1.15-.68-1.54-.6-.48-1.32-.81-2.08-.94l-3.32-.81c-1.52-.26-2.92-.96-4.05-2-.88-.93-1.35-2.18-1.31-3.46,0-1.08,.34-2.14,1-3,.7-.89,1.63-1.58,2.68-2,1.24-.51,2.57-.76,3.91-.73,1.77-.1,3.53,.38,5,1.37,1.21,.9,2.06,2.2,2.41,3.67l-.04-.04Z" fill="#1041f5"/>
    <path d="M254.24,77c-.63,.01-1.25-.23-1.7-.67-.89-.81-.95-2.18-.14-3.07,.05-.05,.09-.1,.14-.14,.96-.89,2.44-.89,3.4,0,.89,.81,.95,2.18,.14,3.07-.05,.05-.09,.1-.14,.14-.45,.44-1.07,.68-1.7,.67Zm-1.93,22.6v-19.6h3.81v19.61h-3.81Z" fill="#1041f5"/>
    <path d="M269.46,107.37c-1.36,.03-2.71-.18-4-.61-1.01-.35-1.94-.9-2.73-1.62-.67-.62-1.21-1.37-1.58-2.21l3.28-1.35c.27,.42,.58,.82,.92,1.19,.45,.46,.99,.83,1.58,1.08,.82,.33,1.7,.48,2.58,.45,1.27,.06,2.53-.29,3.58-1,1-.81,1.53-2.07,1.42-3.35v-3.9h-.24c-.29,.49-.62,.96-1,1.39-.49,.56-1.1,1.01-1.77,1.33-.92,.41-1.92,.6-2.92,.56-1.47,.02-2.91-.35-4.18-1.09-1.27-.77-2.29-1.9-2.93-3.24-.77-1.64-1.14-3.45-1.08-5.26-.05-1.84,.31-3.67,1.06-5.35,.63-1.39,1.65-2.56,2.93-3.39,1.26-.8,2.73-1.21,4.22-1.19,1.02-.05,2.03,.16,2.95,.61,.68,.34,1.27,.82,1.75,1.41,.37,.45,.7,.92,1,1.42h.28v-3.19h3.74v20c.18,2.91-1.59,5.58-4.34,6.54-1.43,.54-2.96,.8-4.49,.78h-.03Zm0-11.22c.99,.03,1.96-.24,2.79-.77,.79-.55,1.39-1.32,1.73-2.22,.42-1.11,.62-2.29,.59-3.47,.02-1.19-.18-2.37-.59-3.48-.34-.93-.93-1.75-1.72-2.35-1.72-1.16-3.96-1.16-5.68,0-.79,.62-1.39,1.46-1.73,2.4-.4,1.08-.6,2.23-.58,3.39-.02,1.15,.18,2.3,.59,3.38,.34,.91,.95,1.7,1.74,2.27,.84,.56,1.84,.85,2.85,.82v.03Z" fill="#1041f5"/>
    <path d="M287.22,88v11.62h-3.81v-19.62h3.66v3.19h.24c.44-1.03,1.18-1.9,2.12-2.5,1.1-.67,2.37-.99,3.65-.94,1.22-.02,2.43,.26,3.51,.83,1.01,.57,1.83,1.43,2.33,2.48,.59,1.27,.87,2.67,.83,4.07v12.5h-3.81v-12c.07-1.21-.33-2.4-1.11-3.33-.8-.82-1.91-1.26-3.05-1.21-.82-.02-1.63,.18-2.35,.57-.69,.39-1.25,.97-1.62,1.68-.42,.82-.62,1.74-.59,2.66Z" fill="#1041f5"/>
    <path d="M1609.78,108.54c-1.69-.23-3.36-.56-5-1-1.92-.55-3.76-1.33-5.49-2.32-1.27-.79-2.3-1.9-3-3.22-.41-1.18-1.64-1.86-2.86-1.57-3.45,.28-6.85-1.02-9.23-3.54-2.11-1.94-2.24-5.23-.3-7.33,.13-.14,.26-.27,.41-.4,1.5-1.16,3.13-2.15,4.85-2.94,.78-.35,1.58-.63,2.4-.86-.34-.53-.58-1-.87-1.34-3.41-4.35-5.77-9.42-6.92-14.82-.28-1.48-1.4-1.21-2.37-1.29-.97-.08-1,.71-1.11,1.41-.35,2.35-.79,4.68-1.07,7-.24,2-.14,2,1.85,2.18,.23,0,.45,.06,.67,.1-.05,1.34-1.06,2.45-2.39,2.63-1.95,.12-3.9,.14-5.85,.06-.36,0-.72-.34-1.08-.52,.18-.35,.27-.81,.56-1,1.77-1.42,1.47-3.56,1.83-5.41,1.09-5.76,2-11.56,3.06-17.33,.2-1.08-.15-1.43-1.18-1.47-2.19-.08-2.89,.55-2.82,2.66,0,1-2.25,3.4-3.24,3.24-.36-.14-.65-.44-.77-.81-.46-1.46-.08-3.05,1-4.14,1.65-2,4.01-3.29,6.58-3.61,.66,.02,1.23-.47,1.31-1.13,.8-3.32,2.38-6.4,4.59-9,.3-.39,.47-.87,.47-1.37-.14-3.16,1.45-6.14,4.15-7.78,2.91-2,6.38-3,9.91-2.85,.95,.11,1.85-.42,2.22-1.3,.79-1.3,1.92-2.36,3.26-3.07,4.41-2.24,9.08-2.2,13.74-.86,1.95,.45,3.82,1.21,5.53,2.26,2.56,1.79,5.35,2.11,8.27,2.44,1.74,.25,3.45,.71,5.08,1.38,1.38,.56,2.35,1.82,2.52,3.3,.29,1.32-.26,2.68-1.38,3.43-1.23,.9-2.79,1.24-4.28,.92,.23-.25,.48-.48,.74-.7,1.42-.78,1.94-2.56,1.16-3.98-.17-.31-.39-.58-.66-.81-1.6-1.47-3.75-2.2-5.91-2,3.16,3.82,4.39,8,2.54,13,1.29,.5,2.51,1,3.77,1.43,.24,.08,.75-.27,1-.55,2.26-3.22,5.59-3.86,9.16-3.62,1.04,.14,1.95,.74,2.51,1.62,.51,1.18,.08,2.56-1,3.25-1.29,.79-2.68,1.4-4.14,1.82-.82,.18-1.66,.23-2.5,.16-1.84,0-1.9,0-2,1.92v2.06h3.32c1.85,0,3.71,.17,5.53,.5,3.75,.94,5.75,4.11,6.28,8.49,1.36,11.15-8.55,19.08-17.12,19.42-2.33,.09-4.66,.18-7,.21-.44,.02-.86-.16-1.15-.49-.12-.43-.01-.89,.28-1.23,1.32-1.21,1.57-2.82,1.82-4.43,.93-5.89,1.83-11.78,2.74-17.66,.09-.59,.13-1.19,.22-2.1-.94-.04-1.87,.04-2.79,.24-.58,.29-.98,.84-1.08,1.48,.22,2.11-1.35,2.84-2.67,3.7-.75,.49-1.34,.08-1.44-.85-.21-1.51,.33-3.03,1.46-4.06,1.78-1.65,3.65-3.19,6.27-3.35,.47-.09,.86-.4,1.06-.83,.4-1.13,.64-2.32,1-3.55-1.39-.59-2.69-1.18-4-1.68-.34-.05-.69,.05-.95,.28-3.25,3.2-7.27,3.26-11.38,2.78-4.26-.66-8.34-2.17-12-4.44-.69-.48-1.6-.48-2.29,0-4.26,2.54-8.82,3.58-13.66,2.05-1.73-.71-3.4-1.56-5-2.53-.53,1.8-1.19,3.7-1.64,5.66-.57,2.43-.4,2.56,2.12,2.56,1.48-.06,2.97-.03,4.45,.08,2.24,.26,3.35,1.42,3.82,3.64,.88,3.87-.94,7.85-4.45,9.71-1.07,.63-1.41,1.29-1,2.35,1.27,3,2.47,6.12,3.91,9.08,1,2,2.31,3.72,3.45,5.59,.38,.72,1.22,1.08,2,.85,6.44-.82,12.85-.79,19.09,1.26,1.86,.6,3.67,1.36,5.4,2.27,.94,.58,2.1,.67,3.12,.25,3.63-1.39,7.57-1.79,11.41-1.14,.05,0,.09,0,.14,0,1.69,.43,3.46,.84,4,2.84,.42,1.83-.28,3.73-1.79,4.85-2.51,2.22-5.65,3-8.82,3.6-1.31,.1-2.47,.91-3,2.12-1.83,3.77-5.31,5.63-9.13,6.87-1.62,.53-3.32,.81-5,1.21h-3.08l-.17,.07Zm38.12-42.75c0-6.59-3.13-9.91-9.35-10-1.24,0-1.61,.47-1.71,1.6-.16,1.81-.45,3.6-.69,5.4-.6,4.57-1.18,9.14-1.84,13.7-.18,1.23,.31,1.67,1.42,1.54,1.57-.11,3.14-.36,4.67-.74,4.83-1.46,7.48-5.64,7.49-11.51h0Zm-35,33.79l-.11-.52c-1.23-.22-2.44-.52-3.63-.92-3.34-1.37-5.88,1.08-9.16,1.42,.72,1.13,1.15,2,1.72,2.68,4.86,6.09,14.59,5,18.5,2,1.59-1.19,2.57-3.02,2.67-5-1.3,0-2.46,.06-3.61,0-1.07-.1-2.12,.32-2.82,1.13-2,2.11-4.68,2.59-7.49,2.19-1.5-.07-2.77-1.13-3.09-2.6,1.13,.33,2.32,1,3.48,.92,1.16-.08,2.36-.83,3.54-1.28v-.02Zm-6.32-56.17c4.35,2.46,8.67,4.07,13.47,3.84,2.36,.01,4.59-1.1,6-3-1.71-1.24-3.31-2.43-4.94-3.56-.31-.17-.67-.2-1-.08-3.01,1.2-6.34,1.34-9.44,.41-.43-.13-.89-.09-1.29,.1-.9,.63-1.71,1.39-2.76,2.28h-.04Zm-8.69,49.23c-1-1.15-1.85-2.2-2.78-3.17-2.08-2.16-2.1-2.15-4.68-.49-.27,.18-.54,.37-.79,.57-1.16,.79-1.9,2.07-2,3.48-.08,3.09,4.08,6.33,7.08,5.47,.24-.07,.59-.4,.59-.62,.11-2.04,1.07-3.93,2.64-5.23h-.06Zm-.26-6.35c1.11,1.15,2,2,2.8,2.94,.64,.83,1.76,1.09,2.7,.64,3.91-1.4,8.22-1.09,11.89,.85,1.71,.9,2.91,.78,4.59-.84-6.64-4.76-13.86-5.38-22-3.59h.02Zm-9.16-47.47c1.48-.28,2.73-.6,4-.73,3.35-.33,6.27,1,9.14,2.52,.44,.23,1.14,.47,1.48,.28,.8-.54,1.55-1.14,2.24-1.81-.1-.17-.22-.32-.36-.46-2.17-1.22-3.93-3.04-5.07-5.25-.2-.29-.53-.47-.88-.49-2.57-.15-5.13,.45-7.36,1.73-1.63,.86-2.8,2.4-3.18,4.21h-.01Zm-4.87,26.73c3.3,.07,4.63-.94,5.33-4.19,.17-.91,.24-1.84,.19-2.76,.09-1.29-.84-2.42-2.12-2.59-1.09-.19-2.21-.16-3.32-.26-.91-.08-1.33,.26-1.44,1.22-.22,1.93-.56,3.86-.88,5.78-.46,2.72-.48,2.71,2.23,2.77v.03Zm38.26-35.29l.1-.63c-2.67-1.49-5.6-2.46-8.64-2.84-2.33-.37-4.72,.22-6.62,1.62-.83,.74-1.59,1.56-2.26,2.45,2.68,.95,5,1.77,7.3,2.56,.25,.1,.54,.1,.79,0,1.38-.73,2.73-1.5,4.1-2.25l-.06-.34h-4.21c1.68-1.47,4.06-1.84,6.11-.95,1.12,.24,2.26,.36,3.4,.37h-.01Zm3,59.62c1.87,1.53,3.03,3.76,3.23,6.17,0,.19,.67,.56,.89,.48,1.71-.55,3.38-1.22,5-2,1.04-.54,1.59-1.69,1.37-2.84-.18-1.18-1.05-2.15-2.21-2.45-2.73-.87-5.7-.63-8.26,.67l-.02-.03Zm-23.91-47.19c-2.77-1.57-5.31-3.05-8.39-2.74-1.19,.21-2.34,.57-3.43,1.08-.33,.2-.53,.56-.54,.94,.52,2.3,2.48,3.99,4.83,4.17,2.87-.12,5.15-1.61,7.52-3.45h.01Zm26.14,.06c1.33-3.25,1.74-6.17-.21-9-1.43-2.09-2.27-2.29-4.73-1,1.16,2.17,1.53,4.38-.19,6.64l5.13,3.41v-.05Zm-23.8,49c1.84,1.08,3.51,2.06,5.19,3,.24,.14,.53,.17,.8,.1,1.39-.56,2.76-1.18,4.17-1.79-1.92-2.86-7.7-3.23-10.16-1.33v.02Zm15.37,5.85c1.2,0,2.49-.07,3.77-.21,.23,0,.63-.65,.55-.87-.5-1.53-1.07-3-1.7-4.53-.09-.21-.74-.36-1-.25-.91,.33-1.76,.8-2.55,1.17l.93,4.69Zm-14.21-64.66c.07,1.68,1.48,3.76,2.63,4.14,.21,.07,.44,.05,.63-.05,1-.73,1.93-1.5,2.89-2.25l-.1-.46-6-1.38h-.05Zm33.64,14c1.94,.45,3.78,.19,4.69-.8,.42-.46,.63-1.07,.58-1.69-.09-.38-.89-.77-1.41-.85-1.81-.25-3.27,1-3.86,3.33h0Zm-26.23-7.69c2.55,.94,4.7,.74,6.07-.52-2.49-2.49-3.92-2.38-6.1,.5l.03,.02Zm-12.36,58.86l5.25-1.42-4.74-2.78-.58,4.17,.07,.03Zm20.37-64.24l-.63-.22-3.33,2,3.72,2.18,.24-4v.04Zm-8.42,61.87v.49l3.09,.54,.16-2.48-3.24,1.45h-.01Z" fill="#1041f5"/>
    <path d="M1611.55,81.85h-1c-2-.18-2.46-.94-1.66-2.73,.47-1.06,1-2.12,1.53-3.14,.2-.34,.54-.57,.93-.63,.31,0,.71,.38,.88,.69,1.31,2.02,4.01,2.6,6.03,1.29,.04-.02,.07-.05,.11-.07,1.02-.63,1.34-1.97,.72-3-.91-1.39-1.95-2.68-3.11-3.87-1.54-1.62-3.36-3-4.77-4.69-2.45-2.83-2.2-7.1,.58-9.61,1.67-1.73,3.86-2.85,6.24-3.18,1.51-.2,3.05-.2,4.56,0,1.47,.19,1.72,1,.86,2.13-.69,.94-1.48,1.8-2.24,2.68s-1.17,.65-1.73-.21c-1-1.52-1.91-1.78-3.41-1.13-1.48,.51-2.34,2.05-2,3.58,.38,1.14,.99,2.18,1.81,3.06,1.44,1.4,2.95,2.71,4.53,3.94,5.17,4.25,3.27,9.89-1.07,12.55-2.35,1.45-5.04,2.25-7.8,2.34h0Z" fill="#1041f5"/>
    <path d="M1605.65,78.72c-.75,1.53-1.58,2.66-3.25,2.69s-3.54,0-5.31-.09c-.73,0-1.33-.4-.85-1.13,1.7-2.59,1.52-5.62,2.07-8.47,.87-4.57,1.5-9.19,2.25-13.78,.3-1.84,.11-2-1.86-2.08-.67-.05-1.34-.16-2-.31,.35-.65,.81-1.25,1.36-1.75,.75-.5,1.62-.8,2.52-.88,2-.13,3.92,0,5.88,0,.73,0,1.4,.28,.74,1-2.25,2.58-1.91,5.86-2.5,8.86-.83,4.25-1.39,8.55-2.08,12.82-.4,2.49-.42,2.48,2.15,2.83,.29,.08,.58,.17,.86,.29h.02Z" fill="#1041f5"/>
    <path d="M1641.92,43.54c.53,.07,1.32,.46,1.41,.85,.05,.62-.16,1.23-.58,1.69-.91,1-2.75,1.24-4.69,.8" fill="#1041f5"/>
    <path d="M1614.51,96.69l-3.09-.54v-.49" fill="#1041f5"/>
    <a href="mailto:hello@betterworldxdesign.com">
      <text fill="#2d2ff5" font-family="Inter-SemiBold, Inter" font-size="34" x="1358.13" y="1195.46">hello@betterworldxdesign.com</text>
    </a>
  </g>
  <g id="uuid-c000da93-8efe-41a6-b6e1-6f97da22b1ed" data-name="qT4pHT.tif">
    <path d="M1714.36,25.69c.19,.6,.31,1.22,.36,1.84,1.39-.69,3-.81,4.48-.32,1.44,.56,2.66,1.58,3.45,2.91,.37-.35,.71-.67,1.06-1,.15-.14,.33-.4,.54-.25s0,.4,0,.61c-.1,.21-.18,.44-.25,.66h.89c1.3-.07,2.48,.76,2.86,2,.18,.49,.23,.41,.62,.32,.8-.18,1.63-.2,2.43-.05,.65,.11,1.26,.38,1.77,.79,.12,.14,.33,.17,.48,.06,.2-.12,.42-.21,.65-.28,.21-.06,.3,.06,.22,.28-.11,.23-.26,.44-.44,.62-.12,.12-.12,.31,0,.42h0c.04,.07,.07,.13,.09,.21,.05,.33,.33,.58,.67,.57,.29,.03,.57,.11,.82,.25,1.13,.42,1.87,1.5,1.87,2.7,.07,1.24-.63,2.39-1.76,2.9-.99,.45-2.11,.5-3.14,.15-.41-.18-.84-.33-1.27-.45-.43,.06-.85,.19-1.24,.37-.92,.23-1.9,.16-2.78-.2-.25-.1-.53-.09-.76,.05-.87,.42-1.63,1.04-2.21,1.82-.24,.31-.51,.61-.81,1,.28-.05,.52-.08,.75-.13,.43-.1,.87-.12,1.3-.06,1.75,.22,3.52,.24,5.28,.06,1.41-.15,2.82-.23,4.24-.22,1.24,.02,2.47,.18,3.67,.45h.16c.17,.08,.34,.17,.36,.38s-.14,.28-.27,.37c-.25,.15-.52,.25-.81,.31l-3.69,1c-.51,.14-1,.32-1.48,.54-1.04,.43-2.15,.69-3.27,.76-1.32,.14-2.64,.21-4,.24-.82,.02-1.63,.21-2.37,.56-.22,.1-.36,.21-.31,.48,.01,.19,.01,.37,0,.56,.25,.06,.51,.06,.76,0,1.49-.2,3,.05,4.35,.7,.15,.09,.35,.09,.5,0,1.26-.56,2.63-.82,4-.75,1.05,.04,2.07,.31,3,.79,1.04,.49,1.76,1.48,1.91,2.62,.13,.9-.4,1.77-1.26,2.06-.55,.19-1.12,.32-1.7,.36-1.34,.19-2.71,.08-4-.33-.16-.07-.35-.07-.51,0-1.12,.53-2.41,.56-3.55,.09-.17-.07-.35-.07-.52,0-1.03,.35-2.15,.29-3.13-.17-.24-.17-.55-.17-.79,0-.33,.2-.69,.32-1.07,.35-1.51,.26-3.05,.26-4.56,0-.41-.08-.79-.35-1.17-.39s-.68,.35-1.09,.43c-.84,.19-1.71,.1-2.5-.23-.21-.1-.45-.1-.66,0-1.06,.49-2.29,.45-3.31-.12-.14-.07-.31-.07-.45,0-1.97,.62-4.08,.66-6.07,.11-.47-.15-.98-.12-1.43,.09-1.11,.52-2.42,.42-3.43-.28-.79,.62-1.83,.81-2.79,.5-1.53-.5-2.45-2.06-2.13-3.64,.18-.8,.73-1.46,1.48-1.78,1.25-.61,2.68-.71,4-.29,.41,.19,.84,.33,1.28,.42,.43-.07,.84-.19,1.24-.36,1.99-.58,4.12-.44,6,.42,.33,.15,.56,0,.82-.13,.01-.03,.01-.06,0-.09v-1.08c0-.17-.19-.15-.3-.16-.58-.09-1.15-.21-1.71-.36-.51-.13-1-.31-1.5-.49-.64-.24-1.32-.35-2-.32-1.62,.09-3.24-.14-4.77-.69-1.1-.37-2.23-.64-3.38-.8-.3-.05-.61-.13-.9-.22-.14-.04-.27-.11-.39-.19-.23-.17-.22-.3,0-.45,.08-.04,.16-.08,.24-.11,.67-.32,1.4-.51,2.14-.55,2.12-.3,4.28-.3,6.4,0,1.08,.16,2.18,.16,3.26,0,.52-.1,1.05-.07,1.55,.07-1.1-.65-2.08-1.49-2.89-2.47-.24-.31-.67-.38-1-.17-1.03,.52-2.21,.68-3.34,.46-.48-.08-.97-.02-1.42,.15-1.57,.53-3.27-.3-3.81-1.87-.28-.82-.19-1.73,.25-2.48,.62-.87,1.54-1.47,2.58-1.7,.73-.2,.72-.19,.32-.85-.17-.29-.47-.62-.19-.94s.69-.09,1,.1c.26,.25,.67,.24,.92-.02,.03-.03,.06-.07,.08-.11,.5-.52,1.14-.86,1.84-1,.34-.06,.61-.33,.68-.67,.38-1.44,1.54-2.54,3-2.84,.45-.1,.7-.22,.49-.74-.12-.22-.05-.5,.17-.63,.25-.15,.45,0,.63,.16,.25,.19,.47,.41,.67,.65,.34,.38,.8,.64,1.3,.74,.29,.12,.62-.01,.75-.3,0-.02,.02-.04,.02-.06,.42-.83,1.07-1.52,1.86-2,1.38-.84,3.06-.99,4.57-.43,.63,.21,.65,.21,.76-.44,.06-.3,.06-.62,.37-.8l.37-.05Z" fill="#1041f5"/>
    <path d="M1854.65,58.72c-.45-.02-.9,.06-1.33,.21-.55,.16-.94,.63-1,1.2-.16,1.43-.23,2.86-.21,4.3v10.9c.04,.19,.04,.4,0,.59-.41,.12-.84-.05-1.06-.41-3.65-4.46-7.31-8.91-11-13.34l-.37-.44c-.14,0-.11,.12-.11,.18v10c0,.62,.1,1.23,.16,1.85,.05,.52,.42,.96,.92,1.11,.43,.15,.88,.24,1.33,.25,.4,0,.44,.09,.41,.46,0,.13,0,.2-.19,.2h-6c-.38,0-.36,0-.36-.41,0-.21,.12-.25,.28-.25,.31,0,.61-.05,.91-.14,.63-.12,1.1-.65,1.16-1.29,0-.52,.12-1,.14-1.57,.11-3.67,.1-7.34,0-11,0-.4-.09-.8-.28-1.15-.32-.58-.89-.99-1.55-1.1l-.65-.1c-.39-.06-.39-.05-.39-.45,0-.05,0-.11,0-.16,.15-.11,.32-.06,.48-.06h2.94c.36-.03,.71,.14,.91,.44,3.56,4.28,7.13,8.55,10.7,12.8,.11,.14,.19,.31,.36,.38s.09-.11,.09-.17c0-3.22,.07-6.44-.09-9.65,0-.53-.08-1.05-.12-1.58-.02-.64-.47-1.19-1.09-1.33-.42-.12-.85-.19-1.29-.22-.22-.03-.37-.23-.35-.45,0-.04,.02-.08,.04-.12,.07-.11,.19-.08,.3-.08h6.21l.1,.6Z" fill="#1041f5"/>
    <path d="M1690.85,58.06h46.04c.71,0,.62-.11,.62,.59,0,8.17,0,16.34,0,24.53,.04,3.13-.42,6.24-1.36,9.22-1.42,4.37-4.44,8.04-8.46,10.27-2.55,1.43-5.26,2.56-8.07,3.37-1.71,.52-3.46,.95-5.2,1.39-.12,.03-.25,.03-.37,0-3.63-.81-7.18-1.94-10.61-3.39-1.39-.63-2.73-1.36-4-2.21-3.86-2.56-6.6-6.49-7.65-11-.59-2.38-.9-4.83-.9-7.28v-25.49h-.04Z" fill="#1041f5"/>
    <path d="M1806.63,58.06h6.31c.18,0,.37,0,.35,.26s0,.41-.32,.43c-.36,.03-.73,.08-1.08,.17-.6,.15-.76,.4-.59,1,.29,1,.6,2,.92,3,.9,2.87,1.81,5.74,2.72,8.61,0,.13,.1,.27,.14,.41,.17-.08,.17-.23,.21-.36l4-12.6c.04-.1,.07-.2,.1-.31,0-.25,.19-.3,.42-.31,.21-.03,.4,.1,.45,.3,.43,1.23,.88,2.46,1.32,3.68,1.11,3.06,2.22,6.11,3.31,9.16,.06,.15,0,.33,.27,.43,.43-1.42,.86-2.84,1.27-4.27,.69-2.38,1.38-4.77,1.93-7.19,.28-1.2,0-1.52-1.12-1.62-.15,0-.29-.07-.43-.07s-.33-.14-.32-.38,0-.3,.26-.3h5.45l.07,.05c.07,.05,0,.15,0,.24s0,.37-.31,.37c-1.06,.02-1.96,.75-2.21,1.78-.69,1.85-1.26,3.74-1.85,5.63-.98,3.11-1.95,6.22-2.9,9.35-.15,.46-.15,.43-.59,.45s-.36-.2-.43-.4c-.74-2-1.47-4-2.2-6-.78-2.13-1.57-4.25-2.35-6.38-.06-.17-.13-.33-.23-.57l-.91,2.7c-1.14,3.39-2.27,6.77-3.4,10.16-.08,.24-.13,.48-.49,.45s-.43,0-.57-.41c-.44-1.38-.88-2.76-1.33-4.14-1.08-3.33-2.17-6.7-3.26-10.09-.13-.4-.28-.79-.43-1.17-.25-.77-.94-1.31-1.75-1.37-.48-.06-.47-.08-.43-.69Z" fill="#1041f5"/>
    <path d="M1757.46,66c.77,.13,1.51,.39,2.19,.78,2.12,1.26,2.83,4,1.57,6.12-.17,.3-.38,.57-.62,.82-.98,.94-2.21,1.55-3.55,1.77-.8,.16-1.61,.24-2.43,.24h-6.43q-.36,0-.36-.36c0-.36,.08-.29,.28-.3,.29,0,.58-.04,.87-.1,.71-.04,1.27-.63,1.26-1.34,.05-.45,.08-.9,.09-1.35v-10.55c0-.49-.03-.98-.09-1.47-.09-1-.41-1.3-1.37-1.45-.21-.05-.43-.07-.65-.08-.3,0-.22-.22-.24-.39s.07-.29,.28-.28h6.92c.93-.03,1.86,.08,2.75,.33,.22,.07,.44,.15,.66,.24,1.83,.86,2.61,3.04,1.75,4.87-.17,.36-.4,.69-.67,.98-.62,.61-1.38,1.07-2.21,1.34-.09,.06-.1,.18,0,.18Z" fill="#1041f5"/>
    <path d="M1776.07,67.3c1.36,2.43,2.94,4.73,4.72,6.87,.45,.58,1.06,1.01,1.75,1.23,.26,.07,.23,.23,.22,.42s-.18,.2-.32,.2c-.84-.01-1.67-.13-2.48-.34-.91-.27-1.72-.83-2.29-1.59-.57-.75-1.09-1.54-1.56-2.36-.52-.87-1-1.74-1.54-2.62-.36-.76-1.16-1.21-2-1.13-.41-.02-.83,0-1.24,.07-.04,.4-.04,.79,0,1.19v3.48c0,.37,.04,.73,.1,1.09,.05,.6,.51,1.08,1.11,1.17,.3,.06,.61,.1,.92,.11,.29,0,.3,.17,.31,.39s-.15,.28-.35,.28h-6.6c-.18,0-.32,0-.3-.25s0-.42,.27-.42c.34,0,.67-.04,1-.11,.62-.07,1.11-.58,1.15-1.2,.08-.52,.11-1.05,.11-1.58v-10.9c0-.42-.04-.84-.1-1.25-.04-.64-.55-1.16-1.19-1.22l-.6-.09q-.51-.06-.48-.61c.09-.09,.2-.06,.31-.06h7.01c.78,0,1.56,.11,2.31,.3,2.32,.53,3.77,2.84,3.24,5.16-.14,.62-.42,1.2-.81,1.7-.61,.8-1.41,1.43-2.33,1.84l-.29,.15-.05,.08Z" fill="#1041f5"/>
    <path d="M1794.62,76.17c-4.61,.12-8.5-3.4-8.82-8-.22-2.09,.23-4.19,1.28-6,2.56-4.35,8.16-5.8,12.51-3.24,.14,.08,.27,.17,.41,.25,1.95,1.33,3.25,3.42,3.59,5.75,.44,2.29,.06,4.66-1.07,6.7-1.31,2.45-3.73,4.11-6.49,4.44-.47,.07-.94,.11-1.41,.1Z" fill="#1041f5"/>
    <path d="M1757.46,66c-.1,0-.26,0-.27-.06s.14-.17,.27-.14v.2Z" fill="#808585"/>
    <path d="M1698.19,40.88c-.43,.03-.87-.03-1.28-.16-.33-.13-.71-.08-1,.12-.87,.56-2.04,.31-2.6-.56-.06-.09-.11-.18-.15-.28-.41-.8-.17-1.77,.55-2.3,.66-.48,1.44-.78,2.25-.88h.27c.39,.03,.74-.26,.78-.65,.17-.94,.89-1.69,1.83-1.89l1-.27c.45-.11,.5-.17,.53-.61,.16-1.4,1.21-2.53,2.6-2.78,1.02-.13,2.05,0,3,.37,.12,.04,.24,.08,.36,.13,.4,.13,.55,.06,.73-.32,.09-.21,.18-.43,.29-.64,1-2.09,3.5-2.99,5.6-2,.29,.11,.56,.26,.8,.45,.3,.29,.76,.31,1.08,.05,.53-.33,1.12-.55,1.73-.64,1.8-.31,3.62,.39,4.74,1.83,.3,.36,.58,.75,.81,1.16q.36,.65,1.06,.45c.55-.17,1.13-.27,1.71-.27,1.08-.04,2.03,.72,2.23,1.78,.02,.09,.04,.18,.07,.27,.12,.43,.28,.53,.71,.41,.73-.23,1.5-.33,2.26-.28,.47,.03,.93,.16,1.36,.36,.72,.3,1.24,.94,1.41,1.7,.02,.35,.32,.62,.68,.6h.01c.29,.02,.58,.09,.85,.19,.97,.26,1.62,1.17,1.56,2.17-.08,1.03-.85,1.88-1.86,2.07-.67,.12-1.36,.06-2-.17-.31-.1-.61-.22-.9-.38-.29-.15-.64-.15-.93,0-2.04,.99-4.5,.14-5.49-1.9-.12-.25-.22-.51-.29-.78-.13-.44-.23-.52-.71-.45-.76,.12-1.53,.08-2.27-.12-1.13-.26-2.02-1.13-2.29-2.25-.02-.09-.04-.18-.08-.26-.13-.35-.29-.42-.62-.25-.16,.08-.31,.19-.46,.28-1.61,1.04-3.7,.95-5.22-.21q-.79-.53-1.48,.08c-.56,.52-1.21,.94-1.91,1.24-.79,.35-1.68,.4-2.5,.12-.25-.13-.56-.04-.71,.2-.86,1.14-2.33,1.63-3.7,1.24l-.26-.08c-.42-.07-.62,.1-.59,.53v.22c.22,1.41-.64,2.76-2,3.16-.5,.16-1.03,.22-1.56,.2Z" fill="#fff"/>
    <path d="M1706.75,49.41c-.22-.87-.22-1.77,0-2.64,.92-4.08,4.97-6.65,9.06-5.74,3.07,.69,5.4,3.21,5.84,6.33,.05,.6,.05,1.19,0,1.79,.02,.24-.15,.45-.39,.49-.33,.09-.65,.34-1,.33-.35-.08-.69-.2-1-.37-1.95-.75-4.12-.67-6,.23-.21,.14-.47,.14-.68,0-.87-.46-1.84-.7-2.83-.69-1.01-.03-2.01,.06-3,.27Z" fill="#fff"/>
    <path d="M1718.52,54.14c-.76,0-1.52-.09-2.27-.24-.49-.08-.93-.36-1.22-.76-.23-.32-.43-.65-.61-1l-.67-1.31c-.16-.31-.15-.34,.19-.46,1.06-.39,2.19-.56,3.32-.48,.51,.03,1.01,.12,1.5,.27,.86,.27,1.58,.88,2,1.68,.21,.47,.45,.92,.72,1.35,.15,.21,0,.34-.13,.44-.23,.11-.47,.2-.72,.25-.69,.16-1.4,.25-2.11,.26Z" fill="#1041f5"/>
    <path d="M1733.36,54c-.76,0-1.52-.09-2.26-.27-.4-.1-.76-.33-1-.67-.52-.77-.98-1.57-1.37-2.41-.11-.22,0-.29,.19-.36,.49-.19,1-.32,1.52-.39,1.02-.19,2.06-.16,3.07,.09,.99,.18,1.88,.74,2.46,1.57,.13,.2,.24,.41,.3,.64,.23,.5,.02,1.1-.48,1.33-.04,.02-.09,.04-.14,.05-.52,.24-1.08,.38-1.65,.42h-.64Z" fill="#1041f5"/>
    <path d="M1703.48,53.93c-.76,.02-1.52-.04-2.27-.2-.53-.09-.99-.38-1.3-.82-.48-.75-.91-1.52-1.3-2.32-.08-.16,0-.24,.12-.3l.2-.08c1.48-.52,3.08-.59,4.61-.22,.91,.22,1.69,.82,2.14,1.64,.25,.45,.48,.9,.72,1.35s.15,.44-.2,.57c-.56,.22-1.14,.34-1.74,.37-.33,.02-.66,.01-.98,.01Z" fill="#1041f5"/>
    <path d="M1706,50.48c1.65-.65,3.46-.78,5.19-.36,.76,.22,1.41,.71,1.84,1.37,.42,.61,.65,1.33,1,2,.1,.15,0,.28-.11,.37-.08,.05-.16,.09-.24,.13-.86,.33-1.85,.13-2.5-.53-.4-.43-.76-.88-1.13-1.32-.17-.22-.37-.41-.6-.56-.13-.09-.3-.14-.46-.13-.31,0-.45,.27-.27,.52,.06,.09,.14,.17,.23,.23,.42,.35,.79,.75,1.09,1.21,.18,.24,.15,.31-.11,.45-.72,.38-1.6,.21-2.13-.41-.22-.27-.41-.55-.59-.85-.34-.72-.75-1.4-1.21-2.12Z" fill="#fff"/>
    <path d="M1721.24,50.5c1.52-.62,3.19-.75,4.79-.39,.95,.22,1.77,.83,2.24,1.69,.31,.55,.57,1.13,.86,1.69,.08,.11,.05,.27-.07,.35-.01,0-.03,.02-.04,.02-.15,.1-.33,.15-.51,.17-.43,.07-.87,.07-1.3,0-.36-.04-.7-.23-.93-.51l-1.15-1.38c-.15-.2-.35-.38-.57-.5-.29-.14-.5-.12-.64,.07s-.09,.41,.19,.59c.4,.29,.74,.65,1,1.07,.23,.34,.19,.45-.2,.57-.64,.21-1.34,.05-1.83-.4-.18-.16-.33-.34-.45-.54-.52-.8-.98-1.64-1.39-2.5Z" fill="#fff"/>
    <path d="M1736.06,44.48l-.71,.17c-1,.19-1.97,.47-2.92,.84-1.15,.41-2.34,.68-3.55,.8-1.35,.17-2.72,.24-4.08,.22-.47,0-.94,.09-1.38,.27-.19,.07-.37,.15-.56,.21s-.37,.1-.42-.25c-.07-.45-.19-.88-.34-1.31-.11-.35-.11-.36,.25-.49,.85-.34,1.75-.5,2.66-.49,1.37,0,2.75,.1,4.13,.08,.93,0,1.85-.17,2.77-.2l2.4-.08c.58-.01,1.16,.03,1.73,.12l.02,.11Z" fill="#fff"/>
    <path d="M1697.92,54c-.44,0-.87-.16-1.22-.43-.42-.34-.82-.72-1.18-1.13-.22-.27-.47-.51-.75-.71-.16-.15-.38-.23-.6-.22-.19,0-.35,.13-.39,.32-.06,.16,.03,.34,.19,.4,.02,0,.04,.01,.06,.01,.62,.18,.85,.75,1.23,1.18,.12,.12,0,.23-.1,.32-.27,.24-.64,.36-1,.32-1.1,.05-2.07-.73-2.24-1.82-.15-.72,.16-1.45,.77-1.85,.45-.28,.95-.46,1.48-.51,1.41-.3,2.86,.27,3.69,1.45,.49,.66,.81,1.42,1.28,2.09,.12,.17,0,.26-.11,.34-.34,.17-.73,.25-1.11,.24Z" fill="#fff"/>
    <path d="M1693.62,44.81c1.27-.11,2.55-.16,3.82-.14,.74,.06,1.47,.17,2.22,.23,1.21,.08,2.43,.08,3.64,0,.57-.06,1.14-.03,1.7,.1,.26,.08,.51,.18,.75,.32q.46,.27,.35,.8c-.06,.29-.11,.57-.15,.86s-.14,.34-.4,.29c-.75-.14-1.48-.35-2.2-.6-.89-.38-1.84-.58-2.8-.61-1.67,.05-3.34-.2-4.93-.73-.62-.24-1.34-.33-2-.52Z" fill="#fff"/>
    <path d="M1702.42,39.38c1.25,.83,2.59,1.5,4,2,.44,.18,.85,.4,1.25,.65,.2,.13,.38,.27,.6,.42-.41,.47-.79,.97-1.13,1.49-.12,.2-.26,.14-.42,.09-.62-.21-1.21-.48-1.77-.82-1.03-.63-1.96-1.39-2.78-2.27q-.34-.38-.11-.82c.13-.24,.24-.47,.36-.74Z" fill="#fff"/>
    <path d="M1706.33,36.84c1,1.44,1.22,3.15,2.1,4.6-.15,0-.23-.08-.32-.14-.62-.41-1.3-.75-2-1-1.09-.38-2.14-.89-3.12-1.5-.27-.18-.38-.52-.27-.83,.06-.14,.18-.09,.28-.08,.65,.05,1.31-.02,1.93-.23,.51-.19,.98-.47,1.4-.82Z" fill="#fff"/>
    <path d="M1725.45,40.25c-.18,.11-.38,.24-.58,.35-.52,.29-.98,.68-1.36,1.14-.49,.61-1.03,1.17-1.61,1.69l-.34,.28c-.18,.14-.33,.16-.47-.08-.31-.49-.67-.93-1.09-1.33,0-.22,.25-.3,.4-.4,.45-.29,.89-.56,1.35-.82,.89-.49,1.74-1,2.58-1.6,.2-.13,.33-.15,.5,.06s.39,.46,.62,.71Z" fill="#fefefe"/>
    <path d="M1720.27,37.24c-.46,.72-.75,1.53-.86,2.38-.11,.53-.35,1.03-.7,1.45-.12,.14-.2,.22-.41,.1-.37-.22-.76-.41-1.17-.56-.19-.04-.31-.23-.26-.42,0-.03,.02-.06,.03-.09,.08-.28,.18-.55,.29-.81,.41-.95,1.01-1.81,1.74-2.54,.33-.34,.26-.36,.63,0s.44,.3,.71,.49Z" fill="#feffff"/>
    <path d="M1713.5,35.42c.11,.06,.23,.1,.35,.13,.61,.07,.81,.48,.92,1,.21,.99,.32,1.99,.33,3q0,.54-.54,.53h-1.09c-.36,0-.31-.08-.34-.3-.06-.56-.06-1.12,0-1.68,.02-.9,.15-1.8,.37-2.68Z" fill="#fefefe"/>
    <path d="M1707.29,36.61c.6-.14,1.24,.1,1.59,.61,.8,.95,1.53,1.95,2.2,3,.21,.34,.2,.33-.13,.5l-1.06,.55c-.33,.17-.33,.18-.55-.14-.25-.38-.46-.78-.62-1.2-.22-.54-.41-1.09-.62-1.63-.18-.6-.45-1.17-.81-1.69Z" fill="#fefefe"/>
    <path d="M1712,39.89c-.84-1.23-1.77-2.39-2.78-3.47,.09-.17,.26-.15,.39-.2,.83-.31,1.6-.78,2.26-1.37,.11-.1,.19-.27,.41-.14s.17,.23,.14,.41c-.32,1.57-.46,3.17-.42,4.77Z" fill="#fefefe"/>
    <path d="M1719.78,41.28c.27-.6,.47-1.23,.59-1.88,.11-.55,.31-1.08,.59-1.57,.1-.18,.19-.23,.39-.17,.67,.19,1.36,.25,2.05,.19,.23,0,.3,.08,.38,.27,.26,.6,.27,.59-.27,.92l-3.73,2.24Z" fill="#fefefe"/>
    <path d="M1716,39.44c-.06-1.22-.23-2.43-.51-3.62,1.03-.03,2.04-.31,2.94-.81,.05,.13,.11,.26,.18,.38,.11,.15,.05,.25-.06,.37-.32,.33-.63,.66-.92,1-.63,.73-1.13,1.56-1.46,2.47-.02,.08-.02,.19-.17,.21Z" fill="#fefefe"/>
    <path d="M1717.27,93.84v11.45c.02,.15-.08,.29-.22,.31h0l-2.74,.7c-.14,.03-.29,.03-.43,0-.78-.2-1.55-.39-2.32-.6-.43-.11-.43-.12-.44-.54v-22.35c0-.74,.07-.67-.67-.67h-17.83c-.69,0-.69,.08-.69-.68v-4.19c0-.61,0-.57,.56-.57h18c.76,0,.68,.08,.68-.72v-16.08c0-.85-.1-.75,.75-.75h4.86q.55,0,.55,.57v16.28c0,.83-.07,.73,.73,.74h18c.4,0,.41,0,.41,.43v4.58q0,.42-.43,.43h-18c-.79,0-.72-.08-.72,.69l-.04,10.97Z" fill="#1041f5"/>
    <path d="M1722.19,85.72v1.32c0,.19-.07,.26-.25,.25s-.54,0-.79,0c-.08,.14-.11,.3-.08,.46v8c0,.28,.07,.37,.36,.37h4.57c.22,0,.36,0,.32,.29s.06,.38,.35,.37h1.8v-.19c0-.46,0-.47,.48-.47h3.81c.11,0,.22,0,.35,.07-.47,.71-1.01,1.38-1.6,2-1.89,1.97-4.17,3.54-6.68,4.61-2.06,.91-4.17,1.68-6.33,2.3-.09,.04-.18,.04-.27,0-.04-.17-.04-.36,0-.53v-21.05q0-.41,.42-.41h17.4q.41,0,.42,.41c0,1.12-.08,2.25-.24,3.36-.2,2.08-.67,4.13-1.39,6.09-.23,.59-.49,1.17-.78,1.73-.07,.15-.19,.28-.33,.37v-7.33q0-.44-.44-.45-.66,0-.67-.7c0-.27,.12-.61,0-.79s-.51,0-.78,0c-.81-.07-1.62-.19-2.42-.36-.59-.13-1.21-.05-1.74,.23-.12,.08-.28,.08-.4,0-.54-.28-1.16-.35-1.75-.22-.32,.07-.64,.11-1,.17-.77,.16-1.56,.2-2.34,.1Z" fill="#fff"/>
    <path d="M1695.47,96.12h4q.57,0,.6,.65h2c.14,0,.19-.07,.18-.2v-.37c.16-.13,.33-.07,.49-.08h4.26q.4,0,.4-.37v-8.23c0-.07,0-.13,0-.2-.26-.03-.53-.03-.79,0-.24,0-.31-.09-.3-.32v-1.25c-1.15,.03-2.29-.09-3.41-.36-.51-.08-1.03,0-1.49,.21-.17,.09-.37,.09-.54,0-.49-.25-1.05-.33-1.59-.22-.34,.07-.68,.11-1,.18-.75,.18-1.52,.23-2.29,.16-.04,.44-.04,.88,0,1.32,0,.19-.06,.25-.25,.26s-.62-.13-.78,0-.07,.59-.07,.89v6.75c-.22-.09-.27-.29-.35-.45-.91-1.8-1.56-3.72-1.92-5.71-.32-1.75-.51-3.52-.56-5.3,0-.45,0-.43,.39-.43h17.4q.42,0,.42,.46v20.98c.04,.2,.04,.42,0,.62-.92-.25-1.83-.55-2.74-.86-2.42-.79-4.74-1.86-6.91-3.18-1.86-1.17-3.48-2.7-4.75-4.5-.17-.11-.31-.27-.4-.45Z" fill="#fff"/>
    <path d="M1727.27,59.16h8.78c.25,0,.39,.05,.35,.33,0,.09,0,.18,0,.27v15.31c0,.66,.11,.6-.62,.6h-17c-.77,0-.64,.07-.64-.62,0-5.09,0-10.18,0-15.27,.01-.09,.01-.18,0-.27-.05-.31,.11-.35,.38-.35h8.75Z" fill="#fff"/>
    <path d="M1701.1,59.16h8.84c.13,0,.31,.06,.28,.27s0,.22,0,.33v15.31c0,.67,.11,.6-.61,.6h-17c-.71,0-.6,.07-.6-.6,0-5.11,0-10.21,0-15.31,0-.7-.1-.59,.61-.6h8.48Z" fill="#fff"/>
    <path d="M1723.11,86.75c1,0,1.79-.33,2.68-.39,.24-.03,.47,0,.7,.07,.2,.06,.32,.25,.31,.45v7.4c-.8-.22-1.65-.19-2.43,.09-.11,.01-.21,.01-.32,0-.85,.11-.94,0-.94-.81v-6.81h0Z" fill="#fff"/>
    <path d="M1701.75,94.27c-.03-.16-.03-.34,0-.5v-6.65c0-.59,.26-.83,.87-.78,.51,.04,1.01,.13,1.51,.24,.33,.09,.66,.14,1,.15,.25,0,.29,.1,.29,.32v7c.03,.18-.09,.36-.27,.39-.02,0-.04,0-.06,0-.36,.05-.73,.03-1.08-.08-.73-.26-1.51-.29-2.26-.1Z" fill="#fff"/>
    <path d="M1700.49,94.27c-.73-.19-1.51-.17-2.23,.07-.35,.11-.72,.13-1.08,.07-.19,0-.31-.09-.29-.31v-7.34c.95-.05,1.85-.34,2.79-.42,.14-.03,.29-.03,.43,0,.36,.1,.44,.19,.45,.57v6.75c.05,.21,.02,.42-.07,.61Z" fill="#fff"/>
    <path d="M1731.62,86.73v7.14c0,.54,0,.55-.55,.57-.31,.01-.62-.03-.91-.12-.7-.21-1.44-.21-2.14,0-.13-.18-.07-.36-.07-.54v-6.54c0-.71,.24-.91,1-.83,.5,.05,1.01,.13,1.5,.24,.38,.08,.78,.11,1.17,.08Z" fill="#fff"/>
    <path d="M1752.63,70.05v-3.1c0-.37,0-.38,.39-.38,1.01-.06,2.01,0,3,.22,1.47,.3,2.64,1.42,3,2.88,.23,.9,.21,1.85-.08,2.73-.44,1.38-1.67,2.34-3.11,2.44-.58,.08-1.16,.08-1.74,0-.72-.01-1.32-.56-1.4-1.28-.06-.33-.08-.67-.06-1v-2.51Z" fill="#fefced"/>
    <path d="M1752.63,62.48v-2.89c0-.47,.09-.57,.55-.64,.9-.15,1.82-.12,2.71,.1,1.33,.28,2.3,1.44,2.32,2.8,.06,.43,.06,.87,0,1.3-.22,1.43-1.42,2.5-2.87,2.55-.78,.06-1.56,.09-2.34,.07-.28,0-.34-.09-.34-.34-.02-.98-.03-1.97-.03-2.95Z" fill="#fefced"/>
    <path d="M1771.3,63.19v-3.27c0-.93,0-.94,1-1,.61-.06,1.23-.03,1.84,.09,1.66,.25,2.91,1.64,3,3.32,.26,1.47-.24,2.97-1.32,4-.52,.48-1.19,.78-1.9,.85-.76,.09-1.52,0-2.28,.07-.28,0-.33-.12-.33-.36-.01-1.27-.01-2.49-.01-3.7Z" fill="#fefced"/>
    <path d="M1801,67.75c.04,1.44-.25,2.87-.83,4.19-.81,1.93-2.66,3.22-4.75,3.31-1.94,.14-3.82-.72-5-2.27-.87-1.08-1.46-2.36-1.72-3.72-.54-2.18-.45-4.47,.25-6.6,.89-3.04,4.07-4.78,7.11-3.9,1.2,.35,2.26,1.09,3,2.1,.86,1.14,1.43,2.46,1.68,3.86,.18,1,.27,2.01,.26,3.03Z" fill="#fefced"/>
    <path d="M1717.6,29c1.53,.05,2.92,.89,3.67,2.22,.14,.24,.21,.47,0,.69s-.37,.24-.53,0c-.41-.78-1.1-1.38-1.92-1.7-1.28-.58-2.79-.27-3.75,.76-.18,.18-.28,.16-.41-.05-.2-.23-.2-.57,0-.8,.19-.22,.42-.41,.68-.54,.69-.38,1.47-.58,2.26-.58Z" fill="#1041f5"/>
    <path d="M1713.47,29.73c0,.13-.03,.25-.1,.36-.09,.17-.21,.22-.4,.1-.31-.21-.64-.37-1-.47-.88-.23-1.81,0-2.49,.6-.21,.18-.4,.36-.59,.56-.12,.12-.23,.29-.45,.17-.21-.13-.31-.38-.25-.62,.03-.08,.08-.16,.14-.23,.75-1.01,1.94-1.59,3.19-1.57,.66,.04,1.29,.29,1.78,.73,.12,.09,.18,.23,.17,.37Z" fill="#1041f5"/>
    <path d="M1704.3,31.34c.34-.01,.67,.02,1,.11,.34,.1,.42,.23,.32,.55s-.19,.37-.51,.28c-.17-.06-.35-.1-.53-.14-.86-.17-1.74,.19-2.23,.92-.25,.34-.44,.72-.56,1.12-.06,.19-.16,.27-.35,.24-.19,0-.34-.16-.35-.35,0-.16,.02-.33,.08-.48,.39-1.39,1.69-2.32,3.13-2.25Z" fill="#1041f5"/>
    <path d="M1729.38,34.2c1.2-.07,2.32,.62,2.79,1.72,.12,.21,.1,.47-.05,.66-.08,.13-.24,.17-.37,.09-.04-.02-.07-.05-.09-.09-.07-.09-.13-.18-.18-.27-.56-1.01-1.76-1.48-2.86-1.11l-.26,.08c-.17,.05-.36,.16-.46-.08-.12-.2-.08-.45,.1-.6,.19-.15,.41-.25,.64-.29,.24-.05,.49-.09,.74-.11Z" fill="#1041f5"/>
    <path d="M1696.25,37.39c.26,0,.53,0,.65,.29s0,.42-.28,.44c-.29,0-.57,.01-.86,.05-.75,.14-1.35,.69-1.56,1.42,0,.13,0,.33-.21,.34-.21,0-.39-.15-.43-.35-.05-.16-.05-.33,0-.49,.13-.48,.43-.89,.84-1.16,.55-.35,1.2-.54,1.85-.54Z" fill="#1041f5"/>
    <path d="M1724.5,31.91c.83-.05,1.59,.43,1.91,1.19,.06,.15,.1,.31,.1,.47,0,.17-.13,.32-.3,.35-.16,0-.25-.07-.33-.2-.66-1.08-1-1.21-2.24-.89h-.1c-.19,0-.41,.13-.48-.16-.09-.23,.03-.48,.25-.57h0c.14-.06,.28-.1,.42-.12l.76-.07Z" fill="#1041f5"/>
    <path d="M1735.3,38.55c0,.14-.02,.28-.06,.42-.08,.25-.27,.27-.48,.26s-.23-.18-.22-.35c.01-.13,.01-.25,0-.38-.03-.46-.4-.82-.86-.83-.13,0-.26,0-.39,0-.23,0-.38-.08-.39-.34s.06-.41,.35-.45c.95-.17,1.85,.46,2.02,1.4,.02,.09,.03,.18,.03,.27Z" fill="#1041f5"/>
    <path d="M1699.82,34.74c.18,0,.36,0,.39,.25s-.06,.46-.32,.52c-.32,.05-.63,.17-.91,.33-.3,.2-.53,.5-.64,.85-.07,.17-.12,.35-.37,.28-.23-.04-.38-.25-.34-.48,.02-.14,.06-.28,.12-.41,.37-.81,1.18-1.33,2.07-1.34Z" fill="#1041f5"/>
    <path d="M1711.54,44.55c.52,0,1.04,.07,1.54,.21,.38,.1,.43,.18,.37,.58,0,.11,0,.22-.06,.32s-.12,.21-.27,.16l-.21-.06c-.21,0-.34,0-.42,.25-.12,.47-.59,.75-1.06,.63-.36-.09-.62-.4-.65-.78,0-.32-.19-.35-.43-.33-.22,.02-.42,.1-.61,.21-.11,0-.24,.17-.35,0s0-.24,.11-.32c.52-.57,1.27-.88,2.04-.87Z" fill="#1041f5"/>
    <path d="M1716.44,44.65c.55-.03,1.1,.07,1.61,.28,.37,.15,.69,.42,.89,.77,0,.08,.15,.19,0,.28s-.16,0-.23-.06c-.22-.17-.48-.27-.75-.31-.19,0-.28,0-.32,.25-.09,.53-.31,.74-.75,.79-.41,.08-.82-.17-.92-.58-.13-.34-.35-.24-.57-.24-.4,0-.42,0-.48-.31s0-.64,.33-.74c.39-.11,.79-.15,1.19-.13Z" fill="#1041f5"/>
    <path d="M1712.87,47.82c.74,.16,1.52,.07,2.21-.25,.2,.75,0,1.13-.67,1.24-.98,.19-1.56-.13-1.54-.99Z" fill="#1041f5"/>
    <path d="M1722.19,61.9c1.01,.07,2.02-.02,3-.27,.67-.17,1.38-.09,2,.2,.12,.08,.28,.08,.4,0,.56-.26,1.2-.33,1.81-.2l1.72,.29c.48,.08,.96,.08,1.44,0v1.19c0,.39,0,.42,.4,.43q.7,0,.7,.72v7.74c0,.3-.11,.38-.38,.35h-4.36c-.42,0-.43,0-.47,.41,0,.19-.09,.25-.27,.25h-1.58c-.27,0-.38-.09-.34-.35s-.11-.31-.35-.31h-4.31c-.5,0-.54,.12-.54-.51v-7.84c0-.56,0-.51,.49-.51h.21q.41,0,.42-.43v-1.16Z" fill="#1041f5"/>
    <path d="M1696,61.91c1.03,.06,2.07-.04,3.07-.29,.64-.16,1.32-.09,1.91,.2,.12,.08,.28,.08,.4,0,.58-.27,1.24-.33,1.86-.19,.57,.1,1.14,.23,1.72,.29,.44,.05,.89,.05,1.33,0,.06,.41,.06,.82,0,1.23,0,.28,.08,.39,.37,.37,.23-.04,.47-.04,.7,0,.05,.17,.05,.36,0,.53v7.74q0,.51-.5,.51h-4.09c-.09,0-.18,0-.27,0-.24,0-.39,0-.35,.32s-.08,.35-.34,.34h-1.52c-.23,0-.35-.07-.32-.31s-.11-.36-.37-.35h-4.36c-.51,0-.49,0-.49-.46v-7.84q0-.45,.44-.45c.67,0,.66,0,.67-.71,.01-.31,.06-.63,.14-.93Z" fill="#1041f5"/>
    <path d="M1723,63c.8,0,1.53-.25,2.28-.35l.32-.05c.91-.07,1.09,.1,1.09,1v6.38c.03,.19,.03,.37,0,.56-.73-.24-1.51-.24-2.24,0-.32,.1-.66,.13-1,.1-.41,0-.43-.06-.44-.46v-7.18h-.01Z" fill="#fff"/>
    <path d="M1727.8,70.5v-7.32c0-.42,.19-.6,.64-.63,.44-.02,.88,.02,1.3,.13,.56,.12,1.14,.21,1.71,.27,.03,.15,.03,.3,0,.45v6.6c0,.53,0,.58-.59,.59-.34,0-.68-.04-1-.14-.67-.21-1.4-.19-2.06,.05Z" fill="#fff"/>
    <path d="M1701.71,70.47v-7.17c0-.58,.15-.74,.73-.76,.62,.03,1.23,.12,1.83,.26l.37,.07c.25,.05,.57,0,.71,.15s.05,.45,.05,.69v6.29c0,.53-.05,.58-.58,.6-.34,0-.67-.04-1-.13-.69-.22-1.42-.22-2.11,0Z" fill="#fff"/>
    <path d="M1696.89,63c.8-.06,1.54-.26,2.29-.37,.29-.04,.58-.04,.87,0,.28,0,.51,.22,.51,.51,0,.03,0,.05,0,.07v7.19s0,.09,0,.14c-.76-.22-1.57-.19-2.32,.08-.3,.07-.61,.09-.92,.06-.27,0-.39-.12-.38-.4s0-.77,0-1.15v-6.13h-.05Z" fill="#fff"/>
  </g>
</svg>