<svg id="Layer_1" data-name="Layer 1" xmlns="http://www.w3.org/2000/svg" viewBox="0 0 1917.65 1241.58"><defs><style>.cls-1,.cls-3{fill:#fefced;}.cls-2{fill:#2d2ff5;}.cls-3,.cls-4,.cls-7{stroke:#2d2ff5;stroke-miterlimit:10;}.cls-4,.cls-7{fill:none;}.cls-5,.cls-6{isolation:isolate;}.cls-6{font-size:210.48px;font-family:ArialMT, Arial;}.cls-6,.cls-8{fill:#1041f5;}.cls-7{stroke-width:3.2px;}.cls-9{fill:#808585;}.cls-10{fill:#fff;}.cls-11{fill:#fefefe;}.cls-12{fill:#feffff;}</style></defs><g id="a"><rect class="cls-1" width="1915.29" height="1241.58"/><rect class="cls-2" y="132.48" width="1917.65" height="988"/><rect class="cls-3" x="139.73" y="223.71" width="816.79" height="816.79"/><line class="cls-4" x1="139.73" y1="904.37" x2="956.52" y2="904.37"/><line class="cls-4" x1="139.73" y1="768.24" x2="956.52" y2="768.24"/><line class="cls-4" x1="139.73" y1="632.11" x2="956.52" y2="632.11"/><line class="cls-4" x1="139.73" y1="495.98" x2="956.52" y2="495.98"/><line class="cls-4" x1="139.73" y1="359.84" x2="956.52" y2="359.84"/><line class="cls-4" x1="820.39" y1="223.71" x2="820.39" y2="1040.5"/><line class="cls-4" x1="684.26" y1="223.71" x2="684.26" y2="1040.5"/><line class="cls-4" x1="548.13" y1="223.71" x2="548.13" y2="1040.5"/><line class="cls-4" x1="411.99" y1="223.71" x2="411.99" y2="1040.5"/><line class="cls-4" x1="275.86" y1="223.71" x2="275.86" y2="1040.5"/><rect class="cls-3" x="956.52" y="223.71" width="816.79" height="816.79"/><line class="cls-4" x1="956.52" y1="904.37" x2="1773.31" y2="904.37"/><line class="cls-4" x1="956.52" y1="768.24" x2="1773.31" y2="768.24"/><line class="cls-4" x1="956.52" y1="632.11" x2="1773.31" y2="632.11"/><line class="cls-4" x1="956.52" y1="495.98" x2="1773.31" y2="495.98"/><line class="cls-4" x1="956.52" y1="359.84" x2="1773.31" y2="359.84"/><line class="cls-4" x1="1637.18" y1="223.71" x2="1637.18" y2="1040.5"/><line class="cls-4" x1="1501.05" y1="223.71" x2="1501.05" y2="1040.5"/><line class="cls-4" x1="1364.92" y1="223.71" x2="1364.92" y2="1040.5"/><line class="cls-4" x1="1228.79" y1="223.71" x2="1228.79" y2="1040.5"/><line class="cls-4" x1="1092.65" y1="223.71" x2="1092.65" y2="1040.5"/><rect class="cls-1" x="550.59" y="770.16" width="131.64" height="471.42"/><path class="cls-2" d="M680.22,771.25v470.33H552.58V771.25H680.22m4-3.09H548.58v473.42H684.22V768.16Z"/><polygon class="cls-2" points="820.39 632.18 681.97 632.18 820.39 768.74 820.39 632.18"/><polygon class="cls-2" points="548.13 768.24 548.13 906.66 684.68 768.24 548.13 768.24"/><polygon class="cls-2" points="820.39 359.84 820.39 497.31 956.21 634.78 956.21 359.84 820.39 359.84"/><path class="cls-2" d="M952.21,501.31V629.13H824.39V501.31H952.21m4-4H820.39V633.13H956.21V497.31Z"/><polygon class="cls-1" points="958.22 493.67 958.2 361.85 1094.65 361.83 1094.66 0 1226.48 0 1226.48 493.67 958.22 493.67"/><path class="cls-2" d="M1096.66,0h127.82V491.67H960.22V363.85l132.43,0h4v-4l0-359.83m-4,0,0,359.84-136.44,0,0,135.82h272.26V0Z"/><path class="cls-2" d="M815.61,636.22V763.86H137.28V636.22H815.61m4-4H133.28V767.86H819.61V632.22Z"/><path class="cls-2" d="M819.62,501.93,950.54,632.51,819.6,763.09,688.68,632.38,819.62,501.94m0-5.65L683,632.37,819.61,768.74l136.6-136.23L819.62,496.28h0Z"/><rect class="cls-4" x="139.73" y="223.71" width="816.79" height="816.79"/><line class="cls-4" x1="139.73" y1="904.37" x2="956.52" y2="904.37"/><line class="cls-4" x1="139.73" y1="768.24" x2="956.52" y2="768.24"/><line class="cls-4" x1="139.73" y1="632.11" x2="956.52" y2="632.11"/><line class="cls-4" x1="139.73" y1="495.98" x2="956.52" y2="495.98"/><line class="cls-4" x1="139.73" y1="359.84" x2="956.52" y2="359.84"/><line class="cls-4" x1="820.39" y1="223.71" x2="820.39" y2="1040.5"/><line class="cls-4" x1="684.26" y1="223.71" x2="684.26" y2="1040.5"/><line class="cls-4" x1="548.13" y1="223.71" x2="548.13" y2="1040.5"/><line class="cls-4" x1="411.99" y1="223.71" x2="411.99" y2="1040.5"/><line class="cls-4" x1="275.86" y1="223.71" x2="275.86" y2="1040.5"/><rect class="cls-4" x="956.52" y="223.71" width="816.79" height="816.79"/><line class="cls-4" x1="956.52" y1="904.37" x2="1773.31" y2="904.37"/><line class="cls-4" x1="956.52" y1="768.24" x2="1773.31" y2="768.24"/><line class="cls-4" x1="956.52" y1="632.11" x2="1773.31" y2="632.11"/><line class="cls-4" x1="956.52" y1="495.98" x2="1773.31" y2="495.98"/><line class="cls-4" x1="956.52" y1="359.84" x2="1773.31" y2="359.84"/><line class="cls-4" x1="1637.18" y1="223.71" x2="1637.18" y2="1040.5"/><line class="cls-4" x1="1501.05" y1="223.71" x2="1501.05" y2="1040.5"/><line class="cls-4" x1="1364.92" y1="223.71" x2="1364.92" y2="1040.5"/><line class="cls-4" x1="1228.79" y1="223.71" x2="1228.79" y2="1040.5"/><line class="cls-4" x1="1092.65" y1="223.71" x2="1092.65" y2="1040.5"/><g id="b"><rect class="cls-3" x="139.73" y="223.71" width="544.53" height="271.96"/></g><g class="cls-5"><text class="cls-6" transform="translate(180.04 464.53)">Re–</text></g><polygon class="cls-1" points="1824.08 576.15 1788.84 555.67 1787.89 219.39 1823.13 239.87 1824.08 576.15"/><polygon class="cls-1" points="911.25 1103.18 876.01 1082.7 1788.84 555.67 1824.08 576.15 911.25 1103.18"/><polygon class="cls-1" points="908.42 1108.08 873.18 1087.6 872.21 744.79 907.45 765.27 908.42 1108.08"/><polygon class="cls-1" points="907.45 765.27 872.21 744.79 1790.71 214.49 1825.95 234.97 907.45 765.27"/><path class="cls-1" d="M907.45,765.27,1826,235l1,342.81-918.5,530.3-1-342.81Zm916.63-189.12-.95-336.28-912.84,527,1,336.28,912.83-527"/><polygon class="cls-2" points="1822.66 575.34 1787.42 554.86 1786.48 221.84 1821.72 242.32 1822.66 575.34"/><polygon class="cls-2" points="912.66 1100.73 877.42 1080.25 1787.42 554.86 1822.66 575.34 912.66 1100.73"/><polygon class="cls-2" points="909.84 1105.63 874.6 1085.15 873.63 745.6 908.87 766.08 909.84 1105.63"/><polygon class="cls-2" points="908.87 766.08 873.63 745.6 1789.3 216.94 1824.54 237.42 908.87 766.08"/><path class="cls-2" d="M908.87,766.08l915.67-528.66,1,339.55L909.83,1105.63l-1-339.55Zm913.79-190.74-.94-333-910,525.39.94,333,910-525.39"/><path class="cls-2" d="M1735.42,565.05l-35.24-20.48c35.07-20.25,57.86-49.15,60.23-76.08L1795.65,489C1793.28,515.9,1770.49,544.8,1735.42,565.05Z"/><polygon class="cls-1" points="1772.38 502.41 1737.14 481.93 1760.41 468.49 1795.65 488.97 1772.38 502.41"/><polygon class="cls-2" points="1795.78 468.92 1760.54 448.44 1760.51 440.55 1795.75 461.03 1795.78 468.92"/><path class="cls-2" d="M1682.18,574.68l-35.24-20.48c11.67,6.78,30,3.79,53.24-9.62l35.24,20.48C1712.19,578.47,1693.85,581.47,1682.18,574.68Z"/><path class="cls-1" d="M1700.68,526.65c20.53-11.85,34-28.41,36.45-44.72l35.24,20.48c-2.49,16.31-15.92,32.87-36.45,44.72-13.52,7.8-24.18,9.49-31.35,5.32L1669.33,532C1676.5,536.14,1687.16,534.46,1700.68,526.65Z"/><polygon class="cls-2" points="1768.13 501.96 1732.9 481.48 1733.1 479.01 1768.34 499.49 1768.13 501.96"/><polygon class="cls-2" points="1768.34 499.49 1733.1 479.01 1765.25 460.45 1800.49 480.93 1768.34 499.49"/><path class="cls-2" d="M1707.82,546.91l-35.24-20.48c6.33,3.68,15.83,2.06,28.09-5,19-11,31.06-25.91,32.23-39.92L1768.14,502c-1.16,14-13.21,28.94-32.23,39.92C1723.65,549,1714.15,550.59,1707.82,546.91Z"/><polygon class="cls-2" points="1694.12 527.61 1658.88 507.13 1760.54 448.44 1795.78 468.92 1694.12 527.61"/><polygon class="cls-1" points="1772.6 469.66 1737.36 449.18 1737.35 444.72 1772.59 465.2 1772.6 469.66"/><path class="cls-2" d="M1747.16,407l35.24,20.48c8.67,5,13.3,16.31,13.35,33.6l-35.24-20.48C1760.46,423.27,1755.83,412,1747.16,407Z"/><path class="cls-1" d="M1730.68,427.55,1765.92,448c4.34,2.86,6.64,8.61,6.67,17.17l-35.24-20.48C1737.33,436.15,1735,430.4,1730.68,427.55Z"/><path class="cls-1" d="M1730.68,427.55l-.54-.33,35.24,20.48.54.33Z"/><polygon class="cls-1" points="1694.61 514.69 1659.37 494.21 1737.36 449.18 1772.6 469.66 1694.61 514.69"/><path class="cls-2" d="M1726.83,432.78l35.24,20.48c3.76,2.19,5.79,6.8,6,13.79l-35.24-20.48C1732.62,439.57,1730.59,435,1726.83,432.78Z"/><path class="cls-1" d="M1740.44,404.45a21.85,21.85,0,0,1,6.71,2.5l35.24,20.48a21.85,21.85,0,0,0-6.71-2.5Z"/><path class="cls-2" d="M1704.58,552.45,1669.34,532c-5.92-3.44-9.46-10.87-10.27-22.13l35.24,20.48C1695.12,541.59,1698.66,549,1704.58,552.45Z"/><polygon class="cls-2" points="1694.31 530.32 1659.07 509.84 1658.88 507.13 1694.12 527.61 1694.31 530.32"/><polygon class="cls-2" points="1700.2 506.21 1664.96 485.73 1732.78 446.57 1768.02 467.05 1700.2 506.21"/><polygon class="cls-2" points="1694.61 514.69 1659.37 494.21 1659.88 490.8 1695.12 511.28 1694.61 514.69"/><path class="cls-2" d="M1730.14,427.21l35.24,20.48c-6.28-3.65-16.5-1.68-30,6.12-22.7,13.11-36.63,33-40.27,57.48l-35.24-20.48c3.64-24.49,17.56-44.37,40.27-57.48C1713.65,425.54,1723.86,423.56,1730.14,427.21Z"/><path class="cls-1" d="M1699.82,415.88c16.83-9.71,30.52-13.46,40.62-11.43l35.24,20.48c-10.1-2-23.79,1.71-40.62,11.43l-.46.27-35.24-20.48Z"/><path class="cls-1" d="M1632.62,520.18c-.11-40.19,25.44-80,66.74-104l35.24,20.48c-41.29,24-66.85,63.85-66.74,104,.05,17.22,5.11,28.66,14.33,34L1647,554.19C1637.74,548.84,1632.67,537.4,1632.62,520.18Z"/><path class="cls-2" d="M1678.91,580.27l-35.24-20.48c-10.18-5.92-15.56-18.58-15.61-37-.06-21.39,6.66-43.2,19.45-63.09,12.64-19.66,30.73-36.64,52.29-49.09,22.08-12.75,39.36-15.6,50.57-9.08L1785.61,422c-11.22-6.52-28.5-3.67-50.57,9.08s-39.66,29.43-52.29,49.09c-12.78,19.89-19.51,41.7-19.45,63.09C1663.35,561.69,1668.72,574.35,1678.91,580.27Z"/><path class="cls-2" d="M1768.34,499.49l32.15-18.56-.1,2.8c-.53,15.32-7.05,31.61-18.88,47.13-11.42,15-27.35,28.64-46.07,39.44-21.55,12.44-39.67,16.57-52.37,11.92-12.87-4.71-19.7-18.16-19.76-38.92-.06-21.39,6.66-43.2,19.45-63.09,12.64-19.66,30.73-36.64,52.29-49.09,40.76-23.53,65.16-13.33,65.28,27.28l0,13.13L1699.13,530c2.44,20,15.42,24.26,36.79,11.91,19-11,31.06-25.91,32.23-39.92l.2-2.48Zm-32.92,65.56c35.07-20.25,57.86-49.15,60.23-76.08l-23.28,13.44c-2.49,16.31-15.92,32.87-36.45,44.72-24.66,14.24-39.82,8.1-41.61-16.81l-.19-2.71,101.66-58.69,0-7.89c-.11-37.89-22.23-46.89-60.7-24.68-41.56,24-67.31,64-67.2,104.31.11,39,26,48.38,67.56,24.39"/><path class="cls-1" d="M1795.75,461l0,7.89-101.66,58.69.19,2.71c1.78,24.92,17,31,41.61,16.81,20.53-11.85,34-28.41,36.45-44.72L1795.64,489c-2.37,26.93-25.16,55.83-60.23,76.08-41.56,24-67.45,14.65-67.56-24.39-.11-40.34,25.63-80.31,67.2-104.31,38.47-22.21,60.59-13.21,60.7,24.68Zm-23.15,8.63V465.2c-.07-20.86-13.63-25-37.22-11.4-22.7,13.11-36.63,33-40.27,57.48l-.51,3.41,78-45"/><path class="cls-2" d="M1772.59,465.2v4.46l-78,45,.51-3.41c3.64-24.49,17.56-44.37,40.27-57.48,23.58-13.62,37.15-9.46,37.21,11.4Zm-72.39,41L1768,467.06c-.38-17.09-11.94-19.94-32.62-8-19.42,11.21-31.25,27.07-35.2,47.16"/><polygon class="cls-2" points="1612.09 634.15 1576.85 613.68 1603 598.58 1638.24 619.06 1612.09 634.15"/><polygon class="cls-2" points="1638.24 619.06 1603 598.58 1602.78 518.47 1638.02 538.95 1638.24 619.06"/><polygon class="cls-1" points="1612.09 634.15 1576.85 613.68 1576.64 540.14 1611.88 560.61 1612.09 634.15"/><polygon class="cls-2" points="1607.54 642.04 1572.3 621.56 1572.08 542.77 1607.32 563.25 1607.54 642.04"/><path class="cls-2" d="M1592.3,491.71l35.24,20.48c6.8,3.95,10.43,12.94,10.47,26.76l-35.24-20.48C1602.73,504.65,1599.1,495.66,1592.3,491.71Z"/><path class="cls-1" d="M1576.64,540.14c0-7.88-1.59-13.61-4.56-17.11l35.24,20.48c3,3.5,4.53,9.22,4.56,17.11Z"/><path class="cls-1" d="M1570,521.12l35.24,20.48a11.57,11.57,0,0,1,2.06,1.91L1572.09,523A11.23,11.23,0,0,0,1570,521.12Z"/><path class="cls-1" d="M1570,521.12c-.28-.2-.58-.39-.88-.57L1604.39,541c.3.18.6.37.88.57l-22.28-13-3.12-1.81-3.36-2-.85-.49-.85-.49-1.67-1-1.61-.93c-.45-.26-1.07-.59-1.51-.88Z"/><path class="cls-2" d="M1565.85,526.2l35.24,20.48c4.07,2.36,6.2,7.92,6.23,16.57l-35.24-20.48C1572.06,534.12,1569.92,528.56,1565.85,526.2Z"/><polygon class="cls-2" points="1518.29 688.31 1483.05 667.83 1509.21 652.73 1544.45 673.21 1518.29 688.31"/><polygon class="cls-2" points="1544.45 673.21 1509.21 652.73 1509.03 591.01 1544.27 611.49 1544.45 673.21"/><path class="cls-1" d="M1557.48,498.06c15.27-8.82,27.09-10.84,34.82-6.35l35.24,20.48c-7.73-4.49-19.55-2.47-34.82,6.35Z"/><path class="cls-2" d="M1595.54,486.22l35.24,20.48c-8.58-5-21.58-2.93-38.08,6.6l-35.24-20.48C1574,483.29,1587,481.23,1595.54,486.22Z"/><path class="cls-2" d="M1569.14,520.54,1604.38,541c-5.18-3-12.93-1.76-22.85,4a73.8,73.8,0,0,0-27.18,27.5,78.53,78.53,0,0,0-10.08,39L1509,591a78.61,78.61,0,0,1,10.08-39,73.8,73.8,0,0,1,27.18-27.5C1556.21,518.78,1564,517.52,1569.14,520.54Z"/><polygon class="cls-1" points="1547.39 578.91 1512.15 558.43 1512.6 556.23 1547.84 576.71 1547.39 578.91"/><polygon class="cls-1" points="1543.46 581.17 1508.22 560.69 1512.15 558.43 1547.39 578.91 1543.46 581.17"/><polygon class="cls-2" points="1543.46 581.17 1508.22 560.69 1507.88 558.73 1543.12 579.21 1543.46 581.17"/><polygon class="cls-1" points="1518.29 688.31 1483.05 667.83 1482.84 593.76 1518.08 614.24 1518.29 688.31"/><path class="cls-1" d="M1547.84,576.71l-35.24-20.48c4.76-23.25,21.11-44.45,44.88-58.17l35.24,20.48C1569,532.26,1552.59,553.46,1547.84,576.71Z"/><polygon class="cls-2" points="1513.74 696.19 1478.5 675.71 1478.28 596.4 1513.52 616.88 1513.74 696.19"/><path class="cls-2" d="M1545.72,569.12l-35.24-20.48c7.21-22.51,23.94-42.52,47-55.83l35.24,20.48C1569.66,526.59,1552.93,546.61,1545.72,569.12Z"/><path class="cls-2" d="M1499.74,545.41,1535,565.89c4.22,2.45,7,6.9,8.14,13.32l-35.24-20.48C1506.76,552.31,1504,547.86,1499.74,545.41Z"/><path class="cls-1" d="M1498.9,545c.29.14.56.29.84.45L1535,565.89q-.4-.24-.84-.45Z"/><path class="cls-1" d="M1482.84,593.76c0-9.67-2.64-16-7.44-18.79l35.24,20.48c4.8,2.79,7.41,9.12,7.44,18.79Z"/><path class="cls-2" d="M1472.12,580.59l35.24,20.48c4,2.32,6.14,7.63,6.16,15.8l-35.24-20.48C1478.26,588.22,1476.12,582.91,1472.12,580.59Z"/><polygon class="cls-2" points="1424.22 742.62 1388.98 722.15 1415.13 707.04 1450.37 727.52 1424.22 742.62"/><polygon class="cls-2" points="1450.37 727.52 1415.13 707.04 1414.96 646.37 1450.2 666.85 1450.37 727.52"/><polygon class="cls-1" points="1453.26 635.35 1418.02 614.87 1418.51 612.74 1453.75 633.22 1453.26 635.35"/><path class="cls-2" d="M1475.4,575l35.24,20.48c-5.32-3.09-13.32-1.84-23.46,4-22.9,13.22-37.06,39-37,67.38L1415,646.36c-.08-28.35,14.09-54.16,37-67.38C1462.08,573.13,1470.08,571.88,1475.4,575Z"/><polygon class="cls-1" points="1448.94 637.85 1413.7 617.37 1418.02 614.87 1453.26 635.35 1448.94 637.85"/><path class="cls-1" d="M1463.41,552.37c15.4-8.89,27.68-11.3,35.49-7.41l35.24,20.48c-7.82-3.89-20.09-1.48-35.49,7.41a93.5,93.5,0,0,0-44.9,60.38l-35.24-20.48A93.46,93.46,0,0,1,1463.41,552.37Z"/><path class="cls-2" d="M1503,539.77l35.24,20.48c-8.59-5-22.31-2.63-39.6,7.36A104.23,104.23,0,0,0,1454,619.53l-35.24-20.48a104.23,104.23,0,0,1,44.68-51.92C1480.68,537.15,1494.4,534.78,1503,539.77Z"/><polygon class="cls-2" points="1448.94 637.85 1413.7 617.37 1414.7 582.6 1449.94 603.08 1448.94 637.85"/><polygon class="cls-1" points="1424.22 742.62 1388.98 722.15 1388.62 597.65 1423.86 618.13 1424.22 742.62"/><polygon class="cls-1" points="1423.86 618.13 1388.62 597.65 1414.7 582.6 1449.94 603.08 1423.86 618.13"/><path class="cls-2" d="M1592.7,513.3c31.14-18,49.78-9.37,49.88,23l.24,85.35L1607.54,642l-.22-78.79c0-18-9.2-22.57-25.77-13-20.55,11.87-32.78,33.78-32.71,58.61l.19,67-35.28,20.37-.22-79.31c0-17.36-9.64-21.79-26.32-12.16-20.39,11.77-32.51,34-32.43,59.5l.19,65.92-35.28,20.37-.38-135,35.36-20.42-.7,24.43a104.23,104.23,0,0,1,44.68-51.92c23.86-13.78,40.92-13,47.09,1.51,7.21-22.51,23.94-42.52,47-55.83Zm45.54,105.76L1638,539c-.08-29.54-16.59-37-45.3-20.42-23.77,13.72-40.13,34.92-44.88,58.17l-.45,2.2-3.93,2.27-.34-2c-3.19-18.22-19.82-20.6-44.47-6.36a93.5,93.5,0,0,0-44.9,60.38l-.49,2.13-4.32,2.5,1-34.77-26.07,15,.35,124.49,26.16-15.1-.17-60.67c-.08-28.35,14.09-54.16,37-67.38,19.29-11.14,30.84-5.61,30.9,14.77l.21,74.07,26.15-15.1-.17-61.72a78.61,78.61,0,0,1,10.08-39,73.8,73.8,0,0,1,27.18-27.5c19.23-11.1,30.29-5.41,30.35,15.62l.21,73.54,26.15-15.1"/><path class="cls-1" d="M1592.72,518.53c28.71-16.57,45.21-9.13,45.3,20.42l.23,80.11-26.15,15.1-.21-73.54c-.06-21-11.12-26.72-30.35-15.62a73.8,73.8,0,0,0-27.18,27.5,78.53,78.53,0,0,0-10.08,39l.17,61.72-26.15,15.1-.21-74.07c-.06-20.39-11.61-25.91-30.9-14.77-22.9,13.22-37.06,39-37,67.38l.17,60.67-26.16,15.1-.35-124.49,26.07-15-1,34.77,4.32-2.5.49-2.13a93.46,93.46,0,0,1,44.9-60.38c24.65-14.23,41.28-11.85,44.47,6.36l.34,2,3.93-2.27.45-2.2c4.76-23.25,21.11-44.45,44.88-58.17Z"/><polygon class="cls-2" points="1419.67 750.5 1384.43 730.02 1384.05 595.04 1419.29 615.52 1419.67 750.5"/><polygon class="cls-2" points="1419.29 615.52 1384.05 595.04 1419.42 574.62 1454.65 595.1 1419.29 615.52"/><polygon class="cls-2" points="1364.38 777.17 1329.14 756.69 1355.07 741.72 1390.31 762.2 1364.38 777.17"/><polygon class="cls-2" points="1359.37 785.32 1324.13 764.84 1324.37 761.81 1359.61 782.29 1359.37 785.32"/><path class="cls-1" d="M1330.22,730c14,8.18,21.63,12.58,35.24,20.48,0,9.88-.65,20.86-1.08,26.67l-35.24-20.48C1329.56,750.88,1330.24,739.9,1330.22,730Z"/><path class="cls-2" d="M1359.61,782.29l-35.24-20.48c.2-2.52.7-9.16,1-16.75l35.24,20.48C1360.31,773.13,1359.81,779.77,1359.61,782.29Z"/><polygon class="cls-2" points="1361.13 750.37 1325.89 729.89 1330.21 727.4 1365.45 747.88 1361.13 750.37"/><polygon class="cls-1" points="1365.46 750.5 1330.22 730.02 1330.21 727.4 1365.45 747.88 1365.46 750.5"/><polygon class="cls-2" points="1360.69 752.58 1325.45 732.1 1325.89 729.89 1361.13 750.37 1360.69 752.58"/><polygon class="cls-2" points="1390.31 762.2 1355.07 741.72 1354.86 665.29 1390.1 685.77 1390.31 762.2"/><polygon class="cls-1" points="1364.02 727.66 1328.78 707.18 1328.76 702.19 1364 722.67 1364.02 727.66"/><path class="cls-2" d="M1270.78,818.36l-35.24-20.48a16.07,16.07,0,0,0,5.54,1.91c8.67,1.43,21.19-2.39,36.2-11.06,27.26-15.74,43.92-35.32,48.17-56.63l35.24,20.48c-4.26,21.31-20.91,40.89-48.17,56.63-15,8.67-27.53,12.49-36.2,11.06A16.28,16.28,0,0,1,1270.78,818.36Z"/><path class="cls-1" d="M1283.54,768.28c28-16.15,45.3-39.56,45.24-61.1L1364,727.66c.06,21.54-17.27,45-45.24,61.1-13.06,7.54-22.55,9.79-27.65,6.83l-35.24-20.48C1261,778.08,1270.48,775.83,1283.54,768.28Z"/><path class="cls-2" d="M1318.76,783.51,1283.52,763c25-14.45,40.59-34.72,40.69-53l35.24,20.48C1359.35,748.79,1343.8,769.06,1318.76,783.51Z"/><polygon class="cls-1" points="1363.97 710.06 1328.73 689.58 1328.69 677.76 1363.93 698.24 1363.97 710.06"/><polygon class="cls-2" points="1314.27 751.38 1279.03 730.91 1328.76 702.19 1364 722.67 1314.27 751.38"/><polygon class="cls-1" points="1311.5 740.35 1276.26 719.88 1328.73 689.58 1363.97 710.06 1311.5 740.35"/><polygon class="cls-2" points="1359.39 707.45 1324.15 686.97 1324.13 680.4 1359.37 700.88 1359.39 707.45"/><path class="cls-2" d="M1344.22,639.8l35.24,20.48c7,4.08,10.6,12.63,10.64,25.49l-35.24-20.48C1354.82,652.43,1351.25,643.89,1344.22,639.8Z"/><path class="cls-1" d="M1338.52,637.62a19.57,19.57,0,0,1,5.7,2.18l35.24,20.48a19.86,19.86,0,0,0-5.7-2.18Z"/><path class="cls-1" d="M1328.69,677.76c0-8.52-2.15-14-6.43-16.51l35.24,20.48c4.28,2.49,6.41,8,6.43,16.51Z"/><path class="cls-2" d="M1318.92,666.73l35.24,20.48c3.5,2,5.18,6.58,5.2,13.67l-35.24-20.48C1324.1,673.31,1322.42,668.77,1318.92,666.73Z"/><path class="cls-2" d="M1294.46,789.87l-35.24-20.48c4.24,2.46,12.68.35,24.3-6.36l35.24,20.48C1307.15,790.22,1298.7,792.33,1294.46,789.87Z"/><path class="cls-2" d="M1291.13,795.59l-35.24-20.48c-2.82-1.64-4.3-4.87-4.32-9.68l35.24,20.48C1286.82,790.72,1288.31,794,1291.13,795.59Z"/><path class="cls-1" d="M1323,638.13q8.88-2,15.48-.51l35.24,20.48q-6.59-1.46-15.48.51Z"/><polygon class="cls-2" points="1311.48 735.11 1276.24 714.63 1324.15 686.97 1359.39 707.45 1311.48 735.11"/><path class="cls-2" d="M1286.81,785.91l-35.24-20.48c0-12.37,9.2-24,27.46-34.53l35.24,20.48c-18.25,10.54-27.49,22.16-27.46,34.53Z"/><path class="cls-2" d="M1286.81,785.91c0-12.37,9.2-24,27.46-34.53L1364,722.67v5c.08,21.54-17.26,45-45.22,61.1-20.28,11.71-31.93,10.67-32-2.85Zm32-2.4c25-14.45,40.59-34.72,40.69-53l-45.17,26.08c-23,13.25-22.92,23.33-22.91,26.64,0,10,10.26,10.12,27.38.24"/><path class="cls-1" d="M1264.52,727.27q5.49-3.78,11.74-7.39L1307.39,738l4.11,2.39c-16.66,9.62-29.32,20.21-37.64,31.51-7.15,9.7-10.75,19.46-10.73,29,0,8.68,2.59,14.52,7.65,17.46l-35.24-20.48c-5.06-2.94-7.63-8.79-7.65-17.46,0-9.57,3.58-19.34,10.73-29,6.24-8.47,14.92-16.55,25.9-24.11l35.23,20.47-35.23-20.47Zm25,28.21h0l-.5-.29-.5-.29-.51-.29-.51-.3-.52-.3-.52-.3-.53-.31-.53-.31-.53-.31-.54-.31-.54-.31-.54-.32-.55-.32-.55-.32-.55-.32-.56-.32-1.68-1-1.7-1-1.72-1-1.73-1-1.73-1-1.73-1-1.73-1-1.72-1-1.71-1-1.7-1-1.68-1-1.65-1-1.62-.94-1.59-.92-1.55-.9-1.51-.88,1.51.88,1.55.9,1.59.92,1.62.94,1.65,1,1.68,1,1.7,1,1.71,1,1.72,1,1.73,1,1.73,1,1.73,1,1.73,1,1.72,1,1.7,1,1.68,1,.56.32.55.32.55.32.55.32.54.32.54.31.54.31.53.31.53.31.53.31.52.3.52.3.51.3.51.3.5.29.5.29h0"/><path class="cls-2" d="M1267.61,823.86l-35.24-20.48c-5.84-3.39-9-10.2-9-20.33,0-11.26,4.37-23.21,12.72-34.54,9.08-12.33,22.61-23.73,40.19-33.88l35.24,20.48c-17.58,10.15-31.11,21.55-40.19,33.88-8.36,11.34-12.76,23.28-12.72,34.54C1258.6,813.66,1261.77,820.46,1267.61,823.86Z"/><path class="cls-2" d="M1322.26,661.26l35.24,20.48c-6.1-3.55-16.59-1-31.59,7.69-30.38,17.54-34.87,35.62-34.85,44.84,0,.45,0,1.31.06,2.34l-35.24-20.48c-.05-1-.06-1.89-.06-2.34,0-9.21,4.47-27.3,34.85-44.84C1305.68,660.29,1316.16,657.71,1322.26,661.26Z"/><polygon class="cls-2" points="1267.37 750.32 1232.13 729.84 1255.88 716.13 1291.12 736.61 1267.37 750.32"/><path class="cls-1" d="M1323,638.13a3.17,3.17,0,0,1,.87.5l34.37,20C1349.47,660.55,1339,665,1327,672c-37.55,21.68-59.94,49.16-59.87,73.5,0,1.46.12,3.31.28,4.84l-35.24-20.48c-.16-1.53-.28-3.38-.28-4.84-.07-24.34,22.31-51.82,59.87-73.5,12-7,22.51-11.42,31.32-13.36Z"/><path class="cls-2" d="M1347.45,634.26l35.24,20.48c-11.31-6.57-30.33-2.68-55.75,12l-35.24-20.48C1317.12,631.57,1336.14,627.68,1347.45,634.26Z"/><polygon class="cls-2" points="1263.47 757.82 1228.23 737.34 1227.9 735.35 1263.14 755.83 1263.47 757.82"/><path class="cls-2" d="M1326.94,666.73c42.94-24.79,67.61-18.81,67.71,16.4l.23,81.68-35.52,20.51.24-3c.2-2.52.7-9.16,1-16.75-6.54,15-20.22,32.83-48.09,48.92-33.21,19.18-53.89,15-54-10.93,0-11.26,4.37-23.21,12.72-34.54,9.08-12.33,22.61-23.73,40.19-33.88l47.9-27.66,0-6.57c0-17.62-10.36-19.54-33.44-6.21-11.33,6.54-30.35,20.05-30.3,37a32.42,32.42,0,0,0,.26,4.46l.4,2.78-32.82,19-.33-2a56,56,0,0,1-.6-7.72c0-13.72,6.07-28.6,17.67-43,11.16-13.88,27.33-27.14,46.74-38.35Zm63.37,95.46-.22-76.43c0-16-5.55-25.28-16.34-27.67s-26.67,2.25-46.8,13.87c-37.55,21.68-59.94,49.16-59.87,73.5,0,1.46.12,3.31.28,4.84l23.74-13.71c0-1-.06-1.89-.06-2.34,0-9.21,4.47-27.3,34.85-44.84,25.53-14.74,38-11.86,38,8.81l0,11.82-52.47,30.29c-16.66,9.62-29.32,20.21-37.64,31.51-7.15,9.7-10.75,19.46-10.73,29,0,11.42,4.47,17.94,13.19,19.38s21.19-2.39,36.2-11.06c27.26-15.74,43.92-35.32,48.17-56.63l.44-2.21,4.32-2.49v2.62c0,9.88-.64,20.86-1.07,26.67l25.93-15"/><path class="cls-2" d="M1263.14,755.83l-35.24-20.48a56,56,0,0,1-.6-7.72c0-13.72,6.07-28.6,17.67-43,11.16-13.88,27.33-27.14,46.74-38.35L1327,666.74c-19.42,11.21-35.58,24.47-46.74,38.35-11.6,14.42-17.71,29.3-17.67,43A56,56,0,0,0,1263.14,755.83Z"/><path class="cls-1" d="M1373.76,658.1c10.8,2.39,16.3,11.7,16.34,27.67l.22,76.43-25.93,15c.42-5.81,1.1-16.79,1.08-26.67v-2.62l-4.32,2.49-.44,2.21c-4.26,21.31-20.91,40.89-48.17,56.63-15,8.67-27.53,12.49-36.2,11.06s-13.16-8-13.19-19.38c0-9.57,3.58-19.34,10.73-29,8.32-11.29,21-21.89,37.64-31.51L1364,710.05l0-11.82c-.06-20.67-12.49-23.56-38-8.81-30.38,17.54-34.87,35.62-34.85,44.84,0,.45,0,1.31.06,2.34l-23.74,13.71c-.16-1.53-.28-3.38-.28-4.84-.07-24.34,22.31-51.82,59.87-73.5,20.13-11.62,35.88-16.29,46.8-13.87ZM1364,727.66v-5l-49.74,28.71c-18.25,10.54-27.49,22.16-27.46,34.53,0,13.51,11.69,14.56,32,2.85,28-16.15,45.3-39.56,45.24-61.1"/><polygon class="cls-2" points="1211.52 808.34 1176.28 787.87 1199.64 774.38 1234.88 794.86 1211.52 808.34"/><polygon class="cls-2" points="1206.38 816.56 1171.14 796.09 1171.46 792.94 1206.7 813.42 1206.38 816.56"/><path class="cls-2" d="M1189.94,723.24l35.24,20.48c7,4.08,10.73,13.79,10.77,28.94,0,6.67-.52,15.61-1.08,22.2l-35.24-20.48c.55-6.59,1.09-15.53,1.08-22.2C1200.67,737,1197,727.33,1189.94,723.24Z"/><path class="cls-1" d="M1189.44,723l.5.28,35.24,20.48c-.16-.1-.33-.19-.5-.28Z"/><path class="cls-1" d="M1177,772.42c0-11.64-2.57-18.92-7.57-21.83l35.24,20.48c5,2.91,7.54,10.2,7.57,21.83,0,5.18-.36,10.86-.77,15.44l-35.24-20.48C1176.68,783.27,1177.05,777.6,1177,772.42Z"/><path class="cls-2" d="M1166.33,756l35.24,20.48c4.16,2.42,6.13,8.71,6.16,19,0,6.16-.55,13.13-1,17.89l-35.24-20.48c.48-4.76,1-11.72,1-17.89C1172.46,764.73,1170.49,758.44,1166.33,756Z"/><polygon class="cls-2" points="1117.04 919.97 1081.8 899.49 1107.96 884.39 1143.2 904.87 1117.04 919.97"/><polygon class="cls-2" points="1143.2 904.87 1107.96 884.39 1107.81 830.28 1143.05 850.76 1143.2 904.87"/><path class="cls-1" d="M1157.33,729.08c13.94-8.05,24.76-10,32.11-6.11l35.24,20.48c-7.35-3.91-18.17-1.93-32.11,6.11Z"/><path class="cls-2" d="M1193.18,717.7l35.24,20.48c-8.19-4.76-20.34-2.82-35.86,6.14l-35.24-20.48C1172.84,714.88,1185,712.94,1193.18,717.7Z"/><path class="cls-2" d="M1169.47,750.59l35.24,20.48q-7.34-4.26-21.68,4c-24.75,14.29-40.07,43.29-40,75.69l-35.24-20.48c-.09-32.4,15.23-61.4,40-75.69Q1162.13,746.32,1169.47,750.59Z"/><polygon class="cls-1" points="1146.09 815.86 1110.85 795.38 1111.34 793.24 1146.58 813.72 1146.09 815.86"/><polygon class="cls-1" points="1141.78 818.35 1106.54 797.87 1110.85 795.38 1146.09 815.86 1141.78 818.35"/><path class="cls-1" d="M1146.58,813.72l-35.24-20.48c6.75-29.2,21.79-50.19,46-64.16l35.24,20.48C1168.37,763.53,1153.33,784.53,1146.58,813.72Z"/><path class="cls-2" d="M1146.77,799.27l-35.24-20.48c8.77-24,24.12-42.44,45.79-54.95l35.24,20.48C1170.89,756.83,1155.54,775.27,1146.77,799.27Z"/><polygon class="cls-2" points="1141.78 818.35 1106.54 797.87 1107.53 759.94 1142.77 780.42 1141.78 818.35"/><polygon class="cls-1" points="1117.04 919.97 1081.8 899.49 1081.45 775 1116.69 795.48 1117.04 919.97"/><path class="cls-1" d="M1192.57,749.56c27.89-16.1,43.29-7.89,43.38,23.1,0,6.67-.52,15.61-1.08,22.2l-23.36,13.49c.41-4.59.78-10.26.77-15.44-.07-23-9.91-29-29.26-17.83-24.75,14.29-40.07,43.29-40,75.69l.15,54.11L1117,920l-.35-124.49,26.08-15.06-1,37.93,4.31-2.49.49-2.14c6.75-29.2,21.79-50.19,46-64.16Z"/><polygon class="cls-1" points="1116.69 795.48 1081.45 775 1107.53 759.94 1142.77 780.42 1116.69 795.48"/><polygon class="cls-2" points="1112.5 927.85 1077.26 907.37 1076.88 772.39 1112.12 792.86 1112.5 927.85"/><path class="cls-2" d="M1192.56,744.32c30.38-17.54,47.86-8.18,48,25.7,0,7.76-.7,18.46-1.32,25.26l-.22,2.46-32.6,18.82.32-3.14c.48-4.76,1-11.72,1-17.89-.06-20.34-7.67-25-24.68-15.22-22.27,12.86-35.52,38.21-35.43,67.81l.17,59.35-35.28,20.37-.38-135,35.36-20.41-.7,26.82c8.77-24,24.12-42.44,45.79-54.95Zm42.32,50.54c.55-6.59,1.09-15.53,1.08-22.2-.09-31-15.49-39.2-43.38-23.1-24.2,14-39.24,35-46,64.16l-.49,2.14-4.31,2.49,1-37.93-26.08,15.06.35,124.49,26.16-15.1-.15-54.11c-.09-32.4,15.23-61.4,40-75.69,19.35-11.17,29.19-5.17,29.26,17.83,0,5.18-.36,10.86-.77,15.44l23.36-13.49"/><polygon class="cls-2" points="1112.12 792.86 1076.88 772.39 1112.24 751.97 1147.48 772.45 1112.12 792.86"/><polygon class="cls-2" points="1076.36 871.39 1041.12 850.91 1041.07 834.09 1076.31 854.57 1076.36 871.39"/><polygon class="cls-2" points="974.16 1002.47 938.92 981.99 967.26 965.62 1002.5 986.1 974.16 1002.47"/><polygon class="cls-2" points="1002.3 914.14 967.06 893.67 1041.12 850.91 1076.36 871.39 1002.3 914.14"/><polygon class="cls-1" points="1002.25 897.32 967.01 876.84 1041.07 834.09 1076.31 854.57 1002.25 897.32"/><polygon class="cls-2" points="1006.8 889.45 971.56 868.97 1045.61 826.22 1080.85 846.7 1006.8 889.45"/><polygon class="cls-2" points="1002.25 897.32 967.01 876.84 966.85 819.08 1002.09 839.55 1002.25 897.32"/><polygon class="cls-2" points="1002.09 839.55 966.85 819.08 1054.62 768.4 1089.86 788.88 1002.09 839.55"/><polygon class="cls-1" points="973.68 834.9 938.44 814.42 1054.56 747.38 1089.8 767.86 973.68 834.9"/><polygon class="cls-2" points="1089.86 788.88 1054.62 768.4 1054.56 747.38 1089.8 767.86 1089.86 788.88"/><polygon class="cls-2" points="1002.5 986.1 967.26 965.62 967.06 893.67 1002.3 914.14 1002.5 986.1"/><polygon class="cls-1" points="974.16 1002.47 938.92 981.99 938.44 814.42 973.68 834.9 974.16 1002.47"/><path class="cls-2" d="M1094.43,791.49l-87.76,50.67.13,47.28,74-42.75.08,27.3-74.05,42.75.2,72-37.47,21.63-.5-178.06L1094.34,760l.09,31.51Zm-18.12,63.07-74.06,42.76-.16-57.77,87.77-50.67-.06-21-116.12,67,.48,167.56,28.35-16.37-.2-72,74.06-42.76,0-16.82"/><polygon class="cls-1" points="1089.8 767.86 1089.86 788.88 1002.09 839.55 1002.25 897.32 1076.31 854.57 1076.36 871.39 1002.3 914.14 1002.5 986.1 974.16 1002.47 973.68 834.9 1089.8 767.86"/><polygon class="cls-2" points="969.11 832.29 933.87 811.81 1059.1 739.51 1094.34 759.98 969.11 832.29"/><polygon class="cls-2" points="969.61 1010.34 934.37 989.87 933.87 811.81 969.11 832.29 969.61 1010.34"/><path class="cls-2" d="M125.11,59.47,125,58.8l-2.88.67.15.67a31.57,31.57,0,0,1-9.36,30.43,31.91,31.91,0,0,1-11.08,6.7,32.74,32.74,0,0,1-12.88,1.8,32.35,32.35,0,0,1-12.5-3.44A31.64,31.64,0,0,1,66.3,87.54a5.23,5.23,0,0,0,0-6.52,5.27,5.27,0,0,0-2.92-1.83,5.5,5.5,0,0,0-3.44.37,5.17,5.17,0,0,0-2.8,5.84,5.41,5.41,0,0,0,1.83,2.92,5.22,5.22,0,0,0,3.26,1.12,5.16,5.16,0,0,0,1.68-.26,34.89,34.89,0,0,0,11.57,9.21A35.66,35.66,0,0,0,89.81,102H91a35,35,0,0,0,34.14-27.14,33.48,33.48,0,0,0,0-15.42h0ZM64.5,84.33a2.54,2.54,0,0,1-.37,1.27,2.18,2.18,0,0,1-1,.82,2.28,2.28,0,0,1-2.47-.53A2.43,2.43,0,0,1,60,84.73a2.25,2.25,0,0,1,.15-1.31,2.3,2.3,0,0,1,.86-1A2.2,2.2,0,0,1,62.29,82a2.33,2.33,0,0,1,1.61.67,3,3,0,0,1,.6,1.61h0Z"/><path class="cls-2" d="M113.39,62.58a22.71,22.71,0,0,0-10.11-14.3,22.93,22.93,0,0,0-25.86.86,5.58,5.58,0,0,0-2.55-.71H74.8A5.3,5.3,0,0,0,71.17,50a5.13,5.13,0,0,0-1.5,3.63,5.22,5.22,0,0,0,1.46,3.63,5.47,5.47,0,0,0,3.59,1.61h.07a5.17,5.17,0,0,0,2.58-.67,5.33,5.33,0,0,0,1.91-1.83A5.49,5.49,0,0,0,80,53.82a5.11,5.11,0,0,0-.6-2.58,20.32,20.32,0,0,1,13-3.56,20.1,20.1,0,0,1,12.32,5.43,19.81,19.81,0,0,1-7.45,33.24,20.31,20.31,0,0,1-13.48-.26A19.84,19.84,0,0,1,71.12,64.27l.11-.67-2.85-.49-.11.67A22.84,22.84,0,0,0,81.71,88.41a23.13,23.13,0,0,0,27.37-6.85,22.49,22.49,0,0,0,4.3-9,23.55,23.55,0,0,0,0-10h0Zm-37-7.3a2.16,2.16,0,0,1-3.14-.07,2,2,0,0,1-.6-1.57,2.31,2.31,0,0,1,.64-1.57,2.38,2.38,0,0,1,1.53-.71h0a2.23,2.23,0,0,1,1.27.41,2.18,2.18,0,0,1,.82,1A2.24,2.24,0,0,1,77,54.09a3.12,3.12,0,0,1-.67,1.2h0Z"/><path class="cls-2" d="M119.12,44.35a5.54,5.54,0,0,0-1.91.37A34.85,34.85,0,0,0,59.55,52.8a34.26,34.26,0,0,0-2.4,22.31l.11.41L59.62,75l-.07-.41A32,32,0,0,1,76.24,38.8a32.5,32.5,0,0,1,39,7.37,4.94,4.94,0,0,0-1.12,3.11A5,5,0,0,0,115,52a4.87,4.87,0,0,0,2.25,1.83,4.73,4.73,0,0,0,2.88.26,5,5,0,0,0,2.55-1.35A4.7,4.7,0,0,0,124,50.2a5,5,0,0,0-.3-2.85,4.82,4.82,0,0,0-1.83-2.21,5,5,0,0,0-2.73-.82Zm0,7.49a2.65,2.65,0,0,1-1.42-.41,2.59,2.59,0,0,1-1.09-2.62,2.62,2.62,0,0,1,2-2,2.59,2.59,0,0,1,1.5.15,2.55,2.55,0,0,1,1.16.94,2.12,2.12,0,0,1,.41,1.42,2.53,2.53,0,0,1-.75,1.8,2.6,2.6,0,0,1-1.83.75Z"/><path class="cls-2" d="M57.05,75.83l-.15-.67a35,35,0,0,1-.86-9,34.45,34.45,0,0,1,6.7-19.32,35.13,35.13,0,0,1,54.54-2.43,5.28,5.28,0,0,1,6,1.65,5.29,5.29,0,0,1,1.12,3.07,5.12,5.12,0,0,1-.94,3.11,5.25,5.25,0,0,1-2.62,2,5.41,5.41,0,0,1-3.26,0,5.28,5.28,0,0,1-2.66-1.91,5.21,5.21,0,0,1,0-6.22,31.85,31.85,0,0,0-10.29-7.67,31.44,31.44,0,0,0-12.5-3A32.19,32.19,0,0,0,77.9,38.3,31.88,31.88,0,0,0,59.85,60a32,32,0,0,0,0,14.45l.15.67L57,75.84ZM91,33.15a34.49,34.49,0,0,0-34.4,33.06,35.86,35.86,0,0,0,.82,8.87l0,.15,1.83-.41,0-.19a32.75,32.75,0,0,1,0-14.41,32.38,32.38,0,0,1,17.63-22A33,33,0,0,1,91,35h1.12a32.49,32.49,0,0,1,12.84,3.07A32,32,0,0,1,115.44,46l.15.19-.15.19a4.65,4.65,0,0,0,0,5.84A4.69,4.69,0,0,0,118,53.87a4.73,4.73,0,0,0,5.28-2.51A4.69,4.69,0,0,0,122,45.67a4.65,4.65,0,0,0-2.92-1,4.44,4.44,0,0,0-1.83.37l-.19.07-.11-.15a34.37,34.37,0,0,0-11.19-8.42A35.18,35.18,0,0,0,92.12,33.2a10.58,10.58,0,0,0-1.16,0Zm28.15,18.94a2.59,2.59,0,0,1-1.57-.49,3,3,0,0,1-1-1.27,2.64,2.64,0,0,1-.15-1.61,2.73,2.73,0,0,1,.79-1.46,2.88,2.88,0,0,1,1.46-.79,3,3,0,0,1,1.65.15,2.66,2.66,0,0,1,1.27,1.05,2.88,2.88,0,0,1,.49,1.57,2.8,2.8,0,0,1-.82,2,3,3,0,0,1-2.06.86Zm0-5.05A2.31,2.31,0,0,0,117,48.42a2.28,2.28,0,0,0,.53,2.47,2.82,2.82,0,0,0,1.16.64,2.63,2.63,0,0,0,1.31-.11,2.22,2.22,0,0,0,1-.82,2.54,2.54,0,0,0,.37-1.27,2.17,2.17,0,0,0-.67-1.61,2,2,0,0,0-1.57-.67Z"/><circle class="cls-2" cx="79.85" cy="66.1" r="3.03"/><circle class="cls-2" cx="101.15" cy="66.58" r="3.03"/><path class="cls-7" d="M96,69.65a4.83,4.83,0,0,1-9.66,0"/><path class="cls-8" d="M153,64.76V38.65h9.56a10.21,10.21,0,0,1,4.6.91A6.38,6.38,0,0,1,169.86,42a6.82,6.82,0,0,1,.9,3.49,5.76,5.76,0,0,1-.6,2.75,4.86,4.86,0,0,1-1.6,1.79,6.91,6.91,0,0,1-2.2,1v.25a5.18,5.18,0,0,1,2.54.84A6,6,0,0,1,171,54.3a7.47,7.47,0,0,1-.12,7A6.35,6.35,0,0,1,168,63.84a11.6,11.6,0,0,1-5,.92H153ZM156.91,50h5.28a5.47,5.47,0,0,0,2.39-.51,4.32,4.32,0,0,0,1.7-1.43,3.81,3.81,0,0,0,.63-2.19,3.67,3.67,0,0,0-1.13-2.72A4.86,4.86,0,0,0,162.3,42h-5.38v7.94Zm0,11.44h5.69a6,6,0,0,0,4.05-1.1,3.52,3.52,0,0,0,1.22-2.74,4.32,4.32,0,0,0-2.4-3.91,5.73,5.73,0,0,0-2.73-.61h-5.83v8.36Z"/><path class="cls-8" d="M184.59,65.16a9.63,9.63,0,0,1-5-1.24,8.27,8.27,0,0,1-3.21-3.51,13,13,0,0,1,0-10.61,8.44,8.44,0,0,1,7.92-4.87,9.46,9.46,0,0,1,3.21.55,7.8,7.8,0,0,1,2.79,1.72,8.22,8.22,0,0,1,2,3,12.67,12.67,0,0,1,.71,4.53v1.35H177.41V53.26h11.83a5.65,5.65,0,0,0-.61-2.67,4.67,4.67,0,0,0-1.71-1.84,4.86,4.86,0,0,0-2.58-.67,5,5,0,0,0-2.8.78,5.31,5.31,0,0,0-1.84,2,5.89,5.89,0,0,0-.64,2.72v2.23a7.39,7.39,0,0,0,.69,3.34,4.88,4.88,0,0,0,1.94,2.1,5.75,5.75,0,0,0,2.92.72,6,6,0,0,0,2-.31,4.18,4.18,0,0,0,1.54-.94,4,4,0,0,0,1-1.54l3.61.65a6.63,6.63,0,0,1-1.55,2.79,7.53,7.53,0,0,1-2.79,1.85,10.37,10.37,0,0,1-3.82.66Z"/><path class="cls-8" d="M206.38,45.18v3.06h-10.7V45.18Zm-7.83-4.69h3.81V59a3.31,3.31,0,0,0,.33,1.66,1.68,1.68,0,0,0,.86.75,3.31,3.31,0,0,0,1.15.2,4.66,4.66,0,0,0,.8-.06l.54-.1.69,3.15a8.12,8.12,0,0,1-.94.26,7.9,7.9,0,0,1-1.53.15,6.54,6.54,0,0,1-2.8-.54,4.73,4.73,0,0,1-2.1-1.73,5.05,5.05,0,0,1-.8-3V40.49Z"/><path class="cls-8" d="M219.72,45.18v3.06H209V45.18Zm-7.83-4.69h3.81V59a3.31,3.31,0,0,0,.33,1.66,1.68,1.68,0,0,0,.86.75,3.31,3.31,0,0,0,1.15.2,4.66,4.66,0,0,0,.8-.06l.54-.1.69,3.15a8.12,8.12,0,0,1-.94.26,7.9,7.9,0,0,1-1.53.15,6.54,6.54,0,0,1-2.8-.54,4.73,4.73,0,0,1-2.1-1.73,5.05,5.05,0,0,1-.8-3V40.49Z"/><path class="cls-8" d="M232.17,65.16a9.63,9.63,0,0,1-5-1.24A8.27,8.27,0,0,1,224,60.41a13,13,0,0,1,0-10.61,8.44,8.44,0,0,1,7.92-4.87,9.46,9.46,0,0,1,3.21.55,7.8,7.8,0,0,1,2.79,1.72,8.22,8.22,0,0,1,1.95,3,12.67,12.67,0,0,1,.71,4.53v1.35H225V53.26h11.83a5.65,5.65,0,0,0-.61-2.67,4.67,4.67,0,0,0-1.71-1.84,4.86,4.86,0,0,0-2.58-.67,5,5,0,0,0-2.8.78,5.31,5.31,0,0,0-1.84,2,5.89,5.89,0,0,0-.64,2.72v2.23a7.39,7.39,0,0,0,.69,3.34,4.88,4.88,0,0,0,1.94,2.1,5.75,5.75,0,0,0,2.92.72,6,6,0,0,0,2-.31,4.18,4.18,0,0,0,1.54-.94,4,4,0,0,0,1-1.54l3.61.65a6.63,6.63,0,0,1-1.55,2.79A7.53,7.53,0,0,1,236,64.51a10.37,10.37,0,0,1-3.82.66Z"/><path class="cls-8" d="M244.81,64.76V45.18h3.68v3.11h.2a4.81,4.81,0,0,1,1.89-2.49,5.39,5.39,0,0,1,3.08-.91c.24,0,.52,0,.85,0l.77.06v3.65c-.15,0-.42-.09-.82-.15a7.76,7.76,0,0,0-1.17-.08,5,5,0,0,0-2.4.57,4.26,4.26,0,0,0-2.27,3.85v12h-3.81Z"/><path class="cls-8" d="M273.54,64.76,266.3,38.65h4.14l5.09,20.22h.24l5.29-20.22h4.1l5.29,20.23h.24l5.07-20.23h4.16l-7.25,26.11h-4l-5.5-19.56H283l-5.5,19.56h-4Z"/><path class="cls-8" d="M309.56,65.16a9,9,0,0,1-4.81-1.26,8.53,8.53,0,0,1-3.19-3.53,11.66,11.66,0,0,1-1.13-5.3,12,12,0,0,1,1.13-5.33,8.5,8.5,0,0,1,3.19-3.54,9.81,9.81,0,0,1,9.62,0,8.5,8.5,0,0,1,3.19,3.54,11.79,11.79,0,0,1,1.13,5.33,11.76,11.76,0,0,1-1.13,5.3,8.47,8.47,0,0,1-3.19,3.53A9,9,0,0,1,309.56,65.16Zm0-3.2a4.56,4.56,0,0,0,3-.94,5.63,5.63,0,0,0,1.74-2.51,10.76,10.76,0,0,0,0-6.91,5.69,5.69,0,0,0-1.74-2.53,4.52,4.52,0,0,0-3-1,4.59,4.59,0,0,0-3,1,5.63,5.63,0,0,0-1.75,2.53,10.76,10.76,0,0,0,0,6.91A5.57,5.57,0,0,0,306.59,61,4.62,4.62,0,0,0,309.57,62Z"/><path class="cls-8" d="M322.93,64.76V45.18h3.68v3.11h.2a4.81,4.81,0,0,1,1.89-2.49,5.39,5.39,0,0,1,3.08-.91c.24,0,.52,0,.85,0l.77.06v3.65c-.15,0-.42-.09-.82-.15a7.76,7.76,0,0,0-1.17-.08A5,5,0,0,0,329,49a4.26,4.26,0,0,0-2.27,3.85v12h-3.81Z"/><path class="cls-8" d="M340.54,38.65V64.76h-3.81V38.65Z"/><path class="cls-8" d="M353,65.15a7.57,7.57,0,0,1-4.23-1.22,8.1,8.1,0,0,1-2.91-3.48A12.84,12.84,0,0,1,344.8,55a12.61,12.61,0,0,1,1.06-5.43,8.15,8.15,0,0,1,2.93-3.46,7.62,7.62,0,0,1,4.22-1.2,6.09,6.09,0,0,1,2.94.61,5.28,5.28,0,0,1,1.73,1.41,12.74,12.74,0,0,1,1,1.42h.23v-9.7h3.81V64.77H359v-3h-.32a10.42,10.42,0,0,1-1,1.43,5.55,5.55,0,0,1-1.77,1.4,6.17,6.17,0,0,1-2.91.6Zm.84-3.25a4.48,4.48,0,0,0,2.79-.87,5.32,5.32,0,0,0,1.73-2.43,10,10,0,0,0,.59-3.62,9.89,9.89,0,0,0-.59-3.57A5.2,5.2,0,0,0,356.63,49a4.53,4.53,0,0,0-2.81-.85,4.63,4.63,0,0,0-2.87.89,5.48,5.48,0,0,0-1.73,2.43,9.77,9.77,0,0,0-.58,3.48,10.09,10.09,0,0,0,.59,3.53A5.58,5.58,0,0,0,351,61a4.44,4.44,0,0,0,2.85.91Z"/><path class="cls-8" d="M168.18,95.28,153.52,80.62l2.41-2.41,14.66,14.66Zm-12.25,0-2.41-2.41,14.66-14.66,2.41,2.41Z"/><path class="cls-8" d="M194.84,99.61h-8.45V73.5h8.72a13.14,13.14,0,0,1,6.59,1.56,10.5,10.5,0,0,1,4.23,4.47,17.27,17.27,0,0,1,0,14A10.5,10.5,0,0,1,201.62,98a13.65,13.65,0,0,1-6.78,1.57Zm-4.51-3.44h4.3a9.92,9.92,0,0,0,5-1.13,7,7,0,0,0,3-3.28,12.65,12.65,0,0,0,1-5.25,12.42,12.42,0,0,0-1-5.21,7,7,0,0,0-2.9-3.25,9.44,9.44,0,0,0-4.78-1.11h-4.54V96.17Z"/><path class="cls-8" d="M220.43,100a9.63,9.63,0,0,1-5-1.24,8.27,8.27,0,0,1-3.21-3.51,13,13,0,0,1,0-10.61,8.44,8.44,0,0,1,7.92-4.87,9.46,9.46,0,0,1,3.21.55,7.8,7.8,0,0,1,2.79,1.72,8.22,8.22,0,0,1,2,3,12.67,12.67,0,0,1,.71,4.53V91H213.25V88.11h11.83a5.65,5.65,0,0,0-.61-2.67,4.67,4.67,0,0,0-1.71-1.84,4.86,4.86,0,0,0-2.58-.67,5,5,0,0,0-2.8.78,5.31,5.31,0,0,0-1.84,2,5.89,5.89,0,0,0-.64,2.72V90.7a7.39,7.39,0,0,0,.69,3.34,4.88,4.88,0,0,0,1.94,2.1,5.75,5.75,0,0,0,2.92.72,6,6,0,0,0,2-.31,4.18,4.18,0,0,0,1.54-.94,4,4,0,0,0,1-1.54l3.61.65A6.63,6.63,0,0,1,227,97.51a7.53,7.53,0,0,1-2.79,1.85,10.37,10.37,0,0,1-3.82.66Z"/><path class="cls-8" d="M247.75,84.81l-3.46.61a4.3,4.3,0,0,0-.68-1.26,3.39,3.39,0,0,0-1.26-1,4.63,4.63,0,0,0-2-.38,4.76,4.76,0,0,0-2.7.72,2.16,2.16,0,0,0-1.08,1.85,1.94,1.94,0,0,0,.73,1.58,5.86,5.86,0,0,0,2.35,1l3.11.71a8.35,8.35,0,0,1,4,1.93A4.54,4.54,0,0,1,248.14,94a5.16,5.16,0,0,1-1,3.13,6.75,6.75,0,0,1-2.82,2.15,10.43,10.43,0,0,1-4.18.78,9.4,9.4,0,0,1-5.37-1.41,5.89,5.89,0,0,1-2.55-4l3.68-.56a3.48,3.48,0,0,0,1.42,2.17,4.82,4.82,0,0,0,2.79.73,5.17,5.17,0,0,0,3-.78,2.28,2.28,0,0,0,1.12-1.92,2,2,0,0,0-.68-1.54,4.58,4.58,0,0,0-2.08-.94L238.15,91a7.94,7.94,0,0,1-4.05-2,4.8,4.8,0,0,1-1.31-3.46,4.88,4.88,0,0,1,1-3,6.48,6.48,0,0,1,2.68-2,9.81,9.81,0,0,1,3.91-.73,8.18,8.18,0,0,1,5,1.37,6.41,6.41,0,0,1,2.41,3.67Z"/><path class="cls-8" d="M254.24,77a2.37,2.37,0,0,1-1.7-.67,2.17,2.17,0,0,1,0-3.21,2.49,2.49,0,0,1,3.4,0,2.17,2.17,0,0,1,0,3.21,2.37,2.37,0,0,1-1.7.67Zm-1.93,22.6V80h3.81V99.61Z"/><path class="cls-8" d="M269.46,107.37a11.66,11.66,0,0,1-4-.61,7.73,7.73,0,0,1-2.73-1.62,6.74,6.74,0,0,1-1.58-2.21l3.28-1.35a8.54,8.54,0,0,0,.92,1.19,4.78,4.78,0,0,0,1.58,1.08,6.35,6.35,0,0,0,2.58.45,5.85,5.85,0,0,0,3.58-1,3.91,3.91,0,0,0,1.42-3.35V96.05h-.24a8.73,8.73,0,0,1-1,1.39,5.55,5.55,0,0,1-1.77,1.33,6.47,6.47,0,0,1-2.92.56,8.07,8.07,0,0,1-4.18-1.09A7.56,7.56,0,0,1,261.47,95a11.57,11.57,0,0,1-1.08-5.26,12.3,12.3,0,0,1,1.06-5.35A8,8,0,0,1,264.38,81a7.7,7.7,0,0,1,4.22-1.19,6.13,6.13,0,0,1,2.95.61,5.37,5.37,0,0,1,1.75,1.41,11.93,11.93,0,0,1,1,1.42h.28V80.06h3.74v20a6.51,6.51,0,0,1-4.34,6.54,12.26,12.26,0,0,1-4.49.78Zm0-11.21a4.92,4.92,0,0,0,2.79-.77,4.7,4.7,0,0,0,1.73-2.22,9,9,0,0,0,.59-3.47,9.42,9.42,0,0,0-.59-3.48,5.16,5.16,0,0,0-1.72-2.35,5.07,5.07,0,0,0-5.68,0,5.44,5.44,0,0,0-1.73,2.4,9.35,9.35,0,0,0-.58,3.39,9.14,9.14,0,0,0,.59,3.38,4.94,4.94,0,0,0,1.74,2.27,4.84,4.84,0,0,0,2.85.82Z"/><path class="cls-8" d="M287.22,88V99.62h-3.81V80h3.66v3.19h.24a5.6,5.6,0,0,1,2.12-2.5,6.53,6.53,0,0,1,3.65-.94,7.23,7.23,0,0,1,3.51.83,5.66,5.66,0,0,1,2.33,2.48,9,9,0,0,1,.83,4.07V99.63h-3.81v-12a4.72,4.72,0,0,0-1.11-3.33,4,4,0,0,0-3.05-1.21,4.75,4.75,0,0,0-2.35.57,4.1,4.1,0,0,0-1.62,1.68,5.5,5.5,0,0,0-.59,2.66Z"/><path class="cls-2" d="M1367,1185.37v11.18h-3.67v-25.11h3.62v9.34h.23a5.49,5.49,0,0,1,2-2.42,6.35,6.35,0,0,1,3.56-.9,7,7,0,0,1,3.39.8,5.46,5.46,0,0,1,2.26,2.37,8.54,8.54,0,0,1,.8,3.93v12h-3.67V1185a4.57,4.57,0,0,0-1.07-3.22,3.87,3.87,0,0,0-3-1.15,4.76,4.76,0,0,0-2.32.55,4,4,0,0,0-1.61,1.61,5.21,5.21,0,0,0-.58,2.56Z"/><path class="cls-2" d="M1392.22,1196.93a9.16,9.16,0,0,1-4.79-1.2,7.94,7.94,0,0,1-3.09-3.37,12.61,12.61,0,0,1,0-10.21,8.11,8.11,0,0,1,7.62-4.69,9.29,9.29,0,0,1,3.09.53,7.3,7.3,0,0,1,2.68,1.66,7.88,7.88,0,0,1,1.88,2.92,12.2,12.2,0,0,1,.69,4.36v1.3h-15v-2.75h11.38a5.5,5.5,0,0,0-.59-2.57,4.4,4.4,0,0,0-1.65-1.77,4.7,4.7,0,0,0-2.48-.65,4.79,4.79,0,0,0-2.69.75,5.21,5.21,0,0,0-1.77,2,5.56,5.56,0,0,0-.62,2.62V1188a7,7,0,0,0,.67,3.21,4.82,4.82,0,0,0,1.87,2,5.55,5.55,0,0,0,2.81.69,5.74,5.74,0,0,0,1.9-.3,4,4,0,0,0,1.48-.9,3.87,3.87,0,0,0,1-1.48l3.47.63a6.29,6.29,0,0,1-1.49,2.68,7.32,7.32,0,0,1-2.68,1.78,10.05,10.05,0,0,1-3.67.63Z"/><path class="cls-2" d="M1408.05,1171.44v25.11h-3.67v-25.11Z"/><path class="cls-2" d="M1416.64,1171.44v25.11H1413v-25.11Z"/><path class="cls-2" d="M1429.5,1196.93a8.6,8.6,0,0,1-4.62-1.21,8.17,8.17,0,0,1-3.07-3.4,11.24,11.24,0,0,1-1.09-5.1,11.35,11.35,0,0,1,1.09-5.12,8.2,8.2,0,0,1,3.07-3.41,8.65,8.65,0,0,1,4.62-1.21,8.74,8.74,0,0,1,4.62,1.21,8.11,8.11,0,0,1,3.06,3.41,11.32,11.32,0,0,1,1.09,5.12,11.21,11.21,0,0,1-1.09,5.1,8.21,8.21,0,0,1-3.06,3.4A8.65,8.65,0,0,1,1429.5,1196.93Zm0-3.08a4.36,4.36,0,0,0,2.84-.91,5.3,5.3,0,0,0,1.67-2.42,10.48,10.48,0,0,0,0-6.64,5.39,5.39,0,0,0-1.67-2.43,4.36,4.36,0,0,0-2.84-.92,4.42,4.42,0,0,0-2.86.92,5.33,5.33,0,0,0-1.68,2.43,9.84,9.84,0,0,0-.55,3.32,9.56,9.56,0,0,0,.55,3.32,5.3,5.3,0,0,0,1.68,2.42A4.41,4.41,0,0,0,1429.51,1193.85Z"/><path class="cls-2" d="M1457.47,1203.38a20,20,0,0,1-6.74-1,12.6,12.6,0,0,1-8-7.95,19.72,19.72,0,0,1-1-6.63,18.77,18.77,0,0,1,1-6.52,13.47,13.47,0,0,1,3.07-4.93,13.32,13.32,0,0,1,4.91-3.12,18.7,18.7,0,0,1,6.57-1.08,15.94,15.94,0,0,1,6.2,1.1,12.73,12.73,0,0,1,7.28,7.44,14.9,14.9,0,0,1,.93,5.26,27.59,27.59,0,0,1-.25,3.78,12,12,0,0,1-.9,3.33,5.74,5.74,0,0,1-1.89,2.38,5.55,5.55,0,0,1-3.19.93,6.51,6.51,0,0,1-2-.25,4.17,4.17,0,0,1-1.67-.91,2.6,2.6,0,0,1-.83-1.61h-.15a3.7,3.7,0,0,1-1,1.34,5,5,0,0,1-1.75,1,6.76,6.76,0,0,1-2.46.3,6.45,6.45,0,0,1-2.78-.7,6.21,6.21,0,0,1-2.12-1.77,8.07,8.07,0,0,1-1.34-2.67,11.85,11.85,0,0,1-.47-3.43,9.23,9.23,0,0,1,.53-3.25,7.83,7.83,0,0,1,1.44-2.49,7.11,7.11,0,0,1,2.1-1.66,7.18,7.18,0,0,1,2.51-.77,7.71,7.71,0,0,1,2.37.07,5.5,5.5,0,0,1,1.8.67,2,2,0,0,1,.9,1h.16v-1.37h3v11.38a2.63,2.63,0,0,0,.51,1.64,1.7,1.7,0,0,0,1.45.67,2.08,2.08,0,0,0,1.75-.82,5.54,5.54,0,0,0,.89-2.53,30.38,30.38,0,0,0,.26-4.36,12.15,12.15,0,0,0-.5-3.51,10,10,0,0,0-1.46-3,9.6,9.6,0,0,0-2.36-2.31,11.11,11.11,0,0,0-3.18-1.5,13.91,13.91,0,0,0-3.94-.53,14.12,14.12,0,0,0-5.21.9,10.23,10.23,0,0,0-3.84,2.59,11.34,11.34,0,0,0-2.37,4,16.23,16.23,0,0,0-.8,5.29,16.7,16.7,0,0,0,.82,5.41,10.49,10.49,0,0,0,2.43,4,10.36,10.36,0,0,0,4,2.46,16.31,16.31,0,0,0,5.46.84,15.15,15.15,0,0,0,2.7-.24,24,24,0,0,0,2.36-.54c.69-.2,1.21-.36,1.55-.48l.86,2.69a12.84,12.84,0,0,1-2,.7,22.48,22.48,0,0,1-2.72.56,19,19,0,0,1-2.89.22Zm-1.13-10.2a4.6,4.6,0,0,0,2.57-.64,3.54,3.54,0,0,0,1.41-1.91,10,10,0,0,0,.44-3.18,8,8,0,0,0-.47-3,2.94,2.94,0,0,0-1.42-1.59,5.51,5.51,0,0,0-2.47-.48,4.12,4.12,0,0,0-2.36.67,4.2,4.2,0,0,0-1.48,1.83,6.43,6.43,0,0,0-.52,2.56,9.36,9.36,0,0,0,.42,2.79,4.39,4.39,0,0,0,1.35,2.11,3.76,3.76,0,0,0,2.54.81Z"/><path class="cls-2" d="M1476.06,1196.55v-25.11h3.67v9.33h.22a9.9,9.9,0,0,1,.92-1.36,5.23,5.23,0,0,1,1.67-1.35,6,6,0,0,1,2.82-.58,7.33,7.33,0,0,1,4.07,1.15,7.82,7.82,0,0,1,2.81,3.32,13.89,13.89,0,0,1,0,10.45,7.94,7.94,0,0,1-2.79,3.35,7.23,7.23,0,0,1-4.06,1.17,5.88,5.88,0,0,1-2.8-.58,5.24,5.24,0,0,1-1.7-1.35,10.29,10.29,0,0,1-.94-1.37h-.31v2.93Zm3.59-9.42a9.54,9.54,0,0,0,.58,3.48,5.19,5.19,0,0,0,1.67,2.34,4.26,4.26,0,0,0,2.67.84,4.35,4.35,0,0,0,2.75-.88,5.35,5.35,0,0,0,1.67-2.38,9.54,9.54,0,0,0,.57-3.4,9.45,9.45,0,0,0-.56-3.35,5.15,5.15,0,0,0-1.67-2.34,4.39,4.39,0,0,0-2.76-.86,4.27,4.27,0,0,0-2.69.82,5,5,0,0,0-1.66,2.29,9.67,9.67,0,0,0-.56,3.43Z"/><path class="cls-2" d="M1505.48,1196.93a9.16,9.16,0,0,1-4.79-1.2,7.94,7.94,0,0,1-3.09-3.37,12.61,12.61,0,0,1,0-10.21,8.11,8.11,0,0,1,7.62-4.69,9.29,9.29,0,0,1,3.09.53,7.3,7.3,0,0,1,2.68,1.66,7.88,7.88,0,0,1,1.88,2.92,12.2,12.2,0,0,1,.69,4.36v1.3h-15v-2.75H1510a5.5,5.5,0,0,0-.59-2.57,4.4,4.4,0,0,0-1.65-1.77,4.7,4.7,0,0,0-2.48-.65,4.79,4.79,0,0,0-2.69.75,5.21,5.21,0,0,0-1.77,2,5.56,5.56,0,0,0-.62,2.62V1188a7,7,0,0,0,.67,3.21,4.82,4.82,0,0,0,1.87,2,5.55,5.55,0,0,0,2.81.69,5.74,5.74,0,0,0,1.9-.3,4,4,0,0,0,1.48-.9,3.87,3.87,0,0,0,1-1.48l3.47.63a6.29,6.29,0,0,1-1.49,2.68,7.32,7.32,0,0,1-2.68,1.78,10.05,10.05,0,0,1-3.67.63Z"/><path class="cls-2" d="M1526.43,1177.72v2.94h-10.29v-2.94Zm-7.53-4.51h3.67V1191a3.22,3.22,0,0,0,.32,1.6,1.56,1.56,0,0,0,.83.72,3.08,3.08,0,0,0,1.11.19,4.38,4.38,0,0,0,.77-.06l.52-.1.66,3a6.12,6.12,0,0,1-.91.25,8.14,8.14,0,0,1-1.47.14,6.59,6.59,0,0,1-2.7-.51,4.63,4.63,0,0,1-2-1.67,4.94,4.94,0,0,1-.77-2.83v-18.57Z"/><path class="cls-2" d="M1539.27,1177.72v2.94H1529v-2.94Zm-7.53-4.51h3.67V1191a3.22,3.22,0,0,0,.32,1.6,1.56,1.56,0,0,0,.83.72,3.08,3.08,0,0,0,1.11.19,4.38,4.38,0,0,0,.77-.06l.51-.1.66,3a5.78,5.78,0,0,1-.91.25,8.14,8.14,0,0,1-1.47.14,6.59,6.59,0,0,1-2.7-.51,4.63,4.63,0,0,1-2-1.67,4.94,4.94,0,0,1-.77-2.83Z"/><path class="cls-2" d="M1551.23,1196.93a9.16,9.16,0,0,1-4.79-1.2,7.94,7.94,0,0,1-3.09-3.37,12.61,12.61,0,0,1,0-10.21,8.11,8.11,0,0,1,7.62-4.69,9.29,9.29,0,0,1,3.09.53,7.3,7.3,0,0,1,2.68,1.66,7.88,7.88,0,0,1,1.88,2.92,12.2,12.2,0,0,1,.69,4.36v1.3h-15v-2.75h11.38a5.5,5.5,0,0,0-.59-2.57,4.4,4.4,0,0,0-1.65-1.77,4.7,4.7,0,0,0-2.48-.65,4.79,4.79,0,0,0-2.69.75,5.21,5.21,0,0,0-1.77,2,5.56,5.56,0,0,0-.62,2.62V1188a7,7,0,0,0,.67,3.21,4.82,4.82,0,0,0,1.87,2,5.55,5.55,0,0,0,2.81.69,5.74,5.74,0,0,0,1.9-.3,4,4,0,0,0,1.48-.9,3.87,3.87,0,0,0,1-1.48l3.47.63a6.29,6.29,0,0,1-1.49,2.68,7.32,7.32,0,0,1-2.68,1.78,10.05,10.05,0,0,1-3.67.63Z"/><path class="cls-2" d="M1563.4,1196.55v-18.83h3.54v3h.2a4.6,4.6,0,0,1,1.82-2.4,5.23,5.23,0,0,1,3-.88c.23,0,.5,0,.81,0l.74.06V1181a6.77,6.77,0,0,0-.79-.14,8.59,8.59,0,0,0-1.13-.08,4.7,4.7,0,0,0-2.31.55,4.23,4.23,0,0,0-1.6,1.51,4.13,4.13,0,0,0-.59,2.19v11.5h-3.65Z"/><path class="cls-2" d="M1581,1196.55l-5.54-18.83h3.79l3.69,13.83h.18l3.7-13.83h3.79l3.68,13.77h.18l3.67-13.77H1602l-5.53,18.83h-3.74l-3.83-13.6h-.28l-3.82,13.6Z"/><path class="cls-2" d="M1612.79,1196.93a8.63,8.63,0,0,1-4.62-1.21,8.08,8.08,0,0,1-3.06-3.4,11.24,11.24,0,0,1-1.09-5.1,11.35,11.35,0,0,1,1.09-5.12,8.24,8.24,0,0,1,3.06-3.41,9.43,9.43,0,0,1,9.24,0,8.11,8.11,0,0,1,3.06,3.41,11.32,11.32,0,0,1,1.09,5.12,11.21,11.21,0,0,1-1.09,5.1,8.21,8.21,0,0,1-3.06,3.4A8.65,8.65,0,0,1,1612.79,1196.93Zm0-3.08a4.36,4.36,0,0,0,2.84-.91,5.3,5.3,0,0,0,1.67-2.42,10.48,10.48,0,0,0,0-6.64,5.39,5.39,0,0,0-1.67-2.43,4.36,4.36,0,0,0-2.84-.92,4.42,4.42,0,0,0-2.86.92,5.33,5.33,0,0,0-1.68,2.43,10.48,10.48,0,0,0,0,6.64,5.3,5.3,0,0,0,1.68,2.42A4.41,4.41,0,0,0,1612.8,1193.85Z"/><path class="cls-2" d="M1625.65,1196.55v-18.83h3.54v3h.2a4.6,4.6,0,0,1,1.82-2.4,5.23,5.23,0,0,1,3-.88c.23,0,.5,0,.82,0l.74.06V1181a6.91,6.91,0,0,0-.78-.14,8.59,8.59,0,0,0-1.13-.08,4.7,4.7,0,0,0-2.31.55,4.23,4.23,0,0,0-1.6,1.51,4.13,4.13,0,0,0-.59,2.19v11.5Z"/><path class="cls-2" d="M1642.58,1171.44v25.11h-3.67v-25.11Z"/><path class="cls-2" d="M1654.56,1196.91a7.23,7.23,0,0,1-4.06-1.17,7.8,7.8,0,0,1-2.79-3.35,12.38,12.38,0,0,1-1-5.23,12.15,12.15,0,0,1,1-5.22,7.76,7.76,0,0,1,2.81-3.32,7.32,7.32,0,0,1,4.06-1.15,6,6,0,0,1,2.83.58,5.13,5.13,0,0,1,1.67,1.35,11.11,11.11,0,0,1,.93,1.36h.22v-9.33h3.67v25.11h-3.58v-2.93H1660a9.85,9.85,0,0,1-1,1.37,5.51,5.51,0,0,1-1.7,1.35,6,6,0,0,1-2.8.58Zm.81-3.12a4.29,4.29,0,0,0,2.68-.84,5.19,5.19,0,0,0,1.67-2.34,9.77,9.77,0,0,0,.57-3.48,9.63,9.63,0,0,0-.56-3.43,5,5,0,0,0-1.65-2.29,4.36,4.36,0,0,0-2.7-.82,4.45,4.45,0,0,0-2.76.86,5.13,5.13,0,0,0-1.66,2.34,9.49,9.49,0,0,0-.56,3.35,9.86,9.86,0,0,0,.56,3.4,5.3,5.3,0,0,0,1.67,2.38,4.3,4.3,0,0,0,2.74.88Z"/><path class="cls-2" d="M1672,1177.72l4.16,7.33,4.19-7.33h4l-5.87,9.42,5.92,9.42h-4l-4.24-7-4.23,7h-4l5.86-9.42-5.79-9.42Z"/><path class="cls-2" d="M1694.42,1196.91a7.21,7.21,0,0,1-4.06-1.17,7.8,7.8,0,0,1-2.79-3.35,12.38,12.38,0,0,1-1-5.23,12.15,12.15,0,0,1,1-5.22,7.76,7.76,0,0,1,2.81-3.32,7.3,7.3,0,0,1,4.06-1.15,6,6,0,0,1,2.83.58,5.13,5.13,0,0,1,1.67,1.35,11.11,11.11,0,0,1,.93,1.36h.22v-9.33h3.67v25.11h-3.58v-2.93h-.31a9.85,9.85,0,0,1-1,1.37,5.51,5.51,0,0,1-1.7,1.35,6,6,0,0,1-2.79.58Zm.81-3.12a4.29,4.29,0,0,0,2.68-.84,5.19,5.19,0,0,0,1.67-2.34,9.77,9.77,0,0,0,.57-3.48,9.63,9.63,0,0,0-.56-3.43,5.07,5.07,0,0,0-1.65-2.29,4.36,4.36,0,0,0-2.7-.82,4.45,4.45,0,0,0-2.76.86,5.13,5.13,0,0,0-1.66,2.34,9.49,9.49,0,0,0-.56,3.35,9.86,9.86,0,0,0,.56,3.4,5.3,5.3,0,0,0,1.67,2.38,4.3,4.3,0,0,0,2.74.88Z"/><path class="cls-2" d="M1717.09,1196.93a9.16,9.16,0,0,1-4.79-1.2,7.94,7.94,0,0,1-3.09-3.37,12.61,12.61,0,0,1,0-10.21,8.11,8.11,0,0,1,7.62-4.69,9.29,9.29,0,0,1,3.09.53,7.42,7.42,0,0,1,2.69,1.66,7.84,7.84,0,0,1,1.88,2.92,12.2,12.2,0,0,1,.69,4.36v1.3h-15v-2.75h11.38a5.5,5.5,0,0,0-.59-2.57,4.4,4.4,0,0,0-1.65-1.77,4.68,4.68,0,0,0-2.48-.65,4.79,4.79,0,0,0-2.69.75,5.11,5.11,0,0,0-1.76,2,5.68,5.68,0,0,0-.62,2.62V1188a7,7,0,0,0,.67,3.21,4.82,4.82,0,0,0,1.87,2,5.45,5.45,0,0,0,2.81.69,5.69,5.69,0,0,0,1.9-.3,3.93,3.93,0,0,0,2.44-2.38l3.47.63a6.29,6.29,0,0,1-1.49,2.68,7.2,7.2,0,0,1-2.69,1.78,10,10,0,0,1-3.67.63Z"/><path class="cls-2" d="M1743.36,1182.31l-3.32.59a4,4,0,0,0-.66-1.21,3.31,3.31,0,0,0-1.21-.94,4.29,4.29,0,0,0-1.9-.37,4.62,4.62,0,0,0-2.6.69,2.06,2.06,0,0,0-1,1.78,1.86,1.86,0,0,0,.7,1.52,5.68,5.68,0,0,0,2.26.94l3,.69a8,8,0,0,1,3.87,1.85,4.35,4.35,0,0,1,1.28,3.25,5,5,0,0,1-1,3,6.44,6.44,0,0,1-2.71,2.07,10.08,10.08,0,0,1-4,.75,9,9,0,0,1-5.16-1.35,5.67,5.67,0,0,1-2.45-3.86l3.54-.54a3.36,3.36,0,0,0,1.36,2.09,4.66,4.66,0,0,0,2.68.71,5,5,0,0,0,2.88-.75,2.21,2.21,0,0,0,1.08-1.85,1.92,1.92,0,0,0-.66-1.48,4.49,4.49,0,0,0-2-.91l-3.19-.7a7.64,7.64,0,0,1-3.89-1.91,4.59,4.59,0,0,1-1.26-3.32,4.78,4.78,0,0,1,.93-2.92,6.16,6.16,0,0,1,2.58-2,9.44,9.44,0,0,1,3.76-.71,7.78,7.78,0,0,1,4.8,1.32,6.2,6.2,0,0,1,2.32,3.52Z"/><path class="cls-2" d="M1749.6,1174.81a2.3,2.3,0,0,1-1.64-.64,2.06,2.06,0,0,1-.68-1.54,2.08,2.08,0,0,1,.68-1.55,2.42,2.42,0,0,1,3.28,0,2.06,2.06,0,0,1,.68,1.54,2.08,2.08,0,0,1-.68,1.55A2.29,2.29,0,0,1,1749.6,1174.81Zm-1.85,21.74v-18.83h3.67v18.83Z"/><path class="cls-2" d="M1764.24,1204a11.35,11.35,0,0,1-3.86-.59,7.35,7.35,0,0,1-2.63-1.56,6.61,6.61,0,0,1-1.52-2.12l3.15-1.3a8,8,0,0,0,.89,1.15,4.67,4.67,0,0,0,1.52,1,6.07,6.07,0,0,0,2.48.43,5.62,5.62,0,0,0,3.44-1,3.74,3.74,0,0,0,1.36-3.22v-3.7h-.23a8.69,8.69,0,0,1-.95,1.34,5.24,5.24,0,0,1-1.7,1.28,6.31,6.31,0,0,1-2.81.54,7.72,7.72,0,0,1-4-1,7.34,7.34,0,0,1-2.82-3.1,11.15,11.15,0,0,1-1-5.06,11.88,11.88,0,0,1,1-5.15,7.73,7.73,0,0,1,2.81-3.29,7.4,7.4,0,0,1,4.06-1.15,6,6,0,0,1,2.83.58,5.32,5.32,0,0,1,1.69,1.35,10.27,10.27,0,0,1,.94,1.36h.27v-3h3.59V1197a6.25,6.25,0,0,1-4.18,6.28,11.79,11.79,0,0,1-4.32.75Zm0-10.78a4.72,4.72,0,0,0,2.68-.74,4.61,4.61,0,0,0,1.67-2.13,8.77,8.77,0,0,0,.57-3.34,9.22,9.22,0,0,0-.56-3.35,5.09,5.09,0,0,0-1.65-2.26,4.88,4.88,0,0,0-5.46,0,5.15,5.15,0,0,0-1.66,2.31,9.1,9.1,0,0,0-.56,3.26,8.89,8.89,0,0,0,.56,3.25,4.79,4.79,0,0,0,1.67,2.18,4.64,4.64,0,0,0,2.74.79Z"/><path class="cls-2" d="M1781.32,1185.37v11.18h-3.67v-18.83h3.52v3.06h.23a5.29,5.29,0,0,1,2-2.4,6.27,6.27,0,0,1,3.51-.91,6.88,6.88,0,0,1,3.37.8,5.5,5.5,0,0,1,2.24,2.38,8.64,8.64,0,0,1,.8,3.91v12h-3.67V1185a4.59,4.59,0,0,0-1.07-3.21,3.8,3.8,0,0,0-2.93-1.16,4.53,4.53,0,0,0-2.26.55,4,4,0,0,0-1.56,1.61,5.35,5.35,0,0,0-.57,2.56Z"/><path class="cls-2" d="M1800.69,1196.78a2.44,2.44,0,1,1,2.45-2.45,2.28,2.28,0,0,1-.34,1.23,2.53,2.53,0,0,1-.89.89,2.36,2.36,0,0,1-1.23.33Z"/><path class="cls-2" d="M1816,1196.93a8.69,8.69,0,0,1-4.7-1.24,8.15,8.15,0,0,1-3-3.44,12.51,12.51,0,0,1,0-10.1,8.27,8.27,0,0,1,3-3.44,8.45,8.45,0,0,1,4.62-1.24,8.78,8.78,0,0,1,3.82.79,7,7,0,0,1,2.71,2.21,6.72,6.72,0,0,1,1.23,3.32h-3.57a4.32,4.32,0,0,0-1.34-2.28,4,4,0,0,0-2.8-1,4.61,4.61,0,0,0-2.68.8,5.14,5.14,0,0,0-1.78,2.28,8.87,8.87,0,0,0-.64,3.49,9.38,9.38,0,0,0,.62,3.55,5.3,5.3,0,0,0,1.77,2.32,4.5,4.5,0,0,0,2.7.82,4.44,4.44,0,0,0,1.89-.39,3.82,3.82,0,0,0,1.43-1.11,4.26,4.26,0,0,0,.82-1.74h3.57a7,7,0,0,1-1.19,3.26,6.88,6.88,0,0,1-2.65,2.26,8.67,8.67,0,0,1-3.89.82Z"/><path class="cls-2" d="M1835.58,1196.93a8.63,8.63,0,0,1-4.62-1.21,8.08,8.08,0,0,1-3.06-3.4,11.24,11.24,0,0,1-1.09-5.1,11.35,11.35,0,0,1,1.09-5.12,8.24,8.24,0,0,1,3.06-3.41,9.43,9.43,0,0,1,9.24,0,8.2,8.2,0,0,1,3.07,3.41,11.32,11.32,0,0,1,1.09,5.12,11.21,11.21,0,0,1-1.09,5.1,8.17,8.17,0,0,1-3.07,3.4A8.65,8.65,0,0,1,1835.58,1196.93Zm0-3.08a4.36,4.36,0,0,0,2.84-.91,5.3,5.3,0,0,0,1.67-2.42,9.75,9.75,0,0,0,.55-3.32,9.56,9.56,0,0,0-.55-3.32,5.39,5.39,0,0,0-1.67-2.43,4.36,4.36,0,0,0-2.84-.92,4.42,4.42,0,0,0-2.86.92,5.33,5.33,0,0,0-1.68,2.43,10.48,10.48,0,0,0,0,6.64,5.3,5.3,0,0,0,1.68,2.42A4.41,4.41,0,0,0,1835.59,1193.85Z"/><path class="cls-2" d="M1848.44,1196.55v-18.83H1852v3.06h.23a4.85,4.85,0,0,1,1.92-2.43,5.74,5.74,0,0,1,3.2-.88,5.5,5.5,0,0,1,3.17.88,5.17,5.17,0,0,1,1.89,2.43h.2a5.38,5.38,0,0,1,2.15-2.41,6.59,6.59,0,0,1,3.51-.9,5.72,5.72,0,0,1,4.19,1.61,6.53,6.53,0,0,1,1.62,4.84v12.63h-3.67v-12.28a3.41,3.41,0,0,0-1-2.77,3.79,3.79,0,0,0-2.49-.86,3.56,3.56,0,0,0-2.78,1.1,4,4,0,0,0-1,2.81v12h-3.65V1184a3.27,3.27,0,0,0-1-2.46,3.43,3.43,0,0,0-2.49-.93,3.62,3.62,0,0,0-1.92.54,4,4,0,0,0-1.41,1.51,4.52,4.52,0,0,0-.53,2.24v11.61h-3.67Z"/><path class="cls-8" d="M1609.78,108.54a40,40,0,0,1-5-1,24.87,24.87,0,0,1-5.49-2.32,8.38,8.38,0,0,1-3-3.22,2.43,2.43,0,0,0-2.86-1.57,11.41,11.41,0,0,1-9.23-3.54,5.19,5.19,0,0,1,.11-7.73,25.17,25.17,0,0,1,4.85-2.94,17.23,17.23,0,0,1,2.4-.86c-.34-.53-.58-1-.87-1.34a36.25,36.25,0,0,1-6.92-14.82c-.28-1.48-1.4-1.21-2.37-1.29s-1,.71-1.11,1.41c-.35,2.35-.79,4.68-1.07,7-.24,2-.14,2,1.85,2.18.23,0,.45.06.67.1a2.75,2.75,0,0,1-2.39,2.63,57.05,57.05,0,0,1-5.85.06c-.36,0-.72-.34-1.08-.52.18-.35.27-.81.56-1,1.77-1.42,1.47-3.56,1.83-5.41,1.09-5.76,2-11.56,3.06-17.33.2-1.08-.15-1.43-1.18-1.47-2.19-.08-2.89.55-2.82,2.66,0,1-2.25,3.4-3.24,3.24a1.32,1.32,0,0,1-.77-.81,4.12,4.12,0,0,1,1-4.14,10.12,10.12,0,0,1,6.58-3.61,1.28,1.28,0,0,0,1.31-1.13,21.77,21.77,0,0,1,4.59-9,2.25,2.25,0,0,0,.47-1.37,8.66,8.66,0,0,1,4.15-7.78,16.24,16.24,0,0,1,9.91-2.85,2.15,2.15,0,0,0,2.22-1.3,8.51,8.51,0,0,1,3.26-3.07c4.41-2.24,9.08-2.2,13.74-.86a18.46,18.46,0,0,1,5.53,2.26c2.56,1.79,5.35,2.11,8.27,2.44a21.14,21.14,0,0,1,5.08,1.38,4.07,4.07,0,0,1,2.52,3.3,3.27,3.27,0,0,1-1.38,3.43,5.36,5.36,0,0,1-4.28.92,10.12,10.12,0,0,1,.74-.7,2.93,2.93,0,0,0,.5-4.79,7.67,7.67,0,0,0-5.91-2c3.16,3.82,4.39,8,2.54,13,1.29.5,2.51,1,3.77,1.43.24.08.75-.27,1-.55,2.26-3.22,5.59-3.86,9.16-3.62a3.53,3.53,0,0,1,2.51,1.62,2.63,2.63,0,0,1-1,3.25,16.87,16.87,0,0,1-4.14,1.82,8.28,8.28,0,0,1-2.5.16c-1.84,0-1.9,0-2,1.92,0,.6,0,1.2,0,2.06,1.12,0,2.23,0,3.32,0a30.66,30.66,0,0,1,5.53.5c3.75.94,5.75,4.11,6.28,8.49,1.36,11.15-8.55,19.08-17.12,19.42-2.33.09-4.66.18-7,.21a1.47,1.47,0,0,1-1.15-.49,1.34,1.34,0,0,1,.28-1.23c1.32-1.21,1.57-2.82,1.82-4.43.93-5.89,1.83-11.78,2.74-17.66.09-.59.13-1.19.22-2.1a11,11,0,0,0-2.79.24,2,2,0,0,0-1.08,1.48c.22,2.11-1.35,2.84-2.67,3.7-.75.49-1.34.08-1.44-.85a4.63,4.63,0,0,1,1.46-4.06c1.78-1.65,3.65-3.19,6.27-3.35a1.49,1.49,0,0,0,1.06-.83c.4-1.13.64-2.32,1-3.55-1.39-.59-2.69-1.18-4-1.68a1.15,1.15,0,0,0-.95.28c-3.25,3.2-7.27,3.26-11.38,2.78a32,32,0,0,1-12-4.44,2,2,0,0,0-2.29,0c-4.26,2.54-8.82,3.58-13.66,2.05a35.33,35.33,0,0,1-5-2.53c-.53,1.8-1.19,3.7-1.64,5.66-.57,2.43-.4,2.56,2.12,2.56a38.76,38.76,0,0,1,4.45.08c2.24.26,3.35,1.42,3.82,3.64a8.78,8.78,0,0,1-4.45,9.71c-1.07.63-1.41,1.29-1,2.35,1.27,3,2.47,6.12,3.91,9.08,1,2,2.31,3.72,3.45,5.59a1.72,1.72,0,0,0,2,.85c6.44-.82,12.85-.79,19.09,1.26a34.09,34.09,0,0,1,5.4,2.27,3.45,3.45,0,0,0,3.12.25,21.75,21.75,0,0,1,11.41-1.14.34.34,0,0,1,.14,0c1.69.43,3.46.84,4,2.84a4.71,4.71,0,0,1-1.79,4.85c-2.51,2.22-5.65,3-8.82,3.6a3.57,3.57,0,0,0-3,2.12c-1.83,3.77-5.31,5.63-9.13,6.87-1.62.53-3.32.81-5,1.21h-3.08Zm38.12-42.75c0-6.59-3.13-9.91-9.35-10-1.24,0-1.61.47-1.71,1.6-.16,1.81-.45,3.6-.69,5.4-.6,4.57-1.18,9.14-1.84,13.7-.18,1.23.31,1.67,1.42,1.54a28,28,0,0,0,4.67-.74c4.83-1.46,7.48-5.64,7.49-11.51Zm-35,33.78-.11-.52a25.38,25.38,0,0,1-3.63-.92c-3.34-1.37-5.88,1.08-9.16,1.42.72,1.13,1.15,2,1.72,2.68,4.86,6.09,14.59,5,18.5,2a6.67,6.67,0,0,0,2.67-5c-1.3,0-2.46.06-3.61,0a3.3,3.3,0,0,0-2.82,1.13c-2,2.11-4.68,2.59-7.49,2.19a3.32,3.32,0,0,1-3.09-2.6c1.13.33,2.32,1,3.48.92s2.36-.83,3.54-1.28Zm-6.32-56.17c4.35,2.46,8.67,4.07,13.47,3.84a7.42,7.42,0,0,0,6-3c-1.71-1.24-3.31-2.43-4.94-3.56a1.23,1.23,0,0,0-1-.08,14.36,14.36,0,0,1-9.44.41,1.82,1.82,0,0,0-1.29.1c-.9.63-1.71,1.39-2.76,2.28Zm-8.69,49.22c-1-1.15-1.85-2.2-2.78-3.17-2.08-2.16-2.1-2.15-4.68-.49a8.79,8.79,0,0,0-.79.57,4.6,4.6,0,0,0-2,3.48c-.08,3.09,4.08,6.33,7.08,5.47.24-.07.59-.4.59-.62a7.27,7.27,0,0,1,2.64-5.23Zm-.26-6.34c1.11,1.15,2,2,2.8,2.94a2.2,2.2,0,0,0,2.7.64,14.77,14.77,0,0,1,11.89.85c1.71.9,2.91.78,4.59-.84-6.64-4.76-13.86-5.38-22-3.59Zm-9.16-47.47c1.48-.28,2.73-.6,4-.73,3.35-.33,6.27,1,9.14,2.52.44.23,1.14.47,1.48.28a16.59,16.59,0,0,0,2.24-1.81,2.67,2.67,0,0,0-.36-.46,12.76,12.76,0,0,1-5.07-5.25,1.17,1.17,0,0,0-.88-.49,13.3,13.3,0,0,0-7.36,1.73,6.22,6.22,0,0,0-3.18,4.21Zm-4.87,26.73c3.3.07,4.63-.94,5.33-4.19a11.56,11.56,0,0,0,.19-2.76A2.44,2.44,0,0,0,1587,56c-1.09-.19-2.21-.16-3.32-.26-.91-.08-1.33.26-1.44,1.22-.22,1.93-.56,3.86-.88,5.78-.46,2.72-.48,2.71,2.23,2.77Zm38.25-35.29.1-.63a23.78,23.78,0,0,0-8.64-2.84,8.84,8.84,0,0,0-6.62,1.62,17.14,17.14,0,0,0-2.26,2.45c2.68.95,5,1.77,7.3,2.56a1.08,1.08,0,0,0,.79,0c1.38-.73,2.73-1.5,4.1-2.25l-.06-.34h-4.21a5.79,5.79,0,0,1,6.11-.95,16.55,16.55,0,0,0,3.4.37Zm3,59.61a8.91,8.91,0,0,1,3.23,6.17c0,.19.67.56.89.48a39.41,39.41,0,0,0,5-2,2.63,2.63,0,0,0,1.37-2.84,3,3,0,0,0-2.21-2.45,10.9,10.9,0,0,0-8.26.67Zm-23.91-47.19c-2.77-1.57-5.31-3.05-8.39-2.74a13.52,13.52,0,0,0-3.43,1.08,1.15,1.15,0,0,0-.54.94,5.36,5.36,0,0,0,4.83,4.17c2.87-.12,5.15-1.61,7.52-3.45Zm26.14.06c1.33-3.25,1.74-6.17-.21-9-1.43-2.09-2.27-2.29-4.73-1,1.16,2.17,1.53,4.38-.19,6.64l5.13,3.41Zm-23.8,49c1.84,1.08,3.51,2.06,5.19,3a1.08,1.08,0,0,0,.8.1c1.39-.56,2.76-1.18,4.17-1.79-1.92-2.86-7.7-3.23-10.16-1.33Zm15.37,5.85c1.2,0,2.49-.07,3.77-.21.23,0,.63-.65.55-.87-.5-1.53-1.07-3-1.7-4.53-.09-.21-.74-.36-1-.25-.91.33-1.76.8-2.55,1.17Zm-14.21-64.66c.07,1.68,1.48,3.76,2.63,4.14a.8.8,0,0,0,.63-.05c1-.73,1.93-1.5,2.89-2.25l-.1-.46-6-1.38Zm33.64,14c1.94.45,3.78.19,4.69-.8a2.22,2.22,0,0,0,.58-1.69c-.09-.38-.89-.77-1.41-.85-1.81-.25-3.27,1-3.86,3.33Zm-26.23-7.7c2.55.94,4.7.74,6.07-.52C1615.43,36.21,1614,36.32,1611.82,39.2Zm-12.36,58.86,5.25-1.42L1600,93.88l-.58,4.17Zm20.37-64.24-.63-.22-3.33,2,3.72,2.18.24-4Zm-8.42,61.87v.49l3.09.54.16-2.48-3.24,1.45Z"/><path class="cls-8" d="M1611.55,81.85c-.33,0-.66,0-1,0-2-.18-2.46-.94-1.66-2.73.47-1.06,1-2.12,1.53-3.14a1.29,1.29,0,0,1,.93-.63c.31,0,.71.38.88.69a4.36,4.36,0,0,0,6.14,1.22,2.19,2.19,0,0,0,.72-3,25.6,25.6,0,0,0-3.11-3.87c-1.54-1.62-3.36-3-4.77-4.69a6.88,6.88,0,0,1,.58-9.61,10.74,10.74,0,0,1,6.24-3.18,17,17,0,0,1,4.56,0c1.47.19,1.72,1,.86,2.13-.69.94-1.48,1.8-2.24,2.68s-1.17.65-1.73-.21c-1-1.52-1.91-1.78-3.41-1.13a3.07,3.07,0,0,0-2,3.58,8.31,8.31,0,0,0,1.81,3.06,54.86,54.86,0,0,0,4.53,3.94c5.17,4.25,3.27,9.89-1.07,12.55a15.86,15.86,0,0,1-7.8,2.34Z"/><path class="cls-8" d="M1605.65,78.72c-.75,1.53-1.58,2.66-3.25,2.69s-3.54,0-5.31-.09c-.73,0-1.33-.4-.85-1.13,1.7-2.59,1.52-5.62,2.07-8.47.87-4.57,1.5-9.19,2.25-13.78.3-1.84.11-2-1.86-2.08a13.1,13.1,0,0,1-2-.31,6.71,6.71,0,0,1,1.36-1.75,5.34,5.34,0,0,1,2.52-.88c2-.13,3.92,0,5.88,0,.73,0,1.4.28.74,1-2.25,2.58-1.91,5.86-2.5,8.86-.83,4.25-1.39,8.55-2.08,12.82-.4,2.49-.42,2.48,2.15,2.83a6.07,6.07,0,0,1,.86.29Z"/><path class="cls-8" d="M1641.92,43.54c.53.07,1.32.46,1.41.85a2.22,2.22,0,0,1-.58,1.69c-.91,1-2.75,1.24-4.69.8"/><path class="cls-8" d="M1614.51,96.69l-3.09-.54v-.49"/></g><g id="qT4pHT.tif"><path class="cls-8" d="M1714.36,25.69a8.82,8.82,0,0,1,.36,1.84,5.92,5.92,0,0,1,4.48-.32,6.9,6.9,0,0,1,3.45,2.91c.37-.35.71-.67,1.06-1,.15-.14.33-.4.54-.25s0,.4,0,.61a5.66,5.66,0,0,0-.25.66c.31,0,.6,0,.89,0a2.84,2.84,0,0,1,2.86,2c.18.49.23.41.62.32a6,6,0,0,1,2.43-.05,3.8,3.8,0,0,1,1.77.79.36.36,0,0,0,.48.06,2.9,2.9,0,0,1,.65-.28c.21-.06.3.06.22.28a2.42,2.42,0,0,1-.44.62.3.3,0,0,0,0,.43.72.72,0,0,1,.09.2.66.66,0,0,0,.67.57,2.23,2.23,0,0,1,.82.25,2.87,2.87,0,0,1,1.87,2.7,3,3,0,0,1-1.76,2.9,4.26,4.26,0,0,1-3.14.15,8.81,8.81,0,0,0-1.27-.45,4.61,4.61,0,0,0-1.24.37,4.42,4.42,0,0,1-2.78-.2.85.85,0,0,0-.76.05,5.92,5.92,0,0,0-2.21,1.82c-.24.31-.51.61-.81,1,.28-.05.52-.08.75-.13a3.78,3.78,0,0,1,1.3-.06,23.31,23.31,0,0,0,5.28.06,37.51,37.51,0,0,1,4.24-.22,18.15,18.15,0,0,1,3.67.45l.16,0c.17.08.34.17.36.38s-.14.28-.27.37a2.51,2.51,0,0,1-.81.31l-3.69,1a9.07,9.07,0,0,0-1.48.54,10.2,10.2,0,0,1-3.27.76c-1.32.14-2.64.21-4,.24a5.76,5.76,0,0,0-2.37.56c-.22.1-.36.21-.31.48a5.23,5.23,0,0,1,0,.56,1.76,1.76,0,0,0,.76,0,7.67,7.67,0,0,1,4.35.7.5.5,0,0,0,.5,0,8.72,8.72,0,0,1,4-.75,7,7,0,0,1,3,.79,3.37,3.37,0,0,1,1.91,2.62,1.88,1.88,0,0,1-1.26,2.06,6.61,6.61,0,0,1-1.7.36,9,9,0,0,1-4-.33.65.65,0,0,0-.51,0,4.39,4.39,0,0,1-3.55.09.67.67,0,0,0-.52,0,4.19,4.19,0,0,1-3.13-.17.69.69,0,0,0-.79,0,2.51,2.51,0,0,1-1.07.35,13.43,13.43,0,0,1-4.56,0c-.41-.08-.79-.35-1.17-.39s-.68.35-1.09.43a4.12,4.12,0,0,1-2.5-.23.76.76,0,0,0-.66,0,3.65,3.65,0,0,1-3.31-.12.48.48,0,0,0-.45,0,10.72,10.72,0,0,1-6.07.11,2,2,0,0,0-1.43.09,3.46,3.46,0,0,1-3.43-.28,3,3,0,0,1-2.79.5,3.17,3.17,0,0,1-2.13-3.64,2.54,2.54,0,0,1,1.48-1.78,5.41,5.41,0,0,1,4-.29,5.32,5.32,0,0,0,1.28.42,5,5,0,0,0,1.24-.36,8.62,8.62,0,0,1,6,.42c.33.15.56,0,.82-.13a.13.13,0,0,0,0-.09c0-.36,0-.72,0-1.08,0-.17-.19-.15-.3-.16a14.44,14.44,0,0,1-1.71-.36c-.51-.13-1-.31-1.5-.49a5.1,5.1,0,0,0-2-.32,12,12,0,0,1-4.77-.69,19.07,19.07,0,0,0-3.38-.8,6.57,6.57,0,0,1-.9-.22,1.41,1.41,0,0,1-.39-.19c-.23-.17-.22-.3,0-.45a1.75,1.75,0,0,1,.24-.11,5.56,5.56,0,0,1,2.14-.55,22.87,22.87,0,0,1,6.4,0,10.8,10.8,0,0,0,3.26,0,3.42,3.42,0,0,1,1.55.07,11.1,11.1,0,0,1-2.89-2.47.75.75,0,0,0-1-.17,5.21,5.21,0,0,1-3.34.46,2.74,2.74,0,0,0-1.42.15,3,3,0,0,1-3.56-4.35,4.32,4.32,0,0,1,2.58-1.7c.73-.2.72-.19.32-.85-.17-.29-.47-.62-.19-.94s.69-.09,1,.1a.65.65,0,0,0,1-.13,3.46,3.46,0,0,1,1.84-1,.84.84,0,0,0,.68-.67,3.91,3.91,0,0,1,3-2.84c.45-.1.7-.22.49-.74a.47.47,0,0,1,.17-.63c.25-.15.45,0,.63.16a4.12,4.12,0,0,1,.67.65,2.4,2.4,0,0,0,1.3.74.57.57,0,0,0,.77-.36,5,5,0,0,1,1.86-2,5.26,5.26,0,0,1,4.57-.43c.63.21.65.21.76-.44.06-.3.06-.62.37-.8Z"/><path class="cls-8" d="M1854.65,58.72a3.53,3.53,0,0,0-1.33.21,1.4,1.4,0,0,0-1,1.2,34.3,34.3,0,0,0-.21,4.3c0,3.63,0,7.27,0,10.9a1.31,1.31,0,0,1,0,.59.92.92,0,0,1-1.06-.41q-5.47-6.69-11-13.34l-.37-.44c-.14,0-.11.12-.11.18,0,3.32,0,6.65,0,10,0,.62.1,1.23.16,1.85a1.29,1.29,0,0,0,.92,1.11,4.29,4.29,0,0,0,1.33.25c.4,0,.44.09.41.46,0,.13,0,.2-.19.2h-.16c-1.95,0-3.89,0-5.84,0-.38,0-.36,0-.36-.41,0-.21.12-.25.28-.25a3.46,3.46,0,0,0,.91-.14,1.44,1.44,0,0,0,1.16-1.29c0-.52.12-1,.14-1.57.11-3.67.1-7.34,0-11a2.39,2.39,0,0,0-.28-1.15,2.2,2.2,0,0,0-1.55-1.1l-.65-.1c-.39-.06-.39-.05-.39-.45a.81.81,0,0,1,0-.16c.15-.11.32-.06.48-.06,1,0,2,0,2.94,0a1,1,0,0,1,.91.44q5.34,6.42,10.7,12.8c.11.14.19.31.36.38s.09-.11.09-.17c0-3.22.07-6.44-.09-9.65,0-.53-.08-1.05-.12-1.58a1.4,1.4,0,0,0-1.09-1.33,6.22,6.22,0,0,0-1.29-.22.4.4,0,0,1-.31-.57c.07-.11.19-.08.3-.08h6.21Z"/><path class="cls-8" d="M1690.85,58.06h.61q22.72,0,45.43,0c.71,0,.62-.11.62.59q0,12.25,0,24.53a29.39,29.39,0,0,1-1.36,9.22,18.2,18.2,0,0,1-8.46,10.27,37.53,37.53,0,0,1-8.07,3.37c-1.71.52-3.46.95-5.2,1.39a.67.67,0,0,1-.37,0,61.52,61.52,0,0,1-10.61-3.39,27.83,27.83,0,0,1-4-2.21,18.16,18.16,0,0,1-7.65-11,30.3,30.3,0,0,1-.9-7.28c0-3.59,0-7.19,0-10.79V58.06Z"/><path class="cls-8" d="M1806.63,58.06h6.31c.18,0,.37,0,.35.26s0,.41-.32.43a6.73,6.73,0,0,0-1.08.17c-.6.15-.76.4-.59,1,.29,1,.6,2,.92,3q1.35,4.31,2.72,8.61c0,.13.1.27.14.41.17-.08.17-.23.21-.36l4-12.6a2.81,2.81,0,0,0,.1-.31c0-.25.19-.3.42-.31a.4.4,0,0,1,.45.3c.43,1.23.88,2.46,1.32,3.68q1.67,4.59,3.31,9.16c.06.15,0,.33.27.43.43-1.42.86-2.84,1.27-4.27.69-2.38,1.38-4.77,1.93-7.19.28-1.2,0-1.52-1.12-1.62-.15,0-.29-.07-.43-.07s-.33-.14-.32-.38,0-.3.26-.3l5.45,0s0,0,.07.05,0,.15,0,.24,0,.37-.31.37a2.32,2.32,0,0,0-2.21,1.78c-.69,1.85-1.26,3.74-1.85,5.63q-1.47,4.66-2.9,9.35c-.15.46-.15.43-.59.45s-.36-.2-.43-.4q-1.11-3-2.2-6c-.78-2.13-1.57-4.25-2.35-6.38-.06-.17-.13-.33-.23-.57l-.91,2.7q-1.71,5.08-3.4,10.16c-.08.24-.13.48-.49.45s-.43,0-.57-.41c-.44-1.38-.88-2.76-1.33-4.14q-1.62-5-3.26-10.09c-.13-.4-.28-.79-.43-1.17a2,2,0,0,0-1.75-1.37C1806.58,58.69,1806.59,58.67,1806.63,58.06Z"/><path class="cls-8" d="M1757.46,66a6.68,6.68,0,0,1,2.19.78,4.47,4.47,0,0,1,.95,6.94,6.67,6.67,0,0,1-3.55,1.77,12.36,12.36,0,0,1-2.43.24h-6.43c-.36,0-.36,0-.36-.36s.08-.29.28-.3a5.16,5.16,0,0,0,.87-.1,1.33,1.33,0,0,0,1.26-1.34,12.24,12.24,0,0,0,.09-1.35V61.73q0-.73-.09-1.47c-.09-1-.41-1.3-1.37-1.45a3.61,3.61,0,0,0-.65-.08c-.3,0-.22-.22-.24-.39s.07-.29.28-.28h6.92a9.1,9.1,0,0,1,2.75.33,6.42,6.42,0,0,1,.66.24,3.66,3.66,0,0,1,1.08,5.85,5.65,5.65,0,0,1-2.21,1.34C1757.37,65.88,1757.36,66,1757.46,66Z"/><path class="cls-8" d="M1776.07,67.3a45.7,45.7,0,0,0,4.72,6.87,3.61,3.61,0,0,0,1.75,1.23c.26.07.23.23.22.42s-.18.2-.32.2a10.37,10.37,0,0,1-2.48-.34,4.46,4.46,0,0,1-2.29-1.59,23.49,23.49,0,0,1-1.56-2.36c-.52-.87-1-1.74-1.54-2.62a2,2,0,0,0-2-1.13,5.74,5.74,0,0,0-1.24.07,6.74,6.74,0,0,0,0,1.19c0,1.16,0,2.32,0,3.48a6.59,6.59,0,0,0,.1,1.09,1.3,1.3,0,0,0,1.11,1.17,5.77,5.77,0,0,0,.92.11c.29,0,.3.17.31.39s-.15.28-.35.28h-6.6c-.18,0-.32,0-.3-.25s0-.42.27-.42a4.67,4.67,0,0,0,1-.11,1.3,1.3,0,0,0,1.15-1.2,10.4,10.4,0,0,0,.11-1.58c0-3.63,0-7.27,0-10.9a8.78,8.78,0,0,0-.1-1.25,1.31,1.31,0,0,0-1.19-1.22l-.6-.09c-.51-.06-.51-.06-.48-.61.09-.09.2-.06.31-.06H1774a9.51,9.51,0,0,1,2.31.3,4.31,4.31,0,0,1,2.43,6.86,6,6,0,0,1-2.33,1.84l-.29.15Z"/><path class="cls-8" d="M1794.62,76.17a8.61,8.61,0,0,1-8.82-8,9.88,9.88,0,0,1,1.28-6A9.14,9.14,0,0,1,1800,59.18a8.45,8.45,0,0,1,3.59,5.75,10,10,0,0,1-1.07,6.7,8.51,8.51,0,0,1-6.49,4.44A8.66,8.66,0,0,1,1794.62,76.17Z"/><path class="cls-9" d="M1757.46,66c-.1,0-.26,0-.27-.06s.14-.17.27-.14Z"/><path class="cls-10" d="M1698.19,40.88a3.52,3.52,0,0,1-1.28-.16,1.09,1.09,0,0,0-1,.12,1.88,1.88,0,0,1-2.75-.84,1.82,1.82,0,0,1,.55-2.3,4.84,4.84,0,0,1,2.25-.88l.27,0a.72.72,0,0,0,.78-.65,2.37,2.37,0,0,1,1.83-1.89l1-.27c.45-.11.5-.17.53-.61a3.18,3.18,0,0,1,2.6-2.78,6.09,6.09,0,0,1,3,.37,3.82,3.82,0,0,1,.36.13c.4.13.55.06.73-.32.09-.21.18-.43.29-.64a4.22,4.22,0,0,1,5.6-2,3.3,3.3,0,0,1,.8.45.82.82,0,0,0,1.08.05,4.58,4.58,0,0,1,1.73-.64,4.94,4.94,0,0,1,4.74,1.83,7.77,7.77,0,0,1,.81,1.16c.36.65.36.65,1.06.45a5.82,5.82,0,0,1,1.71-.27,2.18,2.18,0,0,1,2.23,1.78,2.68,2.68,0,0,0,.07.27c.12.43.28.53.71.41a6.17,6.17,0,0,1,2.26-.28,3.81,3.81,0,0,1,1.36.36,2.4,2.4,0,0,1,1.41,1.7.64.64,0,0,0,.69.6,3.17,3.17,0,0,1,.85.19,2.12,2.12,0,0,1,1.56,2.17,2.3,2.3,0,0,1-1.86,2.07,3.93,3.93,0,0,1-2-.17,4.76,4.76,0,0,1-.9-.38,1,1,0,0,0-.93,0,4.11,4.11,0,0,1-5.78-2.68c-.13-.44-.23-.52-.71-.45a5.42,5.42,0,0,1-2.27-.12,3.05,3.05,0,0,1-2.29-2.25,1.12,1.12,0,0,0-.08-.26c-.13-.35-.29-.42-.62-.25-.16.08-.31.19-.46.28a4.54,4.54,0,0,1-5.22-.21c-.79-.53-.79-.53-1.48.08a6.47,6.47,0,0,1-1.91,1.24,3.43,3.43,0,0,1-2.5.12.54.54,0,0,0-.71.2,3.46,3.46,0,0,1-3.7,1.24l-.26-.08c-.42-.07-.62.1-.59.53,0,.08,0,.15,0,.22a2.84,2.84,0,0,1-2,3.16A4.56,4.56,0,0,1,1698.19,40.88Z"/><path class="cls-10" d="M1706.75,49.41a5.47,5.47,0,0,1,0-2.64,7.58,7.58,0,0,1,14.9.59,10.71,10.71,0,0,1,0,1.79.46.46,0,0,1-.39.49c-.33.09-.65.34-1,.33a3.88,3.88,0,0,1-1-.37,7.58,7.58,0,0,0-6,.23.62.62,0,0,1-.68,0,6,6,0,0,0-2.83-.69A12.88,12.88,0,0,0,1706.75,49.41Z"/><path class="cls-8" d="M1718.52,54.14a12.32,12.32,0,0,1-2.27-.24,1.9,1.9,0,0,1-1.22-.76,7.41,7.41,0,0,1-.61-1l-.67-1.31c-.16-.31-.15-.34.19-.46a8,8,0,0,1,3.32-.48,6.39,6.39,0,0,1,1.5.27,3.4,3.4,0,0,1,2,1.68,11.65,11.65,0,0,0,.72,1.35c.15.21,0,.34-.13.44a2.92,2.92,0,0,1-.72.25A9.78,9.78,0,0,1,1718.52,54.14Z"/><path class="cls-8" d="M1733.36,54a9.57,9.57,0,0,1-2.26-.27,1.74,1.74,0,0,1-1-.67,17.38,17.38,0,0,1-1.37-2.41c-.11-.22,0-.29.19-.36a6.66,6.66,0,0,1,1.52-.39,7.22,7.22,0,0,1,3.07.09,3.84,3.84,0,0,1,2.46,1.57,2.2,2.2,0,0,1,.3.64,1,1,0,0,1-.62,1.38A4.61,4.61,0,0,1,1734,54C1733.76,54,1733.56,54,1733.36,54Z"/><path class="cls-8" d="M1703.48,53.93a9.59,9.59,0,0,1-2.27-.2,2,2,0,0,1-1.3-.82,21.88,21.88,0,0,1-1.3-2.32c-.08-.16,0-.24.12-.3l.2-.08a8.14,8.14,0,0,1,4.61-.22,3.35,3.35,0,0,1,2.14,1.64c.25.45.48.9.72,1.35s.15.44-.2.57a5.47,5.47,0,0,1-1.74.37C1704.13,53.94,1703.8,53.93,1703.48,53.93Z"/><path class="cls-10" d="M1706,50.48a8.63,8.63,0,0,1,5.19-.36,3.28,3.28,0,0,1,1.84,1.37c.42.61.65,1.33,1,2,.1.15,0,.28-.11.37a1.36,1.36,0,0,1-.24.13,2.34,2.34,0,0,1-2.5-.53c-.4-.43-.76-.88-1.13-1.32a2.66,2.66,0,0,0-.6-.56.73.73,0,0,0-.46-.13c-.31,0-.45.27-.27.52a.84.84,0,0,0,.23.23,5.46,5.46,0,0,1,1.09,1.21c.18.24.15.31-.11.45a1.74,1.74,0,0,1-2.13-.41,7.15,7.15,0,0,1-.59-.85C1706.87,51.88,1706.46,51.2,1706,50.48Z"/><path class="cls-10" d="M1721.24,50.5a8,8,0,0,1,4.79-.39,3.43,3.43,0,0,1,2.24,1.69c.31.55.57,1.13.86,1.69a.25.25,0,0,1-.11.37,1.14,1.14,0,0,1-.51.17,3.79,3.79,0,0,1-1.3,0,1.43,1.43,0,0,1-.93-.51l-1.15-1.38a1.82,1.82,0,0,0-.57-.5c-.29-.14-.5-.12-.64.07s-.09.41.19.59a3.77,3.77,0,0,1,1,1.07c.23.34.19.45-.2.57a1.86,1.86,0,0,1-1.83-.4,2.35,2.35,0,0,1-.45-.54A22.52,22.52,0,0,1,1721.24,50.5Z"/><path class="cls-10" d="M1736.06,44.48l-.71.17a17.13,17.13,0,0,0-2.92.84,15,15,0,0,1-3.55.8,29.2,29.2,0,0,1-4.08.22,3.61,3.61,0,0,0-1.38.27c-.19.07-.37.15-.56.21s-.37.1-.42-.25a7.42,7.42,0,0,0-.34-1.31c-.11-.35-.11-.36.25-.49a6.87,6.87,0,0,1,2.66-.49c1.37,0,2.75.1,4.13.08.93,0,1.85-.17,2.77-.2l2.4-.08a10,10,0,0,1,1.73.12Z"/><path class="cls-10" d="M1697.92,54a2,2,0,0,1-1.22-.43,9.68,9.68,0,0,1-1.18-1.13,4.21,4.21,0,0,0-.75-.71.87.87,0,0,0-.6-.22.4.4,0,0,0-.39.32.31.31,0,0,0,.25.41c.62.18.85.75,1.23,1.18.12.12,0,.23-.1.32a1.32,1.32,0,0,1-1,.32,2.16,2.16,0,0,1-2.24-1.82,1.77,1.77,0,0,1,.77-1.85,3.44,3.44,0,0,1,1.48-.51,3.58,3.58,0,0,1,3.69,1.45c.49.66.81,1.42,1.28,2.09.12.17,0,.26-.11.34A2.3,2.3,0,0,1,1697.92,54Z"/><path class="cls-10" d="M1693.62,44.81a37.52,37.52,0,0,1,3.82-.14c.74.06,1.47.17,2.22.23a27.64,27.64,0,0,0,3.64,0A5,5,0,0,1,1705,45a3.53,3.53,0,0,1,.75.32c.46.27.46.27.35.8-.06.29-.11.57-.15.86s-.14.34-.4.29a15.22,15.22,0,0,1-2.2-.6,7.74,7.74,0,0,0-2.8-.61,14.19,14.19,0,0,1-4.93-.73C1695,45.09,1694.28,45,1693.62,44.81Z"/><path class="cls-10" d="M1702.42,39.38a18.53,18.53,0,0,0,4,2,7.82,7.82,0,0,1,1.25.65c.2.13.38.27.6.42a13.92,13.92,0,0,0-1.13,1.49c-.12.2-.26.14-.42.09a8.63,8.63,0,0,1-1.77-.82,13.21,13.21,0,0,1-2.78-2.27c-.34-.38-.34-.38-.11-.82C1702.19,39.88,1702.3,39.65,1702.42,39.38Z"/><path class="cls-10" d="M1706.33,36.84c1,1.44,1.22,3.15,2.1,4.6-.15,0-.23-.08-.32-.14a9.23,9.23,0,0,0-2-1,15.72,15.72,0,0,1-3.12-1.5.72.72,0,0,1-.27-.83c.06-.14.18-.09.28-.08a4.86,4.86,0,0,0,1.93-.23A4.7,4.7,0,0,0,1706.33,36.84Z"/><path class="cls-11" d="M1725.45,40.25c-.18.11-.38.24-.58.35a4.81,4.81,0,0,0-1.36,1.14,14.3,14.3,0,0,1-1.61,1.69l-.34.28c-.18.14-.33.16-.47-.08A6.81,6.81,0,0,0,1720,42.3c0-.22.25-.3.4-.4.45-.29.89-.56,1.35-.82.89-.49,1.74-1,2.58-1.6.2-.13.33-.15.5.06S1725.22,40,1725.45,40.25Z"/><path class="cls-12" d="M1720.27,37.24a5.89,5.89,0,0,0-.86,2.38,3.38,3.38,0,0,1-.7,1.45c-.12.14-.2.22-.41.1a7,7,0,0,0-1.17-.56.35.35,0,0,1-.23-.51,7.81,7.81,0,0,1,.29-.81,8.21,8.21,0,0,1,1.74-2.54c.33-.34.26-.36.63,0S1720,37.05,1720.27,37.24Z"/><path class="cls-11" d="M1713.5,35.42a1.56,1.56,0,0,0,.35.13c.61.07.81.48.92,1a14.77,14.77,0,0,1,.33,3c0,.54,0,.54-.54.53-.36,0-.73,0-1.09,0s-.31-.08-.34-.3a7.27,7.27,0,0,1,0-1.68A12,12,0,0,1,1713.5,35.42Z"/><path class="cls-11" d="M1707.29,36.61a1.51,1.51,0,0,1,1.59.61,27.8,27.8,0,0,1,2.2,3c.21.34.2.33-.13.5l-1.06.55c-.33.17-.33.18-.55-.14a5.93,5.93,0,0,1-.62-1.2c-.22-.54-.41-1.09-.62-1.63A6.06,6.06,0,0,0,1707.29,36.61Z"/><path class="cls-11" d="M1712,39.89a29.34,29.34,0,0,0-2.78-3.47c.09-.17.26-.15.39-.2a7.17,7.17,0,0,0,2.26-1.37c.11-.1.19-.27.41-.14s.17.23.14.41A21.72,21.72,0,0,0,1712,39.89Z"/><path class="cls-11" d="M1719.78,41.28a8.34,8.34,0,0,0,.59-1.88,5.41,5.41,0,0,1,.59-1.57c.1-.18.19-.23.39-.17a5.66,5.66,0,0,0,2.05.19c.23,0,.3.08.38.27.26.6.27.59-.27.92Z"/><path class="cls-11" d="M1716,39.44a19.6,19.6,0,0,0-.51-3.62,6.45,6.45,0,0,0,2.94-.81,2.28,2.28,0,0,0,.18.38c.11.15.05.25-.06.37-.32.33-.63.66-.92,1a7.91,7.91,0,0,0-1.46,2.47C1716.15,39.31,1716.15,39.42,1716,39.44Z"/><path class="cls-8" d="M1717.27,93.84v11.45a.27.27,0,0,1-.23.31l-2.74.7a.9.9,0,0,1-.43,0c-.78-.2-1.55-.39-2.32-.6-.43-.11-.43-.12-.44-.54V82.81c0-.74.07-.67-.67-.67h-17.83c-.69,0-.69.08-.69-.68V77.27c0-.61,0-.57.56-.57h18c.76,0,.68.08.68-.72V59.9c0-.85-.1-.75.75-.75h4.86c.55,0,.55,0,.55.57V76c0,.83-.07.73.73.74h17.62c.12,0,.25,0,.38,0,.4,0,.41,0,.41.43v4.58c0,.42,0,.42-.43.43h-18c-.79,0-.72-.08-.72.69Z"/><path class="cls-10" d="M1722.19,85.72c0,.49,0,.9,0,1.32,0,.19-.07.26-.25.25s-.54,0-.79,0a.72.72,0,0,0-.08.46v8c0,.28.07.37.36.37,1,0,2,0,3,0H1726c.22,0,.36,0,.32.29s.06.38.35.37c.6,0,1.2,0,1.8,0,0-.09,0-.14,0-.19,0-.46,0-.47.48-.47h3.81c.11,0,.22,0,.35.07a14.29,14.29,0,0,1-1.6,2,20.3,20.3,0,0,1-6.68,4.61,49.35,49.35,0,0,1-6.33,2.3.36.36,0,0,1-.27,0,1.35,1.35,0,0,1,0-.53V83.52c0-.41,0-.41.42-.41q8.7,0,17.4,0c.41,0,.41,0,.42.41a25.07,25.07,0,0,1-.24,3.36,24.47,24.47,0,0,1-1.39,6.09,17.92,17.92,0,0,1-.78,1.73.88.88,0,0,1-.33.37V87.74c0-.44,0-.44-.44-.45-.66,0-.66,0-.67-.7,0-.27.12-.61,0-.79s-.51,0-.78,0a19.9,19.9,0,0,1-2.42-.36,2.56,2.56,0,0,0-1.74.23.38.38,0,0,1-.4,0,2.58,2.58,0,0,0-1.75-.22c-.32.07-.64.11-1,.17A7.09,7.09,0,0,1,1722.19,85.72Z"/><path class="cls-10" d="M1695.47,96.12h4c.57,0,.57,0,.6.65.65,0,1.32,0,2,0,.14,0,.19-.07.18-.2V96.2c.16-.13.33-.07.49-.08H1707c.4,0,.4,0,.4-.37q0-4.11,0-8.23a1.06,1.06,0,0,0,0-.2,3,3,0,0,0-.79,0c-.24,0-.31-.09-.3-.32,0-.4,0-.8,0-1.25a12.88,12.88,0,0,1-3.41-.36,2.54,2.54,0,0,0-1.49.21.55.55,0,0,1-.54,0,2.43,2.43,0,0,0-1.59-.22c-.34.07-.68.11-1,.18a7,7,0,0,1-2.29.16,7.37,7.37,0,0,0,0,1.32c0,.19-.06.25-.25.26s-.62-.13-.78,0-.07.59-.07.89c0,2.24,0,4.47,0,6.75-.22-.09-.27-.29-.35-.45a20.9,20.9,0,0,1-1.92-5.71,34.9,34.9,0,0,1-.56-5.3c0-.45,0-.43.39-.43h17.4c.42,0,.42,0,.42.46q0,6.08,0,12.15,0,4.43,0,8.83a1.48,1.48,0,0,1,0,.62c-.92-.25-1.83-.55-2.74-.86a33.26,33.26,0,0,1-6.91-3.18,16.7,16.7,0,0,1-4.75-4.5A1.24,1.24,0,0,1,1695.47,96.12Z"/><path class="cls-10" d="M1727.27,59.16h8.46c.11,0,.22,0,.32,0,.25,0,.39.05.35.33a2.43,2.43,0,0,0,0,.27V75.07c0,.66.11.6-.62.6q-8.49,0-17,0c-.77,0-.64.07-.64-.62q0-7.64,0-15.27a1.22,1.22,0,0,0,0-.27c-.05-.31.11-.35.38-.35,2.18,0,4.36,0,6.54,0Z"/><path class="cls-10" d="M1701.1,59.16h8.46c.12,0,.25,0,.38,0s.31.06.28.27,0,.22,0,.33V75.07c0,.67.11.6-.61.6q-8.5,0-17,0c-.71,0-.6.07-.6-.6q0-7.66,0-15.31c0-.7-.1-.59.61-.6Z"/><path class="cls-10" d="M1723.11,86.75c1,0,1.79-.33,2.68-.39a1.63,1.63,0,0,1,.7.07.44.44,0,0,1,.31.45c0,2.45,0,4.9,0,7.4a4.1,4.1,0,0,0-2.43.09,1.64,1.64,0,0,1-.32,0c-.85.11-.94,0-.94-.81V86.75Z"/><path class="cls-10" d="M1701.75,94.27a1.23,1.23,0,0,1,0-.5V87.12c0-.59.26-.83.87-.78a11,11,0,0,1,1.51.24,3.87,3.87,0,0,0,1,.15c.25,0,.29.1.29.32,0,2.32,0,4.65,0,7a.34.34,0,0,1-.33.4,2.46,2.46,0,0,1-1.08-.08A3.89,3.89,0,0,0,1701.75,94.27Z"/><path class="cls-10" d="M1700.49,94.27a3.94,3.94,0,0,0-2.23.07,2.32,2.32,0,0,1-1.08.07c-.19,0-.31-.09-.29-.31V86.76c.95-.05,1.85-.34,2.79-.42a1.24,1.24,0,0,1,.43,0c.36.1.44.19.45.57v6.75A.92.92,0,0,1,1700.49,94.27Z"/><path class="cls-10" d="M1731.62,86.73v7.14c0,.54,0,.55-.55.57a2.81,2.81,0,0,1-.91-.12,3.71,3.71,0,0,0-2.14,0c-.13-.18-.07-.36-.07-.54,0-2.18,0-4.36,0-6.54,0-.71.24-.91,1-.83a12.34,12.34,0,0,1,1.5.24A4.13,4.13,0,0,0,1731.62,86.73Z"/><path class="cls-1" d="M1752.63,70.05c0-1,0-2.07,0-3.1,0-.37,0-.38.39-.38a11,11,0,0,1,3,.22,3.9,3.9,0,0,1,3,2.88,4.87,4.87,0,0,1-.08,2.73,3.51,3.51,0,0,1-3.11,2.44,6.33,6.33,0,0,1-1.74,0,1.43,1.43,0,0,1-1.4-1.28,4.52,4.52,0,0,1-.06-1C1752.63,71.76,1752.63,70.9,1752.63,70.05Z"/><path class="cls-1" d="M1752.63,62.48c0-1,0-1.92,0-2.89,0-.47.09-.57.55-.64a6.69,6.69,0,0,1,2.71.1,2.91,2.91,0,0,1,2.32,2.8,5.13,5.13,0,0,1,0,1.3,3,3,0,0,1-2.87,2.55,22.86,22.86,0,0,1-2.34.07c-.28,0-.34-.09-.34-.34C1752.64,64.45,1752.63,63.46,1752.63,62.48Z"/><path class="cls-1" d="M1771.3,63.19V59.92c0-.93,0-.94,1-1a6,6,0,0,1,1.84.09,3.54,3.54,0,0,1,3,3.32,4.47,4.47,0,0,1-1.32,4,3.25,3.25,0,0,1-1.9.85c-.76.09-1.52,0-2.28.07-.28,0-.33-.12-.33-.36C1771.3,65.62,1771.3,64.4,1771.3,63.19Z"/><path class="cls-1" d="M1801,67.75a9.76,9.76,0,0,1-.83,4.19,5.4,5.4,0,0,1-4.75,3.31,5.76,5.76,0,0,1-5-2.27,8.58,8.58,0,0,1-1.72-3.72,12,12,0,0,1,.25-6.6,5.73,5.73,0,0,1,10.11-1.8,9,9,0,0,1,1.68,3.86A16.25,16.25,0,0,1,1801,67.75Z"/><path class="cls-8" d="M1717.6,29a4.36,4.36,0,0,1,3.67,2.22c.14.24.21.47,0,.69s-.37.24-.53,0a3.67,3.67,0,0,0-1.92-1.7,3.28,3.28,0,0,0-3.75.76c-.18.18-.28.16-.41-.05a.6.6,0,0,1,0-.8,2.26,2.26,0,0,1,.68-.54A4.78,4.78,0,0,1,1717.6,29Z"/><path class="cls-8" d="M1713.47,29.73a.65.65,0,0,1-.1.36c-.09.17-.21.22-.4.1a3.44,3.44,0,0,0-1-.47,2.69,2.69,0,0,0-2.49.6,7.7,7.7,0,0,0-.59.56c-.12.12-.23.29-.45.17a.57.57,0,0,1-.25-.62.79.79,0,0,1,.14-.23,3.88,3.88,0,0,1,3.19-1.57,2.94,2.94,0,0,1,1.78.73A.43.43,0,0,1,1713.47,29.73Z"/><path class="cls-8" d="M1704.3,31.34a3.47,3.47,0,0,1,1,.11c.34.1.42.23.32.55s-.19.37-.51.28a5.18,5.18,0,0,0-.53-.14,2.18,2.18,0,0,0-2.23.92,3.47,3.47,0,0,0-.56,1.12c-.06.19-.16.27-.35.24a.37.37,0,0,1-.35-.35,1.13,1.13,0,0,1,.08-.48A3.09,3.09,0,0,1,1704.3,31.34Z"/><path class="cls-8" d="M1729.38,34.2a2.85,2.85,0,0,1,2.79,1.72.59.59,0,0,1-.05.66.27.27,0,0,1-.46,0,2.53,2.53,0,0,1-.18-.27,2.39,2.39,0,0,0-2.86-1.11l-.26.08c-.17.05-.36.16-.46-.08a.46.46,0,0,1,.1-.6,1.49,1.49,0,0,1,.64-.29A5.83,5.83,0,0,1,1729.38,34.2Z"/><path class="cls-8" d="M1696.25,37.39c.26,0,.53,0,.65.29s0,.42-.28.44a6.29,6.29,0,0,0-.86.05,2,2,0,0,0-1.56,1.42c0,.13,0,.33-.21.34a.44.44,0,0,1-.43-.35.82.82,0,0,1,0-.49,2,2,0,0,1,.84-1.16A3.5,3.5,0,0,1,1696.25,37.39Z"/><path class="cls-8" d="M1724.5,31.91a1.94,1.94,0,0,1,1.91,1.19,1.28,1.28,0,0,1,.1.47.36.36,0,0,1-.3.35c-.16,0-.25-.07-.33-.2-.66-1.08-1-1.21-2.24-.89l-.1,0c-.19,0-.41.13-.48-.16a.44.44,0,0,1,.26-.57,2.21,2.21,0,0,1,.42-.12Z"/><path class="cls-8" d="M1735.3,38.55a1.52,1.52,0,0,1-.06.42c-.08.25-.27.27-.48.26s-.23-.18-.22-.35a2.36,2.36,0,0,0,0-.38.88.88,0,0,0-.86-.83,2.55,2.55,0,0,0-.39,0c-.23,0-.38-.08-.39-.34s.06-.41.35-.45A1.74,1.74,0,0,1,1735.3,38.55Z"/><path class="cls-8" d="M1699.82,34.74c.18,0,.36,0,.39.25s-.06.46-.32.52a2.69,2.69,0,0,0-.91.33,1.6,1.6,0,0,0-.64.85c-.07.17-.12.35-.37.28a.42.42,0,0,1-.34-.48,1.93,1.93,0,0,1,.12-.41A2.31,2.31,0,0,1,1699.82,34.74Z"/><path class="cls-8" d="M1711.54,44.55a5.51,5.51,0,0,1,1.54.21c.38.1.43.18.37.58,0,.11,0,.22-.06.32s-.12.21-.27.16l-.21-.06c-.21,0-.34,0-.42.25a.87.87,0,0,1-1.71-.15c0-.32-.19-.35-.43-.33a1.48,1.48,0,0,0-.61.21c-.11,0-.24.17-.35,0s0-.24.11-.32A2.71,2.71,0,0,1,1711.54,44.55Z"/><path class="cls-8" d="M1716.44,44.65a3.65,3.65,0,0,1,1.61.28,1.81,1.81,0,0,1,.89.77c0,.08.15.19,0,.28s-.16,0-.23-.06a1.56,1.56,0,0,0-.75-.31c-.19,0-.28,0-.32.25-.09.53-.31.74-.75.79a.79.79,0,0,1-.92-.58c-.13-.34-.35-.24-.57-.24-.4,0-.42,0-.48-.31s0-.64.33-.74A3.57,3.57,0,0,1,1716.44,44.65Z"/><path class="cls-8" d="M1712.87,47.82a3.54,3.54,0,0,0,2.21-.25c.2.75,0,1.13-.67,1.24C1713.43,49,1712.85,48.68,1712.87,47.82Z"/><path class="cls-8" d="M1722.19,61.9a9.26,9.26,0,0,0,3-.27,3,3,0,0,1,2,.2.38.38,0,0,0,.4,0,2.83,2.83,0,0,1,1.81-.2l1.72.29a4.34,4.34,0,0,0,1.44,0c0,.41,0,.8,0,1.19s0,.42.4.43c.7,0,.7,0,.7.72v7.41c0,.11,0,.22,0,.33,0,.3-.11.38-.38.35h-4.36c-.42,0-.43,0-.47.41,0,.19-.09.25-.27.25-.53,0-1.06,0-1.58,0-.27,0-.38-.09-.34-.35s-.11-.31-.35-.31h-4.31c-.5,0-.54.12-.54-.51V64c0-.56,0-.51.49-.51h.21c.41,0,.41,0,.42-.43Z"/><path class="cls-8" d="M1696,61.91a10.21,10.21,0,0,0,3.07-.29,2.79,2.79,0,0,1,1.91.2.38.38,0,0,0,.4,0,2.9,2.9,0,0,1,1.86-.19c.57.1,1.14.23,1.72.29a5.91,5.91,0,0,0,1.33,0,4.24,4.24,0,0,1,0,1.23c0,.28.08.39.37.37a2.06,2.06,0,0,1,.7,0,1,1,0,0,1,0,.53q0,3.84,0,7.68v.06c0,.51,0,.51-.5.51h-4.09a2.43,2.43,0,0,1-.27,0c-.24,0-.39,0-.35.32s-.08.35-.34.34c-.5,0-1,0-1.52,0-.23,0-.35-.07-.32-.31s-.11-.36-.37-.35h-4.36c-.51,0-.49,0-.49-.46V64c0-.45,0-.45.44-.45.67,0,.66,0,.67-.71A4.47,4.47,0,0,1,1696,61.91Z"/><path class="cls-10" d="M1723,63c.8,0,1.53-.25,2.28-.35l.32-.05c.91-.07,1.09.1,1.09,1v6.38a1.55,1.55,0,0,1,0,.56,3.57,3.57,0,0,0-2.24,0,2.68,2.68,0,0,1-1,.1c-.41,0-.43-.06-.44-.46V63Z"/><path class="cls-10" d="M1727.8,70.5V63.18c0-.42.19-.6.64-.63a4.39,4.39,0,0,1,1.3.13,16,16,0,0,0,1.71.27,1,1,0,0,1,0,.45V70c0,.53,0,.58-.59.59a3.21,3.21,0,0,1-1-.14A3.24,3.24,0,0,0,1727.8,70.5Z"/><path class="cls-10" d="M1701.71,70.47V63.3c0-.58.15-.74.73-.76a10.34,10.34,0,0,1,1.83.26l.37.07c.25.05.57,0,.71.15s.05.45.05.69V70c0,.53-.05.58-.58.6a3.42,3.42,0,0,1-1-.13A3.44,3.44,0,0,0,1701.71,70.47Z"/><path class="cls-10" d="M1696.89,63c.8-.06,1.54-.26,2.29-.37a2.83,2.83,0,0,1,.87,0,.51.51,0,0,1,.51.58c0,2.39,0,4.79,0,7.19a.59.59,0,0,1,0,.14,3.76,3.76,0,0,0-2.32.08,2.6,2.6,0,0,1-.92.06c-.27,0-.39-.12-.38-.4s0-.77,0-1.15V63Z"/></g></svg>