<?xml version="1.0" encoding="UTF-8"?>
<svg id="uuid-88b5e101-e4ad-40c9-92f1-d96a8c4b1b83" data-name="Layer 1" xmlns="http://www.w3.org/2000/svg" width="15.64in" height="33.83in" viewBox="0 0 1126.2 2436">
  <g id="uuid-580ddb86-5627-40d0-a39c-0c1ca3190a04" data-name="a">
    <rect width="1126.2" height="2436" fill="#fefced"/>
    <rect y="290.8" width="1126.2" height="2145.2" fill="#2d2ff5"/>
    <g>
      <g>
        <rect x="92.2" y="1336.9" width="940.5" height="940.6" fill="#fefced" stroke="#2d2ff5" stroke-miterlimit="10" stroke-width="1.15"/>
        <line x1="876" y1="2277.5" x2="876" y2="1336.9" fill="none" stroke="#2d2ff5" stroke-miterlimit="10" stroke-width="1.15"/>
        <line x1="719.3" y1="2277.5" x2="719.3" y2="1336.9" fill="none" stroke="#2d2ff5" stroke-miterlimit="10" stroke-width="1.15"/>
        <line x1="562.5" y1="2277.5" x2="562.5" y2="1336.9" fill="none" stroke="#2d2ff5" stroke-miterlimit="10" stroke-width="1.15"/>
        <line x1="405.7" y1="2277.5" x2="405.7" y2="1336.9" fill="none" stroke="#2d2ff5" stroke-miterlimit="10" stroke-width="1.15"/>
        <line x1="249" y1="2277.5" x2="249" y2="1336.9" fill="none" stroke="#2d2ff5" stroke-miterlimit="10" stroke-width="1.15"/>
        <line x1="92.2" y1="1493.7" x2="1032.8" y2="1493.7" fill="none" stroke="#2d2ff5" stroke-miterlimit="10" stroke-width="1.15"/>
        <line x1="92.2" y1="1650.5" x2="1032.8" y2="1650.5" fill="none" stroke="#2d2ff5" stroke-miterlimit="10" stroke-width="1.15"/>
        <line x1="92.2" y1="1807.2" x2="1032.8" y2="1807.2" fill="none" stroke="#2d2ff5" stroke-miterlimit="10" stroke-width="1.15"/>
        <line x1="92.2" y1="1964" x2="1032.8" y2="1964" fill="none" stroke="#2d2ff5" stroke-miterlimit="10" stroke-width="1.15"/>
        <line x1="92.2" y1="2120.7" x2="1032.8" y2="2120.7" fill="none" stroke="#2d2ff5" stroke-miterlimit="10" stroke-width="1.15"/>
      </g>
      <g>
        <rect x="92.2" y="396.4" width="940.5" height="940.5" fill="#fefced" stroke="#2d2ff5" stroke-miterlimit="10" stroke-width="1.15"/>
        <line x1="876" y1="1336.9" x2="876" y2="396.4" fill="none" stroke="#2d2ff5" stroke-miterlimit="10" stroke-width="1.15"/>
        <line x1="719.3" y1="1336.9" x2="719.3" y2="396.4" fill="none" stroke="#2d2ff5" stroke-miterlimit="10" stroke-width="1.15"/>
        <line x1="562.5" y1="1336.9" x2="562.5" y2="396.4" fill="none" stroke="#2d2ff5" stroke-miterlimit="10" stroke-width="1.15"/>
        <line x1="405.7" y1="1336.9" x2="405.7" y2="396.4" fill="none" stroke="#2d2ff5" stroke-miterlimit="10" stroke-width="1.15"/>
        <line x1="249" y1="1336.9" x2="249" y2="396.4" fill="none" stroke="#2d2ff5" stroke-miterlimit="10" stroke-width="1.15"/>
        <line x1="92.2" y1="553.2" x2="1032.8" y2="553.2" fill="none" stroke="#2d2ff5" stroke-miterlimit="10" stroke-width="1.15"/>
        <line x1="92.2" y1="709.9" x2="1032.8" y2="709.9" fill="none" stroke="#2d2ff5" stroke-miterlimit="10" stroke-width="1.15"/>
        <line x1="92.2" y1="866.7" x2="1032.8" y2="866.7" fill="none" stroke="#2d2ff5" stroke-miterlimit="10" stroke-width="1.15"/>
        <line x1="92.2" y1="1023.4" x2="1032.8" y2="1023.4" fill="none" stroke="#2d2ff5" stroke-miterlimit="10" stroke-width="1.15"/>
        <line x1="92.2" y1="1180.2" x2="1032.8" y2="1180.2" fill="none" stroke="#2d2ff5" stroke-miterlimit="10" stroke-width="1.15"/>
      </g>
    </g>
    <g>
      <g>
        <rect x="2.3" y="869.7" width="401.4" height="151.3" fill="#fefced"/>
        <path d="M401.4,872v146.7H4.6v-146.7H401.4m4.6-4.6H0v155.9H406v-155.9h0Z" fill="#2d2ff5"/>
      </g>
      <polygon points="562.3 1179.8 562.3 1020.7 405.3 1179.8 562.3 1179.8" fill="#2d2ff5"/>
      <polygon points="405.9 866.9 246.8 866.9 405.9 1023.8 405.9 866.9" fill="#2d2ff5"/>
      <polygon points="875.3 1179.8 717.3 1179.8 559.3 1335.9 875.3 1335.9 875.3 1179.8" fill="#2d2ff5"/>
      <path d="M712.7,1184.4v146.9h-146.9v-146.9h146.9m4.6-4.6h-156.1v156.1h156.1v-156.1h0Z" fill="#2d2ff5"/>
      <g>
        <polygon points="721.5 1646.5 721.5 1338.2 873 1338.2 873 1495 1123.8 1495 1123.8 1646.5 721.5 1646.5" fill="#fefced"/>
        <path d="M870.7,1340.5v156.8h250.8v146.9h-397.7v-303.7h146.9m4.6-4.6h-156.1v312.9h406.9v-156.1h-250.8v-156.8h0Z" fill="#2d2ff5"/>
      </g>
      <path d="M557.6,394.7v779.6h-146.7V394.7h146.7m4.6-4.6h-155.9v788.8h155.9V390.1h0Z" fill="#2d2ff5"/>
      <path d="M562.1,1028.4l149.9,150.5-150.1,150.5-150.1-150.5,150.3-150.5m0-6.5l-156.7,157,156.6,157,156.6-157-156.5-157h0Z" fill="#2d2ff5"/>
    </g>
    <g id="uuid-6a4d2a8e-4b67-4e7e-b921-e919d9275cf4" data-name="b">
      <rect x="92.2" y="553.2" width="313" height="157.2" fill="#fefced" stroke="#2d2ff5" stroke-miterlimit="10" stroke-width=".58"/>
      <rect x="249.2" y="1651.5" width="470" height="154.2" fill="#fefced" stroke="#2d2ff5" stroke-miterlimit="10" stroke-width=".7"/>
      <rect x="563.1" y="1807.2" width="470" height="154.2" fill="#fefced" stroke="#2d2ff5" stroke-miterlimit="10" stroke-width=".7"/>
    </g>
    <g>
      <path d="M167.8,574.5c14.1,0,25.3,2.4,33.5,7.1,8.2,4.8,12.3,12.3,12.3,22.8,0,6.1-1.6,11.2-4.8,15.3-3.2,4.1-7.2,7.3-12.1,9.4h14.1v54.8h-14.1v-49.3h-54.3v49.3h-13.8v-109.4h39.2Zm17,46c4.2-.8,7.4-2.4,9.8-4.9,2.4-2.5,3.5-6.2,3.5-11.2s-1.2-8.5-3.5-11-5.6-4-9.8-4.8-9.8-1.1-17-1.1h-25.3v34.1h25.3c7.1,.1,12.8-.3,17-1.1h0Z" fill="#1041f5"/>
      <path d="M245,659.5c1.2,3.4,3.7,6.2,7.4,8.5,3.8,2.3,9.2,3.4,16.4,3.4s13.2-1.2,17.4-3.7c4.2-2.5,6.7-6.2,7.5-11h14c-1.1,8.8-5.2,15.7-12.3,20.5-7.1,4.8-16,7.2-26.7,7.2-15.8,0-26.6-4.1-32.2-12.3-5.6-8.2-8.5-17.8-8.5-28.1,0-15.2,3.5-26.7,10.6-34.3s17.1-11.4,30.2-11.4,23.2,4,30.1,12c6.9,8,10.4,20.6,10.4,37.7h-66.1c.1,4.3,.7,8.1,1.8,11.5h0Zm42-42.2c-3.7-4.3-9.8-6.5-18.2-6.5s-14.8,2.2-18.7,6.5-6.2,10.9-6.8,19.8h50c-.5-8.9-2.6-15.5-6.3-19.8h0Z" fill="#1041f5"/>
      <path d="M380.9,634.3v12.8h-60.8v-12.8h60.8Z" fill="#1041f5"/>
    </g>
    <g>
      <g>
        <polygon points="1052 667.9 1031.7 656 1031.1 461.6 1051.5 473.4 1052 667.9" fill="#fefced"/>
        <polygon points="524.2 972.6 503.8 960.8 1031.7 656 1052 667.9 524.2 972.6" fill="#fefced"/>
        <polygon points="522.6 975.4 502.2 963.6 501.6 765.4 522 777.2 522.6 975.4" fill="#fefced"/>
        <polygon points="522 777.2 501.6 765.4 1032.7 458.8 1053.1 470.6 522 777.2" fill="#fefced"/>
        <path d="M522,777.2l531.1-306.6,.6,198.2-531.1,306.6-.6-198.2h0Zm530-109.3l-.6-194.4-527.7,304.7,.6,194.4,527.7-304.7" fill="#fefced"/>
      </g>
      <g>
        <polygon points="1051.2 667.4 1030.8 655.6 1030.3 463 1050.7 474.8 1051.2 667.4" fill="#2d2ff5"/>
        <polygon points="525 971.2 504.7 959.3 1030.8 655.6 1051.2 667.4 525 971.2" fill="#2d2ff5"/>
        <polygon points="523.4 974 503 962.2 502.5 765.8 522.8 777.7 523.4 974" fill="#2d2ff5"/>
        <polygon points="522.8 777.7 502.5 765.8 1031.9 460.2 1052.3 472 522.8 777.7" fill="#2d2ff5"/>
        <path d="M522.8,777.7l529.5-305.7,.6,196.3-529.5,305.7-.6-196.3h0Zm528.4-110.3l-.6-192.6-526.1,303.8,.6,192.6,526.1-303.8" fill="#2d2ff5"/>
      </g>
      <g>
        <g>
          <path d="M1000.8,661.5l-20.4-11.8c20.3-11.7,33.5-28.4,34.8-44l20.4,11.8c-1.4,15.5-14.6,32.2-34.8,44Z" fill="#2d2ff5"/>
          <polygon points="1022.1 625.2 1001.8 613.4 1015.2 605.6 1035.6 617.5 1022.1 625.2" fill="#fefced"/>
          <polygon points="1035.7 605.9 1015.3 594 1015.3 589.5 1035.7 601.3 1035.7 605.9" fill="#2d2ff5"/>
          <polygon points="1019.8 623.5 999.4 611.7 1018 601 1038.4 612.8 1019.8 623.5" fill="#2d2ff5"/>
          <path d="M970,667l-20.4-11.8c6.8,3.9,17.3,2.2,30.8-5.6l20.4,11.8c-13.5,7.8-24.1,9.6-30.8,5.6Z" fill="#2d2ff5"/>
          <path d="M980.7,639.2c11.9-6.8,19.6-16.4,21.1-25.9l20.4,11.8c-1.4,9.4-9.2,19-21.1,25.9-7.8,4.5-14,5.5-18.1,3.1l-20.4-11.8c4.1,2.4,10.3,1.5,18.1-3.1Z" fill="#fefced"/>
          <polygon points="1019.7 625 999.3 613.1 999.4 611.7 1019.8 623.5 1019.7 625" fill="#2d2ff5"/>
          <path d="M984.8,651l-20.4-11.8c3.7,2.1,9.2,1.2,16.2-2.9,11-6.3,18-15,18.6-23.1l20.4,11.8c-.7,8.1-7.6,16.7-18.6,23.1-7,4.1-12.5,5-16.2,2.9Z" fill="#2d2ff5"/>
          <polygon points="976.9 639.8 956.5 628 1015.3 594 1035.7 605.9 976.9 639.8" fill="#2d2ff5"/>
          <polygon points="1022.3 606.3 1001.9 594.5 1001.9 591.9 1022.3 603.7 1022.3 606.3" fill="#fefced"/>
          <path d="M1007.6,570l20.4,11.8c5,2.9,7.7,9.4,7.7,19.4l-20.4-11.8c-.1-9.9-2.7-16.4-7.7-19.4Z" fill="#2d2ff5"/>
          <path d="M1001.9,591.9c0-5.2-1.5-8.5-4.2-10.1l20.4,11.8c2.7,1.6,4.2,5,4.2,10.1-6.1-3.5-14.3-8.3-20.4-11.8Z" fill="#fefced"/>
          <path d="M995.8,585l20.4,11.8c2.2,1.3,3.3,3.9,3.4,8l-20.4-11.8c0-4.1-1.2-6.8-3.4-8Z" fill="#2d2ff5"/>
          <path d="M998.1,568.4c3.7-.4,6.9,.1,9.4,1.6l20.4,11.8c-2.6-1.5-5.7-2-9.4-1.6-6.8-3.9-13.6-7.8-20.4-11.8Z" fill="#fefced"/>
          <path d="M982.9,654.2l-20.4-11.8c-3.4-2-5.5-6.3-5.9-12.8l20.4,11.8c.5,6.5,2.5,10.8,5.9,12.8Z" fill="#2d2ff5"/>
          <polygon points="977 641.4 956.6 629.5 956.5 628 976.9 639.8 977 641.4" fill="#2d2ff5"/>
          <polygon points="977.2 632.3 956.8 620.5 1001.9 594.5 1022.3 606.3 977.2 632.3" fill="#fefced"/>
          <polygon points="980.4 627.4 960 615.6 999.2 592.9 1019.6 604.8 980.4 627.4" fill="#2d2ff5"/>
          <polygon points="977.2 632.3 956.8 620.5 957.1 618.5 977.5 630.3 977.2 632.3" fill="#2d2ff5"/>
          <path d="M949.6,655.2c-3.8-2.2-6.4-6.2-7.6-12,6.8,4,13.6,7.9,20.4,11.8,1.2,5.8,3.8,9.8,7.6,12-6.1-3.5-14.3-8.3-20.4-11.8Z" fill="#fefced"/>
          <path d="M997.7,581.7l20.4,11.8c-3.6-2.1-9.5-1-17.3,3.5-13.1,7.6-21.2,19.1-23.3,33.2l-20.4-11.8c2.1-14.2,10.2-25.7,23.3-33.2,7.8-4.4,13.7-5.6,17.3-3.5Z" fill="#2d2ff5"/>
          <path d="M941.3,635.5c0-8.8,2.1-17.5,5.9-25.7,6.8,4,13.6,7.9,20.4,11.8-3.9,8.2-5.9,16.9-5.9,25.7,0,2.8,.2,5.4,.7,7.7-6.8-4-13.6-7.9-20.4-11.8-.4-2.3-.7-4.9-.7-7.7Z" fill="#fefced"/>
          <path d="M998.1,568.4c.2,0,.4,.2,.6,.3,6.6,3.8,13.2,7.7,19.8,11.5-5,.5-11,2.8-17.9,6.8-15,8.7-26.5,21-32.9,34.6-6.8-4-13.6-7.9-20.4-11.8,6.5-13.7,17.9-26,32.9-34.6,6.9-4,12.9-6.2,17.9-6.8h0Z" fill="#fefced"/>
          <path d="M1035.7,601.3v4.6l-58.8,33.9,.1,1.6c1,14.4,9.8,18,24.1,9.7,11.9-6.8,19.6-16.4,21.1-25.9l13.5-7.8c-1.4,15.6-14.6,32.3-34.8,44-24,13.9-39,8.5-39.1-14.1s14.8-46.4,38.8-60.3c22.2-12.8,35-7.6,35.1,14.3h0Zm-13.4,5v-2.6c0-12.1-7.9-14.5-21.5-6.6-13.6,7.9-21.2,19.1-23.3,33.2l-.3,2,45.1-26" fill="#fefced"/>
          <path d="M1019.8,623.5l18.6-10.7-.1,1.6c-.6,17.8-15,37-37.6,50-25.7,14.8-41.6,8.8-41.7-15.6-.1-25.2,15.8-50,41.5-64.9,23.6-13.6,37.7-7.7,37.7,15.8v7.6l-58.5,33.8c1.4,11.6,8.9,14,21.3,6.9,11-6.3,18-15,18.6-23.1l.2-1.4h0Zm-19,37.9c20.3-11.7,33.5-28.4,34.8-44l-13.5,7.8c-1.4,9.4-9.2,19-21.1,25.9-14.3,8.2-23,4.7-24.1-9.7l-.1-1.6,58.8-33.9v-4.6c-.1-21.9-12.9-27.1-35.1-14.3-24,13.9-38.9,37-38.8,60.3,.1,22.6,15,28,39.1,14.1" fill="#2d2ff5"/>
          <path d="M1022.3,603.7v2.6l-45.1,26,.3-2c2.1-14.2,10.2-25.7,23.3-33.2s21.4-5.4,21.5,6.6h0Zm-41.9,23.7l39.2-22.6c-.2-9.9-6.9-11.5-18.9-4.6-11.2,6.4-18,15.6-20.3,27.2" fill="#2d2ff5"/>
          <path d="M968.1,670.3l-20.4-11.8c-5.8-3.4-9-10.6-9-21.5-.1-25.2,15.8-50,41.5-64.9,12.8-7.4,22.8-9,29.2-5.2l20.4,11.8c-6.5-3.8-16.5-2.1-29.2,5.2-25.7,14.8-41.6,39.7-41.5,64.9,0,11,3.2,18.2,9,21.5Z" fill="#2d2ff5"/>
        </g>
        <g>
          <polygon points="929.5 701.4 909.1 689.6 924.2 680.8 944.6 692.7 929.5 701.4" fill="#2d2ff5"/>
          <polygon points="944.6 692.7 924.2 680.8 924.1 634.5 944.4 646.3 944.6 692.7" fill="#2d2ff5"/>
          <path d="M909,647c0-5.9-1.5-9.7-4.3-11.3l20.4,11.8c2.8,1.6,4.3,5.4,4.3,11.3-6.2-3.5-14.3-8.2-20.4-11.8Z" fill="#fefced"/>
          <path d="M902.7,639l20.4,11.8c2.3,1.4,3.6,4.6,3.6,9.6l-20.4-11.8c0-5-1.2-8.3-3.6-9.6Z" fill="#2d2ff5"/>
          <polygon points="929.5 701.4 909.1 689.6 909 647 929.3 658.9 929.5 701.4" fill="#fefced"/>
          <polygon points="926.8 706 906.5 694.1 906.3 648.6 926.7 660.4 926.8 706" fill="#2d2ff5"/>
          <path d="M918,619l20.4,11.8c3.9,2.3,6,7.5,6.1,15.5l-20.4-11.8c-.1-8-2.2-13.2-6.1-15.5Z" fill="#2d2ff5"/>
          <polygon points="875.2 732.7 854.8 720.9 870 712.2 890.3 724 875.2 732.7" fill="#2d2ff5"/>
          <polygon points="890.3 724 870 712.2 869.9 676.5 890.2 688.3 890.3 724" fill="#2d2ff5"/>
          <path d="M918,619l20.4,11.8c-4.5-2.6-11.3-1.4-20.1,3.7l-20.4-11.8c8.8-5.1,15.7-6.3,20.1-3.7Z" fill="#fefced"/>
          <path d="M919.9,615.9l20.4,11.8c-5-2.9-12.5-1.7-22,3.8l-20.4-11.8c9.5-5.5,17-6.7,22-3.8Z" fill="#2d2ff5"/>
          <path d="M904.6,635.7l20.4,11.8c-3-1.7-7.5-1-13.2,2.3-13.3,7.7-21.6,22.4-21.5,38.5l-20.4-11.8c-.1-16,8.2-30.7,21.5-38.5,5.7-3.3,10.2-4,13.2-2.3Z" fill="#2d2ff5"/>
          <polygon points="892 669.5 871.7 657.6 871.9 656.3 892.3 668.2 892 669.5" fill="#fefced"/>
          <path d="M884.3,633.3c3.8-4,8.4-7.6,13.5-10.6l20.4,11.8c-5.2,3-9.7,6.6-13.5,10.6-6.8-3.9-13.5-7.9-20.4-11.8Z" fill="#fefced"/>
          <polygon points="889.8 670.8 869.4 658.9 871.7 657.6 892 669.5 889.8 670.8" fill="#fefced"/>
          <polygon points="889.8 670.8 869.4 658.9 869.2 657.8 889.6 669.6 889.8 670.8" fill="#2d2ff5"/>
          <path d="M871.9,656.3c1.7-8.4,6.1-16.3,12.4-23,6.8,4,13.6,7.9,20.4,11.8-6.4,6.7-10.7,14.7-12.4,23-6.1-3.5-14.3-8.2-20.4-11.8Z" fill="#fefced"/>
          <path d="M854.7,678c0-5.6-1.5-9.2-4.3-10.9l20.4,11.8c2.8,1.6,4.3,5.3,4.3,10.9-6.1-3.5-14.3-8.2-20.4-11.8Z" fill="#fefced"/>
          <path d="M848.5,670.4l20.4,11.8c2.3,1.3,3.6,4.4,3.6,9.1l-20.4-11.8c0-4.7-1.3-7.7-3.6-9.1Z" fill="#2d2ff5"/>
          <polygon points="875.2 732.7 854.8 720.9 854.7 678 875.1 689.9 875.2 732.7" fill="#fefced"/>
          <polygon points="872.6 737.3 852.2 725.4 852.1 679.6 872.5 691.4 872.6 737.3" fill="#2d2ff5"/>
          <path d="M891.1,663.8l-20.4-11.8c4.2-13,13.8-24.6,27.2-32.3l20.4,11.8c-13.4,7.7-23,19.3-27.2,32.3h0Z" fill="#2d2ff5"/>
          <path d="M864.5,650.1l20.4,11.8c2.4,1.4,4.1,4,4.7,7.7l-20.4-11.8c-.7-3.7-2.3-6.3-4.7-7.7Z" fill="#2d2ff5"/>
          <polygon points="820.8 764.1 800.5 752.3 815.6 743.5 835.9 755.4 820.8 764.1" fill="#2d2ff5"/>
          <polygon points="835.9 755.4 815.6 743.5 815.5 708.5 835.8 720.3 835.9 755.4" fill="#2d2ff5"/>
          <polygon points="837.6 702.1 817.2 690.3 817.5 689 837.9 700.9 837.6 702.1" fill="#fefced"/>
          <path d="M850.4,667.2l20.4,11.8c-3.1-1.8-7.7-1.1-13.6,2.3-13.2,7.6-21.4,22.6-21.4,39l-20.4-11.8c-.1-16.4,8.2-31.3,21.4-39,5.9-3.4,10.5-4.1,13.6-2.3Z" fill="#2d2ff5"/>
          <polygon points="835.1 703.5 814.7 691.7 817.2 690.3 837.6 702.1 835.1 703.5" fill="#fefced"/>
          <path d="M817.5,689c.9-3.7,2.1-7.3,3.6-10.6,6.8,4,13.6,7.9,20.4,11.8-1.6,3.4-2.8,6.9-3.6,10.6-6.1-3.5-14.3-8.2-20.4-11.8Z" fill="#fefced"/>
          <path d="M823.1,674.5c6.8,4,13.6,7.9,20.4,11.8-.7,1.3-1.4,2.5-2,3.9-6.8-4-13.6-7.9-20.4-11.8,.7-1.3,1.3-2.6,2-3.9Z" fill="#fefced"/>
          <path d="M843.5,654.1c9.2-5.3,16.5-6.6,21-4l20.4,11.8c-4.5-2.6-11.8-1.3-21,4-8.3,4.8-15,11.5-19.8,19.4-6.8-4-13.6-7.9-20.4-11.8,4.7-7.9,11.5-14.6,19.8-19.4Z" fill="#fefced"/>
          <path d="M823.1,674.5c.2-.3,.4-.7,.6-1,6.8,4,13.6,7.9,20.4,11.8-.2,.3-.4,.7-.6,1-3.4-1.9-10.2-5.9-20.4-11.8h0Z" fill="#fefced"/>
          <path d="M866.4,646.8l20.4,11.8c-5-2.9-12.9-1.5-22.9,4.2-11.8,6.8-20.9,17.5-25.8,30l-20.4-11.8c4.9-12.5,14.1-23.2,25.8-30,10-5.7,17.9-7,22.9-4.2Z" fill="#2d2ff5"/>
          <polygon points="835.1 703.5 814.7 691.7 815.3 671.6 835.7 683.4 835.1 703.5" fill="#2d2ff5"/>
          <polygon points="820.8 764.1 800.5 752.3 800.2 680.3 820.6 692.1 820.8 764.1" fill="#fefced"/>
          <path d="M918.2,634.5c16.6-9.6,26.1-5.3,26.2,11.8l.1,46.3-15.1,8.7-.1-42.5c0-12.2-6.4-15.5-17.6-9-13.3,7.7-21.6,22.4-21.5,38.5l.1,35.7-15.1,8.7-.1-42.8c0-11.8-6.7-15-17.9-8.5-13.2,7.6-21.4,22.6-21.4,39l.1,35.1-15.1,8.7-.2-72,15.1-8.7-.6,20.1,2.5-1.4,.3-1.2c3.4-14.8,12.7-27.2,26-34.9,14.2-8.2,23.9-6.8,25.7,3.7l.2,1.1,2.3-1.3,.3-1.3c2.6-13.6,12.1-25.8,25.8-33.8h0Z" fill="#fefced"/>
          <polygon points="820.6 692.1 800.2 680.3 815.3 671.6 835.7 683.4 820.6 692.1" fill="#fefced"/>
          <polygon points="818.2 768.7 797.8 756.8 797.6 678.8 818 690.6 818.2 768.7" fill="#2d2ff5"/>
          <path d="M918.2,631.5c18-10.4,28.8-5.4,28.8,13.3l.1,49.3-20.3,11.9-.1-45.5c0-10.4-5.3-13.1-14.9-7.5-11.9,6.9-19,19.5-18.9,33.9l.1,38.7-20.4,11.8-.1-45.9c0-10-5.6-12.6-15.2-7-11.8,6.8-18.8,19.7-18.8,34.4l.1,38.1-20.4,11.8-.2-78,20.4-11.8-.4,14.1c4.9-12.5,14.1-23.2,25.8-30,13.8-8,23.7-7.5,27.2,.9,4.2-13.2,13.9-24.8,27.2-32.5h0Zm26.4,61.2l-.1-46.3c-.1-17.1-9.6-21.4-26.2-11.8-13.8,7.9-23.2,20.2-25.9,33.6l-.3,1.3-2.3,1.3-.2-1.1c-1.8-10.5-11.5-11.9-25.7-3.7-13.3,7.7-22.5,20.1-26,34.9l-.3,1.2-2.5,1.4,.6-20.1-15.1,8.7,.2,72,15.1-8.7-.1-35.1c-.1-16.4,8.2-31.3,21.4-39,11.2-6.4,17.8-3.2,17.9,8.5l.1,42.8,15.1-8.7-.1-35.7c-.1-16,8.2-30.7,21.5-38.5,11.1-6.4,17.5-3.1,17.6,9l.1,42.5,15.2-8.5" fill="#2d2ff5"/>
          <polygon points="818 690.6 797.6 678.8 818.1 667 838.4 678.8 818 690.6" fill="#2d2ff5"/>
        </g>
        <g>
          <polygon points="786.2 784.1 765.8 772.3 780.8 763.6 801.2 775.4 786.2 784.1" fill="#2d2ff5"/>
          <polygon points="783.3 788.8 763 777 763.1 775.2 783.5 787.1 783.3 788.8" fill="#2d2ff5"/>
          <path d="M766.5,758.4c6.8,4,13.6,7.9,20.4,11.8-.1,5.3-.4,10.8-.6,13.8l-20.4-11.8c.2-3,.5-8.5,.6-13.8Z" fill="#fefced"/>
          <path d="M783.5,787.1l-20.4-11.8c.1-1.5,.4-5.3,.6-9.7l20.4,11.8c-.2,4.4-.5,8.2-.6,9.7Z" fill="#2d2ff5"/>
          <path d="M766.5,758.4v-1.6l20.4,11.8v1.6c-6.9-3.9-13.6-7.8-20.4-11.8Z" fill="#fefced"/>
          <polygon points="786.8 768.7 766.5 756.8 766.5 755.3 786.8 767.2 786.8 768.7" fill="#fefced"/>
          <polygon points="784.1 769.9 763.7 758 764 756.8 784.3 768.6 784.1 769.9" fill="#2d2ff5"/>
          <polygon points="784.3 768.6 764 756.8 766.5 755.3 786.8 767.2 784.3 768.6" fill="#2d2ff5"/>
          <polygon points="801.2 775.4 780.8 763.6 780.7 719.4 801.1 731.2 801.2 775.4" fill="#2d2ff5"/>
          <path d="M732.2,808l-20.4-11.8c4.7,2.8,13,1,24.1-5.4,15.8-9.1,25.4-20.4,27.8-32.8l20.4,11.8c-2.5,12.3-12.1,23.7-27.8,32.8-11.1,6.4-19.4,8.2-24.1,5.4Z" fill="#2d2ff5"/>
          <path d="M757.1,764.4c3-3.7,5.3-7.5,6.7-11.3,6.8,4,13.6,7.9,20.4,11.8-1.4,3.8-3.7,7.7-6.7,11.3-6.8-3.9-13.6-7.8-20.4-11.8Z" fill="#fefced"/>
          <path d="M763.8,753.1c1.2-3.2,1.8-6.3,1.8-9.5l20.4,11.8c0,3.1-.6,6.3-1.8,9.5-6.8-3.9-13.6-7.9-20.4-11.8Z" fill="#fefced"/>
          <polygon points="786 755.5 765.6 743.6 765.6 740.8 786 752.6 786 755.5" fill="#fefced"/>
          <path d="M757.1,764.4c6.8,4,13.6,7.9,20.4,11.8-4.4,5.4-10.4,10.4-17.6,14.6-7.6,4.4-13,5.7-16,4l-20.4-11.8c2.9,1.7,8.4,.4,16-4,7.2-4.2,13.2-9.2,17.6-14.6Z" fill="#fefced"/>
          <path d="M759.8,787.8l-20.4-11.8c14.5-8.4,23.5-20.1,23.5-30.6l20.4,11.8c0,10.5-9,22.2-23.5,30.6Z" fill="#2d2ff5"/>
          <polygon points="786 745.3 765.6 733.5 765.6 726.6 786 738.5 786 745.3" fill="#fefced"/>
          <polygon points="757.2 769.2 736.9 757.3 765.6 740.8 786 752.6 757.2 769.2" fill="#2d2ff5"/>
          <polygon points="755.6 762.8 735.3 751 765.6 733.5 786 745.3 755.6 762.8" fill="#fefced"/>
          <polygon points="783.3 743.8 763 731.9 763 728.1 783.3 740 783.3 743.8" fill="#2d2ff5"/>
          <path d="M774.5,704.6l20.4,11.8c4.1,2.3,6.2,7.3,6.2,14.8l-20.4-11.8c0-7.5-2.1-12.5-6.2-14.8Z" fill="#2d2ff5"/>
          <path d="M765.6,726.6c0-4.9-1.2-8.1-3.7-9.5l20.4,11.8c2.5,1.4,3.7,4.6,3.7,9.5-6.1-3.5-14.3-8.2-20.4-11.8Z" fill="#fefced"/>
          <path d="M759.9,720.2l20.4,11.8c2,1.2,3,3.8,3,7.9l-20.3-11.8c-.1-4.1-1-6.7-3.1-7.9Z" fill="#2d2ff5"/>
          <path d="M745.8,791.4l-20.4-11.8c2.4,1.4,7.3,.2,14.1-3.7l20.4,11.8c-6.8,4-11.7,5.2-14.1,3.7Z" fill="#2d2ff5"/>
          <path d="M764.8,703.2c4-.6,7.2-.1,9.8,1.4l20.4,11.8c-2.5-1.5-5.8-1.9-9.8-1.4-6.9-3.9-13.6-7.8-20.4-11.8Z" fill="#fefced"/>
          <path d="M743.9,794.8l-20.4-11.8c-1.6-1-2.5-2.8-2.5-5.6l20.4,11.8c0,2.7,.8,4.6,2.5,5.6Z" fill="#2d2ff5"/>
          <polygon points="755.6 759.8 735.3 747.9 763 731.9 783.3 743.8 755.6 759.8" fill="#2d2ff5"/>
          <path d="M741.4,789.2l-20.4-11.9c0-7.2,5.3-13.9,15.9-20l20.4,11.8c-10.6,6.2-16,12.9-15.9,20.1Z" fill="#2d2ff5"/>
          <path d="M707.3,786c0-12.1,9.9-24.6,28-35l20.4,11.8c-18.1,10.4-28,22.9-28,35h0c-6.8-3.9-13.6-7.9-20.4-11.8h0Z" fill="#fefced"/>
          <path d="M711.8,796.2c-2.9-1.7-4.5-5.1-4.5-10.2,6.8,4,13.6,7.9,20.4,11.8,0,5.1,1.6,8.5,4.5,10.2-6.1-3.5-14.3-8.3-20.4-11.8Z" fill="#fefced"/>
          <path d="M730.3,811.1l-20.4-11.8c-3.4-2-5.2-5.9-5.2-11.8,0-6.6,2.9-23.6,30.6-39.6l20.4,11.8c-27.7,16-30.6,33-30.6,39.6,0,5.9,1.8,9.8,5.2,11.8Z" fill="#2d2ff5"/>
          <path d="M761.9,717.1l20.4,11.8c-3.5-2-9.6-.6-18.3,4.4-17.6,10.1-20.2,20.6-20.2,25.9v1.3l-20.4-11.8v-1.3c0-5.3,2.6-15.8,20.2-25.9,8.7-5,14.7-6.5,18.3-4.4Z" fill="#2d2ff5"/>
          <polygon points="730.1 768.6 709.8 756.7 723.5 748.8 743.9 760.6 730.1 768.6" fill="#2d2ff5"/>
          <path d="M764.6,723.3c23.5-13.6,36.4-10.7,36.5,8l.1,44.2-15,8.7c.2-3.4,.6-9.7,.6-15.4v-1.5l-2.5,1.4-.3,1.3c-2.5,12.3-12.1,23.7-27.8,32.8-17.8,10.3-28.5,8.5-28.6-4.8,0-12.1,9.9-24.6,28-35l30.3-17.5v-6.8c0-12-7.2-13.6-22-5.1-17.6,10.1-20.2,20.6-20.2,25.9v1.3l-13.7,7.9c-.1-.9-.2-2-.2-2.8,.2-14.2,13.1-30.1,34.8-42.6h0Zm21.4,32.2v-2.9l-28.8,16.6c-10.6,6.1-15.9,12.8-15.9,20,0,7.8,6.8,8.4,18.5,1.7,16.2-9.4,26.2-23,26.2-35.4" fill="#fefced"/>
          <path d="M764.8,703.2c.1,0,.2,.1,.3,.2,6.7,3.9,13.4,7.8,20.1,11.7-5.5,.8-12.4,3.5-20.6,8.2l-20.4-11.8c8.2-4.8,15-7.5,20.6-8.3Z" fill="#fefced"/>
          <path d="M776.4,701.5l20.4,11.8c-6.5-3.8-17.5-1.5-32.2,6.9l-20.4-11.8c14.7-8.5,25.7-10.7,32.2-6.9Z" fill="#2d2ff5"/>
          <path d="M730.1,768.6l-20.4-11.8c-.1-.9-.2-2-.2-2.8,0-14.1,12.9-30,34.6-42.5l20.4,11.8c-21.7,12.5-34.7,28.4-34.6,42.5,.1,.8,.2,1.9,.2,2.8h0Z" fill="#fefced"/>
          <path d="M764.6,720.2c24.8-14.3,39.1-10.9,39.2,9.5l.1,47.2-20.5,11.9,.1-1.8c.1-1.5,.4-5.3,.6-9.7-3.8,8.7-11.7,19-27.8,28.3-19.2,11.1-31.2,8.7-31.2-6.3,0-6.6,2.9-23.6,30.6-39.6l27.7-16v-3.7c0-10.2-6-11.3-19.3-3.6-6.6,3.8-17.6,11.6-17.5,21.4,0,.4,0,1.6,.2,2.6l.2,1.6-19,11-.2-1.2c-.2-1-.3-3-.3-4.5-.2-16,13.7-33.6,37.1-47.1h0Zm36.6,55.2l-.1-44.2c-.1-18.7-13-21.5-36.5-8-21.7,12.5-34.7,28.4-34.6,42.5,0,.8,.1,1.9,.2,2.8l13.7-7.9v-1.3c0-5.3,2.6-15.8,20.2-25.9,14.8-8.5,21.9-6.8,22,5.1v6.8l-30.3,17.5c-18.1,10.4-28,22.9-28,35,0,13.3,10.7,15.1,28.6,4.8,15.8-9.1,25.4-20.4,27.8-32.8l.3-1.3,2.5-1.4v1.5c0,5.7-.4,12-.6,15.4l14.8-8.6" fill="#2d2ff5"/>
          <path d="M741.4,789.2c0-7.2,5.3-13.9,15.9-20l28.8-16.6v2.9c0,12.5-10,26-26.2,35.3-11.8,6.8-18.5,6.2-18.5-1.6Zm18.4-1.4c14.5-8.4,23.5-20.1,23.5-30.6l-26.1,15.1c-13.3,7.7-13.3,13.5-13.2,15.4,0,5.7,5.9,5.8,15.8,.1" fill="#2d2ff5"/>
          <polygon points="727.9 772.9 707.5 761.1 707.3 759.9 727.7 771.8 727.9 772.9" fill="#2d2ff5"/>
          <path d="M727.7,771.8l-20.4-11.8c-.2-1-.3-3-.3-4.5-.1-16,13.9-33.6,37.2-47l20.4,11.8c-23.4,13.5-37.3,31.1-37.2,47-.1,1.5,.1,3.5,.3,4.5Z" fill="#2d2ff5"/>
        </g>
        <g>
          <polygon points="697.8 802.1 677.5 790.3 691 782.5 711.3 794.3 697.8 802.1" fill="#2d2ff5"/>
          <polygon points="694.9 806.9 674.5 795 674.7 793.2 695.1 805.1 694.9 806.9" fill="#2d2ff5"/>
          <path d="M685.4,752.9l20.4,11.8c4.1,2.4,6.2,8,6.2,16.7,0,3.9-.3,9-.6,12.8l-20.4-11.7c.3-3.8,.6-9,.6-12.8,0-8.8-2.2-14.4-6.2-16.8Z" fill="#2d2ff5"/>
          <path d="M677.9,781.3c0-6.7-1.5-10.9-4.4-12.6l20.4,11.8c2.9,1.7,4.4,5.9,4.4,12.6,0,3-.2,6.3-.5,8.9l-20.4-11.8c.3-2.6,.5-5.9,.5-8.9Z" fill="#fefced"/>
          <path d="M671.7,771.9l20.4,11.8c2.4,1.4,3.5,5,3.6,11,0,3.6-.3,7.6-.6,10.3l-20.4-11.8c.3-2.8,.6-6.8,.6-10.3-.1-6-1.2-9.6-3.6-11Z" fill="#2d2ff5"/>
          <polygon points="643.2 866.7 622.8 854.8 638 846.1 658.3 857.9 643.2 866.7" fill="#2d2ff5"/>
          <polygon points="658.3 857.9 638 846.1 637.9 814.8 658.2 826.7 658.3 857.9" fill="#2d2ff5"/>
          <path d="M685.4,752.9l20.4,11.8c-4.2-2.5-10.6-1.4-18.9,3.4l-20.4-11.8c8.3-4.8,14.6-5.9,18.9-3.4Z" fill="#fefced"/>
          <path d="M687.2,749.7l20.4,11.8c-4.7-2.8-11.8-1.6-20.7,3.5l-20.4-11.8c9-5.1,16-6.2,20.7-3.5Z" fill="#2d2ff5"/>
          <path d="M661.5,759.5c1.6-1.1,3.2-2.2,5-3.2l20.4,11.8c-1.8,1-3.4,2.1-5,3.2-6.8-3.9-13.6-7.8-20.4-11.8Z" fill="#fefced"/>
          <path d="M673.5,768.7l20.4,11.8c-2.8-1.6-7-.9-12.5,2.3-14.3,8.3-23.2,25-23.1,43.8l-20.4-11.8c0-18.7,8.8-35.5,23.1-43.8,5.5-3.1,9.7-3.9,12.5-2.3Z" fill="#2d2ff5"/>
          <path d="M658.8,761.6c.9-.7,1.8-1.4,2.7-2,6.8,4,13.6,7.9,20.4,11.8-.9,.7-1.8,1.3-2.7,2-6.8-3.9-13.6-7.9-20.4-11.8Z" fill="#fefced"/>
          <polygon points="660 806.5 639.6 794.6 639.9 793.4 660.3 805.2 660 806.5" fill="#fefced"/>
          <path d="M658.8,761.6c6.8,4,13.6,7.9,20.4,11.8-.6,.5-1.2,1-1.8,1.6-6.8-4-13.6-7.9-20.4-11.8,.6-.6,1.2-1.1,1.8-1.6Z" fill="#fefced"/>
          <polygon points="657.5 807.9 637.1 796.1 639.6 794.6 660 806.5 657.5 807.9" fill="#fefced"/>
          <path d="M639.9,793.4c2.9-12.7,8.5-22.7,17.1-30.3,6.8,4,13.6,7.9,20.4,11.8-8.5,7.6-14.2,17.6-17.1,30.3-6.1-3.5-14.3-8.3-20.4-11.8Z" fill="#fefced"/>
          <path d="M660.4,796.9l-20.4-11.9c5.1-13.9,13.9-24.5,26.5-31.8l20.4,11.8c-12.6,7.3-21.4,18-26.5,31.9Z" fill="#2d2ff5"/>
          <polygon points="657.5 807.9 637.1 796.1 637.7 774.1 658.1 786 657.5 807.9" fill="#2d2ff5"/>
          <polygon points="643.2 866.7 622.8 854.8 622.6 782.8 643 794.7 643.2 866.7" fill="#fefced"/>
          <path d="M686.9,768.1c16.1-9.3,25-4.6,25.1,13.4,0,3.9-.3,9-.6,12.8l-13.5,7.8c.2-2.7,.5-5.9,.5-8.9,0-13.3-5.7-16.8-16.9-10.3-14.3,8.3-23.2,25-23.1,43.8l.1,31.3-15.1,8.7-.2-72,15.1-8.7-.6,21.9,2.5-1.4,.3-1.2c3.7-17,12.4-29.1,26.4-37.2h0Z" fill="#fefced"/>
          <polygon points="643 794.7 622.6 782.8 637.7 774.1 658.1 786 643 794.7" fill="#fefced"/>
          <path d="M686.9,765.1c17.6-10.1,27.7-4.7,27.7,14.9,0,4.5-.4,10.7-.8,14.6l-.1,1.4-18.8,10.9,.2-1.8c.3-2.8,.6-6.8,.6-10.3,0-11.8-4.4-14.5-14.3-8.8-12.9,7.4-20.5,22.1-20.5,39.2l.1,34.3-20.4,11.8-.2-78,20.4-11.8-.4,15.5c5.1-14,13.9-24.7,26.5-31.9h0Zm24.4,29.2c.3-3.8,.6-9,.6-12.8-.1-17.9-9-22.7-25.1-13.4-14,8.1-22.7,20.2-26.6,37.1l-.3,1.2-2.5,1.4,.6-21.9-15.1,8.7,.2,72,15.1-8.7-.1-31.3c-.1-18.7,8.8-35.5,23.1-43.8,11.2-6.5,16.9-3,16.9,10.3,0,3-.2,6.3-.4,8.9l13.6-7.7" fill="#2d2ff5"/>
          <polygon points="640.4 793.2 620 781.3 640.4 769.5 660.8 781.4 640.4 793.2" fill="#2d2ff5"/>
          <polygon points="640.6 871.2 620.2 859.4 620 781.3 640.4 793.2 640.6 871.2" fill="#2d2ff5"/>
        </g>
        <g>
          <polygon points="619.7 838.6 599.3 826.7 599.3 817 619.7 828.8 619.7 838.6" fill="#2d2ff5"/>
          <polygon points="560.6 914.4 540.2 902.5 556.6 893.1 577 904.9 560.6 914.4" fill="#2d2ff5"/>
          <polygon points="627.5 790.9 607.1 779 607.1 766.9 627.4 778.7 627.5 790.9" fill="#2d2ff5"/>
          <polygon points="577 904.9 556.6 893.1 556.5 851.5 576.9 863.3 577 904.9" fill="#2d2ff5"/>
          <polygon points="576.9 863.3 556.5 851.5 599.3 826.7 619.7 838.6 576.9 863.3" fill="#2d2ff5"/>
          <polygon points="576.8 853.6 556.5 841.7 599.3 817 619.7 828.8 576.8 853.6" fill="#fefced"/>
          <polygon points="579.5 849 559.1 837.2 601.9 812.5 622.3 824.3 579.5 849" fill="#2d2ff5"/>
          <polygon points="576.8 853.6 556.5 841.7 556.4 808.3 576.7 820.2 576.8 853.6" fill="#2d2ff5"/>
          <polygon points="576.7 820.2 556.4 808.3 607.1 779 627.5 790.9 576.7 820.2" fill="#2d2ff5"/>
          <polygon points="627.4 778.7 627.5 790.9 576.7 820.2 576.8 853.6 619.7 828.8 619.7 838.6 576.9 863.3 577 904.9 560.6 914.4 560.3 817.5 627.4 778.7" fill="#fefced"/>
          <polygon points="560.3 817.5 539.9 805.6 607.1 766.9 627.4 778.7 560.3 817.5" fill="#fefced"/>
          <polygon points="560.6 914.4 540.2 902.5 539.9 805.6 560.3 817.5 560.6 914.4" fill="#fefced"/>
          <path d="M630.1,792.4l-50.8,29.3,.1,27.3,42.8-24.7v15.8l-42.8,24.7,.1,41.6-21.7,12.5-.3-103,72.4-41.8,.2,18.3h0Zm-10.4,36.4l-42.8,24.7-.1-33.4,50.8-29.3v-12.2l-67.1,38.8,.3,96.9,16.4-9.5-.1-41.6,42.8-24.7-.2-9.7" fill="#2d2ff5"/>
          <polygon points="557.7 816 537.3 804.1 609.7 762.3 630.1 774.2 557.7 816" fill="#2d2ff5"/>
          <polygon points="558 918.9 537.6 907.1 537.3 804.1 557.7 816 558 918.9" fill="#2d2ff5"/>
        </g>
      </g>
    </g>
    <g>
      <g>
        <path d="M123.6,149.7l-.2-.7-3.1,.7,.2,.7c1.4,5.8,1.2,11.9-.6,17.6s-5,10.9-9.4,14.9c-3.4,3.2-7.5,5.6-11.9,7.2-4.4,1.6-9.1,2.2-13.8,1.9-4.7-.3-9.2-1.6-13.4-3.7s-7.9-5.1-10.8-8.6c.8-1,1.2-2.2,1.2-3.5s-.4-2.5-1.2-3.5-1.9-1.7-3.1-2c-1.2-.3-2.5-.1-3.7,.4-1.2,.6-2.1,1.5-2.6,2.6-.6,1.1-.7,2.4-.4,3.6,.3,1.2,1,2.3,2,3.1,1,.8,2.2,1.2,3.5,1.2,.6,0,1.2-.1,1.8-.3,3.4,4.1,7.6,7.5,12.4,9.9,4.8,2.4,10,3.7,15.4,3.9h1.3c5.6,0,11.2-1.3,16.3-3.7,5.1-2.4,9.5-6,13.1-10.4,3.5-4.4,6-9.5,7.2-14.9,1.2-5.3,1.1-11-.2-16.4h0Zm-64.8,26.5c0,.5-.2,1-.4,1.4-.3,.4-.6,.7-1.1,.9-.4,.2-.9,.2-1.4,.1-.5-.1-.9-.3-1.2-.7-.4-.4-.6-.8-.7-1.2-.1-.5,0-1,.2-1.4s.5-.8,.9-1.1,.9-.4,1.4-.4c.6,0,1.3,.3,1.7,.7,.3,.5,.6,1.1,.6,1.7h0Z" fill="#2d2ff5"/>
        <path d="M111.1,153c-1.4-6.3-5.3-11.8-10.8-15.3s-12.2-4.6-18.5-3.2c-3.3,.8-6.5,2.2-9.2,4.2-.8-.5-1.8-.7-2.7-.8h-.1c-1.5,0-2.8,.6-3.9,1.7-1.1,1.1-1.6,2.4-1.6,3.9s.6,2.8,1.6,3.9,2.4,1.6,3.8,1.7h.1c1,0,1.9-.2,2.8-.7s1.6-1.2,2-2,.8-1.8,.8-2.7c0-1-.2-1.9-.6-2.8,4-2.8,9-4.2,13.9-3.8,4.9,.4,9.6,2.4,13.2,5.8,3.6,3.4,5.9,7.9,6.5,12.8,.6,4.9-.5,9.8-3.1,14-2.6,4.2-6.6,7.3-11.3,8.8-4.7,1.6-9.8,1.4-14.4-.3-4.7-1.8-8.6-5.1-11-9.3-2.4-4.2-3.4-9.2-2.6-14.1l.1-.7-3-.5-.1,.7c-.6,3.6-.4,7.2,.6,10.6,1,3.5,2.7,6.7,5.1,9.4s5.3,4.9,8.6,6.3c3.3,1.4,6.9,2.2,10.5,2,3.6-.1,7.2-1,10.4-2.6,3.2-1.6,6.1-3.9,8.3-6.8,2.2-2.8,3.8-6.1,4.6-9.6,.8-3.4,.8-7.1,0-10.6h0Zm-39.6-7.8c-.5,.4-1.1,.7-1.7,.7s-1.2-.3-1.6-.8c-.4-.4-.7-1-.6-1.7,0-.6,.2-1.2,.7-1.7,.4-.4,1-.7,1.6-.8h0c.5,0,1,.2,1.4,.4s.7,.6,.9,1.1,.2,.9,.1,1.4c-.3,.6-.5,1-.8,1.4h0Z" fill="#2d2ff5"/>
        <path d="M117.2,133.5c-.7,0-1.4,.2-2,.4-5.5-6.2-12.8-10.4-21-12-8.1-1.6-16.5-.4-24,3.4-7.4,3.7-13.3,9.8-16.8,17.3-3.5,7.4-4.4,15.9-2.6,23.9l.1,.4,2.5-.6-.1-.4c-1.7-7.4-.9-15.3,2.3-22.2,3.2-6.9,8.7-12.6,15.5-16.1,6.9-3.5,14.7-4.6,22.2-3.2,7.6,1.4,14.4,5.3,19.5,11.1-.8,.9-1.2,2.1-1.2,3.3,0,1,.3,2.1,.9,2.9,.6,.9,1.4,1.6,2.4,2,1,.4,2,.5,3.1,.3,1-.2,2-.7,2.7-1.4,.8-.7,1.2-1.7,1.4-2.7s.1-2.1-.3-3c-.4-1-1.1-1.8-2-2.4-.5-.7-1.5-1-2.6-1h0Zm0,8c-.6,0-1.1-.2-1.5-.4s-.8-.7-1-1.2-.3-1-.2-1.6,.4-1,.8-1.4,.9-.6,1.4-.8,1.1,0,1.6,.2,.9,.6,1.2,1,.5,1,.4,1.5c0,.7-.3,1.4-.8,1.9s-1.1,.8-1.9,.8h0Z" fill="#2d2ff5"/>
        <path d="M50.8,167.2l-.2-.7c-.7-3.2-1-6.4-.9-9.6,.2-7.4,2.7-14.6,7.2-20.7,4.4-6,10.6-10.6,17.6-13.1s14.7-2.8,22-1c7.2,1.9,13.8,5.8,18.7,11.4,1.1-.4,2.4-.5,3.5-.2,1.2,.3,2.2,1,2.9,1.9,.7,.9,1.2,2.1,1.2,3.3s-.3,2.4-1,3.3-1.7,1.7-2.8,2.1c-1.1,.4-2.4,.4-3.5,0-1.2-.4-2.1-1.1-2.8-2-.7-1-1.1-2.1-1.1-3.3s.4-2.4,1.1-3.3c-3.1-3.4-6.8-6.2-11-8.2s-8.7-3-13.4-3.2c-5.2-.2-10.5,.8-15.3,3-4.8,2.2-9,5.4-12.4,9.4-3.3,4.1-5.7,8.8-6.9,13.9-1.2,5.1-1.2,10.4,0,15.5l.2,.7-3.1,.8h0Zm36.3-45.7c-9.5,0-18.7,3.7-25.5,10.3-6.9,6.6-10.9,15.5-11.2,25-.1,3.2,.2,6.4,.9,9.5v.2l2-.4v-.2c-1.2-5.1-1.2-10.3,0-15.4,1.2-5.1,3.4-9.8,6.7-13.9,3.3-4.1,7.4-7.4,12.1-9.6,4.7-2.2,9.9-3.4,15.1-3.4h1.2c4.8,.2,9.4,1.2,13.7,3.3,4.3,2,8.1,4.9,11.2,8.4l.2,.2-.2,.2c-.7,.9-1.1,2-1.1,3.1s.4,2.2,1.1,3.1,1.7,1.5,2.8,1.8c1.1,.2,2.3,.1,3.3-.4s1.8-1.3,2.4-2.3c.5-1,.6-2.2,.4-3.3s-.9-2.1-1.8-2.8-2-1.1-3.1-1.1c-.7,0-1.3,.1-2,.4l-.2,.1-.1-.2c-3.3-3.8-7.4-6.8-12-9-4.6-2.2-9.5-3.4-14.6-3.6-.4,0-.8,0-1.3,0h0Zm30.1,20.3c-.6,0-1.2-.2-1.7-.5s-.9-.8-1.1-1.4-.3-1.2-.2-1.7c.1-.6,.4-1.1,.8-1.6s1-.7,1.6-.8,1.2,0,1.8,.2c.6,.2,1,.6,1.4,1.1,.3,.5,.5,1.1,.5,1.7,0,.8-.3,1.6-.9,2.1-.6,.5-1.4,.9-2.2,.9h0Zm0-5.4c-.5,0-1,.2-1.4,.4-.4,.3-.7,.6-.9,1.1s-.2,.9-.1,1.4,.3,.9,.7,1.2,.8,.6,1.2,.7c.5,.1,1,0,1.4-.1,.4-.2,.8-.5,1.1-.9s.4-.9,.4-1.4c0-.6-.2-1.3-.7-1.7-.4-.5-1-.7-1.7-.7h0Z" fill="#2d2ff5"/>
        <circle cx="75.2" cy="156.8" r="3.2" fill="#2d2ff5"/>
        <circle cx="98" cy="157.3" r="3.2" fill="#2d2ff5"/>
        <path d="M92.5,160.6c0,2.8-2.3,5.2-5.2,5.2s-5.2-2.3-5.2-5.2" fill="none" stroke="#2d2ff5" stroke-miterlimit="10" stroke-width="3.42"/>
      </g>
      <g>
        <path d="M153.4,155.3v-27.9h10.2c2,0,3.6,.3,4.9,1,1.3,.6,2.3,1.5,2.9,2.6,.6,1.1,1,2.4,1,3.7,0,1.2-.2,2.1-.6,2.9-.4,.8-1,1.4-1.7,1.9s-1.5,.8-2.4,1v.3c.9,.1,1.8,.3,2.7,.9s1.6,1.3,2.2,2.3,.9,2.2,.9,3.7-.3,2.7-1,3.8-1.7,2-3.1,2.7c-1.4,.7-3.2,1-5.3,1l-10.7,.1h0Zm4.3-15.8h5.6c1,0,1.8-.2,2.6-.6,.8-.4,1.4-.9,1.8-1.5s.7-1.4,.7-2.3c0-1.1-.4-2.1-1.2-2.9-.8-.8-2-1.2-3.7-1.2h-5.8v8.5h0Zm0,12.2h6.1c2,0,3.5-.4,4.3-1.2s1.3-1.8,1.3-2.9c0-.9-.2-1.7-.7-2.4s-1.1-1.3-1.9-1.8c-.8-.4-1.8-.6-2.9-.6h-6.2v8.9h0Z" fill="#1041f5"/>
        <path d="M187.3,155.7c-2.1,0-3.8-.4-5.3-1.3-1.5-.9-2.6-2.1-3.4-3.8-.8-1.6-1.2-3.5-1.2-5.7s.4-4,1.2-5.7,1.9-2.9,3.4-3.8c1.5-.9,3.1-1.4,5.1-1.4,1.2,0,2.3,.2,3.4,.6,1.1,.4,2.1,1,3,1.8s1.6,1.9,2.1,3.2,.8,2.9,.8,4.9v1.4h-16.6v-2.9h12.7c0-1.1-.2-2-.6-2.9s-1-1.5-1.8-2-1.7-.7-2.8-.7-2.1,.3-3,.8c-.9,.6-1.5,1.3-2,2.2s-.7,1.9-.7,2.9v2.4c0,1.4,.2,2.6,.7,3.6s1.2,1.7,2.1,2.2c.9,.5,1.9,.8,3.1,.8,.8,0,1.5-.1,2.1-.3s1.2-.6,1.6-1c.5-.4,.8-1,1.1-1.6l3.9,.7c-.3,1.1-.9,2.1-1.7,3s-1.8,1.5-3,2-2.7,.7-4.2,.6h0Z" fill="#1041f5"/>
        <path d="M210.6,134.4v3.3h-11.4v-3.3h11.4Zm-8.4-5.1h4.1v19.8c0,.8,.1,1.4,.4,1.8s.5,.7,.9,.8,.8,.2,1.2,.2c.3,0,.6,0,.9-.1s.4-.1,.6-.1l.7,3.4c-.2,.1-.6,.2-1,.3s-1,.1-1.6,.2c-1.1,0-2.1-.2-3-.6-.9-.4-1.7-1-2.2-1.9-.6-.8-.9-1.9-.9-3.1l-.1-20.7h0Z" fill="#1041f5"/>
        <path d="M224.9,134.4v3.3h-11.4v-3.3h11.4Zm-8.4-5.1h4.1v19.8c0,.8,.1,1.4,.3,1.8s.5,.7,.9,.8,.8,.2,1.2,.2c.3,0,.6,0,.9-.1s.4-.1,.6-.1l.7,3.4c-.2,.1-.6,.2-1,.3s-1,.1-1.6,.2c-1.1,0-2.1-.2-3-.6-.9-.4-1.7-1-2.2-1.9-.6-.8-.9-1.9-.9-3.1v-20.7h0Z" fill="#1041f5"/>
        <path d="M238.2,155.7c-2.1,0-3.8-.4-5.3-1.3-1.5-.9-2.6-2.1-3.4-3.8-.8-1.6-1.2-3.5-1.2-5.7s.4-4,1.2-5.7,1.9-2.9,3.4-3.8c1.5-.9,3.2-1.4,5.1-1.4,1.2,0,2.3,.2,3.4,.6,1.1,.4,2.1,1,3,1.8s1.6,1.9,2.1,3.2,.8,2.9,.8,4.9v1.4h-16.7v-2.9h12.7c0-1.1-.2-2-.7-2.9s-1-1.5-1.8-2-1.7-.7-2.8-.7c-1.2,0-2.1,.3-3,.8s-1.5,1.3-2,2.2-.7,1.9-.7,2.9v2.4c0,1.4,.2,2.6,.7,3.6s1.2,1.7,2.1,2.2c.9,.5,1.9,.8,3.1,.8,.8,0,1.5-.1,2.1-.3s1.2-.6,1.7-1,.8-1,1.1-1.6l3.9,.7c-.3,1.1-.9,2.1-1.7,3s-1.8,1.5-3,2-2.6,.7-4.1,.6h0Z" fill="#1041f5"/>
        <path d="M251.7,155.3v-20.9h3.9v3.3h.2c.4-1.1,1.1-2,2-2.7,1-.6,2.1-1,3.3-1h.9c.3,0,.6,0,.8,.1v3.9c-.2-.1-.5-.1-.9-.2-.4-.1-.8-.1-1.2-.1-1,0-1.8,.2-2.6,.6-.8,.4-1.3,1-1.8,1.7s-.7,1.5-.7,2.4v12.8l-3.9,.1h0Z" fill="#1041f5"/>
        <path d="M282.4,155.3l-7.8-27.9h4.4l5.4,21.6h.3l5.7-21.6h4.4l5.7,21.7h.3l5.4-21.7h4.5l-7.8,27.9h-4.2l-5.9-20.9h-.2l-5.9,20.9h-4.3Z" fill="#1041f5"/>
        <path d="M321,155.7c-2,0-3.7-.4-5.1-1.4-1.5-.9-2.6-2.2-3.4-3.8s-1.2-3.5-1.2-5.7,.4-4.1,1.2-5.7c.8-1.6,2-2.9,3.4-3.8,1.5-.9,3.2-1.4,5.1-1.4s3.7,.4,5.1,1.4c1.5,.9,2.6,2.2,3.4,3.8s1.2,3.5,1.2,5.7-.4,4.1-1.2,5.7c-.8,1.6-2,2.9-3.4,3.8-1.4,1-3.2,1.4-5.1,1.4Zm0-3.4c1.3,0,2.3-.3,3.2-1s1.5-1.6,1.9-2.7c.4-1.1,.6-2.4,.6-3.7s-.2-2.6-.6-3.7-1-2-1.9-2.7c-.8-.7-1.9-1-3.2-1s-2.3,.3-3.2,1c-.8,.7-1.5,1.6-1.9,2.7s-.6,2.4-.6,3.7,.2,2.6,.6,3.7c.4,1.1,1,2,1.9,2.7s1.9,1,3.2,1Z" fill="#1041f5"/>
        <path d="M335.3,155.3v-20.9h3.9v3.3h.2c.4-1.1,1.1-2,2-2.7,1-.6,2.1-1,3.3-1h.9c.3,0,.6,0,.8,.1v3.9c-.2-.1-.5-.1-.9-.2-.4-.1-.8-.1-1.2-.1-1,0-1.8,.2-2.6,.6-.8,.4-1.3,1-1.8,1.7s-.7,1.5-.7,2.4v12.8l-3.9,.1h0Z" fill="#1041f5"/>
        <path d="M354.1,127.4v27.9h-4.1v-27.9h4.1Z" fill="#1041f5"/>
        <path d="M367.4,155.7c-1.7,0-3.2-.4-4.5-1.3-1.3-.9-2.4-2.1-3.1-3.7s-1.1-3.6-1.1-5.8,.4-4.2,1.1-5.8,1.8-2.8,3.1-3.7c1.3-.9,2.8-1.3,4.5-1.3,1.3,0,2.3,.2,3.1,.6s1.4,.9,1.8,1.5,.8,1.1,1,1.5h.2v-10.4h4.1v27.9h-4v-3.3h-.3c-.2,.4-.6,1-1.1,1.5s-1.1,1.1-1.9,1.5-1.6,.8-2.9,.8h0Zm1-3.5c1.2,0,2.2-.3,3-.9s1.4-1.5,1.8-2.6,.6-2.4,.6-3.9-.2-2.7-.6-3.8-1-1.9-1.8-2.6-1.8-.9-3-.9-2.2,.3-3.1,1-1.4,1.5-1.8,2.6-.6,2.3-.6,3.7,.2,2.7,.6,3.8,1,2,1.9,2.6c.9,.6,1.7,1.1,3,1h0Z" fill="#1041f5"/>
        <path d="M169.7,188l-15.7-15.7,2.6-2.6,15.7,15.7-2.6,2.6Zm-13.1,0l-2.6-2.6,15.7-15.7,2.6,2.6-15.7,15.7Z" fill="#1041f5"/>
        <path d="M198.2,192.6h-9v-27.9h9.3c2.7,0,5.1,.6,7,1.7,1.9,1.1,3.5,2.7,4.5,4.8,1,2.1,1.6,4.6,1.6,7.5s-.5,5.4-1.6,7.5c-1.1,2.1-2.6,3.7-4.6,4.8-2,1.1-4.3,1.6-7.2,1.6h0Zm-4.8-3.7h4.6c2.1,0,3.9-.4,5.3-1.2,1.4-.8,2.5-2,3.2-3.5s1-3.4,1-5.6-.4-4.1-1-5.6c-.7-1.5-1.7-2.7-3.1-3.5s-3.1-1.2-5.1-1.2h-4.9v20.6h0Z" fill="#1041f5"/>
        <path d="M225.6,193c-2.1,0-3.8-.4-5.3-1.3-1.5-.9-2.6-2.1-3.4-3.8-.8-1.6-1.2-3.5-1.2-5.7s.4-4,1.2-5.7,1.9-2.9,3.4-3.8c1.5-.9,3.2-1.4,5.1-1.4,1.2,0,2.3,.2,3.4,.6,1.1,.4,2.1,1,3,1.8s1.6,1.9,2.1,3.2,.8,2.9,.8,4.9v1.4h-16.7v-3.1h12.7c0-1.1-.2-2-.7-2.9s-1-1.5-1.8-2-1.7-.7-2.8-.7c-1.2,0-2.1,.3-3,.8s-1.5,1.3-2,2.2-.7,1.9-.7,2.9v2.4c0,1.4,.2,2.6,.7,3.6s1.2,1.7,2.1,2.2c.9,.5,1.9,.8,3.1,.8,.8,0,1.5-.1,2.1-.3s1.2-.6,1.7-1,.8-1,1.1-1.6l3.9,.7c-.3,1.1-.9,2.1-1.7,3s-1.8,1.5-3,2-2.6,.8-4.1,.8h0Z" fill="#1041f5"/>
        <path d="M254.9,176.8l-3.7,.6c-.2-.5-.4-.9-.7-1.4-.3-.4-.8-.8-1.3-1.1s-1.3-.4-2.1-.4c-1.2,0-2.1,.3-2.9,.8-.8,.5-1.2,1.2-1.2,2,0,.7,.3,1.3,.8,1.7s1.3,.8,2.5,1.1l3.3,.8c1.9,.4,3.4,1.1,4.3,2.1s1.4,2.1,1.4,3.6c0,1.2-.4,2.4-1.1,3.4-.7,1-1.7,1.7-3,2.3-1.3,.6-2.8,.8-4.5,.8-2.3,0-4.3-.5-5.7-1.5-1.5-1-2.4-2.4-2.7-4.3l3.9-.6c.2,1,.8,1.8,1.5,2.3,.8,.5,1.8,.8,3,.8,1.3,0,2.4-.3,3.2-.8,.8-.6,1.2-1.2,1.2-2.1,0-.6-.2-1.2-.7-1.6s-1.2-.8-2.2-1l-3.5-.8c-2-.4-3.4-1.1-4.3-2.1s-1.4-2.2-1.4-3.7c0-1.2,.3-2.3,1-3.2s1.7-1.6,2.9-2.2c1.2-.5,2.6-.8,4.2-.8,2.3,0,4,.5,5.3,1.5s2.1,2.1,2.5,3.8h0Z" fill="#1041f5"/>
        <path d="M261.8,168.4c-.7,0-1.3-.2-1.8-.7s-.8-1.1-.8-1.7,.2-1.2,.8-1.7,1.1-.7,1.8-.7,1.3,.2,1.8,.7,.8,1.1,.8,1.7-.2,1.2-.8,1.7c-.5,.5-1.1,.7-1.8,.7Zm-2.1,24.2v-20.9h4.1v20.9h-4.1Z" fill="#1041f5"/>
        <path d="M278.1,200.9c-1.7,0-3.1-.2-4.3-.6-1.2-.4-2.2-1-2.9-1.7-.8-.7-1.3-1.5-1.7-2.4l3.5-1.4c.2,.4,.6,.8,1,1.3s1,.8,1.7,1.1,1.6,.5,2.8,.5c1.5,0,2.8-.4,3.8-1.1,1-.8,1.5-1.9,1.5-3.6v-4.1h-.3c-.2,.4-.6,.9-1.1,1.5s-1.1,1-1.9,1.4-1.8,.6-3.1,.6c-1.7,0-3.1-.4-4.5-1.2s-2.4-1.9-3.1-3.4-1.2-3.4-1.2-5.6,.4-4.1,1.1-5.7,1.8-2.8,3.1-3.7c1.3-.9,2.8-1.3,4.5-1.3,1.3,0,2.3,.2,3.2,.6,.8,.4,1.4,.9,1.9,1.5s.8,1.1,1,1.5h.3v-3.4h4v21.4c0,1.8-.4,3.3-1.2,4.4-.8,1.1-2,2-3.4,2.6-1.3,.5-2.9,.8-4.7,.8h0Zm-.1-12c1.2,0,2.2-.3,3-.8s1.4-1.3,1.8-2.4,.6-2.3,.6-3.7-.2-2.6-.6-3.7-1-1.9-1.8-2.5-1.8-.9-3-.9-2.2,.3-3.1,.9c-.8,.6-1.4,1.5-1.8,2.6s-.6,2.3-.6,3.6,.2,2.6,.6,3.6,1,1.9,1.9,2.4c.8,.6,1.8,.9,3,.9h0Z" fill="#1041f5"/>
        <path d="M297.1,180.2v12.4h-4.1v-20.9h3.9v3.4h.3c.5-1.1,1.2-2,2.3-2.7,1.1-.7,2.3-1,3.9-1,1.4,0,2.7,.3,3.8,.9,1.1,.6,1.9,1.5,2.5,2.6s.9,2.6,.9,4.4v13.3h-4.1v-12.8c0-1.5-.4-2.7-1.2-3.6-.8-.9-1.9-1.3-3.3-1.3-1,0-1.8,.2-2.5,.6-.7,.4-1.3,1-1.7,1.8-.5,.8-.7,1.7-.7,2.9h0Z" fill="#1041f5"/>
      </g>
    </g>
    <g>
      <polygon points="745.3 1421.3 757.4 1431.5 604.7 1468.4 592.6 1458.3 745.3 1421.3" fill="#2d2ff5"/>
      <polygon points="681.3 1516 693.4 1526.2 604.7 1468.4 592.6 1458.3 681.3 1516" fill="#fefced"/>
      <polygon points="745.3 1421.3 757.4 1431.5 693.4 1526.2 681.3 1516 745.3 1421.3" fill="#fefced"/>
      <polygon points="592.6 1458.3 745.3 1421.3 681.3 1516 592.6 1458.3" fill="#fefced"/>
      <polygon points="682.3 1521.9 694.3 1532.1 593.9 1466.7 581.9 1456.6 682.3 1521.9" fill="#2d2ff5"/>
      <polygon points="754.8 1414.7 766.8 1424.9 694.3 1532.1 682.3 1521.9 754.8 1414.7" fill="#2d2ff5"/>
      <path d="M581.9,1456.6l172.9-41.8-72.5,107.2-100.4-65.4h0Zm10.7,1.7l88.7,57.7,64-94.7-152.7,37" fill="#2d2ff5"/>
    </g>
    <g>
      <polygon points="33.7 924.7 26.1 885.2 169.8 943.2 177.3 982.7 33.7 924.7" fill="#1041f5"/>
      <polygon points="33.7 924.7 26.1 885.2 125.7 772.7 133.2 812.3 33.7 924.7" fill="#fefced"/>
      <polygon points="133.2 812.3 125.7 772.7 169.8 943.2 177.3 982.7 133.2 812.3" fill="#fefced"/>
      <polygon points="133.2 812.3 177.3 982.7 33.7 924.7 133.2 812.3" fill="#fefced"/>
      <polygon points="135.3 805.2 127.8 765.6 175.1 948.6 182.6 988.1 135.3 805.2" fill="#1041f5"/>
      <polygon points="28.5 925.9 20.9 886.3 127.8 765.6 135.3 805.2 28.5 925.9" fill="#1041f5"/>
      <path d="M28.5,925.9l106.9-120.7,47.3,183-154.2-62.3h0Zm148.8,56.8l-44-170.5-99.6,112.5,143.6,58" fill="#1041f5"/>
    </g>
    <g>
      <polygon points="563.9 328.3 572.5 343.2 491.5 449 482.9 434.1 563.9 328.3" fill="#2d2ff5"/>
      <polygon points="668.2 391.3 676.9 406.2 572.5 343.2 563.9 328.3 668.2 391.3" fill="#2d2ff5"/>
      <polygon points="587.3 497.1 595.9 512 491.5 449 482.9 434.1 587.3 497.1" fill="#fefced"/>
      <polygon points="668.2 391.3 676.9 406.2 595.9 512 587.3 497.1 668.2 391.3" fill="#fefced"/>
      <path d="M563.2,323.7l110.1,66.5-85.4,111.5-110.1-66.5,85.4-111.5h0Zm-80.3,110.4l104.4,63,81-105.8-104.4-63-81,105.8" fill="#2d2ff5"/>
      <polygon points="563.9 328.3 668.2 391.3 587.3 497.1 482.9 434.1 563.9 328.3" fill="#fefced"/>
      <polygon points="587.9 501.7 596.5 516.7 486.5 450.2 477.8 435.2 587.9 501.7" fill="#2d2ff5"/>
      <polygon points="673.3 390.2 681.9 405.1 596.5 516.7 587.9 501.7 673.3 390.2" fill="#2d2ff5"/>
    </g>
    <g>
      <polygon points="298.1 1222 270.6 1236.8 118 1153.1 145.5 1138.4 298.1 1222" fill="#2d2ff5"/>
      <polygon points="258 1384.1 230.4 1398.8 270.6 1236.8 298.1 1222 258 1384.1" fill="#2d2ff5"/>
      <polygon points="105.4 1300.4 77.8 1315.1 118 1153.1 145.5 1138.4 105.4 1300.4" fill="#fefced"/>
      <polygon points="258 1384.1 230.4 1398.8 77.8 1315.1 105.4 1300.4 258 1384.1" fill="#fefced"/>
      <polygon points="145.5 1138.4 298.1 1222 258 1384.1 105.4 1300.4 145.5 1138.4" fill="#fefced"/>
      <polygon points="100.1 1302.6 72.6 1317.3 114.9 1146.4 142.4 1131.7 100.1 1302.6" fill="#2d2ff5"/>
      <polygon points="261 1390.8 233.5 1405.5 72.6 1317.3 100.1 1302.6 261 1390.8" fill="#2d2ff5"/>
      <path d="M142.4,1131.7l160.9,88.2-42.3,170.9-160.9-88.2,42.3-170.9h0Zm-37,168.7l152.6,83.7,40.1-162.1-152.6-83.7-40.1,162.1" fill="#2d2ff5"/>
    </g>
    <g>
      <polygon points="710 2158.2 703.3 2189.1 533.2 2109.2 539.9 2078.3 710 2158.2" fill="#2d2ff5"/>
      <polygon points="626.5 2282.5 619.8 2313.4 449.7 2233.6 456.4 2202.6 626.5 2282.5" fill="#fefced"/>
      <polygon points="539.9 2078.3 533.2 2109.2 449.7 2233.6 456.4 2202.6 539.9 2078.3" fill="#2d2ff5"/>
      <polygon points="710 2158.2 703.3 2189.1 619.8 2313.4 626.5 2282.5 710 2158.2" fill="#fefced"/>
      <polygon points="539.9 2078.3 710 2158.2 626.5 2282.5 456.4 2202.6 539.9 2078.3" fill="#fefced"/>
      <polygon points="628.9 2288.1 622.2 2319 442.8 2234.8 449.5 2203.9 628.9 2288.1" fill="#2d2ff5"/>
      <polygon points="717 2157 710.3 2187.9 622.2 2319 628.9 2288.1 717 2157" fill="#2d2ff5"/>
      <path d="M537.6,2072.8l179.4,84.2-88.1,131.1-179.4-84.2,88.1-131.1h0Zm-81.2,129.8l170.1,79.9,83.5-124.3-170.1-79.9-83.5,124.3" fill="#2d2ff5"/>
    </g>
    <g>
      <path d="M1083.1,1077.8l-19.6,33.8c5.8-10.1,7.3-22.8,3.3-37-10.7-37.7-55.9-72-100.9-76.7-27.9-2.9-49.2,6.4-58.8,22.9l19.6-33.8c9.6-16.5,30.9-25.8,58.8-22.9,44.9,4.6,90.2,39,100.9,76.7,4,14.2,2.6,26.9-3.3,37Z" fill="#2d2ff5"/>
      <path d="M903.8,1057.8c-4.1-14.2-2.6-27,3.3-37l19.6-33.8c-5.8,10-7.3,22.8-3.3,37,4,14.2,12.9,27.8,24.8,39.6-6.5,11.2-13.1,22.5-19.6,33.8-12-11.9-20.8-25.5-24.8-39.6Z" fill="#fefced"/>
      <path d="M1004.7,1134.4c-28.1-2.9-56.3-17.4-76.1-37.1,6.5-11.2,13.1-22.5,19.6-33.8,19.8,19.7,48,34.2,76.1,37.1,27.9,2.9,49.3-6.4,58.8-22.9l-19.6,33.8c-9.6,16.5-30.9,25.8-58.8,22.9Z" fill="#fefced"/>
      <path d="M985.5,964.1c44.9,4.6,90.2,39,100.9,76.7,10.7,37.7-17.2,64.6-62.1,59.9-44.9-4.7-90.2-39-100.9-76.7-10.7-37.6,17.2-64.5,62.1-59.9h0Z" fill="#fefced"/>
      <path d="M1088,1080.6l-19.6,33.8c-10.2,17.5-32.8,27.3-62.5,24.3-47.8-4.9-95.7-41.3-107.1-81.4-4.3-15.2-2.7-28.7,3.5-39.4l19.6-33.8c-6.2,10.7-7.8,24.2-3.5,39.4,11.4,40,59.3,76.5,107.1,81.4,29.6,3.1,52.3-6.8,62.5-24.3Z" fill="#2d2ff5"/>
      <path d="M984.3,959.9c47.8,4.9,95.7,41.3,107.1,81.4,11.4,40-18.2,68.5-65.9,63.6s-95.7-41.3-107.1-81.4c-11.4-40,18.1-68.5,65.9-63.6h0Zm40,140.8c44.9,4.6,72.8-22.3,62.1-59.9-10.7-37.7-55.9-72-100.9-76.7-45-4.7-72.8,22.3-62.1,59.9,10.7,37.7,55.9,72.1,100.9,76.7" fill="#2d2ff5"/>
    </g>
    <g>
      <path d="M109.8,1855.9l44-15.9c-1.6,.6-3.2,1.2-4.8,2-19.9,9.2-34.1,29-39.9,55.7s-2.5,57.1,9.2,85.6c11.7,28.5,30.5,51.7,52.9,65.4,20.6,12.6,42,15.6,60.8,8.8l-44,15.9c-18.8,6.8-40.2,3.7-60.8-8.8-22.4-13.6-41.2-36.9-52.9-65.4s-15-58.9-9.2-85.6,19.9-46.4,39.9-55.7c1.5-.7,3.1-1.4,4.8-2h0Z" fill="#2d2ff5"/>
      <path d="M153.8,1840.1c18.8-6.8,40.2-3.7,60.8,8.8l-44,15.9c-20.6-12.6-42-15.6-60.8-8.8,13.2-4.8,30.8-11.2,44-15.9h0Z" fill="#fefced"/>
      <path d="M107.3,1849.3l44-15.9c19.3-7,42-4.4,64.6,9.3l-44,15.9c-22.6-13.7-45.4-16.3-64.6-9.3Z" fill="#2d2ff5"/>
      <path d="M214.6,1848.9c19.6,11.9,36.4,31.2,48.2,54.9-14.7,5.3-29.3,10.6-44,15.9-11.8-23.7-28.6-43-48.2-54.9,13.2-4.8,30.8-11.1,44-15.9Z" fill="#fefced"/>
      <path d="M236.8,2055.5c-1.6,.7-3.2,1.4-4.8,2l-44,15.9c1.6-.6,3.2-1.2,4.8-2,19.9-9.2,34.1-29,39.9-55.7s2.5-57.1-9.2-85.6c-1.5-3.6-3-7.1-4.7-10.5,3.5-1.3,7-2.6,10.6-3.8,1.7-.6,4-1.4,5.7-2s4-1.5,5.8-2.1,4-1.5,5.8-2.1,4-1.4,5.7-2,3.8-1.4,5.5-2c1.5-.6,3.6-1.3,5.1-1.9,1.7,3.4,3.3,6.9,4.7,10.5,11.7,28.5,15,58.9,9.2,85.6s-20.1,46.5-40.1,55.7h0Z" fill="#fefced"/>
      <path d="M170.5,1864.8c22.4,13.6,41.2,36.9,52.9,65.4s15,58.9,9.2,85.6-19.9,46.4-39.9,55.7-43.2,6.8-65.6-6.9-41.2-36.9-52.9-65.4-15-58.9-9.2-85.6,19.9-46.4,39.9-55.7c20-9.2,43.3-6.8,65.6,6.9h0Z" fill="#fefced"/>
      <path d="M234.5,2064.1l-44,15.9c22.7-8.2,40.5-29.5,47.3-61.2,12.7-58.6-16.8-130.3-66-160.3l44-15.9c49.1,29.9,78.7,101.7,66,160.3-6.8,31.7-24.6,53.1-47.3,61.2h0Z" fill="#2d2ff5"/>
      <path d="M171.9,1858.6c49.1,29.9,78.7,101.7,66,160.3-12.7,58.6-62.8,81.8-111.9,51.8-49.1-30-78.7-101.7-66-160.3,12.7-58.6,62.8-81.7,111.9-51.8Zm20.9,212.8c19.9-9.2,34.1-29,39.9-55.7s2.5-57.1-9.2-85.6-30.5-51.7-52.9-65.4-45.7-16.1-65.6-6.8c-19.9,9.2-34.1,29-39.9,55.7s-2.5,57.1,9.2,85.6,30.5,51.7,52.9,65.4,45.7,16,65.6,6.8" fill="#2d2ff5"/>
    </g>
    <g>
      <path d="M830.2,192.8c-1.5-.3-3-.4-4.4-.8-1.7-.5-3.3-1.1-4.8-2-1.1-.6-2.1-1.7-2.6-2.8-.6-1.2-1.2-1.5-2.5-1.4-3.1,.2-5.9-.9-8.1-3.1-1.9-2-2-4.9,.1-6.8,1.2-1.1,2.8-1.8,4.2-2.6,.6-.3,1.3-.5,2.1-.8-.3-.5-.5-.8-.8-1.2-2.9-3.9-5.1-8.1-6-12.9-.2-1.3-1.2-1.1-2.1-1.1-.9-.1-.9,.6-1,1.2-.3,2.1-.7,4.1-.9,6.1-.2,1.7-.1,1.7,1.6,1.9,.2,0,.4,.1,.6,.1-.1,1.1-.9,2.2-2.1,2.3-1.7,.1-3.4,.1-5.1,.1-.3,0-.6-.3-.9-.4,.2-.3,.2-.7,.5-.9,1.5-1.2,1.3-3.1,1.6-4.7,.9-5,1.8-10.1,2.7-15.1,.2-.9-.1-1.2-1-1.3-1.9-.1-2.5,.5-2.5,2.3,0,.9-2,3-2.8,2.8-.3,0-.6-.4-.7-.7-.4-1.4,0-2.6,.9-3.6,1.5-1.8,3.4-2.9,5.8-3.2,.7-.1,1-.4,1.2-1,.7-2.9,2.1-5.6,4-7.9,.2-.3,.4-.8,.4-1.2-.1-3,1.3-5.2,3.6-6.8,2.6-1.8,5.5-2.6,8.7-2.5,1,0,1.4-.2,1.9-1.1,.7-1.1,1.7-2.1,2.8-2.7,3.8-2,7.9-1.9,12-.8,1.7,.5,3.4,1,4.8,2,2.2,1.6,4.7,1.8,7.2,2.1,1.5,.2,3,.7,4.4,1.2,1.2,.5,2,1.6,2.2,2.9,.2,1.2-.2,2.3-1.2,3-1,.7-2.2,1.1-3.7,.8,.4-.4,.5-.5,.7-.6,1.6-1.1,1.8-2.8,.4-4.2-1.1-1.1-3.3-1.9-5.2-1.7,2.8,3.3,3.8,7,2.2,11.3,1.1,.4,2.2,.9,3.3,1.2,.2,.1,.7-.2,.8-.5,2-2.8,4.9-3.4,8-3.2,.8,.1,1.8,.7,2.2,1.4,.5,1,.1,2.2-.8,2.8-1.1,.7-2.4,1.2-3.6,1.6-.7,.2-1.4,.1-2.2,.1-1.6,0-1.7,0-1.8,1.7v1.8c1,0,1.9-.1,2.9,0,1.6,.1,3.3,.1,4.8,.4,3.3,.8,5,3.6,5.5,7.4,1.2,9.7-7.5,16.7-14.9,17-2,.1-4.1,.2-6.1,.2-.3,0-.9-.2-1-.4-.1-.3,0-.9,.2-1.1,1.2-1.1,1.4-2.5,1.6-3.9,.8-5.1,1.6-10.3,2.4-15.4,.1-.5,.1-1,.2-1.8-.9,.1-1.7,0-2.4,.2-.4,.1-1,.9-.9,1.3,.2,1.8-1.2,2.5-2.3,3.2-.7,.4-1.2,.1-1.2-.7-.2-1.4,.3-2.6,1.3-3.6,1.6-1.4,3.2-2.8,5.5-2.9,.3,0,.8-.4,.9-.7,.3-1,.6-2,.8-3.1-1.2-.5-2.3-1-3.5-1.5-.2-.1-.6,.1-.8,.2-2.8,2.8-6.3,2.9-9.9,2.4-3.8-.4-7.2-2-10.5-3.9-.7-.4-1.2-.4-2,0-3.7,2.2-7.7,3.1-11.9,1.8-1.4-.5-2.7-1.4-4.4-2.2-.5,1.6-1,3.2-1.4,4.9-.5,2.1-.3,2.2,1.8,2.2,1.3,0,2.6-.1,3.9,.1,2,.2,2.9,1.2,3.3,3.2,.7,3.4-.7,6.6-3.9,8.5-.9,.6-1.2,1.1-.8,2.1,1.1,2.7,2.2,5.4,3.4,7.9,.8,1.7,2,3.2,3,4.9,.4,.7,.9,.9,1.7,.8,5.6-.7,11.2-.7,16.7,1.1,1.6,.5,3.2,1.2,4.7,2,1,.5,1.7,.6,2.7,.2,3.2-1.2,6.6-1.6,10-1h.1c1.5,.4,3,.7,3.5,2.5,.4,1.7-.3,3.1-1.6,4.2-2.2,1.9-4.9,2.6-7.7,3.1-1.2,.2-2,.6-2.6,1.9-1.6,3.3-4.6,4.9-8,6-1.4,.5-2.9,.7-4.3,1.1l-2.9,.3h0Zm33.3-37.3c0-5.8-2.7-8.6-8.2-8.7-1.1,0-1.4,.4-1.5,1.4-.1,1.6-.4,3.1-.6,4.7-.5,4-1,8-1.6,12-.2,1.1,.3,1.5,1.2,1.4,1.4-.2,2.8-.2,4.1-.6,4.3-1.5,6.6-5.1,6.6-10.2h0Zm-30.6,29.5l-.1-.5c-1.1-.3-2.2-.4-3.2-.8-2.9-1.2-5.1,.9-8,1.2,.6,1,1,1.7,1.5,2.3,4.2,5.3,12.7,4.4,16.2,1.8,1.4-1,2.2-2.5,2.3-4.4-1.1,0-2.2,.1-3.2,0-1-.1-1.7,.2-2.5,1-1.8,1.8-4.1,2.3-6.5,1.9-1.6-.2-2.6-1.2-2.7-2.3,1,.3,2,.9,3,.8,1.1,0,2.2-.7,3.2-1h0Zm-5.5-49.1c3.8,2.1,7.6,3.6,11.8,3.4,2-.1,3.9-.8,5.2-2.6-1.5-1.1-2.9-2.1-4.3-3.1-.2-.1-.6-.2-.9-.1-2.7,1.2-5.5,1.1-8.2,.4-.3-.1-.9-.1-1.1,.1-.9,.5-1.6,1.1-2.5,1.9h0Zm-7.6,43c-.9-1-1.6-1.9-2.4-2.8q-1.8-1.9-4.1-.4c-.2,.1-.5,.3-.7,.5-1,.8-1.8,1.7-1.8,3-.1,2.7,3.6,5.5,6.2,4.8,.2-.1,.5-.4,.5-.5,0-2,1.1-3.5,2.3-4.6h0Zm-.2-5.5c1,1,1.7,1.8,2.4,2.6s1.4,.9,2.4,.6c3.5-1.2,7-1,10.4,.8,1.5,.8,2.5,.7,4-.7-5.8-4.4-12.1-4.9-19.2-3.3Zm-8-41.5c1.3-.2,2.4-.5,3.5-.6,2.9-.3,5.5,.9,8,2.2,.4,.2,1,.4,1.3,.2,.7-.4,1.3-1,1.9-1.6-.2-.2-.2-.3-.3-.4-1.8-1.2-3.5-2.5-4.4-4.6-.1-.2-.5-.4-.8-.4-2.3-.1-4.4,.3-6.4,1.5-1.4,.8-2.5,2-2.8,3.7h0Zm-4.3,23.3c2.9,.1,4-.8,4.7-3.7,.2-.8,.2-1.6,.2-2.4,0-1.2-.7-2-1.8-2.2-.9-.2-1.9-.1-2.9-.2-.8-.1-1.2,.2-1.3,1.1-.2,1.7-.5,3.4-.8,5-.4,2.4-.5,2.4,1.9,2.4Zm33.4-30.8l.1-.6c-2.3-1.3-4.9-2.1-7.5-2.5-2.1-.3-4.1,.2-5.8,1.4-.8,.6-1.3,1.4-2,2.1,2.3,.8,4.3,1.5,6.4,2.2,.2,.1,.5,.1,.7,0,1.2-.6,2.4-1.3,3.6-2l-.1-.3h-3.7c1.8-1.5,3.5-1.4,5.3-.8,1,.5,2,.4,3,.5h0Zm2.6,52.1c1.7,1.5,2.7,3.2,2.8,5.4,0,.2,.6,.5,.8,.4,1.5-.5,3-1.1,4.3-1.8,.9-.5,1.4-1.4,1.2-2.5s-.9-1.8-1.9-2.1c-2.3-.8-4.6-.6-7.2,.6h0Zm-20.8-41.2c-2.4-1.4-4.6-2.7-7.3-2.4-1,.1-2,.6-3,.9-.2,.1-.5,.6-.5,.8,.2,1.8,2.4,3.7,4.2,3.6,2.5,0,4.5-1.3,6.6-2.9h0Zm22.8,0c1.2-2.8,1.5-5.4-.2-7.9-1.2-1.8-2-2-4.1-.9,1,1.9,1.3,3.8-.2,5.8l4.5,3h0Zm-20.8,42.8c1.6,.9,3.1,1.8,4.5,2.6,.2,.1,.5,.2,.7,.1,1.2-.5,2.4-1,3.6-1.6-1.6-2.4-6.6-2.7-8.8-1.1h0Zm13.4,5.1c1-.1,2.2-.1,3.3-.2,.2,0,.6-.6,.5-.8-.4-1.3-.9-2.7-1.5-3.9-.1-.2-.7-.3-.9-.2-.8,.3-1.5,.7-2.2,1l.8,4.1h0Zm-12.4-56.4c.1,1.5,1.3,3.3,2.3,3.6,.2,.1,.4,.1,.6,0,.8-.6,1.7-1.3,2.5-2l-.1-.4-5.3-1.2h0Zm29.4,12.2c1.7,.4,3.3,.2,4.1-.7,.3-.4,.6-1,.5-1.5-.1-.3-.8-.7-1.2-.7-1.6-.3-2.9,.9-3.4,2.9Zm-22.9-6.8c2.2,.8,4.1,.6,5.3-.5-2.2-2.1-3.5-2-5.3,.5Zm-10.8,51.4l4.6-1.2-4.1-2.4-.5,3.6h0Zm17.8-56l-.6-.2-2.9,1.8,3.2,1.9,.3-3.5h0Zm-7.4,54v.4l2.7,.5,.1-2.2-2.8,1.3h0Z" fill="#1041f5"/>
      <path d="M831.7,169.5h-.8c-1.7-.2-2.2-.8-1.4-2.4,.4-.9,.8-1.9,1.3-2.7,.2-.3,.5-.6,.8-.6s.6,.3,.8,.6c1,1.8,3.8,2.3,5.4,1.1,.9-.7,1.2-1.7,.6-2.6-.8-1.2-1.7-2.3-2.7-3.4-1.3-1.4-2.9-2.6-4.2-4.1-2.2-2.6-1.9-5.9,.5-8.4,1.5-1.5,3.3-2.5,5.4-2.8,1.3-.2,2.7-.2,4,0s1.5,.8,.8,1.9c-.6,.8-1.3,1.6-2,2.3-.6,.7-1,.6-1.5-.2-.8-1.3-1.7-1.6-3-1-1.3,.6-2.2,1.9-1.7,3.1,.3,1,.9,1.9,1.6,2.7,1.2,1.2,2.6,2.3,4,3.4,4.5,3.7,2.9,8.6-.9,11-2.2,1.4-4.5,2-7,2.1h0Z" fill="#1041f5"/>
      <path d="M826.6,166.8c-.7,1.3-1.4,2.3-2.8,2.4-1.5,0-3.1,0-4.6-.1-.6,0-1.2-.4-.7-1,1.5-2.3,1.3-4.9,1.8-7.4,.8-4,1.3-8,2-12,.3-1.6,.1-1.8-1.6-1.8-.6,0-1.1-.2-1.7-.3,.4-.5,.7-1.2,1.2-1.5,.6-.4,1.4-.7,2.2-.8,1.7-.1,3.4,0,5.1,0,.6,0,1.2,.2,.7,.9-2,2.2-1.7,5.1-2.2,7.7-.7,3.7-1.2,7.5-1.8,11.2-.3,2.2-.4,2.2,1.9,2.5-.1,0,.1,0,.5,.2h0Z" fill="#1041f5"/>
      <path d="M858.3,136.1c.5,.1,1.2,.4,1.2,.7,.1,.4-.2,1.1-.5,1.5-.8,.9-2.4,1.1-4.1,.7" fill="#1041f5"/>
      <path d="M834.3,182.5l-2.7-.5v-.4" fill="#1041f5"/>
    </g>
    <text transform="translate(293.26 1738.45)" fill="#2d2ff5" font-family="Inter-SemiBold, Inter" font-size="25">hello@betterworldxdesign.com</text>
    <text transform="translate(669.89 1898.38)" fill="#2d2ff5" font-family="Inter-SemiBold, Inter" font-size="25">@betterworldxdesign</text>
  </g>
  <g id="uuid-d68965ba-d410-40e2-a748-62849829ab1d" data-name="qT4pHT.tif">
    <path d="M918.6,117.8c.2,.5,.3,1.1,.3,1.6,1.2-.6,2.6-.7,3.9-.3,1.3,.5,2.3,1.4,3,2.5,.3-.3,.6-.6,.9-.9,.1-.1,.3-.3,.5-.2,.2,.1,0,.3,0,.5-.1,.2-.2,.4-.2,.6h.8c1.1-.1,2.2,.7,2.5,1.7q.2,.4,.5,.3c.7-.2,1.4-.2,2.1,0,.6,.1,1.1,.3,1.5,.7,.1,.1,.3,.1,.4,.1,.2-.1,.4-.2,.6-.2,.2-.1,.3,.1,.2,.2-.1,.2-.2,.4-.4,.5-.1,.1-.1,.3,0,.4h0c0,.1,.1,.1,.1,.2,0,.3,.3,.5,.6,.5s.5,.1,.7,.2c1,.4,1.6,1.3,1.6,2.4,.1,1.1-.6,2.1-1.5,2.5s-1.8,.4-2.7,.1c-.4-.2-.7-.3-1.1-.4-.4,.1-.7,.2-1.1,.3-.8,.2-1.7,.1-2.4-.2-.2-.1-.5-.1-.7,0-.8,.4-1.4,.9-1.9,1.6-.2,.3-.4,.5-.7,.9,.2,0,.5-.1,.7-.1,.4-.1,.8-.1,1.1-.1,1.5,.2,3.1,.2,4.6,.1,1.2-.1,2.5-.2,3.7-.2,1.1,0,2.2,.2,3.2,.4h.1c.1,.1,.3,.1,.3,.3s-.1,.2-.2,.3c-.2,.1-.5,.2-.7,.3l-3.2,.9c-.4,.1-.9,.3-1.3,.5-.9,.4-1.9,.6-2.9,.7-1.2,.1-2.3,.2-3.5,.2-.7,0-1.4,.2-2.1,.5-.2,.1-.3,.2-.3,.4v.5h.7c1.3-.2,2.6,0,3.8,.6,.1,.1,.3,.1,.4,0,1.1-.5,2.3-.7,3.5-.7,.9,0,1.8,.3,2.6,.7,.9,.4,1.5,1.3,1.7,2.3,.1,.8-.3,1.5-1.1,1.8-.5,.2-1,.3-1.5,.3-1.2,.2-2.4,.1-3.5-.3-.1-.1-.3-.1-.4,0-1,.5-2.1,.5-3.1,.1-.1-.1-.3-.1-.5,0-.9,.3-1.9,.3-2.7-.1-.2-.1-.5-.1-.7,0-.3,.2-.6,.3-.9,.3-1.3,.2-2.7,.2-4,0-.4-.1-.7-.3-1-.3s-.6,.3-1,.4c-.7,.2-1.5,.1-2.2-.2-.2-.1-.4-.1-.6,0-.9,.4-2,.4-2.9-.1-.1-.1-.3-.1-.4,0-1.7,.5-3.6,.6-5.3,.1-.4-.1-.9-.1-1.2,.1-1,.5-2.1,.4-3-.2-.7,.5-1.6,.7-2.4,.4-1.3-.4-2.1-1.8-1.9-3.2,.2-.7,.6-1.3,1.3-1.6,1.1-.5,2.3-.6,3.5-.3,.4,.2,.7,.3,1.1,.4,.4-.1,.7-.2,1.1-.3,1.7-.5,3.6-.4,5.2,.4,.3,.1,.5,0,.7-.1v-1c0-.1-.2-.1-.3-.1l-1.5-.3c-.4-.1-.9-.3-1.3-.4-.6-.2-1.2-.3-1.7-.3-1.4,.1-2.8-.1-4.2-.6-1-.3-1.9-.6-3-.7-.3,0-.5-.1-.8-.2-.1,0-.2-.1-.3-.2-.2-.1-.2-.3,0-.4,.1,0,.1-.1,.2-.1,.6-.3,1.2-.4,1.9-.5,1.9-.3,3.7-.3,5.6,0,.9,.1,1.9,.1,2.8,0,.4-.1,.9-.1,1.4,.1-1-.6-1.8-1.3-2.5-2.2-.2-.3-.6-.3-.9-.1-.9,.5-1.9,.6-2.9,.4-.4-.1-.8,0-1.2,.1-1.4,.5-2.9-.3-3.3-1.6-.2-.7-.2-1.5,.2-2.2,.5-.8,1.3-1.3,2.3-1.5q.6-.2,.3-.7c-.1-.3-.4-.5-.2-.8s.6-.1,.9,.1c.2,.2,.6,.2,.8,0l.1-.1c.4-.4,1-.8,1.6-.9,.3-.1,.5-.3,.6-.6,.3-1.3,1.3-2.2,2.6-2.5,.4-.1,.6-.2,.4-.6-.1-.2,0-.4,.1-.5,.2-.1,.4,0,.5,.1,.2,.2,.4,.4,.6,.6,.3,.3,.7,.6,1.1,.6,.3,.1,.5,0,.7-.3v-.1c.4-.7,.9-1.3,1.6-1.7,1.2-.7,2.7-.9,4-.4,.5,.2,.6,.2,.7-.4,.1-.3,.1-.5,.3-.7l.5-.1Z" fill="#1041f5"/>
    <path d="M1041,146.6c-.4,0-.8,0-1.2,.2-.5,.1-.8,.6-.9,1-.1,1.2-.2,2.5-.2,3.8v10c-.4,.1-.7,0-.9-.4-3.2-3.9-6.4-7.8-9.6-11.6l-.3-.4c-.1,0-.1,.1-.1,.2v8.7c0,.5,.1,1.1,.1,1.6s.4,.8,.8,1c.4,.1,.8,.2,1.2,.2,.3,0,.4,.1,.4,.4,0,.1,0,.2-.2,.2h-5.2q-.3,0-.3-.4c0-.2,.1-.2,.2-.2,.3,0,.5,0,.8-.1,.6-.1,1-.6,1-1.1s.1-.9,.1-1.4c.1-3.2,.1-6.4,0-9.6,0-.3-.1-.7-.2-1-.3-.5-.8-.9-1.4-1l-.6-.1c-.3-.1-.3,0-.3-.4v-.1c.1-.1,.3-.1,.4-.1h2.6c.3,0,.6,.1,.8,.4,3.1,3.7,6.2,7.5,9.3,11.2,.1,.1,.2,.3,.3,.3,.1,.1,.1-.1,.1-.1,0-2.8,.1-5.6-.1-8.4,0-.5-.1-.9-.1-1.4,0-.6-.4-1-1-1.2-.4-.1-.7-.2-1.1-.2-.2,0-.3-.2-.3-.4v-.1c.1-.1,.2-.1,.3-.1h5.4l.2,.6Z" fill="#1041f5"/>
    <path d="M898,146h40.2c.6,0,.5-.1,.5,.5v21.4c0,2.7-.4,5.4-1.2,8-1.2,3.8-3.9,7-7.4,9-2.2,1.3-4.6,2.2-7,2.9-1.5,.5-3,.8-4.5,1.2h-.3c-3.2-.7-6.3-1.7-9.3-3-1.2-.5-2.4-1.2-3.5-1.9-3.4-2.2-5.8-5.7-6.7-9.6-.5-2.1-.8-4.2-.8-6.4v-22.1h0Z" fill="#1041f5"/>
    <path d="M999.1,146h5.5c.2,0,.3,0,.3,.2s0,.4-.3,.4-.6,.1-.9,.1c-.5,.1-.7,.3-.5,.9,.3,.9,.5,1.7,.8,2.6,.8,2.5,1.6,5,2.4,7.5,0,.1,.1,.2,.1,.4,.1-.1,.1-.2,.2-.3l3.5-11c0-.1,.1-.2,.1-.3,0-.2,.2-.3,.4-.3s.3,.1,.4,.3c.4,1.1,.8,2.1,1.2,3.2,1,2.7,1.9,5.3,2.9,8,.1,.1,0,.3,.2,.4,.4-1.2,.8-2.5,1.1-3.7,.6-2.1,1.2-4.2,1.7-6.3,.2-1,0-1.3-1-1.4-.1,0-.3-.1-.4-.1s-.3-.1-.3-.3,0-.3,.2-.3h4.9c.1,0,0,.1,0,.2s0,.3-.3,.3c-.9,0-1.7,.7-1.9,1.6-.6,1.6-1.1,3.3-1.6,4.9-.9,2.7-1.7,5.4-2.5,8.2q-.1,.4-.5,.4c-.4,0-.3-.2-.4-.3-.6-1.7-1.3-3.5-1.9-5.2-.7-1.9-1.4-3.7-2.1-5.6-.1-.1-.1-.3-.2-.5l-.8,2.4c-1,3-2,5.9-3,8.9-.1,.2-.1,.4-.4,.4s-.4,0-.5-.4c-.4-1.2-.8-2.4-1.2-3.6-.9-2.9-1.9-5.8-2.8-8.8-.1-.3-.2-.7-.4-1-.2-.7-.8-1.1-1.5-1.2q-.5-.1-.5-.7Z" fill="#1041f5"/>
    <path d="M956.2,153c.7,.1,1.3,.3,1.9,.7,1.9,1.1,2.5,3.5,1.4,5.3-.2,.3-.3,.5-.5,.7-.9,.8-1.9,1.4-3.1,1.5-.7,.1-1.4,.2-2.1,.2h-5.6q-.3,0-.3-.3c0-.3,.1-.3,.2-.3,.3,0,.5,0,.8-.1,.6,0,1.1-.5,1.1-1.2,0-.4,.1-.8,.1-1.2v-9.2c0-.4,0-.9-.1-1.3-.1-.9-.4-1.1-1.2-1.3-.2,0-.4-.1-.6-.1-.3,0-.2-.2-.2-.3s.1-.3,.2-.2h6c.8,0,1.6,.1,2.4,.3,.2,.1,.4,.1,.6,.2,1.6,.8,2.3,2.7,1.5,4.3-.1,.3-.3,.6-.6,.9-.5,.5-1.2,.9-1.9,1.2-.1,.1-.1,.2,0,.2Z" fill="#1041f5"/>
    <path d="M972.4,154.1c1.2,2.1,2.6,4.1,4.1,6,.4,.5,.9,.9,1.5,1.1,.2,.1,.2,.2,.2,.4s-.2,.2-.3,.2c-.7,0-1.5-.1-2.2-.3-.8-.2-1.5-.7-2-1.4s-.9-1.3-1.4-2.1-.9-1.5-1.3-2.3c-.3-.7-1-1.1-1.7-1-.4,0-.7,0-1.1,.1v4c0,.3,0,.6,.1,1,0,.5,.4,.9,1,1,.3,.1,.5,.1,.8,.1s.3,.1,.3,.3-.1,.2-.3,.2h-5.8c-.2,0-.3,0-.3-.2s0-.4,.2-.4c.3,0,.6,0,.9-.1,.5-.1,1-.5,1-1,.1-.5,.1-.9,.1-1.4v-9.5c0-.4,0-.7-.1-1.1,0-.6-.5-1-1-1.1l-.5-.1q-.4-.1-.4-.5c.1-.1,.2-.1,.3-.1h6.1c.7,0,1.4,.1,2,.3,2,.5,3.3,2.5,2.8,4.5-.1,.5-.4,1-.7,1.5-.5,.7-1.2,1.2-2,1.6l-.3,.3h0Z" fill="#1041f5"/>
    <path d="M988.6,161.8c-4,.1-7.4-3-7.7-7-.2-1.8,.2-3.7,1.1-5.2,2.2-3.8,7.1-5.1,10.9-2.8,.1,.1,.2,.1,.4,.2,1.7,1.2,2.8,3,3.1,5,.4,2,0,4.1-.9,5.8-1.1,2.1-3.3,3.6-5.7,3.9-.4,.1-.8,.1-1.2,.1Z" fill="#1041f5"/>
    <path d="M956.2,153c-.1,0-.2,0-.2-.1s.1-.1,.2-.1v.2Z" fill="#808585"/>
    <path d="M904.4,131c-.4,0-.8,0-1.1-.1s-.6-.1-.9,.1c-.8,.5-1.8,.3-2.3-.5-.1-.1-.1-.2-.1-.2-.4-.7-.2-1.5,.5-2,.6-.4,1.3-.7,2-.8h.2c.3,0,.6-.2,.7-.6,.2-.8,.8-1.5,1.6-1.6l.9-.2q.4-.1,.5-.5c.1-1.2,1.1-2.2,2.3-2.4,.9-.1,1.8,0,2.6,.3,.1,0,.2,.1,.3,.1,.3,.1,.5,.1,.6-.3l.3-.6c.9-1.8,3.1-2.6,4.9-1.7,.2,.1,.5,.2,.7,.4,.3,.2,.7,.3,.9,0,.5-.3,1-.5,1.5-.6,1.6-.3,3.2,.3,4.1,1.6,.3,.3,.5,.7,.7,1q.3,.6,.9,.4c.5-.2,1-.2,1.5-.2,.9,0,1.8,.6,1.9,1.6,0,.1,0,.2,.1,.2,.1,.4,.2,.5,.6,.4,.6-.2,1.3-.3,2-.2,.4,0,.8,.1,1.2,.3,.6,.3,1.1,.8,1.2,1.5,0,.3,.3,.5,.6,.5h0c.3,0,.5,.1,.7,.2,.8,.2,1.4,1,1.4,1.9-.1,.9-.7,1.6-1.6,1.8-.6,.1-1.2,.1-1.7-.1-.3-.1-.5-.2-.8-.3s-.6-.1-.8,0c-1.8,.9-3.9,.1-4.8-1.7-.1-.2-.2-.4-.2-.7-.1-.4-.2-.5-.6-.4-.7,.1-1.3,.1-2-.1-1-.2-1.8-1-2-2,0-.1,0-.2-.1-.2-.1-.3-.3-.4-.5-.2-.1,.1-.3,.2-.4,.2-1.4,.9-3.2,.8-4.6-.2q-.7-.5-1.3,.1c-.5,.5-1.1,.8-1.7,1.1-.7,.3-1.5,.3-2.2,.1-.2-.1-.5,0-.6,.2-.8,1-2,1.4-3.2,1.1l-.2-.1c-.4-.1-.5,.1-.5,.5v.2c.2,1.2-.6,2.4-1.7,2.8-.5-.1-1-.1-1.5-.1Z" fill="#fff"/>
    <path d="M911.9,138.5c-.2-.8-.2-1.5,0-2.3,.8-3.6,4.3-5.8,7.9-5,2.7,.6,4.7,2.8,5.1,5.5v1.6c0,.2-.1,.4-.3,.4-.3,.1-.6,.3-.9,.3l-.9-.3c-1.7-.7-3.6-.6-5.2,.2-.2,.1-.4,.1-.6,0-.8-.4-1.6-.6-2.5-.6-.9-.1-1.7,0-2.6,.2Z" fill="#fff"/>
    <path d="M922.2,142.6c-.7,0-1.3-.1-2-.2-.4-.1-.8-.3-1.1-.7-.2-.3-.4-.6-.5-.9l-.6-1.1q-.1-.3,.2-.4c.9-.3,1.9-.5,2.9-.4,.4,0,.9,.1,1.3,.2,.8,.2,1.4,.8,1.7,1.5,.2,.4,.4,.8,.6,1.2,.1,.2,0,.3-.1,.4-.2,.1-.4,.2-.6,.2-.6,.1-1.2,.2-1.8,.2Z" fill="#1041f5"/>
    <path d="M935.1,142.5c-.7,0-1.3-.1-2-.2-.4-.1-.7-.3-.9-.6-.5-.7-.9-1.4-1.2-2.1-.1-.2,0-.3,.2-.3,.4-.2,.9-.3,1.3-.3,.9-.2,1.8-.1,2.7,.1,.9,.2,1.6,.6,2.1,1.4l.3,.6c.2,.4,0,1-.4,1.2h-.1c-.5,.2-.9,.3-1.4,.4-.2-.2-.4-.2-.6-.2Z" fill="#1041f5"/>
    <path d="M909.1,142.4c-.7,0-1.3,0-2-.2-.5-.1-.9-.3-1.1-.7-.4-.7-.8-1.3-1.1-2-.1-.1,0-.2,.1-.3l.2-.1c1.3-.5,2.7-.5,4-.2,.8,.2,1.5,.7,1.9,1.4,.2,.4,.4,.8,.6,1.2,.2,.4,.1,.4-.2,.5-.5,.2-1,.3-1.5,.3-.4,.1-.7,.1-.9,.1Z" fill="#1041f5"/>
    <path d="M911.3,139.4c1.4-.6,3-.7,4.5-.3,.7,.2,1.2,.6,1.6,1.2,.4,.5,.6,1.2,.9,1.7,.1,.1,0,.2-.1,.3-.1,0-.1,.1-.2,.1-.8,.3-1.6,.1-2.2-.5-.3-.4-.7-.8-1-1.2-.1-.2-.3-.4-.5-.5-.1-.1-.3-.1-.4-.1-.3,0-.4,.2-.2,.5l.2,.2c.4,.3,.7,.7,1,1.1,.2,.2,.1,.3-.1,.4-.6,.3-1.4,.2-1.9-.4-.2-.2-.4-.5-.5-.7-.4-.6-.7-1.2-1.1-1.8Z" fill="#fff"/>
    <path d="M924.6,139.4c1.3-.5,2.8-.7,4.2-.3,.8,.2,1.5,.7,2,1.5,.3,.5,.5,1,.8,1.5,.1,.1,0,.2-.1,.3h0c-.1,.1-.3,.1-.4,.1-.4,.1-.8,.1-1.1,0-.3,0-.6-.2-.8-.4l-1-1.2c-.1-.2-.3-.3-.5-.4-.3-.1-.4-.1-.6,.1-.1,.2-.1,.4,.2,.5,.3,.3,.6,.6,.9,.9,.2,.3,.2,.4-.2,.5-.6,.2-1.2,0-1.6-.3-.2-.1-.3-.3-.4-.5-.7-.8-1.1-1.5-1.4-2.3Z" fill="#fff"/>
    <path d="M937.5,134.2l-.6,.1c-.9,.2-1.7,.4-2.5,.7-1,.4-2,.6-3.1,.7-1.2,.1-2.4,.2-3.6,.2-.4,0-.8,.1-1.2,.2-.2,.1-.3,.1-.5,.2-.2,.1-.3,.1-.4-.2-.1-.4-.2-.8-.3-1.1s-.1-.3,.2-.4c.7-.3,1.5-.4,2.3-.4,1.2,0,2.4,.1,3.6,.1,.8,0,1.6-.1,2.4-.2l2.1-.1c.6,0,1.1,0,1.6,.2h0Z" fill="#fff"/>
    <path d="M904.2,142.5c-.4,0-.8-.1-1.1-.4-.4-.3-.7-.6-1-1-.2-.2-.4-.4-.7-.6-.1-.1-.3-.2-.5-.2s-.3,.1-.3,.3c0,.1,0,.3,.2,.3h.1c.5,.2,.7,.7,1.1,1,.1,.1,0,.2-.1,.3-.2,.2-.6,.3-.9,.3-1,0-1.8-.6-2-1.6-.1-.6,.1-1.3,.7-1.6,.4-.2,.8-.4,1.3-.4,1.2-.3,2.5,.2,3.2,1.3,.4,.6,.7,1.2,1.1,1.8,.1,.1,0,.2-.1,.3-.3,.1-.7,.2-1,.2Z" fill="#fff"/>
    <path d="M900.4,134.5c1.1-.1,2.2-.1,3.3-.1,.6,.1,1.3,.1,1.9,.2,1.1,.1,2.1,.1,3.2,0,.5-.1,1,0,1.5,.1,.2,.1,.4,.2,.7,.3q.4,.2,.3,.7c-.1,.3-.1,.5-.1,.8s-.1,.3-.3,.3c-.7-.1-1.3-.3-1.9-.5-.8-.3-1.6-.5-2.4-.5-1.5,0-2.9-.2-4.3-.6-.6-.5-1.3-.6-1.9-.7Z" fill="#fff"/>
    <path d="M908.1,129.7c1.1,.7,2.3,1.3,3.5,1.7,.4,.2,.7,.3,1.1,.6,.2,.1,.3,.2,.5,.4-.4,.4-.7,.8-1,1.3-.1,.2-.2,.1-.4,.1-.5-.2-1.1-.4-1.5-.7-.9-.5-1.7-1.2-2.4-2q-.3-.3-.1-.7c.1-.2,.2-.4,.3-.7Z" fill="#fff"/>
    <path d="M911.5,127.5c.9,1.3,1.1,2.7,1.8,4-.1,0-.2-.1-.3-.1-.5-.4-1.1-.7-1.7-.9-1-.3-1.9-.8-2.7-1.3-.2-.2-.3-.5-.2-.7,.1-.1,.2-.1,.2-.1,.6,0,1.1,0,1.7-.2,.5-.2,.9-.4,1.2-.7Z" fill="#fff"/>
    <path d="M928.2,130.5c-.2,.1-.3,.2-.5,.3-.5,.3-.9,.6-1.2,1-.4,.5-.9,1-1.4,1.5l-.3,.2c-.2,.1-.3,.1-.4-.1-.3-.4-.6-.8-1-1.2,0-.2,.2-.3,.3-.3,.4-.3,.8-.5,1.2-.7,.8-.4,1.5-.9,2.3-1.4,.2-.1,.3-.1,.4,.1s.4,.4,.6,.6Z" fill="#fefefe"/>
    <path d="M923.7,127.8c-.4,.6-.7,1.3-.8,2.1-.1,.5-.3,.9-.6,1.3-.1,.1-.2,.2-.4,.1-.3-.2-.7-.4-1-.5-.2,0-.3-.2-.2-.4v-.1c.1-.2,.2-.5,.3-.7,.4-.8,.9-1.6,1.5-2.2,.3-.3,.2-.3,.5,0,.4,.3,.5,.3,.7,.4Z" fill="#feffff"/>
    <path d="M917.8,126.3c.1,0,.2,.1,.3,.1,.5,.1,.7,.4,.8,.9,.2,.9,.3,1.7,.3,2.6q0,.5-.5,.5h-1c-.3,0-.3-.1-.3-.3-.1-.5-.1-1,0-1.5,.1-.8,.2-1.6,.4-2.3Z" fill="#fefefe"/>
    <path d="M912.4,127.3c.5-.1,1.1,.1,1.4,.5,.7,.8,1.3,1.7,1.9,2.6q.2,.3-.1,.4l-.9,.5c-.3,.1-.3,.2-.5-.1s-.4-.7-.5-1c-.2-.5-.4-1-.5-1.4-.3-.6-.5-1-.8-1.5Z" fill="#fefefe"/>
    <path d="M916.5,130.2c-.7-1.1-1.5-2.1-2.4-3,.1-.1,.2-.1,.3-.2,.7-.3,1.4-.7,2-1.2,.1-.1,.2-.2,.4-.1s.1,.2,.1,.4c-.3,1.3-.4,2.7-.4,4.1Z" fill="#fefefe"/>
    <path d="M923.3,131.4c.2-.5,.4-1.1,.5-1.6s.3-.9,.5-1.4c.1-.2,.2-.2,.3-.1,.6,.2,1.2,.2,1.8,.2,.2,0,.3,.1,.3,.2q.2,.5-.2,.8l-3.2,1.9Z" fill="#fefefe"/>
    <path d="M920,129.8c0-1.1-.2-2.1-.4-3.2,.9,0,1.8-.3,2.6-.7,0,.1,.1,.2,.2,.3,.1,.1,0,.2-.1,.3-.3,.3-.5,.6-.8,.9-.6,.6-1,1.4-1.3,2.2-.1,.1-.1,.2-.2,.2Z" fill="#fefefe"/>
    <path d="M921.1,177.3v10c0,.1-.1,.2-.2,.3h0l-2.4,.6h-.4c-.7-.2-1.4-.3-2-.5q-.4-.1-.4-.5v-19.5c0-.6,.1-.6-.6-.6h-15.6c-.6,0-.6,.1-.6-.6v-3.7q0-.5,.5-.5h15.7c.7,0,.6,.1,.6-.6v-14c0-.7-.1-.7,.7-.7h4.2q.5,0,.5,.5v14.2c0,.7-.1,.6,.6,.6h15.7c.3,0,.4,0,.4,.4v4q0,.4-.4,.4h-15.7c-.7,0-.6-.1-.6,.6v9.6Z" fill="#1041f5"/>
    <path d="M925.4,170.2v1.2c0,.2-.1,.2-.2,.2h-.7c-.1,.1-.1,.3-.1,.4v7c0,.2,.1,.3,.3,.3h4c.2,0,.3,0,.3,.3s.1,.3,.3,.3h1.6v-.2q0-.4,.4-.4h3.3c.1,0,.2,0,.3,.1-.4,.6-.9,1.2-1.4,1.7-1.7,1.7-3.6,3.1-5.8,4-1.8,.8-3.6,1.5-5.5,2h-.2v-18.9q0-.4,.4-.4h15.2q.4,0,.4,.4c0,1-.1,2-.2,2.9-.2,1.8-.6,3.6-1.2,5.3-.2,.5-.4,1-.7,1.5l-.3,.3v-6.4q0-.4-.4-.4-.6,0-.6-.6c0-.2,.1-.5,0-.7s-.4,0-.7,0c-.7-.1-1.4-.2-2.1-.3-.5-.1-1.1,0-1.5,.2-.1,.1-.2,.1-.3,0-.5-.2-1-.3-1.5-.2-.3,.1-.6,.1-.9,.1-.8,.3-1.5,.4-2.2,.3Z" fill="#fff"/>
    <path d="M902.1,179.2h3.5q.5,0,.5,.6h1.7c.1,0,.2-.1,.2-.2v-.3c.1-.1,.3-.1,.4-.1h3.7q.3,0,.3-.3v-7.4h-.7c-.2,0-.3-.1-.3-.3v-1.1c-1,0-2-.1-3-.3-.4-.1-.9,0-1.3,.2-.1,.1-.3,.1-.5,0-.4-.2-.9-.3-1.4-.2-.3,.1-.6,.1-.9,.2-.7,.2-1.3,.2-2,.1v1.2c0,.2-.1,.2-.2,.2-.2,0-.5-.1-.7,0s-.1,.5-.1,.8v5.9c-.2-.1-.2-.3-.3-.4-.8-1.6-1.4-3.3-1.7-5-.3-1.5-.4-3.1-.5-4.6q0-.4,.3-.4h15.2q.4,0,.4,.4v18.8c-.8-.2-1.6-.5-2.4-.8-2.1-.7-4.1-1.6-6-2.8-1.6-1-3-2.4-4.1-3.9,.1,0-.1-.1-.1-.3Z" fill="#fff"/>
    <path d="M929.8,147h7.7c.2,0,.3,0,.3,.3v13.6c0,.6,.1,.5-.5,.5h-14.8c-.7,0-.6,.1-.6-.5v-13.5c0-.3,.1-.3,.3-.3h5.7l1.9-.1Z" fill="#fff"/>
    <path d="M907,147h7.7c.1,0,.3,.1,.2,.2v13.7c0,.6,.1,.5-.5,.5h-14.8c-.6,0-.5,.1-.5-.5v-13.4c0-.6-.1-.5,.5-.5h7.4Z" fill="#fff"/>
    <path d="M926.2,171.1c.9,0,1.6-.3,2.3-.3,.2,0,.4,0,.6,.1,.2,.1,.3,.2,.3,.4v6.5c-.7-.2-1.4-.2-2.1,.1h-.3c-.7,.1-.8,0-.8-.7v-6.1h0Z" fill="#fff"/>
    <path d="M907.5,177.6v-6.2c0-.5,.2-.7,.8-.7,.4,0,.9,.1,1.3,.2,.3,.1,.6,.1,.9,.1,.2,0,.3,.1,.3,.3v6.1c0,.2-.1,.3-.2,.3h0c-.3,0-.6,0-.9-.1-.8-.1-1.5-.1-2.2,0Z" fill="#fff"/>
    <path d="M906.4,177.6c-.6-.2-1.3-.1-1.9,.1-.3,.1-.6,.1-.9,.1-.2,0-.3-.1-.3-.3v-6.4c.8,0,1.6-.3,2.4-.4h.4c.3,.1,.4,.2,.4,.5v5.9c0,.2,0,.4-.1,.5Z" fill="#fff"/>
    <path d="M933.6,171.1v6.2q0,.5-.5,.5c-.3,0-.5,0-.8-.1-.6-.2-1.3-.2-1.9,0-.1-.2-.1-.3-.1-.5v-5.7c0-.6,.2-.8,.9-.7,.4,0,.9,.1,1.3,.2s.8,.1,1.1,.1Z" fill="#fff"/>
    <path d="M952,156.5v-2.7q0-.3,.3-.3c.9-.1,1.8,0,2.6,.2,1.3,.3,2.3,1.2,2.6,2.5,.2,.8,.2,1.6-.1,2.4-.4,1.2-1.5,2-2.7,2.1-.5,.1-1,.1-1.5,0-.6,0-1.2-.5-1.2-1.1,0-.3-.1-.6-.1-.9,.1-.7,.1-1.5,.1-2.2Z" fill="#fefced"/>
    <path d="M952,149.9v-2.5c0-.4,.1-.5,.5-.6,.8-.1,1.6-.1,2.4,.1,1.2,.2,2,1.3,2,2.4v1.1c-.2,1.2-1.2,2.2-2.5,2.2-.7,.1-1.4,.1-2,.1-.2,0-.3-.1-.3-.3-.1-.8-.1-1.7-.1-2.5Z" fill="#fefced"/>
    <path d="M968.3,150.5v-2.9q0-.8,.9-.9c.5-.1,1.1,0,1.6,.1,1.5,.2,2.5,1.4,2.6,2.9,.2,1.3-.2,2.6-1.2,3.5-.5,.4-1,.7-1.7,.7-.7,.1-1.3,0-2,.1-.2,0-.3-.1-.3-.3,.1-1.1,.1-2.1,.1-3.2Z" fill="#fefced"/>
    <path d="M994.2,154.5c0,1.3-.2,2.5-.7,3.7-.7,1.7-2.3,2.8-4.1,2.9-1.7,.1-3.3-.6-4.4-2-.8-.9-1.3-2.1-1.5-3.2-.5-1.9-.4-3.9,.2-5.8,.8-2.7,3.6-4.2,6.2-3.4,1.1,.3,2,.9,2.6,1.8,.7,1,1.3,2.1,1.5,3.4,.1,.8,.2,1.7,.2,2.6Z" fill="#fefced"/>
    <path d="M921.4,120.7c1.3,0,2.5,.8,3.2,1.9,.1,.2,.2,.4,0,.6s-.3,.2-.5,0c-.4-.7-1-1.2-1.7-1.5-1.1-.5-2.4-.2-3.3,.7-.2,.2-.2,.1-.4,0-.2-.2-.2-.5,0-.7s.4-.4,.6-.5c.7-.4,1.4-.5,2.1-.5Z" fill="#1041f5"/>
    <path d="M917.8,121.3c0,.1,0,.2-.1,.3-.1,.1-.2,.2-.3,.1-.3-.2-.6-.3-.9-.4-.8-.2-1.6,0-2.2,.5-.2,.2-.4,.3-.5,.5-.1,.1-.2,.3-.4,.1-.2-.1-.3-.3-.2-.5,0-.1,.1-.1,.1-.2,.7-.9,1.7-1.4,2.8-1.4,.6,0,1.1,.3,1.6,.6,0,.1,.1,.3,.1,.4Z" fill="#1041f5"/>
    <path d="M909.8,122.7c.3,0,.6,0,.9,.1,.3,.1,.4,.2,.3,.5-.1,.3-.2,.3-.4,.2-.2,0-.3-.1-.5-.1-.8-.1-1.5,.2-1.9,.8-.2,.3-.4,.6-.5,1q-.1,.2-.3,.2c-.2,0-.3-.1-.3-.3,0-.1,0-.3,.1-.4,.2-1.2,1.3-2.1,2.6-2Z" fill="#1041f5"/>
    <path d="M931.7,125.2c1-.1,2,.5,2.4,1.5,.1,.2,.1,.4,0,.6-.1,.1-.2,.1-.3,.1,0,0-.1,0-.1-.1-.1-.1-.1-.2-.2-.2-.5-.9-1.5-1.3-2.5-1l-.2,.1c-.1,0-.3,.1-.4-.1-.1-.2-.1-.4,.1-.5l.6-.3c.1-.1,.3-.1,.6-.1Z" fill="#1041f5"/>
    <path d="M902.7,128c.2,0,.5,0,.6,.3s0,.4-.2,.4h-.8c-.7,.1-1.2,.6-1.4,1.2,0,.1,0,.3-.2,.3s-.3-.1-.4-.3v-.4c.1-.4,.4-.8,.7-1,.6-.4,1.2-.5,1.7-.5Z" fill="#1041f5"/>
    <path d="M927.4,123.2c.7,0,1.4,.4,1.7,1,.1,.1,.1,.3,.1,.4,0,.2-.1,.3-.3,.3-.1,0-.2-.1-.3-.2-.6-.9-.9-1.1-2-.8h-.1c-.2,0-.4,.1-.4-.1-.1-.2,0-.4,.2-.5h0c.1,0,.2-.1,.4-.1h.7Z" fill="#1041f5"/>
    <path d="M936.8,129c0,.1,0,.2-.1,.4s-.2,.2-.4,.2-.2-.2-.2-.3v-.3c0-.4-.3-.7-.8-.7h-.3c-.2,0-.3-.1-.3-.3s.1-.4,.3-.4c.8-.1,1.6,.4,1.8,1.2v.2Z" fill="#1041f5"/>
    <path d="M905.9,125.7c.2,0,.3,0,.3,.2s-.1,.4-.3,.5c-.3,0-.5,.1-.8,.3-.3,.2-.5,.4-.6,.7-.1,.1-.1,.3-.3,.2-.2,0-.3-.2-.3-.4,0-.1,.1-.2,.1-.4,.4-.7,1.1-1.1,1.9-1.1Z" fill="#1041f5"/>
    <path d="M916.1,134.2c.5,0,.9,.1,1.3,.2,.3,.1,.4,.2,.3,.5,0,.1,0,.2-.1,.3s-.1,.2-.2,.1l-.2-.1c-.2,0-.3,0-.4,.2-.1,.4-.5,.7-.9,.5-.3-.1-.5-.4-.6-.7,0-.3-.2-.3-.4-.3s-.4,.1-.5,.2c-.1,0-.2,.1-.3,0s0-.2,.1-.3c.6-.3,1.2-.6,1.9-.6Z" fill="#1041f5"/>
    <path d="M920.4,134.3c.5,0,1,.1,1.4,.2,.3,.1,.6,.4,.8,.7,0,.1,.1,.2,0,.2-.1,.1-.1,0-.2-.1-.2-.1-.4-.2-.7-.3q-.2,0-.3,.2c-.1,.5-.3,.6-.7,.7-.4,.1-.7-.2-.8-.5s-.3-.2-.5-.2c-.3,0-.4,0-.4-.3-.1-.3,0-.6,.3-.6,.4,0,.7,0,1.1,0Z" fill="#1041f5"/>
    <path d="M917.3,137.1c.6,.1,1.3,.1,1.9-.2,.2,.7,0,1-.6,1.1-.9,.1-1.4-.2-1.3-.9Z" fill="#1041f5"/>
    <path d="M925.4,149.4c.9,.1,1.8,0,2.6-.2,.6-.1,1.2-.1,1.7,.2,.1,.1,.2,.1,.3,0,.5-.2,1-.3,1.6-.2l1.5,.3c.4,.1,.8,.1,1.3,0v1c0,.3,0,.4,.3,.4q.6,0,.6,.6v6.8c0,.3-.1,.3-.3,.3h-3.8q-.4,0-.4,.4c0,.2-.1,.2-.2,.2h-1.4c-.2,0-.3-.1-.3-.3s-.1-.3-.3-.3h-3.8c-.4,0-.5,.1-.5-.4v-6.8c0-.5,0-.4,.4-.4h.2q.4,0,.4-.4l.1-1.2Z" fill="#1041f5"/>
    <path d="M902.5,149.4c.9,.1,1.8,0,2.7-.3,.6-.1,1.1-.1,1.7,.2,.1,.1,.2,.1,.3,0,.5-.2,1.1-.3,1.6-.2l1.5,.3h1.2c.1,.4,.1,.7,0,1.1,0,.2,.1,.3,.3,.3h.6v7.3q0,.4-.4,.4h-3.8c-.2,0-.3,0-.3,.3s-.1,.3-.3,.3h-1.3c-.2,0-.3-.1-.3-.3s-.1-.3-.3-.3h-3.8q-.4,0-.4-.4v-6.8q0-.4,.4-.4,.6,0,.6-.6c-.1-.4,0-.6,0-.9Z" fill="#1041f5"/>
    <path d="M926.1,150.3c.7,0,1.3-.2,2-.3h.3c.8-.1,1,.1,1,.9v6.1c-.6-.2-1.3-.2-2,0-.3,.1-.6,.1-.9,.1-.4,0-.4-.1-.4-.4v-6.4h0Z" fill="#fff"/>
    <path d="M930.3,156.9v-6.4c0-.4,.2-.5,.6-.5s.8,0,1.1,.1c.5,.1,1,.2,1.5,.2v6.2q0,.5-.5,.5c-.3,0-.6,0-.9-.1-.6-.2-1.2-.2-1.8,0Z" fill="#fff"/>
    <path d="M907.5,156.9v-6.3c0-.5,.1-.6,.6-.7,.5,0,1.1,.1,1.6,.2l.3,.1c.2,0,.5,0,.6,.1s0,.4,0,.6v5.5q0,.5-.5,.5c-.3,0-.6,0-.9-.1-.4-.1-1.1-.1-1.7,.1Z" fill="#fff"/>
    <path d="M903.3,150.3c.7-.1,1.3-.2,2-.3h.8c.2,0,.4,.2,.4,.4v6.5c-.7-.2-1.4-.2-2,.1-.3,.1-.5,.1-.8,.1-.2,0-.3-.1-.3-.3v-1l-.1-5.5h0Z" fill="#fff"/>
  </g>
</svg>