<svg width="185" height="44" viewBox="0 0 185 44" fill="none" xmlns="http://www.w3.org/2000/svg">
<g clip-path="url(#clip0_649_3)">
<path d="M40.4819 16.7428L40.3907 16.3486L38.6991 16.7379L38.7928 17.132C39.535 20.3209 39.4195 23.6474 38.4578 26.778C37.4961 29.9086 35.7221 32.733 33.3137 34.968C31.4428 36.7062 29.2327 38.0449 26.82 38.9017C24.4074 39.7584 21.8434 40.1148 19.2864 39.9489C16.7295 39.7831 14.2341 39.0984 11.9542 37.9373C9.67437 36.7761 7.6586 35.1632 6.03146 33.1981C6.46424 32.6565 6.69903 31.9851 6.69741 31.2938C6.69579 30.6025 6.45785 29.9322 6.02254 29.3926C5.58722 28.853 4.9803 28.4761 4.30111 28.3236C3.62192 28.171 2.91068 28.2518 2.28378 28.5528C1.65688 28.8538 1.15145 29.3571 0.8502 29.9803C0.548953 30.6036 0.469728 31.31 0.625494 31.9838C0.781261 32.6576 1.16279 33.2589 1.70765 33.6894C2.25251 34.1199 2.92842 34.3541 3.62478 34.3536C3.9603 34.3542 4.2936 34.2996 4.61112 34.192C6.45603 36.451 8.76791 38.2905 11.3905 39.5862C14.0132 40.8819 16.8854 41.6035 19.8131 41.7024C20.0597 41.7024 20.2841 41.7024 20.5208 41.7024C23.6079 41.7002 26.6547 41.0064 29.4342 39.6729C32.2136 38.3393 34.6542 36.4003 36.574 34.0003C38.4938 31.6003 39.8433 28.8012 40.5221 25.8114C41.2009 22.8217 41.1913 19.7185 40.4942 16.733L40.4819 16.7428ZM4.9736 31.3009C4.97409 31.5645 4.89577 31.8223 4.74856 32.0417C4.60135 32.2611 4.39188 32.4321 4.14666 32.5332C3.90145 32.6343 3.63153 32.6609 3.37109 32.6096C3.11065 32.5583 2.8714 32.4314 2.68365 32.245C2.4959 32.0586 2.3681 31.8211 2.31642 31.5626C2.26473 31.304 2.29151 31.0361 2.39334 30.7926C2.49518 30.5492 2.66749 30.3412 2.88847 30.1951C3.10944 30.0489 3.36913 29.9712 3.63465 29.9717C3.98785 29.9749 4.32552 30.1163 4.57435 30.3651C4.82319 30.614 4.96311 30.9503 4.96374 31.3009H4.9736Z" fill="#2D2FF5"/>
<path d="M33.6121 18.5542C32.8363 15.0945 30.7096 12.0816 27.6986 10.177C24.6876 8.27233 21.0384 7.63147 17.552 8.39507C15.7342 8.8013 14.0207 9.57641 12.5192 10.6717C12.0654 10.4109 11.5517 10.2701 11.0273 10.2629H10.9854C10.1842 10.2805 9.42155 10.6077 8.85958 11.1749C8.29762 11.7421 7.98069 12.5045 7.97619 13.3001C7.97169 14.0956 8.27999 14.8616 8.83551 15.435C9.39103 16.0084 10.1499 16.3441 10.9509 16.3706H10.9854C11.5141 16.3706 12.0338 16.235 12.4941 15.9768C12.9544 15.7187 13.3397 15.3469 13.6126 14.8974C13.8856 14.4478 14.0368 13.9359 14.0517 13.4113C14.0667 12.8867 13.9448 12.3671 13.6979 11.903C15.9164 10.3605 18.6044 9.62789 21.3053 9.8296C24.0062 10.0313 26.5535 11.1549 28.5146 13.0096C30.4758 14.8643 31.7298 17.3357 32.0637 20.0041C32.3976 22.6725 31.7908 25.3734 30.3465 27.648C28.9021 29.9227 26.7091 31.6309 24.14 32.4826C21.5709 33.3343 18.7841 33.2769 16.2528 32.3201C13.7215 31.3634 11.6018 29.5664 10.2537 27.2342C8.90564 24.902 8.41226 22.1784 8.85738 19.5261L8.92396 19.127L7.24718 18.8431L7.17813 19.2421C6.85092 21.1871 6.9611 23.1798 7.50078 25.0776C8.04047 26.9753 8.99629 28.7311 10.2998 30.219C11.6032 31.707 13.2221 32.8903 15.0403 33.6842C16.8586 34.4781 18.8312 34.8629 20.8168 34.811C22.8024 34.7591 24.7519 34.2719 26.5256 33.3842C28.2993 32.4966 29.8533 31.2304 31.0761 29.6765C32.299 28.1225 33.1605 26.3193 33.5989 24.396C34.0374 22.4727 34.0419 20.477 33.6121 18.5518V18.5542ZM11.9274 14.2678C11.6724 14.5131 11.3306 14.6493 10.9756 14.6472V14.6472C10.6345 14.6255 10.3147 14.4753 10.0815 14.2274C9.84816 13.9795 9.71896 13.6526 9.72022 13.3134C9.72147 12.9741 9.8531 12.6481 10.0882 12.402C10.3233 12.1558 10.6442 12.008 10.9854 11.9887H11.0027C11.2678 11.9915 11.5261 12.0724 11.7448 12.2211C11.9636 12.3698 12.1329 12.5796 12.2314 12.824C12.3299 13.0683 12.3532 13.3362 12.2981 13.5937C12.2431 13.8512 12.1124 14.0866 11.9224 14.2702L11.9274 14.2678Z" fill="#2D2FF5"/>
<path d="M36.9731 7.8788C36.5858 7.87837 36.2025 7.95581 35.8462 8.10646C32.8658 4.71286 28.8289 2.40495 24.3764 1.54919C19.9239 0.693427 15.311 1.33886 11.2702 3.38301C7.22943 5.42716 3.99231 8.75286 2.07287 12.832C0.153426 16.9112 -0.338322 21.5101 0.675702 25.8984L0.732415 26.1432L2.10836 25.8201L2.05411 25.5753C1.10567 21.4988 1.55512 17.2246 3.33121 13.4305C5.1073 9.63635 8.10837 6.53938 11.8586 4.63063C15.6088 2.72188 19.8936 2.11059 24.0334 2.89367C28.1733 3.67675 31.9314 5.8094 34.7119 8.95346C34.2882 9.46712 34.0572 10.1109 34.0584 10.7748C34.0584 11.3476 34.2296 11.9076 34.5502 12.3839C34.8709 12.8602 35.3266 13.2314 35.8598 13.4505C36.3929 13.6696 36.9796 13.7268 37.5455 13.6149C38.1115 13.503 38.6312 13.2269 39.0391 12.8217C39.447 12.4164 39.7246 11.9002 39.8369 11.3382C39.9492 10.7763 39.891 10.194 39.6699 9.66483C39.4487 9.1357 39.0744 8.68358 38.5944 8.36566C38.1144 8.04774 37.5501 7.87831 36.9731 7.8788V7.8788ZM36.9731 12.2631C36.676 12.2631 36.3855 12.1756 36.1385 12.0117C35.8915 11.8478 35.699 11.6148 35.5854 11.3423C35.4719 11.0697 35.4423 10.7698 35.5004 10.4806C35.5585 10.1913 35.7018 9.92568 35.9121 9.71728C36.1223 9.50888 36.3901 9.36709 36.6816 9.30984C36.9731 9.25259 37.2751 9.28246 37.5495 9.39568C37.8238 9.50889 38.0582 9.70035 38.2229 9.94584C38.3876 10.1913 38.4753 10.4798 38.4748 10.7748C38.4741 11.1697 38.3156 11.5483 38.0341 11.8274C37.7525 12.1064 37.3709 12.2631 36.9731 12.2631V12.2631Z" fill="#2D2FF5"/>
<path d="M0.611645 26.3268L0.52041 25.9351C0.121644 24.2076 -0.0491093 22.4359 0.0124445 20.6646C0.149557 16.589 1.51721 12.6483 3.93799 9.35375C6.35876 6.05922 9.72094 3.5629 13.5883 2.18864C17.4558 0.814376 21.6499 0.625596 25.6267 1.64678C29.6035 2.66796 33.1795 4.85199 35.8906 7.91552C36.5043 7.68637 37.1758 7.65797 37.8069 7.83446C38.438 8.01096 38.9958 8.38312 39.3987 8.8966C39.8017 9.41008 40.0288 10.038 40.0469 10.6887C40.0649 11.3394 39.873 11.9787 39.4991 12.5135C39.1252 13.0482 38.5889 13.4503 37.9686 13.661C37.3482 13.8717 36.6762 13.8801 36.0507 13.6848C35.4252 13.4895 34.879 13.1009 34.4917 12.5756C34.1045 12.0503 33.8965 11.4159 33.8982 10.765C33.8998 10.1111 34.1114 9.47479 34.5023 8.94857C32.8228 7.0595 30.7709 5.53242 28.4734 4.46169C26.176 3.39096 23.6817 2.79932 21.1448 2.72335C18.2692 2.62829 15.41 3.19027 12.7878 4.36594C10.1657 5.5416 7.85054 7.29954 6.02109 9.50413C4.19165 11.7087 2.89677 14.3011 2.23633 17.0811C1.5759 19.8612 1.56757 22.7548 2.21199 25.5386L2.30322 25.9302L0.611645 26.3268ZM20.4864 1.31821C15.2581 1.33198 10.2385 3.35571 6.48084 6.96469C2.72322 10.5737 0.519804 15.4873 0.333006 20.6744C0.270117 22.4174 0.435898 24.1612 0.826177 25.8617L0.845904 25.9449L1.91115 25.7001L1.89142 25.6169C1.24842 22.8386 1.2445 19.9522 1.87996 17.1723C2.51541 14.3923 3.77389 11.7903 5.56183 9.55966C7.34977 7.32904 9.62119 5.52722 12.2072 4.28814C14.7932 3.04905 17.6273 2.40459 20.4988 2.40266C20.7133 2.40266 20.9303 2.40266 21.1473 2.40266C23.7504 2.48111 26.309 3.0931 28.6624 4.20021C31.0159 5.30732 33.1133 6.88562 34.8229 8.83597L34.9141 8.93633L34.8278 9.0416C34.4357 9.52382 34.2204 10.1241 34.2172 10.7438C34.2141 11.3635 34.4233 11.9659 34.8105 12.4521C35.1976 12.9382 35.7398 13.2792 36.348 13.4191C36.9561 13.559 37.5941 13.4894 38.1572 13.2218C38.7203 12.9543 39.175 12.5046 39.4467 11.9466C39.7184 11.3886 39.7909 10.7555 39.6523 10.1512C39.5138 9.54696 39.1724 9.0074 38.6842 8.62115C38.196 8.23491 37.59 8.02493 36.9657 8.02568C36.5997 8.02573 36.2374 8.09899 35.9005 8.24111L35.7944 8.28517L35.718 8.19704C33.8995 6.1237 31.6713 4.4433 29.1717 3.26002C26.6721 2.07675 23.9542 1.41582 21.1867 1.31821C20.9574 1.3231 20.7207 1.31821 20.4864 1.31821ZM36.9731 12.4223C36.6443 12.4223 36.3229 12.3254 36.0495 12.144C35.7762 11.9626 35.5631 11.7048 35.4374 11.4032C35.3117 11.1015 35.2789 10.7697 35.3433 10.4495C35.4076 10.1294 35.5661 9.83542 35.7988 9.60477C36.0315 9.37412 36.3279 9.21717 36.6504 9.15379C36.973 9.0904 37.3072 9.12342 37.6109 9.24868C37.9145 9.37393 38.1739 9.58579 38.3562 9.85745C38.5385 10.1291 38.6356 10.4483 38.6351 10.7748C38.6345 11.2119 38.4591 11.631 38.1475 11.9399C37.8358 12.2488 37.4135 12.4223 36.9731 12.4223ZM36.9731 9.44307C36.7078 9.44307 36.4485 9.52117 36.2279 9.6675C36.0073 9.81383 35.8353 10.0218 35.7338 10.2652C35.6323 10.5085 35.6057 10.7762 35.6575 11.0346C35.7092 11.2929 35.837 11.5302 36.0246 11.7164C36.2122 11.9027 36.4512 12.0295 36.7114 12.0809C36.9716 12.1323 37.2414 12.1059 37.4865 12.0051C37.7316 11.9043 37.9411 11.7336 38.0885 11.5146C38.2359 11.2956 38.3146 11.0382 38.3146 10.7748C38.3146 10.4216 38.1732 10.0829 37.9217 9.83311C37.6701 9.58337 37.3289 9.44307 36.9731 9.44307Z" fill="#2D2FF5"/>
<mask id="mask0_649_3" style="mask-type:alpha" maskUnits="userSpaceOnUse" x="17" y="20" width="7" height="7">
<circle cx="20.3563" cy="23.1391" r="2.37737" stroke="black" stroke-width="1.48586"/>
</mask>
<g mask="url(#mask0_649_3)">
<rect x="16.9387" y="22.9905" width="6.83494" height="3.56605" fill="#2D2FF5"/>
</g>
<circle cx="13.9671" cy="20.6131" r="1.78303" fill="#2D2FF5"/>
<circle cx="26.4483" cy="20.9105" r="1.78303" fill="#2D2FF5"/>
</g>
<path d="M52.3311 18.585V3.1H58.0019C59.1007 3.1 60.0106 3.28146 60.7314 3.64439C61.4522 4.00228 61.9916 4.48871 62.3495 5.10367C62.7073 5.71359 62.8863 6.40164 62.8863 7.16783C62.8863 7.81303 62.7678 8.35743 62.5309 8.80101C62.294 9.23954 61.9764 9.59239 61.5782 9.85955C61.1851 10.1217 60.7516 10.3132 60.2777 10.4342V10.5854C60.7919 10.6106 61.2934 10.777 61.7824 11.0844C62.2764 11.3869 62.6847 11.8179 63.0073 12.3774C63.3299 12.9369 63.4912 13.6174 63.4912 14.4188C63.4912 15.2102 63.3047 15.921 62.9317 16.551C62.5637 17.1761 61.9941 17.6726 61.2229 18.0406C60.4516 18.4035 59.4662 18.585 58.2665 18.585H52.3311ZM54.6675 16.5813H58.0397C59.1587 16.5813 59.9602 16.3645 60.4441 15.931C60.928 15.4975 61.1699 14.9557 61.1699 14.3054C61.1699 13.8165 61.0464 13.3679 60.7994 12.9596C60.5525 12.5513 60.1996 12.2261 59.7409 11.9842C59.2872 11.7422 58.7479 11.6213 58.1228 11.6213H54.6675V16.5813ZM54.6675 9.79906H57.7977C58.322 9.79906 58.7933 9.69825 59.2116 9.49662C59.6351 9.29499 59.9703 9.01271 60.2173 8.64979C60.4693 8.28182 60.5953 7.84832 60.5953 7.34929C60.5953 6.70913 60.371 6.17229 59.9224 5.7388C59.4738 5.3053 58.7857 5.08855 57.8582 5.08855H54.6675V9.79906ZM71.0862 18.8194C69.942 18.8194 68.9565 18.5749 68.1299 18.0859C67.3082 17.5919 66.6731 16.8989 66.2245 16.0067C65.7809 15.1094 65.5591 14.0584 65.5591 12.8537C65.5591 11.6641 65.7809 10.6156 66.2245 9.70833C66.6731 8.80101 67.2981 8.09279 68.0996 7.58368C68.9061 7.07457 69.8487 6.82002 70.9274 6.82002C71.5827 6.82002 72.2178 6.92839 72.8328 7.14514C73.4478 7.36189 73.9997 7.70214 74.4887 8.16588C74.9776 8.62962 75.3632 9.23198 75.6455 9.97296C75.9278 10.7089 76.0689 11.6036 76.0689 12.6571V13.4586H66.8369V11.7649H73.8535C73.8535 11.1701 73.7326 10.6434 73.4906 10.1847C73.2487 9.72093 72.9084 9.35548 72.4699 9.08832C72.0364 8.82117 71.5273 8.68759 70.9426 8.68759C70.3074 8.68759 69.753 8.84385 69.2791 9.15637C68.8103 9.46386 68.4474 9.86711 68.1903 10.3661C67.9383 10.8601 67.8123 11.397 67.8123 11.9766V13.2998C67.8123 14.0761 67.9484 14.7364 68.2206 15.2808C68.4978 15.8252 68.8834 16.241 69.3774 16.5284C69.8714 16.8106 70.4486 16.9518 71.1089 16.9518C71.5374 16.9518 71.928 16.8913 72.2809 16.7703C72.6337 16.6443 72.9387 16.4578 73.1957 16.2108C73.4528 15.9638 73.6494 15.6588 73.7855 15.2959L75.9253 15.6815C75.7539 16.3116 75.4464 16.8636 75.0028 17.3374C74.5643 17.8062 74.0123 18.1716 73.347 18.4337C72.6866 18.6908 71.933 18.8194 71.0862 18.8194ZM83.9985 6.97124V8.78588H77.6548V6.97124H83.9985ZM79.3561 4.18879H81.6168V15.1749C81.6168 15.6135 81.6823 15.9436 81.8134 16.1654C81.9445 16.3822 82.1133 16.5309 82.32 16.6115C82.5317 16.6871 82.761 16.725 83.008 16.725C83.1895 16.725 83.3483 16.7123 83.4844 16.6871C83.6205 16.6619 83.7263 16.6418 83.8019 16.6267L84.2102 18.4942C84.0792 18.5446 83.8927 18.595 83.6507 18.6454C83.4088 18.7009 83.1063 18.7311 82.7434 18.7362C82.1486 18.7463 81.5941 18.6404 81.08 18.4186C80.5658 18.1968 80.15 17.8541 79.8324 17.3903C79.5149 16.9266 79.3561 16.3444 79.3561 15.6437V4.18879ZM91.9206 6.97124V8.78588H85.5769V6.97124H91.9206ZM87.2781 4.18879H89.5389V15.1749C89.5389 15.6135 89.6044 15.9436 89.7355 16.1654C89.8665 16.3822 90.0354 16.5309 90.242 16.6115C90.4538 16.6871 90.6831 16.725 90.9301 16.725C91.1116 16.725 91.2703 16.7123 91.4064 16.6871C91.5425 16.6619 91.6484 16.6418 91.724 16.6267L92.1323 18.4942C92.0012 18.5446 91.8147 18.595 91.5728 18.6454C91.3308 18.7009 91.0284 18.7311 90.6655 18.7362C90.0707 18.7463 89.5162 18.6404 89.002 18.4186C88.4879 18.1968 88.072 17.8541 87.7545 17.3903C87.4369 16.9266 87.2781 16.3444 87.2781 15.6437V4.18879ZM99.302 18.8194C98.1578 18.8194 97.1723 18.5749 96.3457 18.0859C95.524 17.5919 94.8889 16.8989 94.4403 16.0067C93.9967 15.1094 93.7749 14.0584 93.7749 12.8537C93.7749 11.6641 93.9967 10.6156 94.4403 9.70833C94.8889 8.80101 95.514 8.09279 96.3154 7.58368C97.1219 7.07457 98.0645 6.82002 99.1432 6.82002C99.7985 6.82002 100.434 6.92839 101.049 7.14514C101.664 7.36189 102.216 7.70214 102.704 8.16588C103.193 8.62962 103.579 9.23198 103.861 9.97296C104.144 10.7089 104.285 11.6036 104.285 12.6571V13.4586H95.0527V11.7649H102.069C102.069 11.1701 101.948 10.6434 101.706 10.1847C101.464 9.72093 101.124 9.35548 100.686 9.08832C100.252 8.82117 99.7431 8.68759 99.1584 8.68759C98.5232 8.68759 97.9688 8.84385 97.4949 9.15637C97.0262 9.46386 96.6632 9.86711 96.4062 10.3661C96.1541 10.8601 96.0281 11.397 96.0281 11.9766V13.2998C96.0281 14.0761 96.1642 14.7364 96.4364 15.2808C96.7136 15.8252 97.0993 16.241 97.5932 16.5284C98.0872 16.8106 98.6644 16.9518 99.3247 16.9518C99.7532 16.9518 100.144 16.8913 100.497 16.7703C100.85 16.6443 101.154 16.4578 101.412 16.2108C101.669 15.9638 101.865 15.6588 102.001 15.2959L104.141 15.6815C103.97 16.3116 103.662 16.8636 103.219 17.3374C102.78 17.8062 102.228 18.1716 101.563 18.4337C100.902 18.6908 100.149 18.8194 99.302 18.8194ZM106.793 18.585V6.97124H108.978V8.81613H109.099C109.311 8.19108 109.684 7.69962 110.218 7.34173C110.758 6.9788 111.368 6.79734 112.048 6.79734C112.189 6.79734 112.355 6.80238 112.547 6.81246C112.744 6.82254 112.897 6.83514 113.008 6.85026V9.01271C112.918 8.98751 112.756 8.95979 112.524 8.92954C112.292 8.89426 112.061 8.87662 111.829 8.87662C111.294 8.87662 110.818 8.99003 110.4 9.21686C109.986 9.43865 109.659 9.74865 109.417 10.1469C109.175 10.54 109.054 10.9887 109.054 11.4927V18.585H106.793ZM123.813 18.585L119.518 3.1H121.976L124.992 15.0918H125.136L128.274 3.1H130.709L133.846 15.0993H133.99L136.999 3.1H139.464L135.162 18.585H132.811L129.552 6.98636H129.431L126.172 18.585H123.813ZM145.161 18.8194C144.073 18.8194 143.123 18.5698 142.311 18.0708C141.499 17.5718 140.869 16.8737 140.421 15.9764C139.972 15.0792 139.748 14.0307 139.748 12.831C139.748 11.6263 139.972 10.5728 140.421 9.67052C140.869 8.76824 141.499 8.06759 142.311 7.56856C143.123 7.06953 144.073 6.82002 145.161 6.82002C146.25 6.82002 147.2 7.06953 148.012 7.56856C148.824 8.06759 149.454 8.76824 149.902 9.67052C150.351 10.5728 150.575 11.6263 150.575 12.831C150.575 14.0307 150.351 15.0792 149.902 15.9764C149.454 16.8737 148.824 17.5718 148.012 18.0708C147.2 18.5698 146.25 18.8194 145.161 18.8194ZM145.169 16.9215C145.875 16.9215 146.459 16.735 146.923 16.362C147.387 15.989 147.73 15.4925 147.951 14.8725C148.178 14.2525 148.292 13.5695 148.292 12.8235C148.292 12.0825 148.178 11.402 147.951 10.782C147.73 10.1569 147.387 9.6554 146.923 9.27735C146.459 8.8993 145.875 8.71027 145.169 8.71027C144.458 8.71027 143.869 8.8993 143.4 9.27735C142.936 9.6554 142.591 10.1569 142.364 10.782C142.142 11.402 142.031 12.0825 142.031 12.8235C142.031 13.5695 142.142 14.2525 142.364 14.8725C142.591 15.4925 142.936 15.989 143.4 16.362C143.869 16.735 144.458 16.9215 145.169 16.9215ZM153.099 18.585V6.97124H155.284V8.81613H155.405C155.616 8.19108 155.989 7.69962 156.524 7.34173C157.063 6.9788 157.673 6.79734 158.354 6.79734C158.495 6.79734 158.661 6.80238 158.853 6.81246C159.049 6.82254 159.203 6.83514 159.314 6.85026V9.01271C159.223 8.98751 159.062 8.95979 158.83 8.92954C158.598 8.89426 158.366 8.87662 158.134 8.87662C157.6 8.87662 157.124 8.99003 156.705 9.21686C156.292 9.43865 155.964 9.74865 155.722 10.1469C155.48 10.54 155.359 10.9887 155.359 11.4927V18.585H153.099ZM163.531 3.1V18.585H161.27V3.1H163.531ZM170.92 18.8118C169.982 18.8118 169.146 18.5724 168.41 18.0935C167.679 17.6096 167.104 16.9215 166.686 16.0293C166.272 15.1321 166.066 14.0559 166.066 12.8008C166.066 11.5457 166.275 10.472 166.693 9.57979C167.117 8.68759 167.696 8.00458 168.432 7.53076C169.168 7.05693 170.003 6.82002 170.935 6.82002C171.656 6.82002 172.236 6.941 172.674 7.18295C173.118 7.41986 173.46 7.6971 173.702 8.01466C173.949 8.33222 174.141 8.61198 174.277 8.85393H174.413V3.1H176.674V18.585H174.466V16.7779H174.277C174.141 17.0249 173.944 17.3071 173.687 17.6247C173.435 17.9423 173.087 18.2195 172.644 18.4564C172.2 18.6933 171.626 18.8118 170.92 18.8118ZM171.419 16.8837C172.069 16.8837 172.619 16.7123 173.067 16.3696C173.521 16.0218 173.864 15.5404 174.096 14.9254C174.333 14.3105 174.451 13.5947 174.451 12.7781C174.451 11.9716 174.335 11.2659 174.103 10.661C173.871 10.0561 173.531 9.58483 173.082 9.24711C172.634 8.90938 172.079 8.74052 171.419 8.74052C170.739 8.74052 170.171 8.91694 169.718 9.26979C169.264 9.62264 168.921 10.104 168.689 10.7139C168.463 11.3239 168.349 12.0119 168.349 12.7781C168.349 13.5544 168.465 14.2525 168.697 14.8725C168.929 15.4925 169.272 15.984 169.725 16.3469C170.184 16.7048 170.749 16.8837 171.419 16.8837ZM61.3514 36.0142L52.6562 27.319L54.0853 25.89L62.7804 34.5852L61.3514 36.0142ZM54.0853 36.0142L52.6562 34.5852L61.3514 25.89L62.7804 27.319L54.0853 36.0142ZM77.1596 38.585H72.1466V23.1H77.3184C78.8356 23.1 80.1386 23.41 81.2274 24.03C82.3162 24.645 83.1504 25.5296 83.7301 26.6839C84.3148 27.8332 84.6072 29.2118 84.6072 30.8198C84.6072 32.4328 84.3123 33.819 83.7226 34.9784C83.1378 36.1377 82.291 37.0299 81.1821 37.655C80.0731 38.275 78.7323 38.585 77.1596 38.585ZM74.483 36.5435H77.0311C78.2106 36.5435 79.191 36.3217 79.9723 35.8781C80.7536 35.4295 81.3383 34.7818 81.7265 33.9349C82.1146 33.0831 82.3086 32.0447 82.3086 30.8198C82.3086 29.605 82.1146 28.5742 81.7265 27.7273C81.3434 26.8805 80.7712 26.2378 80.0101 25.7993C79.249 25.3607 78.3038 25.1415 77.1747 25.1415H74.483V36.5435ZM92.3364 38.8194C91.1922 38.8194 90.2068 38.5749 89.3801 38.0859C88.5585 37.5919 87.9233 36.8989 87.4747 36.0067C87.0311 35.1094 86.8093 34.0584 86.8093 32.8537C86.8093 31.6641 87.0311 30.6156 87.4747 29.7083C87.9233 28.801 88.5484 28.0928 89.3498 27.5837C90.1564 27.0746 91.099 26.82 92.1777 26.82C92.833 26.82 93.4681 26.9284 94.083 27.1451C94.698 27.3619 95.25 27.7021 95.7389 28.1659C96.2279 28.6296 96.6135 29.232 96.8957 29.973C97.178 30.7089 97.3192 31.6036 97.3192 32.6571V33.4586H88.0872V31.7649H95.1038C95.1038 31.1701 94.9828 30.6434 94.7409 30.1847C94.4989 29.7209 94.1587 29.3555 93.7201 29.0883C93.2866 28.8212 92.7775 28.6876 92.1928 28.6876C91.5577 28.6876 91.0032 28.8439 90.5294 29.1564C90.0606 29.4639 89.6977 29.8671 89.4406 30.3661C89.1885 30.8601 89.0625 31.397 89.0625 31.9766V33.2998C89.0625 34.0761 89.1986 34.7364 89.4708 35.2808C89.7481 35.8252 90.1337 36.241 90.6277 36.5284C91.1216 36.8106 91.6988 36.9518 92.3591 36.9518C92.7876 36.9518 93.1782 36.8913 93.5311 36.7703C93.8839 36.6443 94.1889 36.4578 94.446 36.2108C94.703 35.9638 94.8996 35.6588 95.0357 35.2959L97.1755 35.6815C97.0041 36.3116 96.6966 36.8636 96.2531 37.3374C95.8145 37.8062 95.2626 38.1716 94.5972 38.4337C93.9369 38.6908 93.1833 38.8194 92.3364 38.8194ZM108.53 29.8066L106.481 30.1695C106.396 29.9074 106.259 29.6579 106.073 29.421C105.891 29.1841 105.644 28.99 105.332 28.8388C105.019 28.6876 104.629 28.612 104.16 28.612C103.52 28.612 102.986 28.7556 102.557 29.043C102.129 29.3252 101.914 29.6907 101.914 30.1393C101.914 30.5274 102.058 30.84 102.345 31.0769C102.633 31.3138 103.096 31.5079 103.737 31.6591L105.581 32.0825C106.65 32.3295 107.447 32.7101 107.971 33.2242C108.495 33.7383 108.757 34.4062 108.757 35.2279C108.757 35.9235 108.555 36.5435 108.152 37.0879C107.754 37.6272 107.197 38.0506 106.481 38.3581C105.77 38.6656 104.946 38.8194 104.009 38.8194C102.708 38.8194 101.647 38.5421 100.826 37.9876C100.004 37.4281 99.4999 36.6342 99.3134 35.6059L101.499 35.2732C101.635 35.8428 101.914 36.2738 102.338 36.5662C102.761 36.8535 103.313 36.9971 103.994 36.9971C104.735 36.9971 105.327 36.8434 105.77 36.5359C106.214 36.2234 106.436 35.8428 106.436 35.3942C106.436 35.0313 106.3 34.7263 106.028 34.4793C105.76 34.2323 105.35 34.0458 104.795 33.9198L102.829 33.4888C101.746 33.2418 100.944 32.8487 100.425 32.3093C99.9107 31.77 99.6536 31.087 99.6536 30.2603C99.6536 29.5748 99.8452 28.9749 100.228 28.4608C100.611 27.9466 101.141 27.5459 101.816 27.2586C102.492 26.9662 103.265 26.82 104.137 26.82C105.392 26.82 106.38 27.0922 107.101 27.6366C107.822 28.176 108.298 28.8993 108.53 29.8066ZM111.243 38.585V26.9712H113.504V38.585H111.243ZM112.384 25.1793C111.991 25.1793 111.654 25.0482 111.371 24.7861C111.094 24.519 110.955 24.2014 110.955 23.8334C110.955 23.4604 111.094 23.1428 111.371 22.8807C111.654 22.6136 111.991 22.48 112.384 22.48C112.778 22.48 113.113 22.6136 113.39 22.8807C113.672 23.1428 113.814 23.4604 113.814 23.8334C113.814 24.2014 113.672 24.519 113.39 24.7861C113.113 25.0482 112.778 25.1793 112.384 25.1793ZM121.414 43.1821C120.492 43.1821 119.698 43.0611 119.033 42.8191C118.372 42.5772 117.833 42.2571 117.414 41.8589C116.996 41.4607 116.684 41.0246 116.477 40.5508L118.42 39.7494C118.556 39.9711 118.738 40.2055 118.964 40.4525C119.196 40.7046 119.509 40.9188 119.902 41.0952C120.3 41.2716 120.812 41.3599 121.437 41.3599C122.294 41.3599 123.002 41.1507 123.562 40.7323C124.121 40.319 124.401 39.6586 124.401 38.7513V36.4679H124.257C124.121 36.7149 123.924 36.9896 123.667 37.292C123.415 37.5945 123.068 37.8566 122.624 38.0784C122.18 38.3002 121.603 38.4111 120.893 38.4111C119.975 38.4111 119.148 38.1968 118.412 37.7684C117.682 37.3349 117.102 36.6972 116.673 35.8554C116.25 35.0086 116.038 33.9677 116.038 32.7327C116.038 31.4978 116.248 30.4392 116.666 29.5571C117.089 28.675 117.669 27.9995 118.405 27.5308C119.141 27.0569 119.975 26.82 120.908 26.82C121.628 26.82 122.211 26.941 122.654 27.1829C123.098 27.4199 123.443 27.6971 123.69 28.0147C123.942 28.3322 124.136 28.612 124.272 28.8539H124.439V26.9712H126.654V38.842C126.654 39.8401 126.422 40.6592 125.958 41.2994C125.495 41.9395 124.867 42.4134 124.076 42.7208C123.289 43.0283 122.402 43.1821 121.414 43.1821ZM121.392 36.5359C122.042 36.5359 122.591 36.3847 123.04 36.0823C123.493 35.7748 123.836 35.3362 124.068 34.7666C124.305 34.192 124.424 33.504 124.424 32.7025C124.424 31.9212 124.308 31.2331 124.076 30.6383C123.844 30.0435 123.504 29.5798 123.055 29.2471C122.606 28.9094 122.052 28.7405 121.392 28.7405C120.711 28.7405 120.144 28.9169 119.69 29.2698C119.237 29.6176 118.894 30.0914 118.662 30.6913C118.435 31.2911 118.322 31.9615 118.322 32.7025C118.322 33.4636 118.438 34.1315 118.67 34.7062C118.901 35.2808 119.244 35.7294 119.698 36.052C120.157 36.3746 120.721 36.5359 121.392 36.5359ZM131.947 31.6893V38.585H129.686V26.9712H131.856V28.8615H132C132.267 28.2465 132.685 27.7525 133.255 27.3795C133.829 27.0065 134.553 26.82 135.425 26.82C136.216 26.82 136.909 26.9864 137.504 27.319C138.099 27.6467 138.56 28.1356 138.888 28.7859C139.215 29.4361 139.379 30.2401 139.379 31.1978V38.585H137.118V31.47C137.118 30.6283 136.899 29.9704 136.461 29.4966C136.022 29.0178 135.42 28.7783 134.654 28.7783C134.129 28.7783 133.663 28.8917 133.255 29.1186C132.852 29.3454 132.531 29.6781 132.295 30.1166C132.063 30.5501 131.947 31.0744 131.947 31.6893Z" fill="#2D2FF5"/>
<defs>
<clipPath id="clip0_649_3">
<rect width="41.0096" height="40.7124" fill="white" transform="translate(0 1)"/>
</clipPath>
</defs>
</svg>
