<svg width="172" height="170" viewBox="0 0 172 170" fill="none" xmlns="http://www.w3.org/2000/svg">
<g clip-path="url(#clip0_157_227)">
<path d="M169.024 65.878L168.643 64.2356L161.594 65.8576L161.985 67.5C165.078 80.7889 164.596 94.6515 160.589 107.697C156.581 120.743 149.188 132.513 139.152 141.827C131.355 149.07 122.145 154.65 112.091 158.22C102.037 161.79 91.3522 163.275 80.6969 162.584C70.0417 161.893 59.6424 159.04 50.1417 154.201C40.641 149.362 32.2408 142.641 25.4601 134.452C27.2636 132.195 28.2421 129.397 28.2353 126.516C28.2285 123.635 27.237 120.842 25.4229 118.593C23.6089 116.345 21.0797 114.774 18.2493 114.138C15.419 113.502 12.4551 113.839 9.8426 115.093C7.23015 116.348 5.1239 118.445 3.86853 121.042C2.61315 123.64 2.28301 126.583 2.93212 129.391C3.58124 132.199 5.17118 134.705 7.44173 136.499C9.71229 138.293 12.529 139.269 15.4309 139.267C16.8291 139.269 18.218 139.042 19.5412 138.593C27.2294 148.007 36.8636 155.673 47.7927 161.072C58.7218 166.472 70.6911 169.479 82.8917 169.891C83.9193 169.891 84.8544 169.891 85.8409 169.891C98.7055 169.882 111.402 166.991 122.985 161.433C134.568 155.876 144.738 147.796 152.738 137.794C160.739 127.793 166.363 116.128 169.191 103.669C172.02 91.2106 171.98 78.2787 169.075 65.8372L169.024 65.878ZM21.0518 126.546C21.0538 127.644 20.7274 128.718 20.114 129.632C19.5005 130.547 18.6276 131.26 17.6057 131.681C16.5838 132.102 15.459 132.213 14.3737 131.999C13.2884 131.785 12.2914 131.257 11.509 130.48C10.7266 129.703 10.194 128.713 9.97861 127.636C9.76324 126.558 9.87481 125.442 10.2992 124.427C10.7236 123.413 11.4416 122.546 12.3625 121.937C13.2833 121.328 14.3655 121.004 15.472 121.006C16.9439 121.02 18.351 121.609 19.388 122.646C20.425 123.683 21.008 125.084 21.0107 126.546H21.0518Z" fill="black"/>
<path d="M140.395 73.427C137.162 59.0094 128.3 46.4542 115.752 38.517C103.205 30.5798 87.9975 27.9092 73.4686 31.0913C65.8935 32.7842 58.7529 36.0143 52.4957 40.5786C50.6045 39.4917 48.4638 38.9051 46.2788 38.875H46.1041C42.7653 38.9484 39.5871 40.3118 37.2452 42.6755C34.9034 45.0391 33.5827 48.2164 33.5639 51.5317C33.5452 54.8471 34.8299 58.0389 37.1449 60.4284C39.4599 62.818 42.6225 64.2168 45.9602 64.3274H46.1041C48.3072 64.3274 50.473 63.7621 52.3912 62.6865C54.3095 61.6108 55.9151 60.0612 57.0524 58.188C58.1897 56.3148 58.82 54.1815 58.8822 51.9953C58.9445 49.809 58.4365 47.6438 57.4075 45.7099C66.6527 39.2818 77.8542 36.2288 89.1096 37.0694C100.365 37.91 110.98 42.5923 119.153 50.3212C127.325 58.0501 132.551 68.349 133.942 79.4689C135.334 90.5888 132.805 101.844 126.786 111.323C120.767 120.802 111.629 127.921 100.923 131.47C90.2166 135.019 78.6032 134.78 68.0547 130.793C57.5061 126.806 48.6728 119.317 43.055 109.598C37.4372 99.8796 35.3811 88.53 37.2361 77.4769L37.5135 75.8141L30.526 74.6307L30.2382 76.2936C28.8747 84.3988 29.3338 92.7031 31.5828 100.612C33.8318 108.52 37.8149 115.837 43.2468 122.037C48.6787 128.238 55.4249 133.169 63.0019 136.477C70.579 139.786 78.7993 141.389 87.0739 141.173C95.3486 140.957 103.473 138.927 110.864 135.227C118.255 131.528 124.731 126.252 129.827 119.776C134.923 113.301 138.513 105.786 140.34 97.7713C142.167 89.7565 142.186 81.4396 140.395 73.4168V73.427ZM50.0295 55.5644C48.9668 56.5866 47.5427 57.1543 46.063 57.1456C44.6419 57.0549 43.3093 56.4292 42.3371 55.3962C41.3649 54.3632 40.8265 53.0008 40.8317 51.5871C40.837 50.1734 41.3855 48.8149 42.3653 47.7891C43.3451 46.7632 44.6824 46.1473 46.1041 46.0669H46.176C47.2808 46.0787 48.3571 46.4158 49.2687 47.0354C50.1803 47.6551 50.886 48.5295 51.2966 49.5478C51.7071 50.566 51.8038 51.6824 51.5746 52.7553C51.3454 53.8282 50.8005 54.8094 50.0089 55.5746L50.0295 55.5644Z" fill="black"/>
<path d="M154.401 28.9387C152.787 28.937 151.19 29.2597 149.705 29.8875C137.285 15.7455 120.462 6.12786 101.908 2.56169C83.3529 -1.00448 64.13 1.68522 47.291 10.2037C30.452 18.7222 16.9621 32.5812 8.96333 49.5801C0.964535 66.5791 -1.0847 85.7437 3.14099 104.031L3.37733 105.051L9.11124 103.704L8.88517 102.684C4.93277 85.6966 6.80575 67.8851 14.2071 52.074C21.6085 36.2629 34.1147 23.3571 49.7429 15.4028C65.371 7.4486 83.2265 4.90118 100.478 8.16448C117.73 11.4278 133.391 20.315 144.978 33.4171C143.213 35.5577 142.25 38.2403 142.255 41.0069C142.255 43.3942 142.968 45.7279 144.305 47.7127C145.641 49.6976 147.54 51.2444 149.762 52.1575C151.984 53.0706 154.428 53.309 156.787 52.8425C159.145 52.376 161.311 51.2256 163.011 49.5368C164.71 47.848 165.867 45.6967 166.335 43.3551C166.803 41.0134 166.561 38.5866 165.639 36.3816C164.718 34.1766 163.158 32.2925 161.158 30.9676C159.157 29.6428 156.806 28.9367 154.401 28.9387ZM154.401 47.2094C153.163 47.2094 151.953 46.8447 150.923 46.1616C149.894 45.4785 149.092 44.5077 148.619 43.3718C148.145 42.236 148.022 40.9864 148.264 39.7809C148.506 38.5755 149.103 37.4686 149.98 36.6001C150.856 35.7317 151.972 35.1408 153.187 34.9022C154.401 34.6637 155.66 34.7882 156.803 35.2599C157.946 35.7317 158.923 36.5296 159.609 37.5526C160.296 38.5756 160.661 39.7778 160.659 41.0069C160.656 42.6529 159.996 44.2304 158.823 45.3933C157.649 46.5562 156.059 47.2094 154.401 47.2094Z" fill="black"/>
<path d="M2.87323 105.816L2.49303 104.184C0.831274 96.9848 0.119702 89.6017 0.376212 82.2204C0.947592 65.2362 6.64694 48.8143 16.7349 35.0852C26.8229 21.356 40.8339 10.9533 56.9504 5.22636C73.0668 -0.500529 90.5449 -1.28722 107.117 2.9683C123.69 7.22383 138.591 16.3252 149.889 29.0917C152.447 28.1368 155.245 28.0184 157.875 28.7539C160.505 29.4894 162.829 31.0403 164.509 33.1801C166.188 35.3199 167.134 37.9366 167.21 40.6481C167.285 43.3597 166.485 46.0242 164.927 48.2525C163.369 50.4808 161.134 52.1564 158.549 53.0345C155.963 53.9127 153.163 53.9474 150.557 53.1337C147.95 52.32 145.674 50.7004 144.06 48.5114C142.446 46.3224 141.58 43.6787 141.587 40.9661C141.593 38.2413 142.475 35.5896 144.104 33.3967C137.105 25.5245 128.554 19.1607 118.98 14.6987C109.406 10.2367 99.0119 7.77124 88.44 7.45462C76.4566 7.05848 64.5417 9.40039 53.6144 14.2997C42.6871 19.199 33.0395 26.5248 25.4157 35.7118C17.792 44.8989 12.3959 55.7018 9.64371 67.2871C6.89152 78.8724 6.85681 90.9306 9.54224 102.531L9.92244 104.164L2.87323 105.816ZM85.6964 1.59905C63.9088 1.65646 42.9905 10.0898 27.3316 25.1294C11.6727 40.1689 2.49051 60.6452 1.71207 82.2612C1.45 89.5248 2.14085 96.7913 3.76724 103.878L3.84945 104.225L8.28859 103.205L8.20638 102.858C5.52683 91.2801 5.5105 79.2516 8.15859 67.6668C10.8067 56.082 16.0511 45.2387 23.5019 35.9432C30.9527 26.6477 40.4182 19.139 51.1948 13.9755C61.9713 8.81193 73.7817 6.12629 85.7477 6.11825C86.6417 6.11825 87.546 6.11825 88.4503 6.11825C99.298 6.44515 109.96 8.99549 119.768 13.6091C129.575 18.2227 138.316 24.7999 145.44 32.9274L145.82 33.3457L145.461 33.7843C143.826 35.7939 142.929 38.2953 142.916 40.8779C142.903 43.4605 143.775 45.9708 145.388 47.9966C147.002 50.0225 149.261 51.4435 151.795 52.0264C154.33 52.6093 156.988 52.3195 159.335 51.2044C161.681 50.0894 163.576 48.2154 164.709 45.8902C165.841 43.565 166.143 40.9267 165.565 38.4085C164.988 35.8903 163.565 33.6418 161.531 32.0322C159.496 30.4227 156.971 29.5476 154.37 29.5508C152.844 29.551 151.335 29.8563 149.931 30.4485L149.489 30.6321L149.17 30.2649C141.592 21.6247 132.307 14.6221 121.89 9.69109C111.473 4.76008 100.148 2.00582 88.6147 1.59905C87.659 1.61946 86.6726 1.59905 85.6964 1.59905ZM154.401 47.8724C153.03 47.8724 151.691 47.4689 150.552 46.7129C149.412 45.957 148.525 44.8825 148.001 43.6256C147.477 42.3686 147.34 40.9856 147.608 39.6516C147.877 38.3175 148.537 37.0924 149.507 36.1312C150.476 35.17 151.712 34.516 153.056 34.2519C154.4 33.9877 155.793 34.1253 157.058 34.6473C158.323 35.1693 159.404 36.0521 160.164 37.1842C160.924 38.3162 161.328 39.6466 161.326 41.0069C161.324 42.8287 160.593 44.5749 159.294 45.8622C157.996 47.1494 156.236 47.8724 154.401 47.8724ZM154.401 35.4574C153.295 35.4574 152.214 35.7828 151.295 36.3926C150.376 37.0024 149.659 37.8691 149.236 38.8832C148.813 39.8972 148.702 41.0131 148.918 42.0896C149.134 43.1661 149.666 44.1549 150.448 44.931C151.23 45.7071 152.226 46.2357 153.31 46.4498C154.394 46.6639 155.518 46.554 156.54 46.134C157.561 45.714 158.434 45.0027 159.048 44.0901C159.663 43.1774 159.991 42.1045 159.991 41.0069C159.991 39.5351 159.402 38.1235 158.353 37.0828C157.305 36.042 155.883 35.4574 154.401 35.4574Z" fill="black"/>
<mask id="mask0_157_227" style="mask-type:alpha" maskUnits="userSpaceOnUse" x="72" y="79" width="27" height="27">
<circle cx="85.1539" cy="92.5328" r="9.90708" stroke="black" stroke-width="6.19193"/>
</mask>
<g mask="url(#mask0_157_227)">
<rect x="70.9126" y="91.9136" width="28.4829" height="14.8606" fill="black"/>
</g>
<circle cx="58.5292" cy="82.0064" r="7.43031" fill="black"/>
<circle cx="110.541" cy="83.2448" r="7.43031" fill="black"/>
</g>
<defs>
<clipPath id="clip0_157_227">
<rect width="170.897" height="169.659" fill="white" transform="translate(0.325195 0.272949)"/>
</clipPath>
</defs>
</svg>
